<svg xmlns="http://www.w3.org/2000/svg" viewBox="0 0 48 48">
  <title>connection-arw</title>
  <g id="connection-arw">
    <g>
      <path d="M11,13a5,5,0,1,1,5-5A5.006,5.006,0,0,1,11,13Zm0-8a3,3,0,1,0,3,3A3,3,0,0,0,11,5Z"/>
      <path d="M28,42H22.8A12.81,12.81,0,0,1,10,29.2V13a1,1,0,0,1,2,0V29.2A10.808,10.808,0,0,0,22.8,40H28a1,1,0,0,1,0,2Z"/>
      <path d="M22,48a1,1,0,0,1-.647-1.763L27.526,41l-6.173-5.237a1,1,0,1,1,1.294-1.525l7.071,6a1,1,0,0,1,0,1.525l-7.071,6A1,1,0,0,1,22,48Z"/>
      <path d="M37.071,46a5,5,0,1,1,5-5A5.006,5.006,0,0,1,37.071,46Zm0-8a3,3,0,1,0,3,3A3,3,0,0,0,37.071,38Z"/>
      <path d="M37.071,37a1,1,0,0,1-1-1V19.8A10.808,10.808,0,0,0,25.275,9h-5.2a1,1,0,0,1,0-2h5.2a12.81,12.81,0,0,1,12.8,12.8V36A1,1,0,0,1,37.071,37Z"/>
      <path d="M26.071,15a1,1,0,0,1-.646-.237l-7.071-6a1,1,0,0,1,0-1.525l7.071-6a1,1,0,1,1,1.294,1.525L20.545,8l6.173,5.237A1,1,0,0,1,26.071,15Z"/>
    </g>
  </g>
</svg>
