<svg xmlns="http://www.w3.org/2000/svg" viewBox="0 0 48 48">
  <title>connection-arw-r</title>
  <g id="connection-arw-r">
    <g>
      <path d="M11,13a5,5,0,1,1,5-5A5.006,5.006,0,0,1,11,13Zm0-8a3,3,0,1,0,3,3A3,3,0,0,0,11,5Z"/>
      <path d="M28,42H22.8A12.81,12.81,0,0,1,10,29.2V13a1,1,0,0,1,2,0V29.2A10.808,10.808,0,0,0,22.8,40H28a1,1,0,0,1,0,2Z"/>
      <path d="M22,48a1,1,0,0,1-.648-1.763L27.525,41l-6.173-5.237a1,1,0,1,1,1.295-1.525l7.071,6a1,1,0,0,1,0,1.525l-7.071,6A1,1,0,0,1,22,48Z"/>
      <path d="M37.071,46a5,5,0,1,1,5-5A5.006,5.006,0,0,1,37.071,46Zm0-8a3,3,0,1,0,3,3A3,3,0,0,0,37.071,38Z"/>
      <path d="M38.071,36h-2V32h2Zm0-8h-2V24h2Zm0-8h-2v-.2a10.788,10.788,0,0,0-.551-3.414l1.9-.633a12.754,12.754,0,0,1,.654,4.047ZM33.8,13.172a10.816,10.816,0,0,0-2.689-2.459l1.082-1.682a12.809,12.809,0,0,1,3.186,2.912ZM27.76,9.287A10.852,10.852,0,0,0,25.275,9H24.015V7h1.261a12.87,12.87,0,0,1,2.943.34Z"/>
      <path d="M26.071,15a1,1,0,0,1-.647-.237l-7.071-6a1,1,0,0,1,0-1.525l7.071-6a1,1,0,1,1,1.295,1.525L20.546,8l6.173,5.237A1,1,0,0,1,26.071,15Z"/>
    </g>
  </g>
</svg>
