<svg xmlns="http://www.w3.org/2000/svg" viewBox="0 0 48 48">
  <title>close-arrows</title>
  <g id="close-arrows">
    <g>
      <path d="M6,21H42a1,1,0,0,0,0-2H25.474l7.693-7.693a1,1,0,0,0-1.414-1.414L25,16.646V1a1,1,0,0,0-2,0V16.526L16.367,9.893a1,1,0,0,0-1.414,1.414L22.646,19H6a1,1,0,0,0,0,2Z"/>
      <path d="M42,27H6a1,1,0,0,0,0,2H21.646l-6.693,6.693a1,1,0,0,0,1.414,1.414L23,30.474V46a1,1,0,0,0,2,0V30.354l6.753,6.753a1,1,0,0,0,1.414-1.414L26.474,29H42a1,1,0,0,0,0-2Z"/>
    </g>
  </g>
</svg>
