<svg id="Layer_1" data-name="Layer 1" xmlns="http://www.w3.org/2000/svg" viewBox="0 0 48 48">
  <title>left-crose-arrow-1</title>
  <path d="M41.707,28.293a1,1,0,0,0-1.414,1.414L43.586,33h-1.3A18.877,18.877,0,0,1,28.85,27.436L25.414,24l3.436-3.436A18.877,18.877,0,0,1,42.284,15h1.3l-3.293,3.293a1,1,0,1,0,1.414,1.414l5-5a1,1,0,0,0,0-1.414l-5-5a1,1,0,0,0-1.414,1.414L43.586,13h-1.3a20.862,20.862,0,0,0-14.849,6.15L24,22.586,20.564,19.15A20.862,20.862,0,0,0,5.716,13H2a1,1,0,0,0,0,2H5.716A18.877,18.877,0,0,1,19.15,20.564L22.586,24,19.15,27.436A18.877,18.877,0,0,1,5.716,33H2a1,1,0,0,0,0,2H5.716a20.862,20.862,0,0,0,14.849-6.15L24,25.414l3.436,3.436A20.862,20.862,0,0,0,42.284,35h1.3l-3.293,3.293a1,1,0,1,0,1.414,1.414l5-5a1,1,0,0,0,0-1.414Z"/>
</svg>
