<svg xmlns="http://www.w3.org/2000/svg" viewBox="0 0 48 48">
  <title>sr-arw-half</title>
  <g id="left-move-2">
    <g>
      <path d="M5,19.548c0,.018,0,.035,0,.053v.1c0,.018,0,.036,0,.054a8.45,8.45,0,0,0,7.837,8.211A.947.947,0,0,0,13,28h1a1,1,0,0,0,0-2h-.5A6.382,6.382,0,0,1,7,19.652,6.692,6.692,0,0,1,13.5,13H40.586l-5.293,5.293a1,1,0,1,0,1.414,1.414l7-7a1,1,0,0,0-.021-1.435l-6.9-6.5A1,1,0,1,0,35.41,6.228L40.479,11H13.5A8.717,8.717,0,0,0,5,19.548Z"/>
      <path d="M33.742,43h.789c.081,0,.161,0,.241,0a1,1,0,0,0,.97-1.03A1.034,1.034,0,0,0,34.712,41l-.97,0a1,1,0,0,0,0,2Z"/>
      <path d="M35,27a1,1,0,0,0-1-1H33a1,1,0,0,0,0,2h1A1,1,0,0,0,35,27Z"/>
      <path d="M40.669,32.628a1,1,0,0,0,.952.693.986.986,0,0,0,.307-.049,1,1,0,0,0,.646-1.259,8.61,8.61,0,0,0-.418-1.05,1,1,0,0,0-1.807.859A6.518,6.518,0,0,1,40.669,32.628Z"/>
      <path d="M38.529,41.858a.991.991,0,0,0,.528-.152,8.415,8.415,0,0,0,.918-.662A1,1,0,1,0,38.7,39.5a6.519,6.519,0,0,1-.7.506,1,1,0,0,0,.53,1.848Z"/>
      <path d="M41.27,37.978a1,1,0,0,0,1.271-.62,8.5,8.5,0,0,0,.3-1.092,1,1,0,1,0-1.961-.395,6.576,6.576,0,0,1-.227.835A1,1,0,0,0,41.27,37.978Z"/>
      <path d="M38.713,29.358a1,1,0,0,0,.579-1.816,8.641,8.641,0,0,0-.963-.592,1,1,0,1,0-.932,1.77,6.564,6.564,0,0,1,.738.454A.994.994,0,0,0,38.713,29.358Z"/>
      <path d="M20,27a1,1,0,0,0-1-1H18a1,1,0,0,0,0,2h1A1,1,0,0,0,20,27Z"/>
      <path d="M23.742,43h1a1,1,0,0,0,0-2h-1a1,1,0,0,0,0,2Z"/>
      <path d="M18.742,43h1a1,1,0,0,0,0-2h-1a1,1,0,0,0,0,2Z"/>
      <path d="M25,27a1,1,0,0,0-1-1H23a1,1,0,0,0,0,2h1A1,1,0,0,0,25,27Z"/>
      <path d="M30,27a1,1,0,0,0-1-1H28a1,1,0,0,0,0,2h1A1,1,0,0,0,30,27Z"/>
      <path d="M8.742,41a1,1,0,0,0,0,2h1a1,1,0,0,0,0-2Z"/>
      <path d="M28.742,43h1a1,1,0,0,0,0-2h-1a1,1,0,0,0,0,2Z"/>
      <path d="M13.742,41a1,1,0,0,0,0,2h1a1,1,0,0,0,0-2Z"/>
    </g>
  </g>
</svg>
