<svg xmlns="http://www.w3.org/2000/svg" viewBox="0 0 48 48">
  <title>s-arw-h-hide</title>
  <g id="left-move-2">
    <path d="M38.8,5.1a1,1,0,0,0-1.414,0l-6.548,6.548a1,1,0,1,0,1.414,1.414L37,8.318V34.952A5.962,5.962,0,0,1,30.726,41h-.112C26.843,41,24,38.4,24,34.952v-21C24,9.1,20.211,5,15.726,5h-.112C11.024,5,7,9.183,7,13.952V39.49L2.351,34.841A1,1,0,1,0,.937,36.255l6.158,6.158a.988.988,0,0,0,1.633.265c.008-.008.02-.01.028-.018l6.4-6.4a1,1,0,0,0-1.414-1.414L9,39.586V13.952A6.967,6.967,0,0,1,15.613,7h.112C19.127,7,22,10.184,22,13.952v21C22,39.465,25.783,43,30.613,43h.112A7.9,7.9,0,0,0,39,34.952V8.126l4.937,4.937a1,1,0,0,0,1.414-1.414Z"/>
  </g>
</svg>
