<svg xmlns="http://www.w3.org/2000/svg" viewBox="0 0 48 48">
  <title>s-arw-v</title>
  <g id="left-move-2">
    <g>
      <path d="M23.452,15.776a1,1,0,0,0,1-1l0-1.048a1,1,0,0,0-2,.061l0,.987A1,1,0,0,0,23.452,15.776Z"/>
      <path d="M28.862,41.109A1,1,0,0,0,28.216,43a8.366,8.366,0,0,0,1.115.3,1.014,1.014,0,0,0,.19.018,1,1,0,0,0,.188-1.982A6.367,6.367,0,0,1,28.862,41.109Z"/>
      <path d="M7.452,31.271a1,1,0,1,0,2,0V30.254a1,1,0,0,0-2,0Z"/>
      <path d="M7.452,36.358a1,1,0,0,0,2,0V35.341a1,1,0,0,0-2,0Z"/>
      <path d="M33.526,43a.993.993,0,0,0,.345-.062,8.545,8.545,0,0,0,1.052-.468,1,1,0,1,0-.936-1.768,6.635,6.635,0,0,1-.806.359A1,1,0,0,0,33.526,43Z"/>
      <path d="M7.452,26.185a1,1,0,0,0,2,0V25.167a1,1,0,0,0-2,0Z"/>
      <path d="M7.452,21.1a1,1,0,0,0,2,0V20.08a1,1,0,0,0-2,0Z"/>
      <path d="M37.452,18.674a1,1,0,0,0,2,0V17.656a1,1,0,0,0-2,0Z"/>
      <path d="M36.923,37.525a6.243,6.243,0,0,1-.4.78,1,1,0,0,0,1.709,1.039,8.332,8.332,0,0,0,.53-1.028,1,1,0,0,0-1.838-.791Z"/>
      <path d="M7.452,14.993v1.018a1,1,0,0,0,2,0V14.993a1,1,0,0,0-2,0Z"/>
      <path d="M37.452,33.935a1,1,0,0,0,2,0V32.917a1,1,0,0,0-2,0Z"/>
      <path d="M37.452,23.761a1,1,0,1,0,2,0V22.743a1,1,0,1,0-2,0Z"/>
      <path d="M37.452,28.848a1,1,0,0,0,2,0V27.83a1,1,0,1,0-2,0Z"/>
      <path d="M38.452,14.587a1,1,0,0,0,1-1V12.569a1,1,0,0,0-2,0v1.018A1,1,0,0,0,38.452,14.587Z"/>
      <path d="M23.454,36.124h.017a1,1,0,0,0,.983-1.017l0-1a1,1,0,0,0-2,0l0,1.035A1,1,0,0,0,23.454,36.124Z"/>
      <path d="M23.116,9.375a8.646,8.646,0,0,0-.684-.924,1,1,0,1,0-1.525,1.294,6.581,6.581,0,0,1,.525.71,1,1,0,1,0,1.684-1.08Z"/>
      <path d="M17.549,5.6a1,1,0,0,0-.375,1.965,6.5,6.5,0,0,1,.852.223,1,1,0,1,0,.637-1.9A8.563,8.563,0,0,0,17.549,5.6Z"/>
      <path d="M24.456,40.435a1,1,0,1,0,1.525-1.293,6.494,6.494,0,0,1-.52-.707,1,1,0,0,0-1.689,1.07A8.332,8.332,0,0,0,24.456,40.435Z"/>
      <path d="M8.658,9.586a8.47,8.47,0,0,0-.523,1.025,1,1,0,1,0,1.838.787,6.6,6.6,0,0,1,.4-.783A1,1,0,0,0,8.658,9.586Z"/>
      <path d="M24.452,23.932a1,1,0,0,0-2,0V24.95a1,1,0,0,0,2,0Z"/>
      <path d="M13.008,5.977a8.306,8.306,0,0,0-1.054.473A1,1,0,0,0,12.9,8.212a6.413,6.413,0,0,1,.8-.36,1,1,0,1,0-.691-1.876Z"/>
      <path d="M23.452,28.019a1,1,0,0,0-1,1v1.018a1,1,0,0,0,2,0V29.019A1,1,0,0,0,23.452,28.019Z"/>
      <path d="M24.452,18.845a1,1,0,0,0-2,0v1.018a1,1,0,0,0,2,0Z"/>
      <path d="M39.159,4.745a1,1,0,0,0-1.414,0l-6.9,6.9a1,1,0,1,0,1.414,1.414l5.231-5.231A.948.948,0,0,0,37.452,8v.5a1,1,0,0,0,2,0V8a.948.948,0,0,0-.034-.168l5.231,5.231a1,1,0,0,0,1.414-1.414ZM38.452,7a.947.947,0,0,0-.168.034l.168-.168.168.168A.947.947,0,0,0,38.452,7Z"/>
      <path d="M8.548,43.452a1,1,0,0,0,.707-.293l6.9-6.9a1,1,0,0,0-1.414-1.414L9.391,40.2a.981.981,0,0,0-1.824-.138L2.351,34.841A1,1,0,1,0,.937,36.255l6.9,6.9A1,1,0,0,0,8.548,43.452Z"/>
    </g>
  </g>
</svg>
