<svg xmlns="http://www.w3.org/2000/svg" viewBox="0 0 48 48">
  <title>clock-direction</title>
  <g id="left-move-2">
    <g>
      <path d="M41.673,28.1q.032-.525.032-1.059a1,1,0,0,0-2,0q0,.472-.028.938a1,1,0,0,0,.938,1.059l.062,0A1,1,0,0,0,41.673,28.1Z"/>
      <path d="M33.584,39.13q-.376.278-.771.531A1,1,0,1,0,33.9,41.344q.448-.288.875-.6a1,1,0,1,0-1.186-1.611Z"/>
      <path d="M39.231,33.831a1,1,0,0,0,1.3-.564q.193-.493.358-1a1,1,0,0,0-1.9-.615q-.145.449-.316.884A1,1,0,0,0,39.231,33.831Z"/>
      <path d="M36.872,35.815q-.275.38-.572.742a1,1,0,0,0,1.544,1.271q.338-.411.649-.842a1,1,0,1,0-1.621-1.171Z"/>
      <path d="M29.441,41.277q-.442.147-.9.267a1,1,0,1,0,.508,1.935q.517-.135,1.021-.3a1,1,0,0,0-.633-1.9Z"/>
      <path d="M19.736,18.191a1,1,0,0,0,1.414,0l6.262-6.262a1,1,0,0,0,0-1.414L21.15,4.253a1,1,0,0,0-1.414,1.414l4.4,4.4a16.99,16.99,0,0,0,.567,33.971h.151a1,1,0,0,0,.99-1.01,1.034,1.034,0,0,0-1.01-.99h-.131a14.995,14.995,0,0,1-.244-29.988l-4.725,4.725A1,1,0,0,0,19.736,18.191Z"/>
    </g>
  </g>
</svg>
