<svg xmlns="http://www.w3.org/2000/svg" viewBox="0 0 48 48">
  <title>clock-arw</title>
  <g id="clock-arw">
    <path d="M21.524,42.523A18.523,18.523,0,1,1,40,23a1,1,0,1,1-2,.107,16.506,16.506,0,1,0-1.791,8.438,1,1,0,1,1,1.779.914A18.448,18.448,0,0,1,21.524,42.523Z"/>
    <path d="M38.525,25a1,1,0,0,1-.668-.256L32.5,19.925a1,1,0,0,1,1.337-1.488l4.668,4.2,4.33-4.173A1,1,0,1,1,44.219,19.9l-5,4.819A1,1,0,0,1,38.525,25Z"/>
    <path d="M23,26H12a1,1,0,0,1,0-2H22V14a1,1,0,0,1,2,0V25A1,1,0,0,1,23,26Z"/>
  </g>
</svg>
