<svg xmlns="http://www.w3.org/2000/svg" viewBox="0 0 48 48">
  <title>anti-clock-arw</title>
  <g id="anti-clock-arw">
    <path d="M24,42.523A18.448,18.448,0,0,1,7.536,32.459a1,1,0,1,1,1.779-.914,16.535,16.535,0,1,0-1.791-8.438,1,1,0,1,1-2-.107A18.513,18.513,0,1,1,24,42.523Z"/>
    <path d="M7,25a1,1,0,0,1-.694-.28l-5-4.819a1,1,0,1,1,1.388-1.439l4.33,4.173,4.668-4.2a1,1,0,0,1,1.337,1.488L7.668,24.744A1,1,0,0,1,7,25Z"/>
    <path d="M34,26H23a1,1,0,0,1-1-1V14a1,1,0,0,1,2,0V24H34a1,1,0,0,1,0,2Z"/>
  </g>
</svg>
