<svg xmlns="http://www.w3.org/2000/svg" viewBox="0 0 48 48">
  <title>anti-direction</title>
  <g id="left-move-2">
    <g>
      <path d="M9.566,37.828a1,1,0,1,0,1.544-1.271q-.3-.361-.572-.742a1,1,0,1,0-1.621,1.171Q9.228,37.417,9.566,37.828Z"/>
      <path d="M13.826,39.13a1,1,0,1,0-1.186,1.611q.428.314.875.6A1,1,0,0,0,14.6,39.661Q14.2,39.408,13.826,39.13Z"/>
      <path d="M7.733,27.978q-.028-.465-.028-.938a1,1,0,1,0-2,0q0,.534.032,1.059a1,1,0,0,0,1,.939l.062,0A1,1,0,0,0,7.733,27.978Z"/>
      <path d="M17.969,41.277a1,1,0,1,0-.633,1.9q.5.168,1.021.3a1,1,0,1,0,.508-1.935Q18.411,41.425,17.969,41.277Z"/>
      <path d="M6.882,33.267a1,1,0,1,0,1.861-.732q-.171-.434-.316-.884a1,1,0,0,0-1.9.615Q6.688,32.773,6.882,33.267Z"/>
      <path d="M22.705,42.04h-.131a.979.979,0,0,0-1.01.99,1,1,0,0,0,.99,1.01h.151a16.99,16.99,0,0,0,.567-33.971l4.4-4.4A1,1,0,0,0,26.26,4.253L20,10.515a1,1,0,0,0,0,1.414l6.262,6.262a1,1,0,0,0,1.414-1.414l-4.725-4.725a14.995,14.995,0,0,1-.244,29.988Z"/>
    </g>
  </g>
</svg>
