<svg xmlns="http://www.w3.org/2000/svg" viewBox="0 0 48 48">
  <title>two-side-arrows</title>
  <g id="two-side_arrows" data-name="two-side arrows">
    <g>
      <path d="M41.707,18.293a1,1,0,0,0-1.414,1.414L43.586,23H6.414l3.293-3.293a1,1,0,0,0-1.414-1.414l-5,5a1,1,0,0,0,0,1.416l5,5a1,1,0,0,0,1.414-1.414L6.414,25H43.586l-3.293,3.293a1,1,0,1,0,1.414,1.414l5-5a1,1,0,0,0,0-1.414Z"/>
      <path d="M41.707,34.293a1,1,0,0,0-1.414,1.414L43.586,39H6.414l3.293-3.293a1,1,0,0,0-1.414-1.414l-5,5a1,1,0,0,0,0,1.416l5,5a1,1,0,0,0,1.414-1.414L6.414,41H43.586l-3.293,3.293a1,1,0,1,0,1.414,1.414l5-5a1,1,0,0,0,0-1.414Z"/>
      <path d="M3.077,8.382a1,1,0,0,0,.217.326l5,5a1,1,0,0,0,1.414-1.414L6.414,9H43.586l-3.293,3.293a1,1,0,1,0,1.414,1.414l5-5a1,1,0,0,0,0-1.414l-5-5a1,1,0,0,0-1.414,1.414L43.586,7H6.414L9.707,3.707A1,1,0,0,0,8.293,2.293l-5,5a1,1,0,0,0-.217,1.09Z"/>
    </g>
  </g>
</svg>
