<svg xmlns="http://www.w3.org/2000/svg" viewBox="0 0 48 48">
  <title>cross-arrow</title>
  <g id="crose-arrow">
    <path d="M3.494,45.506A1,1,0,0,1,2.787,43.8L44.293,2.293a1,1,0,0,1,1.414,1.414L4.2,45.213A1,1,0,0,1,3.494,45.506Z"/>
    <path d="M45,15a1,1,0,0,1-1-1V4H34a1,1,0,0,1,0-2H45a1,1,0,0,1,1,1V14A1,1,0,0,1,45,15Z"/>
    <path d="M14,46H3a1,1,0,0,1-1-1V34a1,1,0,0,1,2,0V44H14a1,1,0,0,1,0,2Z"/>
    <path d="M45,46a1,1,0,0,1-.707-.293L2.787,4.2A1,1,0,0,1,4.2,2.787L45.707,44.293A1,1,0,0,1,45,46Z"/>
    <path d="M45,46H34a1,1,0,0,1,0-2H44V34a1,1,0,0,1,2,0V45A1,1,0,0,1,45,46Z"/>
    <path d="M3,15a1,1,0,0,1-1-1V3A1,1,0,0,1,3,2H14a1,1,0,0,1,0,2H4V14A1,1,0,0,1,3,15Z"/>
  </g>
</svg>
