<svg xmlns="http://www.w3.org/2000/svg" viewBox="0 0 48 48">
  <title>node-left</title>
  <g id="left-move-2">
    <g>
      <path d="M40.412,25.855a1,1,0,0,0-1.206.74q-.107.448-.251.878a1,1,0,1,0,1.9.631q.17-.512.3-1.043A1,1,0,0,0,40.412,25.855Z"/>
      <path d="M40.149,20.884a1,1,0,0,0-.808,1.162q.081.447.123.906a1,1,0,0,0,1,.907q.047,0,.094,0a1,1,0,0,0,.9-1.089q-.051-.543-.146-1.074A1,1,0,0,0,40.149,20.884Z"/>
      <path d="M25.228,13h1a1,1,0,0,0,0-2h-1a1,1,0,1,0,0,2Z"/>
      <path d="M37.243,30.695q-.28.365-.589.7a1,1,0,0,0,1.482,1.344q.362-.4.692-.83a1,1,0,1,0-1.586-1.218Z"/>
      <path d="M36.3,13.591q-.434-.324-.891-.612a1,1,0,0,0-1.064,1.693q.39.244.756.52a1,1,0,1,0,1.2-1.6Z"/>
      <path d="M10.228,11a1,1,0,0,0,0,2h1a1,1,0,0,0,0-2Z"/>
      <path d="M31.427,11.327c-.35-.08-.705-.146-1.063-.2a1,1,0,1,0-.283,1.979q.456.065.9.167a1,1,0,0,0,.445-1.95Z"/>
      <path d="M16.228,11h-1a1,1,0,1,0,0,2h1a1,1,0,0,0,0-2Z"/>
      <path d="M29.43,34.962H29.4a5,5,0,1,0,.014,2c.059,0,.12,0,.178-.007a1,1,0,0,0-.166-1.993ZM24.515,39a3,3,0,1,1,3-3A3,3,0,0,1,24.515,39Z"/>
      <path d="M38.979,19.122a1,1,0,0,0,.87-1.491c-.177-.314-.367-.62-.567-.917a1,1,0,1,0-1.658,1.117q.256.38.483.783A1,1,0,0,0,38.979,19.122Z"/>
      <path d="M33.785,33.657q-.4.22-.818.405a1,1,0,1,0,.809,1.829q.5-.22.973-.48a1,1,0,0,0-.963-1.754Z"/>
      <path d="M20.228,13h1a1,1,0,0,0,0-2h-1a1,1,0,1,0,0,2Z"/>
      <path d="M7.443,12l7.778-7.778a1,1,0,0,0-1.414-1.414L5.384,11.232a.961.961,0,0,0,0,1.537l8.424,8.424a1,1,0,0,0,1.414-1.414Z"/>
    </g>
  </g>
</svg>
