<svg xmlns="http://www.w3.org/2000/svg" viewBox="0 0 48 48">
  <title>extand-arrow</title>
  <g id="extand-arrow">
    <path d="M29.627,19.373a1,1,0,0,1-.707-1.707L44.293,2.293a1,1,0,0,1,1.414,1.414L30.334,19.08A1,1,0,0,1,29.627,19.373Z"/>
    <path d="M3.494,45.506A1,1,0,0,1,2.787,43.8l14.9-14.9A1,1,0,0,1,19.1,30.317L4.2,45.213A1,1,0,0,1,3.494,45.506Z"/>
    <path d="M45,16a1,1,0,0,1-1-1V4H33a1,1,0,0,1,0-2H45a1,1,0,0,1,1,1V15A1,1,0,0,1,45,16Z"/>
    <path d="M15,46H3a1,1,0,0,1-1-1V33a1,1,0,0,1,2,0V44H15a1,1,0,0,1,0,2Z"/>
  </g>
</svg>
