<svg xmlns="http://www.w3.org/2000/svg" viewBox="0 0 48 48">
  <title>s-arw-h</title>
  <g id="left-move-2">
    <g>
      <path d="M21.417,38a1,1,0,0,0,0,2h1a1,1,0,1,0,0-2Z"/>
      <path d="M22.035,23h-1a1,1,0,0,0,0,2h1a1,1,0,0,0,0-2Z"/>
      <path d="M7.2,28.423a1,1,0,0,0,.842-.458,6.234,6.234,0,0,1,.516-.692,1,1,0,1,0-1.518-1.3,8.312,8.312,0,0,0-.68.91,1,1,0,0,0,.84,1.542Z"/>
      <path d="M21.508,8h-1a1,1,0,0,0,0,2h1a1,1,0,0,0,0-2Z"/>
      <path d="M5.007,31.153C5,31.268,5,31.384,5,31.5q0,.4.037.784a1,1,0,0,0,.994.906c.031,0,.063,0,.095,0a1,1,0,0,0,.9-1.09Q7,31.8,7,31.5c0-.091,0-.181,0-.271a1,1,0,1,0-2-.076Z"/>
      <path d="M11.846,23.161a8.541,8.541,0,0,0-1.095.294,1,1,0,1,0,.646,1.893,6.475,6.475,0,0,1,.837-.225,1,1,0,0,0-.389-1.962Z"/>
      <path d="M11.714,37.751a1,1,0,0,0-.551,1.923,8.462,8.462,0,0,0,1.108.238,1.038,1.038,0,0,0,.145.01,1,1,0,0,0,.143-1.99A6.418,6.418,0,0,1,11.714,37.751Z"/>
      <path d="M16.032,23a1,1,0,0,0,0,2h1a1,1,0,0,0,0-2Z"/>
      <path d="M7.329,37.348a1,1,0,1,0,1.455-1.373,6.549,6.549,0,0,1-.555-.668,1,1,0,0,0-1.621,1.171A8.706,8.706,0,0,0,7.329,37.348Z"/>
      <path d="M17.414,38h-1a1,1,0,0,0,0,2h1a1,1,0,0,0,0-2Z"/>
      <path d="M10.5,8a1,1,0,0,0,0,2h1a1,1,0,1,0,0-2Z"/>
      <path d="M16.5,8h-1a1,1,0,1,0,0,2h1a1,1,0,0,0,0-2Z"/>
      <path d="M36.662,22.632a6.448,6.448,0,0,1-.834.232,1,1,0,0,0,.2,1.979,1.032,1.032,0,0,0,.206-.021,8.613,8.613,0,0,0,1.09-.3,1,1,0,1,0-.666-1.886Z"/>
      <path d="M41.343,11.458a8.363,8.363,0,0,0-.732-.867,1,1,0,1,0-1.437,1.391,6.383,6.383,0,0,1,.557.659,1,1,0,0,0,1.613-1.183Z"/>
      <path d="M36.758,8.3a8.424,8.424,0,0,0-1.112-.227,1,1,0,1,0-.267,1.982,6.423,6.423,0,0,1,.846.172A1,1,0,0,0,36.758,8.3Z"/>
      <path d="M37.426,40a1,1,0,0,0,0-2h-1a1,1,0,0,0,0,2Z"/>
      <path d="M41.861,14.742a1,1,0,0,0-.895,1.1A6.457,6.457,0,0,1,41,16.5l0,.2a1,1,0,0,0,.962,1.037H42a1,1,0,0,0,1-.963c0-.091,0-.182,0-.273q0-.437-.043-.863A1,1,0,0,0,41.861,14.742Z"/>
      <path d="M27.038,23h-1a1,1,0,0,0,0,2h1a1,1,0,1,0,0-2Z"/>
      <path d="M39.479,20.68a1,1,0,1,0,1.531,1.285,8.578,8.578,0,0,0,.669-.912,1,1,0,0,0-1.687-1.074A6.717,6.717,0,0,1,39.479,20.68Z"/>
      <path d="M32.041,23h-1a1,1,0,1,0,0,2h1a1,1,0,0,0,0-2Z"/>
      <path d="M31.423,38a1,1,0,1,0,0,2h1a1,1,0,0,0,0-2Z"/>
      <path d="M26.511,8h-1a1,1,0,0,0,0,2h1a1,1,0,1,0,0-2Z"/>
      <path d="M26.42,38a1,1,0,0,0,0,2h1a1,1,0,1,0,0-2Z"/>
      <path d="M31.514,8h-1a1,1,0,0,0,0,2h1a1,1,0,1,0,0-2Z"/>
      <path d="M11.9,16.9a1,1,0,0,0,.707-1.707L7.156,9.742a.972.972,0,0,0,0-1.484L12.611,2.8A1,1,0,0,0,11.2,1.389l-6.9,6.9a1,1,0,0,0,0,1.414l6.9,6.9A1,1,0,0,0,11.9,16.9Z"/>
      <path d="M42.707,38.2l-6.9-6.9a1,1,0,0,0-1.414,1.414l6.142,6.141a.943.943,0,0,0-.028.139L34.389,45.1A1,1,0,1,0,35.8,46.515l6.608-6.608A1,1,0,0,0,43,39c0-.017-.009-.031-.01-.048s.01-.032.01-.048A1,1,0,0,0,42.707,38.2Z"/>
    </g>
  </g>
</svg>
