<svg xmlns="http://www.w3.org/2000/svg" viewBox="0 0 48 48">
  <title>anti-clockwise</title>
  <g id="left-move-2">
    <g>
      <path d="M35.981,38.747q.408-.333.8-.687a1,1,0,0,0-1.345-1.48q-.35.319-.717.617a1,1,0,0,0,1.264,1.551Z"/>
      <path d="M17.078,41.7a1,1,0,0,0,.729-1.862q-.442-.173-.871-.369a1,1,0,1,0-.83,1.819Q16.584,41.506,17.078,41.7Z"/>
      <path d="M31.089,41.551a1,1,0,0,0,.394-.082q.485-.208.956-.441a1,1,0,0,0-.889-1.792q-.421.209-.855.4a1,1,0,0,0,.395,1.919Z"/>
      <path d="M22.2,42.915c.032,0,.063,0,.094,0a1,1,0,0,0,.092-2q-.472-.044-.937-.114a1,1,0,0,0-.3,1.978Q21.669,42.865,22.2,42.915Z"/>
      <path d="M26.4,42.849q.527-.066,1.044-.162a1,1,0,0,0-.362-1.967q-.461.085-.93.144a1,1,0,0,0,.123,1.992A.99.99,0,0,0,26.4,42.849Z"/>
      <path d="M38.447,32.963q-.25.4-.521.789A1,1,0,1,0,39.564,34.9q.3-.431.582-.88a1,1,0,0,0-1.7-1.056Z"/>
      <path d="M5.07,25.655a1,1,0,0,0,1,.915.859.859,0,0,0,.086,0,1,1,0,0,0,.911-1.082q-.04-.469-.056-.945a.964.964,0,0,0-.028-.12L11.3,20.1a1,1,0,0,0-1.414-1.414L7.229,21.342A16.989,16.989,0,0,1,41,24q0,.476-.026.945A1,1,0,0,0,41.918,26h.056a1,1,0,0,0,1-.945Q43,24.531,43,24A19,19,0,0,0,5.1,22.078l-3.39-3.39A1,1,0,0,0,.293,20.1l4.729,4.729C5.034,25.107,5.047,25.382,5.07,25.655Z"/>
      <path d="M7.8,29.179a1,1,0,1,0-1.905.608q.161.5.349,1a1,1,0,1,0,1.868-.714Q7.948,29.629,7.8,29.179Z"/>
      <path d="M8.788,35.386a1,1,0,0,0,1.6-1.2q-.283-.376-.544-.77a1,1,0,0,0-1.665,1.108Q8.471,34.964,8.788,35.386Z"/>
      <path d="M40.687,30.833a1,1,0,0,0,1.273-.617q.173-.5.317-1.008a1,1,0,0,0-1.924-.546q-.129.455-.283.9A1,1,0,0,0,40.687,30.833Z"/>
      <path d="M13.1,39.324a1,1,0,0,0,.607-1.8q-.376-.286-.735-.593a1,1,0,1,0-1.3,1.521q.4.342.821.663A1,1,0,0,0,13.1,39.324Z"/>
    </g>
  </g>
</svg>
