<svg xmlns="http://www.w3.org/2000/svg" viewBox="0 0 48 48">
  <title>sl-arw-half</title>
  <g id="left-move-2">
    <g>
      <path d="M8.521,11,13.59,6.228a1,1,0,1,0-1.371-1.456l-6.9,6.5a1,1,0,0,0-.021,1.435l7,7a1,1,0,0,0,1.414-1.414L8.414,13H35.5A6.692,6.692,0,0,1,42,19.652,6.382,6.382,0,0,1,35.5,26H35a1,1,0,0,0,0,2h1a.947.947,0,0,0,.162-.033A8.45,8.45,0,0,0,44,19.756c0-.018,0-.036,0-.054v-.1c0-.018,0-.036,0-.053A8.717,8.717,0,0,0,35.5,11Z"/>
      <path d="M12.021,27.37a1,1,0,0,0-1.351-.419,8.641,8.641,0,0,0-.963.592,1,1,0,1,0,1.156,1.632,6.564,6.564,0,0,1,.738-.454A1,1,0,0,0,12.021,27.37Z"/>
      <path d="M20.258,41h-1a1,1,0,0,0,0,2h1a1,1,0,0,0,0-2Z"/>
      <path d="M25.258,41h-1a1,1,0,0,0,0,2h1a1,1,0,0,0,0-2Z"/>
      <path d="M17,27a1,1,0,0,0-1-1H15a1,1,0,0,0,0,2h1A1,1,0,0,0,17,27Z"/>
      <path d="M22,27a1,1,0,0,0-1-1H20a1,1,0,0,0,0,2h1A1,1,0,0,0,22,27Z"/>
      <path d="M8.178,30.491a1,1,0,0,0-1.333.473,8.61,8.61,0,0,0-.418,1.05,1,1,0,0,0,.646,1.259.986.986,0,0,0,.307.049,1,1,0,0,0,.952-.693,6.518,6.518,0,0,1,.32-.805A1,1,0,0,0,8.178,30.491Z"/>
      <path d="M9.942,41.706A1,1,0,1,0,11,40.01a6.519,6.519,0,0,1-.7-.506,1,1,0,1,0-1.275,1.54A8.415,8.415,0,0,0,9.942,41.706Z"/>
      <path d="M6.946,35.088a1,1,0,0,0-.783,1.178,8.5,8.5,0,0,0,.3,1.092,1,1,0,0,0,1.891-.651,6.576,6.576,0,0,1-.227-.835A1,1,0,0,0,6.946,35.088Z"/>
      <path d="M15.258,41l-.97,0h-.031a1,1,0,0,0-.029,2c.08,0,.161,0,.238,0h.792a1,1,0,0,0,0-2Z"/>
      <path d="M39.258,41a1,1,0,0,0,0,2h1a1,1,0,0,0,0-2Z"/>
      <path d="M35.258,41h-1a1,1,0,0,0,0,2h1a1,1,0,0,0,0-2Z"/>
      <path d="M32,27a1,1,0,0,0-1-1H30a1,1,0,0,0,0,2h1A1,1,0,0,0,32,27Z"/>
      <path d="M30.258,41h-1a1,1,0,0,0,0,2h1a1,1,0,0,0,0-2Z"/>
      <path d="M27,27a1,1,0,0,0-1-1H25a1,1,0,0,0,0,2h1A1,1,0,0,0,27,27Z"/>
    </g>
  </g>
</svg>
