<svg xmlns="http://www.w3.org/2000/svg" viewBox="0 0 48 48">
  <title>close-arrow-4</title>
  <g id="close-arrow-four">
    <g>
      <path d="M28,21H39a1,1,0,0,0,0-2H30.414L45.707,3.707a1,1,0,0,0-1.414-1.414L29,17.586V9a1,1,0,0,0-2,0V20A1,1,0,0,0,28,21Z"/>
      <path d="M20,27H10a1,1,0,0,0,0,2h7.586L2.293,44.293a1,1,0,1,0,1.414,1.414L19,30.414V38a1,1,0,0,0,2,0V28A1,1,0,0,0,20,27Z"/>
      <path d="M30.414,29H39a1,1,0,0,0,0-2H28a1,1,0,0,0-1,1V39a1,1,0,0,0,2,0V30.414L44.293,45.707a1,1,0,0,0,1.414-1.414Z"/>
      <path d="M20,8a1,1,0,0,0-1,1v8.586L3.707,2.293A1,1,0,0,0,2.293,3.707L17.586,19H9a1,1,0,0,0,0,2H20a1,1,0,0,0,1-1V9A1,1,0,0,0,20,8Z"/>
    </g>
  </g>
</svg>
