<svg xmlns="http://www.w3.org/2000/svg" viewBox="0 0 48 48">
  <title>clockwise</title>
  <g id="left-move-2">
    <g>
      <path d="M16.006,8.868a1,1,0,0,0,.443-.1q.421-.209.855-.4a1,1,0,0,0-.788-1.838q-.485.208-.956.441a1,1,0,0,0,.445,1.9Z"/>
      <path d="M26.553,7.19a.973.973,0,0,0,.15.011,1,1,0,0,0,.147-1.989q-.519-.078-1.047-.128a1,1,0,1,0-.187,1.991Q26.089,7.12,26.553,7.19Z"/>
      <path d="M20.913,7.279q.461-.085.93-.144A1,1,0,0,0,21.6,5.151q-.527.066-1.044.162a1,1,0,1,0,.362,1.967Z"/>
      <path d="M8.7,15.509a1,1,0,0,0,.851-.472q.25-.4.521-.789A1,1,0,1,0,8.436,13.1q-.3.431-.582.88A1,1,0,0,0,8.7,15.509Z"/>
      <path d="M12.019,9.253q-.408.333-.8.687a1,1,0,0,0,1.345,1.48q.35-.319.717-.617a1,1,0,1,0-1.264-1.551Z"/>
      <path d="M31.064,8.532a1,1,0,1,0,.83-1.819q-.478-.219-.972-.412a1,1,0,1,0-.729,1.862Q30.635,8.336,31.064,8.532Z"/>
      <path d="M39.212,12.614a1,1,0,1,0-1.6,1.2q.283.376.544.77a1,1,0,1,0,1.665-1.108Q39.529,13.036,39.212,12.614Z"/>
      <path d="M40.2,18.821a1,1,0,1,0,1.905-.608q-.161-.5-.349-1a1,1,0,0,0-1.868.714Q40.052,18.371,40.2,18.821Z"/>
      <path d="M35.68,11.3a1,1,0,0,0,.65-1.761q-.4-.342-.821-.663A1,1,0,0,0,34.3,10.472q.376.286.735.593A1,1,0,0,0,35.68,11.3Z"/>
      <path d="M7,24q0-.476.026-.945a1,1,0,1,0-2-.109Q5,23.469,5,24a19,19,0,0,0,38,0,.974.974,0,0,0-.06-.3.977.977,0,0,0,.052-.305q-.017-.53-.062-1.051a1,1,0,0,0-1.993.171q.04.469.056.945a.97.97,0,0,0,.062.269A.968.968,0,0,0,41,24,17,17,0,0,1,7,24Z"/>
      <path d="M10.293,24.5a1,1,0,0,0,1.414-1.414L7.721,19.1c.067-.222.133-.444.209-.661a1,1,0,1,0-1.89-.656c-.03.087-.054.177-.083.264a.972.972,0,0,0-.459.245L.7,23.088A1,1,0,0,0,2.117,24.5l4.088-4.088Z"/>
    </g>
  </g>
</svg>
