<svg xmlns="http://www.w3.org/2000/svg" viewBox="0 0 48 48">
  <title>four-circle-arrow</title>
  <g id="circle-arw">
    <path d="M4.861,24a1,1,0,0,1-.694-.28L.306,20a1,1,0,1,1,1.388-1.439l3.191,3.075,3.447-3.1a1,1,0,1,1,1.337,1.486L5.529,23.743A1,1,0,0,1,4.861,24Z"/>
    <path d="M28.722,10a1,1,0,0,1-.744-.331l-3.722-4.14a1,1,0,0,1,.024-1.363L28,.306a1,1,0,0,1,1.439,1.389L26.366,4.884l3.1,3.447A1,1,0,0,1,28.722,10Z"/>
    <path d="M39,29.722a1,1,0,0,1-.669-1.743l4.139-3.722a1,1,0,0,1,1.362.023L47.694,28a1,1,0,1,1-1.388,1.439l-3.191-3.075-3.447,3.1A1,1,0,0,1,39,29.722Z"/>
    <path d="M19,48a1,1,0,0,1-.72-1.694l3.075-3.189-3.1-3.447a1,1,0,0,1,1.487-1.338l3.722,4.14a1,1,0,0,1-.024,1.363l-3.722,3.86A1,1,0,0,1,19,48Z"/>
    <g>
      <path d="M5.26,22a.973.973,0,0,1-.158-.013,1,1,0,0,1-.831-1.145A19.907,19.907,0,0,1,20.843,4.272a1,1,0,1,1,.314,1.975,17.911,17.911,0,0,0-14.91,14.91A1,1,0,0,1,5.26,22Z"/>
      <path d="M42.74,22a1,1,0,0,1-.987-.843,17.911,17.911,0,0,0-14.91-14.91,1,1,0,1,1,.314-1.975,19.907,19.907,0,0,1,16.571,16.57,1,1,0,0,1-.831,1.145A.973.973,0,0,1,42.74,22Z"/>
      <path d="M27,43.74a1,1,0,0,1-.156-1.987,17.911,17.911,0,0,0,14.91-14.91,1,1,0,0,1,1.976.314,19.907,19.907,0,0,1-16.571,16.57A.974.974,0,0,1,27,43.74Z"/>
      <path d="M21,43.74a.974.974,0,0,1-.159-.013A19.907,19.907,0,0,1,4.271,27.157a1,1,0,0,1,1.976-.314,17.911,17.911,0,0,0,14.91,14.91A1,1,0,0,1,21,43.74Z"/>
    </g>
  </g>
</svg>
