<svg xmlns="http://www.w3.org/2000/svg" viewBox="0 0 48 48">
  <title>round-close-arrow</title>
  <g id="round-close-arrow">
    <path d="M31.627,17.373a1,1,0,0,1-.707-1.707L45.293,1.293a1,1,0,0,1,1.414,1.414L32.334,17.08A1,1,0,0,1,31.627,17.373Z"/>
    <path d="M2,47a1,1,0,0,1-.707-1.707l14.9-14.9A1,1,0,0,1,17.6,31.812l-14.9,14.9A1,1,0,0,1,2,47Z"/>
    <path d="M39,18H31a1,1,0,0,1-1-1V9a1,1,0,0,1,2,0v7h7a1,1,0,0,1,0,2Z"/>
    <path d="M17,40a1,1,0,0,1-1-1V32H9a1,1,0,0,1,0-2h8a1,1,0,0,1,1,1v8A1,1,0,0,1,17,40Z"/>
    <path d="M46,47a1,1,0,0,1-.707-.293L30.92,32.334a1,1,0,1,1,1.414-1.414L46.707,45.293A1,1,0,0,1,46,47Z"/>
    <path d="M16.9,17.9a1,1,0,0,1-.707-.293l-14.9-14.9A1,1,0,0,1,2.707,1.293l14.9,14.9A1,1,0,0,1,16.9,17.9Z"/>
    <path d="M31,40a1,1,0,0,1-1-1V31a1,1,0,0,1,1-1h8a1,1,0,0,1,0,2H32v7A1,1,0,0,1,31,40Z"/>
    <path d="M17,18H9a1,1,0,0,1,0-2h7V9a1,1,0,0,1,2,0v8A1,1,0,0,1,17,18Z"/>
    <path d="M24,30a6,6,0,1,1,6-6A6.007,6.007,0,0,1,24,30Zm0-10a4,4,0,1,0,4,4A4,4,0,0,0,24,20Z"/>
  </g>
</svg>
