<svg xmlns="http://www.w3.org/2000/svg" viewBox="0 0 48 48">
  <title>horizontal-arw</title>
  <g id="horizontal-arw">
    <path d="M37.766,26.468a1,1,0,0,1-.718-1.7l6.538-6.75-6.516-6.3a1,1,0,1,1,1.391-1.437l7.234,7a1,1,0,0,1,.022,1.414l-7.234,7.468A.993.993,0,0,1,37.766,26.468Z"/>
    <path d="M11,38a1,1,0,0,1-.707-.293l-7-7a1,1,0,0,1-.022-1.391l7-7.468a1,1,0,0,1,1.459,1.367L5.392,29.978l6.315,6.315A1,1,0,0,1,11,38Z"/>
    <path d="M44,19H12a1,1,0,0,1,0-2H44a1,1,0,0,1,0,2Z"/>
    <path d="M36,31H5a1,1,0,0,1,0-2H36a1,1,0,0,1,0,2Z"/>
  </g>
</svg>
