<svg xmlns="http://www.w3.org/2000/svg" viewBox="0 0 48 48">
  <title>verticle-arw</title>
  <g id="verticle-arw">
    <path d="M25.468,11.234a.993.993,0,0,1-.7-.282l-6.75-6.538-6.3,6.516a1,1,0,1,1-1.437-1.391l7-7.234a1,1,0,0,1,.7-.3.969.969,0,0,1,.712.282l7.468,7.234a1,1,0,0,1-.7,1.718Z"/>
    <path d="M30,45a1,1,0,0,1-.684-.271l-7.468-7a1,1,0,0,1,1.367-1.459l6.762,6.338,6.315-6.315a1,1,0,0,1,1.414,1.414l-7,7A1,1,0,0,1,30,45Z"/>
    <path d="M18,43a1,1,0,0,1-1-1V4a1,1,0,0,1,2,0V42A1,1,0,0,1,18,43Z"/>
    <path d="M30,44a1,1,0,0,1-1-1V12a1,1,0,0,1,2,0V43A1,1,0,0,1,30,44Z"/>
  </g>
</svg>
