<svg xmlns="http://www.w3.org/2000/svg" viewBox="0 0 48 48">
  <title>parallel-arrows</title>
  <g id="parallel-arrows">
    <g>
      <path d="M6,21H42a1,1,0,0,0,0-2H25V3.553l6.753,6.753a1,1,0,1,0,1.414-1.414l-8.4-8.4a1.029,1.029,0,0,0-1.414,0l-8.4,8.4a1,1,0,0,0,1.414,1.414L23,3.673V19H6a1,1,0,0,0,0,2Z"/>
      <path d="M42,27H6a1,1,0,0,0,0,2H23V43.526l-6.633-6.633a1,1,0,0,0-1.414,1.414l8.4,8.4a1,1,0,0,0,1.414,0l8.4-8.4a1,1,0,0,0-1.414-1.414L25,43.646V29H42a1,1,0,0,0,0-2Z"/>
    </g>
  </g>
</svg>
