<svg xmlns="http://www.w3.org/2000/svg" viewBox="0 0 48 48">
  <title>hrizontal-bars</title>
  <g id="horizotal-bar">
    <g>
      <path d="M44,2H4A2,2,0,0,0,2,4V8a2,2,0,0,0,2,2H44a2,2,0,0,0,2-2V4A2,2,0,0,0,44,2ZM26,4V5H4V4ZM4,7H26V8H4ZM44,8H28V4H44Z"/>
      <path d="M44,14H4a2,2,0,0,0-2,2v4a2,2,0,0,0,2,2H44a2,2,0,0,0,2-2V16A2,2,0,0,0,44,14ZM4,16H36v1H4Zm0,3H36v1h0L4,20Zm40,1H38V16h6Z"/>
      <path d="M44,26H4a2,2,0,0,0-2,2v4a2,2,0,0,0,2,2H44a2,2,0,0,0,2-2V28A2,2,0,0,0,44,26ZM19,28v1H4V28ZM4,31H19v1H4Zm40,1H21V28H44Z"/>
      <path d="M44,38H4a2,2,0,0,0-2,2v4a2,2,0,0,0,2,2H44a2,2,0,0,0,2-2V40A2,2,0,0,0,44,38ZM27,40v1H4V40ZM4,43H27v1H4Zm40,1H29V40H44Z"/>
    </g>
  </g>
</svg>
