<svg xmlns="http://www.w3.org/2000/svg" viewBox="0 0 48 48">
  <title>verticle-bars</title>
  <g id="verticle-bar">
    <g>
      <path d="M8,2H4A2,2,0,0,0,2,4V44a2,2,0,0,0,2,2H8a2,2,0,0,0,2-2V4A2,2,0,0,0,8,2ZM8,4V20H4V4ZM4,22H5V44H4ZM7,44V22H8V44Z"/>
      <path d="M20,2H16a2,2,0,0,0-2,2V44a2,2,0,0,0,2,2h4a2,2,0,0,0,2-2V4A2,2,0,0,0,20,2Zm0,2v6H16V4ZM16,44V12h1V44Zm3,0V12h1l0,32Z"/>
      <path d="M32,2H28a2,2,0,0,0-2,2V44a2,2,0,0,0,2,2h4a2,2,0,0,0,2-2V4A2,2,0,0,0,32,2ZM28,4h4V27H28Zm0,25h1V44H28Zm3,15V29h1V44Z"/>
      <path d="M44,2H40a2,2,0,0,0-2,2V44a2,2,0,0,0,2,2h4a2,2,0,0,0,2-2V4A2,2,0,0,0,44,2Zm0,2V19H40V4ZM40,21h1V44H40Zm3,23V21h1V44Z"/>
    </g>
  </g>
</svg>
