<?xml version="1.0" encoding="utf-8"?>
<!-- Generator: Adobe Illustrator 18.0.0, SVG Export Plug-In . SVG Version: 6.00 Build 0)  -->
<!DOCTYPE svg PUBLIC "-//W3C//DTD SVG 1.1//EN" "http://www.w3.org/Graphics/SVG/1.1/DTD/svg11.dtd">
<svg version="1.1" xmlns="http://www.w3.org/2000/svg" xmlns:xlink="http://www.w3.org/1999/xlink" x="0px" y="0px"
	 viewBox="0 0 48 48" enable-background="new 0 0 48 48" xml:space="preserve">
<g id="Layer_1">
</g>
<g id="horizotal-bar">
</g>
<g id="verticle-bar">
	<path fill="none" stroke="#000000" stroke-width="2" stroke-linecap="round" stroke-linejoin="round" stroke-miterlimit="10" d="
		M8,45H4c-0.5522847,0-1-0.4477158-1-1V4c0-0.5522847,0.4477153-1,1-1h4c0.5522852,0,1,0.4477153,1,1v40
		C9,44.5522842,8.5522852,45,8,45z"/>
	<path fill="none" stroke="#000000" stroke-width="2" stroke-linecap="round" stroke-linejoin="round" stroke-miterlimit="10" d="
		M20,45h-4c-0.5522852,0-1-0.4477158-1-1V4c0-0.5522847,0.4477148-1,1-1h4c0.5522842,0,1,0.4477153,1,1v40
		C21,44.5522842,20.5522842,45,20,45z"/>
	<path fill="none" stroke="#000000" stroke-width="2" stroke-linecap="round" stroke-linejoin="round" stroke-miterlimit="10" d="
		M32,45h-4c-0.5522842,0-1-0.4477158-1-1V4c0-0.5522847,0.4477158-1,1-1h4c0.5522842,0,1,0.4477153,1,1v40
		C33,44.5522842,32.5522842,45,32,45z"/>
	<path fill="none" stroke="#000000" stroke-width="2" stroke-linecap="round" stroke-linejoin="round" stroke-miterlimit="10" d="
		M44,45h-4c-0.5522842,0-1-0.4477158-1-1V4c0-0.5522847,0.4477158-1,1-1h4c0.5522842,0,1,0.4477153,1,1v40
		C45,44.5522842,44.5522842,45,44,45z"/>
	
		<line fill="none" stroke="#000000" stroke-width="2" stroke-linecap="round" stroke-linejoin="round" stroke-miterlimit="10" x1="3" y1="21" x2="8" y2="21"/>
	
		<line fill="none" stroke="#000000" stroke-width="2" stroke-linecap="round" stroke-linejoin="round" stroke-miterlimit="10" x1="15" y1="11" x2="20" y2="11"/>
	
		<line fill="none" stroke="#000000" stroke-width="2" stroke-linecap="round" stroke-linejoin="round" stroke-miterlimit="10" x1="28" y1="28" x2="33" y2="28"/>
	
		<line fill="none" stroke="#000000" stroke-width="2" stroke-linecap="round" stroke-linejoin="round" stroke-miterlimit="10" x1="39" y1="20" x2="44" y2="20"/>
	
		<line fill="none" stroke="#000000" stroke-width="2" stroke-linecap="round" stroke-linejoin="round" stroke-miterlimit="10" x1="6" y1="21" x2="6" y2="45"/>
	
		<line fill="none" stroke="#000000" stroke-width="2" stroke-linecap="round" stroke-linejoin="round" stroke-miterlimit="10" x1="18" y1="11" x2="18" y2="44"/>
	
		<line fill="none" stroke="#000000" stroke-width="2" stroke-linecap="round" stroke-linejoin="round" stroke-miterlimit="10" x1="30" y1="28" x2="30" y2="45"/>
	
		<line fill="none" stroke="#000000" stroke-width="2" stroke-linecap="round" stroke-linejoin="round" stroke-miterlimit="10" x1="42" y1="21" x2="42" y2="45"/>
</g>
<g id="hike">
</g>
<g id="node">
</g>
<g id="wave">
</g>
<g id="block">
</g>
<g id="piller">
</g>
<g id="graph_1_">
</g>
<g id="chart">
</g>
<g id="white-board">
</g>
<g id="statistics">
</g>
<g id="paraboal-s">
</g>
<g id="parabola">
</g>
<g id="graph-smooth">
</g>
<g id="graph-up">
</g>
<g id="graph-y">
</g>
<g id="graph-2">
</g>
<g id="graph">
</g>
<g id="part">
</g>
<g id="fill">
</g>
<g id="cross-2">
</g>
<g id="cross">
</g>
<g id="chart-7">
</g>
<g id="chart-6">
</g>
<g id="chart-4">
</g>
<g id="round-chart2">
</g>
<g id="round-chart">
</g>
<g id="community-3">
</g>
<g id="community_1_">
</g>
<g id="old-hairstylr">
</g>
<g id="girl-hair">
</g>
<g id="small-hair">
</g>
<g id="round-hair">
</g>
<g id="girl-2">
</g>
<g id="boy">
</g>
<g id="girl">
</g>
<g id="men">
</g>
<g id="women">
</g>
<g id="male_1_">
</g>
<g id="male-female">
</g>
<g id="group-m">
</g>
<g id="group-f">
</g>
<g id="male-1">
</g>
<g id="male">
</g>
<g id="read-f">
</g>
<g id="read-m">
</g>
<g id="message-f">
</g>
<g id="message-m">
</g>
<g id="chat-f">
</g>
<g id="chat-m">
</g>
<g id="think-f">
</g>
<g id="think-m">
</g>
<g id="comment-f">
</g>
<g id="comment-m">
</g>
<g id="unloack-rd">
</g>
<g id="user-rd">
</g>
<g id="favorite-rd">
</g>
<g id="reload-rd">
</g>
<g id="bookmark-rd">
</g>
<g id="success-rd">
</g>
<g id="dealete">
</g>
<g id="remove-user_1_">
</g>
<g id="add-user_1_">
</g>
<g id="user-round">
</g>
<g id="upload">
</g>
<g id="download">
</g>
<g id="move">
</g>
<g id="unview">
</g>
<g id="notify">
</g>
<g id="settings">
</g>
<g id="cloud">
</g>
<g id="favorite">
</g>
<g id="reload">
</g>
<g id="bookmark">
</g>
<g id="contact">
</g>
<g id="call">
</g>
<g id="vie">
</g>
<g id="mail">
</g>
<g id="date">
</g>
<g id="trash">
</g>
<g id="time">
</g>
<g id="star">
</g>
<g id="unlock">
</g>
<g id="lock-user">
</g>
<g id="reload-user">
</g>
<g id="refresh-user">
</g>
<g id="search-user">
</g>
<g id="edit-user">
</g>
<g id="success">
</g>
<g id="delete-user">
</g>
<g id="remove-user">
</g>
<g id="add-user">
</g>
<g id="user">
</g>
<g id="Layer_2">
</g>
<g id="block-user">
</g>
<g id="boy-1">
</g>
<g id="community">
</g>
<g id="love-people">
</g>
<g id="chart-5">
</g>
<g id="graph-top">
</g>
<g id="graph-node">
</g>
</svg>
