<svg xmlns="http://www.w3.org/2000/svg" viewBox="0 0 48 48">
  <title>board-close</title>
  <g id="Layer_2" data-name="Layer 2">
    <g id="board-close">
      <g>
        <rect x="13" y="19" width="7" height="2"/>
        <path d="M43.485,26.515A11.947,11.947,0,0,0,41,24.622V9a4,4,0,0,0-4-4H31.04l-.078-.274A1,1,0,0,0,30,4H26a4,4,0,0,0-8,0H14a1,1,0,0,0-.962.726L12.96,5H7A4,4,0,0,0,3,9V43a4,4,0,0,0,4,4H35v-.006a11.994,11.994,0,0,0,8.485-20.479ZM37,7a2,2,0,0,1,2,2V23.7a11.988,11.988,0,0,0-2-.52V10.008a1,1,0,0,0-1-1H32.185L31.612,7ZM14.754,6H19a1,1,0,0,0,1-1V4a2,2,0,0,1,4,0V5a1,1,0,0,0,1,1h4.246l1.428,5H13.326ZM32,13a1,1,0,0,0,.962-1.274l-.205-.718H35V23a12.022,12.022,0,0,0-5,1.1V24H13v2H27.084c-.192.169-.387.332-.57.515A11.94,11.94,0,0,0,24.623,29H13v2H23.7a12.033,12.033,0,0,0,.92,10H16V35a1,1,0,0,0-1-1H9V11.008h2.243l-.205.718A1,1,0,0,0,12,13ZM14,36v3.586L10.414,36ZM7,45a2,2,0,0,1-2-2V9A2,2,0,0,1,7,7h5.388l-.574,2.008H8a1,1,0,0,0-1,1V35a1,1,0,0,0,.293.707l7,7A1,1,0,0,0,15,43H26.076c.146.162.283.329.439.485A12,12,0,0,0,28.367,45Zm35.071-2.929a10,10,0,1,1,0-14.143A10.013,10.013,0,0,1,42.071,42.071Z"/>
        <path d="M39.949,30.051a1,1,0,0,0-1.414,0L35,33.586l-3.535-3.535a1,1,0,0,0-1.414,1.414L33.586,35l-3.535,3.535a1,1,0,1,0,1.414,1.414L35,36.414l3.535,3.535a1,1,0,0,0,1.414-1.414L36.414,35l3.535-3.535A1,1,0,0,0,39.949,30.051Z"/>
      </g>
    </g>
  </g>
</svg>
