<svg xmlns="http://www.w3.org/2000/svg" viewBox="0 0 48 48">
  <title>board-pen</title>
  <g id="Layer_2" data-name="Layer 2">
    <g id="board-pen">
      <g>
        <path d="M35,5H29.04l-.078-.274A1,1,0,0,0,28,4H24a4,4,0,0,0-8,0H12a1,1,0,0,0-.961.726L10.96,5H5A4,4,0,0,0,1,9V43a4,4,0,0,0,4,4H35a4,4,0,0,0,4-4V9A4,4,0,0,0,35,5ZM12.754,6H17a1,1,0,0,0,1-1V4a2,2,0,0,1,4,0V5a1,1,0,0,0,1,1h4.246l1.429,5H11.326ZM30,13a1,1,0,0,0,.961-1.274l-.205-.718H33V41H14V35a1,1,0,0,0-1-1H7V11.008H9.244l-.205.718A1,1,0,0,0,10,13ZM12,39.586,8.414,36H12ZM37,43a2,2,0,0,1-2,2H5a2,2,0,0,1-2-2V9A2,2,0,0,1,5,7h5.389L9.815,9.008H6a1,1,0,0,0-1,1V35a1,1,0,0,0,.293.707l7,7A1,1,0,0,0,13,43H34a1,1,0,0,0,1-1V10.008a1,1,0,0,0-1-1H30.185L29.611,7H35a2,2,0,0,1,2,2Z"/>
        <path d="M45,10H42a2,2,0,0,0-2,2V25a1,1,0,0,0,1,1V43a2,2,0,0,0,2,2h1a2,2,0,0,0,2-2V26a1,1,0,0,0,1-1V12A2,2,0,0,0,45,10Zm-3,2h3V24H42Zm2,31H43V26h1Z"/>
      </g>
    </g>
  </g>
</svg>
