<svg xmlns="http://www.w3.org/2000/svg" viewBox="0 0 48 48">
  <title>board-check</title>
  <g id="Layer_2" data-name="Layer 2">
    <g id="board-check">
      <g>
        <rect x="13" y="19" width="7" height="2"/>
        <path d="M41,24.623V9a4,4,0,0,0-4-4H31.04l-.078-.274A1,1,0,0,0,30,4H26a4,4,0,0,0-8,0H14a1,1,0,0,0-.962.726L12.96,5H7A4,4,0,0,0,3,9V43a4,4,0,0,0,4,4H35a11.99,11.99,0,0,0,6-22.377ZM37,7a2,2,0,0,1,2,2V23.7a11.878,11.878,0,0,0-2-.519V10.008a1,1,0,0,0-1-1H32.185L31.612,7ZM14.754,6H19a1,1,0,0,0,1-1V4a2,2,0,0,1,4,0V5a1,1,0,0,0,1,1h4.246l1.428,5H13.326ZM32,13a1,1,0,0,0,.962-1.274l-.205-.718H35V23a11.91,11.91,0,0,0-5,1.105V24H13v2H27.089a12.067,12.067,0,0,0-2.466,3H13v2H23.7a11.852,11.852,0,0,0,.923,10H16V35a1,1,0,0,0-1-1H9V11.008h2.243l-.205.718A1,1,0,0,0,12,13ZM14,36v3.586L10.414,36ZM7,45a2,2,0,0,1-2-2V9A2,2,0,0,1,7,7h5.388l-.574,2.008H8a1,1,0,0,0-1,1V35a1,1,0,0,0,.293.707l7,7A1,1,0,0,0,15,43H26.081a12.078,12.078,0,0,0,2.3,2Zm28,0A10,10,0,1,1,45,35,10.012,10.012,0,0,1,35,45Z"/>
        <path d="M39.342,30.247l-7.3,6.385-2.339-2.339a1,1,0,0,0-1.414,1.414l3.661,3.661,8.7-7.615a1,1,0,0,0-1.316-1.506Z"/>
      </g>
    </g>
  </g>
</svg>
