<svg xmlns="http://www.w3.org/2000/svg" viewBox="0 0 48 48">
  <title>board-write</title>
  <g id="Layer_2" data-name="Layer 2">
    <g id="board-write">
      <g>
        <path d="M39,5H33.04l-.078-.274A1,1,0,0,0,32,4H28a4,4,0,0,0-8,0H16a1,1,0,0,0-.961.726L14.96,5H9A4,4,0,0,0,5,9V43a4,4,0,0,0,4,4H39a4,4,0,0,0,4-4V9A4,4,0,0,0,39,5ZM16.754,6H21a1,1,0,0,0,1-1V4a2,2,0,0,1,4,0V5a1,1,0,0,0,1,1h4.246l1.429,5H15.326ZM34,13a1,1,0,0,0,.961-1.274l-.205-.718H37V41H11V11.008h2.244l-.205.718A1,1,0,0,0,14,13Zm7,30a2,2,0,0,1-2,2H9a2,2,0,0,1-2-2V9A2,2,0,0,1,9,7h5.389l-.574,2.008H10a1,1,0,0,0-1,1V42a1,1,0,0,0,1,1H38a1,1,0,0,0,1-1V10.008a1,1,0,0,0-1-1H34.185L33.611,7H39a2,2,0,0,1,2,2Z"/>
        <rect x="15" y="20" width="7" height="2"/>
        <rect x="15" y="25" width="18" height="2"/>
        <rect x="15" y="30" width="18" height="2"/>
        <rect x="15" y="35" width="18" height="2"/>
      </g>
    </g>
  </g>
</svg>
