<svg xmlns="http://www.w3.org/2000/svg" viewBox="0 0 48 48">
  <title>board-lock</title>
  <g id="Layer_2" data-name="Layer 2">
    <g id="board-block">
      <g>
        <path d="M5,43V9A2,2,0,0,1,7,7h5.388l-.574,2.008H8a1,1,0,0,0-1,1V35a1,1,0,0,0,.293.707l7,7A1,1,0,0,0,15,43H28V41H16V35a1,1,0,0,0-1-1H9V11.008h2.243l-.205.718A1,1,0,0,0,12,13H32a1,1,0,0,0,.962-1.274l-.205-.718H35V24h2V10.008a1,1,0,0,0-1-1H32.185L31.612,7H37a2,2,0,0,1,2,2V25h2V9a4,4,0,0,0-4-4H31.04l-.078-.274A1,1,0,0,0,30,4H26a4,4,0,0,0-8,0H14a1,1,0,0,0-.962.726L12.96,5H7A4,4,0,0,0,3,9V43a4,4,0,0,0,4,4H29V45H7A2,2,0,0,1,5,43Zm9-7v3.586L10.414,36Zm.754-30H19a1,1,0,0,0,1-1V4a2,2,0,0,1,4,0V5a1,1,0,0,0,1,1h4.246l1.428,5H13.326Z"/>
        <rect x="13" y="19" width="7" height="2"/>
        <rect x="13" y="24" width="17" height="2"/>
        <rect x="13" y="29" width="14" height="2"/>
        <path d="M44.5,36.153v-.4a6.5,6.5,0,0,0-13,0v.4A.985.985,0,0,0,31,37v6a3,3,0,0,0,3,3h8a3,3,0,0,0,3-3V37A.985.985,0,0,0,44.5,36.153Zm-11-.4a4.5,4.5,0,0,1,9,0V36h-9ZM43,43a1,1,0,0,1-1,1H34a1,1,0,0,1-1-1V38H43Z"/>
      </g>
    </g>
  </g>
</svg>
