<svg xmlns="http://www.w3.org/2000/svg" viewBox="0 0 48 48">
  <title>book-holder</title>
  <g id="Layer_2" data-name="Layer 2">
    <g id="bookholder">
      <g>
        <path d="M12,2H5A2,2,0,0,0,3,4V44a2,2,0,0,0,2,2h7a2,2,0,0,0,2-2V4A2,2,0,0,0,12,2ZM5,44V4h7l0,40Z"/>
        <path d="M10,38H7a1,1,0,0,0,0,2h3a1,1,0,0,0,0-2Z"/>
        <path d="M10,34H7a1,1,0,0,0,0,2h3a1,1,0,0,0,0-2Z"/>
        <path d="M10,10H7a1,1,0,0,0,0,2h3a1,1,0,0,0,0-2Z"/>
        <path d="M25,2H18a2,2,0,0,0-2,2V44a2,2,0,0,0,2,2h7a2,2,0,0,0,2-2V4A2,2,0,0,0,25,2ZM18,44V4h7l0,40Z"/>
        <path d="M23,38H20a1,1,0,0,0,0,2h3a1,1,0,0,0,0-2Z"/>
        <path d="M23,34H20a1,1,0,0,0,0,2h3a1,1,0,0,0,0-2Z"/>
        <path d="M23,10H20a1,1,0,0,0,0,2h3a1,1,0,0,0,0-2Z"/>
        <path d="M46.557,42.66l-7.3-39.328a2,2,0,0,0-2.332-1.6L30.046,3.008a2,2,0,0,0-1.6,2.332l7.3,39.328A2,2,0,0,0,37.7,46.3a2.061,2.061,0,0,0,.369-.034l6.882-1.277a2,2,0,0,0,1.6-2.332Zm-1.966.365h0L37.708,44.3,30.41,4.975,37.292,3.7l7.3,39.328Z"/>
        <path d="M38.579,38.038a1,1,0,0,0,.182,1.983A.98.98,0,0,0,38.944,40l2.95-.547a1,1,0,0,0-.365-1.967Z"/>
        <path d="M37.049,35.271a1,1,0,0,0,.982.817.98.98,0,0,0,.184-.017l2.949-.547a1,1,0,1,0-.365-1.967l-2.949.547A1,1,0,0,0,37.049,35.271Z"/>
        <path d="M36.42,9.961l-2.949.548a1,1,0,0,0,.182,1.983.98.98,0,0,0,.184-.017l2.949-.548a1,1,0,0,0-.365-1.967Z"/>
      </g>
    </g>
  </g>
</svg>
