<svg xmlns="http://www.w3.org/2000/svg" viewBox="0 0 48 48">
  <title>book-holder-2</title>
  <g id="Layer_2" data-name="Layer 2">
    <g id="bookholder-2">
      <g>
        <path d="M43,1H10a1,1,0,0,0-.555.168l-6,4c-.027.018-.042.047-.067.067a.988.988,0,0,0-.36.673A.939.939,0,0,0,3,6V46a1,1,0,0,0,1,1H39a2.981,2.981,0,0,0,2.246-1.032.994.994,0,0,0,.586-.414l3.664-5.5a2.987,2.987,0,0,0,.5-1.664V4A3,3,0,0,0,43,1ZM10,45H5V7h5Zm30-1a1,1,0,0,1-1,1H12V7H39a1,1,0,0,1,1,1Zm4-5.605a.993.993,0,0,1-.168.555L42,41.7V8a3,3,0,0,0-3-3H7.3l3-2H43a1,1,0,0,1,1,1Z"/>
        <path d="M35,32H18a1,1,0,0,0-1,1v6a1,1,0,0,0,1,1H35a1,1,0,0,0,1-1V33A1,1,0,0,0,35,32Zm-1,6H19V34H34Z"/>
      </g>
    </g>
  </g>
</svg>
