<svg xmlns="http://www.w3.org/2000/svg" viewBox="0 0 48 48">
  <title>book-label</title>
  <g id="book-label">
    <g>
      <path d="M41,4H8A4,4,0,0,0,4,8V40a4,4,0,0,0,4,4H37a4,4,0,0,0,4-4V22.181l2.684-5.367A3.015,3.015,0,0,0,44,15.472V7A3,3,0,0,0,41,4ZM8,42a2,2,0,0,1-2-2V8A2,2,0,0,1,8,6h3V42Zm5,0V6h2V42Zm4,0V6H33a2,2,0,0,1,2,2V40a2,2,0,0,1-2,2ZM42,15.472a1,1,0,0,1-.105.447L39.105,21.5a1,1,0,0,0-.105.447V40a2,2,0,0,1-2,2h-.556A3.954,3.954,0,0,0,37,40V8a3.954,3.954,0,0,0-.556-2H41a1,1,0,0,1,1,1Z"/>
      <path d="M30,35H22a1,1,0,0,0,0,2h8a1,1,0,0,0,0-2Z"/>
    </g>
  </g>
</svg>
