<svg xmlns="http://www.w3.org/2000/svg" viewBox="0 0 48 48">
  <title>medium-box</title>
  <g id="medium-box">
    <g>
      <path d="M41,15H12.824L38.4,3.918A1,1,0,0,0,37.6,2.082L7.792,15H7a5.006,5.006,0,0,0-5,5v4a1,1,0,0,0,2,0V20a2.981,2.981,0,0,1,1.027-2.242l.855,23.394a4.978,4.978,0,0,0,5,4.849H37.119a4.975,4.975,0,0,0,5-4.843l.856-23.4A2.981,2.981,0,0,1,44,20v4a1,1,0,0,0,2,0V20A5.006,5.006,0,0,0,41,15Zm-.883,26.091a2.986,2.986,0,0,1-3,2.909H10.881a2.988,2.988,0,0,1-3-2.915L7,17H41Z"/>
      <path d="M31.5,20h-15a3.5,3.5,0,0,0,0,7h15a3.5,3.5,0,0,0,0-7Zm0,5h-15a1.5,1.5,0,0,1,0-3h15a1.5,1.5,0,0,1,0,3Z"/>
    </g>
  </g>
</svg>
