<svg xmlns="http://www.w3.org/2000/svg" viewBox="0 0 48 48">
  <title>digital calculater</title>
  <g id="digital-calculater">
    <g>
      <path d="M38,1H10A3,3,0,0,0,7,4V44a3,3,0,0,0,3,3H38a3,3,0,0,0,3-3V4A3,3,0,0,0,38,1Zm1,43a1,1,0,0,1-1,1H10a1,1,0,0,1-1-1V22H39Zm0-24H9V4a1,1,0,0,1,1-1H38a1,1,0,0,1,1,1Z"/>
      <path d="M34,15H24a1,1,0,0,0,0,2H34a1,1,0,0,0,0-2Z"/>
      <path d="M12,27h3a1,1,0,0,0,0-2H12a1,1,0,0,0,0,2Z"/>
      <path d="M19,27h3a1,1,0,0,0,0-2H19a1,1,0,0,0,0,2Z"/>
      <path d="M26,27h3a1,1,0,0,0,0-2H26a1,1,0,0,0,0,2Z"/>
      <path d="M33,27h3a1,1,0,0,0,0-2H33a1,1,0,0,0,0,2Z"/>
      <path d="M12,31h3a1,1,0,0,0,0-2H12a1,1,0,0,0,0,2Z"/>
      <path d="M19,31h3a1,1,0,0,0,0-2H19a1,1,0,0,0,0,2Z"/>
      <path d="M26,31h3a1,1,0,0,0,0-2H26a1,1,0,0,0,0,2Z"/>
      <path d="M33,31h3a1,1,0,0,0,0-2H33a1,1,0,0,0,0,2Z"/>
      <path d="M12,35h3a1,1,0,0,0,0-2H12a1,1,0,0,0,0,2Z"/>
      <path d="M19,35h3a1,1,0,0,0,0-2H19a1,1,0,0,0,0,2Z"/>
      <path d="M26,35h3a1,1,0,0,0,0-2H26a1,1,0,0,0,0,2Z"/>
      <path d="M33,35h3a1,1,0,0,0,0-2H33a1,1,0,0,0,0,2Z"/>
      <path d="M12,39h3a1,1,0,0,0,0-2H12a1,1,0,0,0,0,2Z"/>
      <path d="M19,39h3a1,1,0,0,0,0-2H19a1,1,0,0,0,0,2Z"/>
      <path d="M26,39h3a1,1,0,0,0,0-2H26a1,1,0,0,0,0,2Z"/>
      <path d="M33,39h3a1,1,0,0,0,0-2H33a1,1,0,0,0,0,2Z"/>
      <path d="M12,43h3a1,1,0,0,0,0-2H12a1,1,0,0,0,0,2Z"/>
      <path d="M19,43h3a1,1,0,0,0,0-2H19a1,1,0,0,0,0,2Z"/>
      <path d="M26,43h3a1,1,0,0,0,0-2H26a1,1,0,0,0,0,2Z"/>
      <path d="M33,43h3a1,1,0,0,0,0-2H33a1,1,0,0,0,0,2Z"/>
    </g>
  </g>
</svg>
