<svg xmlns="http://www.w3.org/2000/svg" viewBox="0 0 48 48">
  <title>s-calulater</title>
  <g id="s-calculater">
    <g>
      <path d="M37,3H11A3,3,0,0,0,8,6V43a3,3,0,0,0,3,3H37a3,3,0,0,0,3-3V6A3,3,0,0,0,37,3ZM11,5H37a1,1,0,0,1,1,1v8H10V6A1,1,0,0,1,11,5ZM37,44H11a1,1,0,0,1-1-1V16H38V43A1,1,0,0,1,37,44Z"/>
      <path d="M13,25h6V19H13Zm2-4h2v2H15Z"/>
      <path d="M13,33h6V27H13Zm2-4h2v2H15Z"/>
      <path d="M13,41h6V35H13Zm2-4h2v2H15Z"/>
      <path d="M21,25h6V19H21Zm2-4h2v2H23Z"/>
      <path d="M21,33h6V27H21Zm2-4h2v2H23Z"/>
      <path d="M21,41h6V35H21Zm2-4h2v2H23Z"/>
      <path d="M29,25h6V19H29Zm2-4h2v2H31Z"/>
      <path d="M29,33h6V27H29Zm2-4h2v2H31Z"/>
      <path d="M29,41h6V35H29Zm2-4h2v2H31Z"/>
      <rect x="25" y="8" width="2" height="3"/>
      <rect x="29" y="8" width="2" height="3"/>
      <rect x="33" y="8" width="2" height="3"/>
    </g>
  </g>
</svg>
