<svg xmlns="http://www.w3.org/2000/svg" viewBox="0 0 48 48">
  <title>calulater</title>
  <g id="calculater">
    <g>
      <polygon points="6 26 9 26 9 29 11 29 11 26 14 26 14 24 11 24 11 21 9 21 9 24 6 24 6 26"/>
      <rect x="6" y="38" width="8" height="2"/>
      <polygon points="37 29 39 29 39 26 42 26 42 24 39 24 39 21 37 21 37 24 34 24 34 26 37 26 37 29"/>
      <rect x="34" y="36" width="8" height="2"/>
      <rect x="34" y="40" width="8" height="2"/>
      <rect x="20" y="38" width="8" height="2" transform="translate(-20.548 28.393) rotate(-45)"/>
      <polygon points="21.879 28.536 24 26.414 26.121 28.536 27.535 27.122 25.414 25 27.535 22.878 26.121 21.464 24 23.586 21.879 21.464 20.465 22.878 22.586 25 20.465 27.122 21.879 28.536"/>
      <path d="M43,1H5A3,3,0,0,0,2,4V44a3,3,0,0,0,3,3H43a3,3,0,0,0,3-3V4A3,3,0,0,0,43,1ZM30,31H18V19H30ZM16,31H4V19H16ZM5,45a1,1,0,0,1-1-1V33H16V45Zm13,0V33H30V45Zm26-1a1,1,0,0,1-1,1H32V33H44Zm0-13H32V19H44Zm0-14H4V4A1,1,0,0,1,5,3H43a1,1,0,0,1,1,1Z"/>
      <path d="M40,12H29a1,1,0,0,0,0,2H40a1,1,0,0,0,0-2Z"/>
    </g>
  </g>
</svg>
