<svg xmlns="http://www.w3.org/2000/svg" viewBox="0 0 48 48">
  <title>card-unloack</title>
  <g id="card-unloack">
    <g>
      <path d="M41,8H6a5.006,5.006,0,0,0-5,5V36a5.006,5.006,0,0,0,5,5H24a1,1,0,0,0,0-2H6a3,3,0,0,1-3-3V25H44v2a1,1,0,0,0,2,0V13A5.006,5.006,0,0,0,41,8ZM6,10H41a3,3,0,0,1,3,3v3H3V13A3,3,0,0,1,6,10ZM3,23V18H44v5Z"/>
      <rect x="25" y="19" width="2" height="3"/>
      <rect x="29" y="19" width="2" height="3"/>
      <rect x="33" y="19" width="2" height="3"/>
      <rect x="37" y="19" width="2" height="3"/>
      <path d="M41.651,31.349a6.5,6.5,0,0,0-9.192,0,1,1,0,0,0,1.414,1.414,4.5,4.5,0,0,1,6.364,0A4.521,4.521,0,0,1,41.421,37H30v7a3,3,0,0,0,3,3h8a3,3,0,0,0,3-3V37h-.544A6.53,6.53,0,0,0,41.651,31.349ZM42,44a1,1,0,0,1-1,1H33a1,1,0,0,1-1-1V39H42Z"/>
    </g>
  </g>
</svg>
