<svg xmlns="http://www.w3.org/2000/svg" viewBox="0 0 48 48">
  <title>card-lock</title>
  <g id="card-lock">
    <g>
      <path d="M41,8H6a5.006,5.006,0,0,0-5,5V36a5.006,5.006,0,0,0,5,5H24a1,1,0,0,0,0-2H6a3,3,0,0,1-3-3V25H44v2a1,1,0,0,0,2,0V13A5.006,5.006,0,0,0,41,8ZM6,10H41a3,3,0,0,1,3,3v3H3V13A3,3,0,0,1,6,10ZM3,23V18H44v5Z"/>
      <rect x="25" y="19" width="2" height="3"/>
      <rect x="29" y="19" width="2" height="3"/>
      <rect x="33" y="19" width="2" height="3"/>
      <rect x="37" y="19" width="2" height="3"/>
      <path d="M43.5,36.75a6.5,6.5,0,0,0-13,0,.963.963,0,0,0,.05.25H30v7a3,3,0,0,0,3,3h8a3,3,0,0,0,3-3V37h-.55A.963.963,0,0,0,43.5,36.75Zm-11,0a4.5,4.5,0,0,1,9,0,.963.963,0,0,0,.05.25h-9.1A.963.963,0,0,0,32.5,36.75ZM42,44a1,1,0,0,1-1,1H33a1,1,0,0,1-1-1V39H42Z"/>
    </g>
  </g>
</svg>
