<svg xmlns="http://www.w3.org/2000/svg" viewBox="0 0 48 48">
  <title>card-close</title>
  <g id="card-close">
    <g>
      <path d="M41,9H36a1,1,0,0,0,0,2h5a3,3,0,0,1,3,3V37a3,3,0,0,1-3,3H6a3,3,0,0,1-3-3V14a3,3,0,0,1,3-3h6a1,1,0,0,0,0-2H6a5.006,5.006,0,0,0-5,5V37a5.006,5.006,0,0,0,5,5H41a5.006,5.006,0,0,0,5-5V14A5.006,5.006,0,0,0,41,9Z"/>
      <path d="M11,27a1,1,0,0,0,1,1h2a1,1,0,0,0,0-2H12A1,1,0,0,0,11,27Z"/>
      <path d="M18,28h4a1,1,0,0,0,0-2H18a1,1,0,0,0,0,2Z"/>
      <path d="M26,26a1,1,0,0,0,0,2h4a1,1,0,0,0,0-2Z"/>
      <path d="M34,28h2a1,1,0,0,0,0-2H34a1,1,0,0,0,0,2Z"/>
      <path d="M17.636,14.364a1,1,0,0,0,1.414,0L24,9.414l4.95,4.95a1,1,0,0,0,1.414-1.414L25.414,8l4.95-4.95A1,1,0,0,0,28.95,1.636L24,6.586l-4.95-4.95A1,1,0,0,0,17.636,3.05L22.586,8l-4.95,4.95A1,1,0,0,0,17.636,14.364Z"/>
    </g>
  </g>
</svg>
