<svg xmlns="http://www.w3.org/2000/svg" viewBox="0 0 48 48">
  <title>signature</title>
  <g id="signature">
    <g>
      <path d="M41,9H6a5.006,5.006,0,0,0-5,5V37a5.006,5.006,0,0,0,5,5H41a5.006,5.006,0,0,0,5-5V14A5.006,5.006,0,0,0,41,9ZM3,14a3,3,0,0,1,3-3H41a3,3,0,0,1,3,3v4H3ZM41,40H6a3,3,0,0,1-3-3V20H44V37A3,3,0,0,1,41,40Z"/>
      <path d="M39.44,28.855l-4.649,1.729a1,1,0,0,0-.577.559,2.975,2.975,0,0,1-.178.363,23.091,23.091,0,0,1-.193-4.148,1,1,0,0,0-.93-1.042,1.018,1.018,0,0,0-1.064.9l-.308,3.2q-.174-.366-.377-.715a1,1,0,0,0-1.856.377,3.741,3.741,0,0,1-.472,1.679c-.186.246-.533.341-.611.281a.981.981,0,0,0-.274-.139c.058-1.717-.033-3.961-.094-4.566a1,1,0,0,0-1.653-.653,12.741,12.741,0,0,1-4.059,2.395,1,1,0,0,0,.682,1.881,14.77,14.77,0,0,0,3.126-1.573c.023,1.111.02,2.4-.036,3.179l-3.769,1.785a1,1,0,0,0,.1,1.847,6.266,6.266,0,0,0,2.067.439,3.33,3.33,0,0,0,.86-.108,3.776,3.776,0,0,0,2.517-2.555,2.658,2.658,0,0,0,2.646-.885q.054.27.088.54a1,1,0,0,0,.968.875,1.7,1.7,0,0,0,1.165-.423,1,1,0,0,0,1.321.308,5.1,5.1,0,0,0,2-2.075l4.266-1.586a1,1,0,1,0-.7-1.875Z"/>
    </g>
  </g>
</svg>
