<svg xmlns="http://www.w3.org/2000/svg" viewBox="0 0 48 48">
  <title>card-reload</title>
  <g id="card-reload">
    <g>
      <path d="M24,39H6a3,3,0,0,1-3-3V25H44v2a1,1,0,0,0,2,0V13a5.006,5.006,0,0,0-5-5H6a5.006,5.006,0,0,0-5,5V36a5.006,5.006,0,0,0,5,5H24a1,1,0,0,0,0-2ZM3,23V18H44v5ZM6,10H41a3,3,0,0,1,3,3v3H3V13A3,3,0,0,1,6,10Z"/>
      <rect x="25" y="19" width="2" height="3"/>
      <rect x="29" y="19" width="2" height="3"/>
      <rect x="33" y="19" width="2" height="3"/>
      <rect x="37" y="19" width="2" height="3"/>
      <path d="M37.549,29.786a8.784,8.784,0,0,0-7.1,3.628,1,1,0,1,0,1.62,1.172,6.767,6.767,0,1,1-.631,6.806l2.315.578a1,1,0,1,0,.485-1.939l-4.778-1.2-2.359,4.718a1,1,0,0,0,1.789.895l.911-1.822a8.755,8.755,0,1,0,7.744-12.839Z"/>
    </g>
  </g>
</svg>
