<svg xmlns="http://www.w3.org/2000/svg" viewBox="0 0 48 48">
  <title>amex-card</title>
  <g id="amex-card">
    <g>
      <path d="M41,8H6a5.006,5.006,0,0,0-5,5V36a5.006,5.006,0,0,0,5,5H41a5.006,5.006,0,0,0,5-5V13A5.006,5.006,0,0,0,41,8Zm3,28a3,3,0,0,1-3,3H6a3,3,0,0,1-3-3V17H44ZM3,15V13a3,3,0,0,1,3-3H41a3,3,0,0,1,3,3v2Z"/>
      <path d="M5.553,32.895a1,1,0,0,0,1.342-.447L8.118,30H11a.949.949,0,0,0,.169-.034l.895,2.386a1,1,0,0,0,1.873-.7l-3-8a1,1,0,0,0-1.831-.1l-4,8A1,1,0,0,0,5.553,32.895Zm4.316-6.4.563,1.5H9.118Z"/>
      <path d="M16,33a1,1,0,0,0,1-1V26.414l2.293,2.293a1,1,0,0,0,1.414,0L23,26.414V32a1,1,0,0,0,2,0V24a1,1,0,0,0-1.707-.707L20,26.586l-3.293-3.293A1,1,0,0,0,15,24v8A1,1,0,0,0,16,33Z"/>
      <path d="M27,33h4a1,1,0,0,0,0-2H28V29h2a1,1,0,0,0,0-2H28V25h3a1,1,0,0,0,0-2H27a1,1,0,0,0-1,1v8A1,1,0,0,0,27,33Z"/>
      <path d="M33.4,32.8a1,1,0,0,0,1.4-.2L37,29.666,39.2,32.6a1,1,0,1,0,1.6-1.2L38.25,28l2.55-3.4a1,1,0,1,0-1.6-1.2L37,26.334,34.8,23.4a1,1,0,1,0-1.6,1.2L35.75,28,33.2,31.4A1,1,0,0,0,33.4,32.8Z"/>
    </g>
  </g>
</svg>
