<svg xmlns="http://www.w3.org/2000/svg" viewBox="0 0 48 48">
  <title>card-pass</title>
  <g id="card-pass">
    <g>
      <path d="M41,9H36a1,1,0,0,0,0,2h5a3,3,0,0,1,3,3V37a3,3,0,0,1-3,3H6a3,3,0,0,1-3-3V14a3,3,0,0,1,3-3h6a1,1,0,0,0,0-2H6a5.006,5.006,0,0,0-5,5V37a5.006,5.006,0,0,0,5,5H41a5.006,5.006,0,0,0,5-5V14A5.006,5.006,0,0,0,41,9Z"/>
      <path d="M11,27a1,1,0,0,0,1,1h2a1,1,0,0,0,0-2H12A1,1,0,0,0,11,27Z"/>
      <path d="M26,26a1,1,0,0,0,0,2h4a1,1,0,0,0,0-2Z"/>
      <path d="M18,26a1,1,0,0,0,0,2h4a1,1,0,0,0,0-2Z"/>
      <path d="M34,28h2a1,1,0,0,0,0-2H34a1,1,0,0,0,0,2Z"/>
      <path d="M21.944,13.255,35.569,3.822a1,1,0,0,0-1.139-1.645L22.056,10.745,16.641,6.231a1,1,0,1,0-1.281,1.537Z"/>
    </g>
  </g>
</svg>
