<svg xmlns="http://www.w3.org/2000/svg" viewBox="0 0 48 48">
  <title>seacret-number</title>
  <g id="secreat-number">
    <g>
      <path d="M41,9H6a5.006,5.006,0,0,0-5,5V37a5.006,5.006,0,0,0,5,5H41a5.006,5.006,0,0,0,5-5V14A5.006,5.006,0,0,0,41,9Zm3,28a3,3,0,0,1-3,3H6a3,3,0,0,1-3-3V14a3,3,0,0,1,3-3H41a3,3,0,0,1,3,3Z"/>
      <polygon points="7 26 27 26 27 24 9 24 9 22 27 22 27 20 7 20 7 26"/>
      <rect x="30" y="21" width="2" height="4"/>
      <rect x="34" y="21" width="2" height="4"/>
      <rect x="38" y="21" width="2" height="4"/>
    </g>
  </g>
</svg>
