<svg xmlns="http://www.w3.org/2000/svg" viewBox="0 0 48 48">
  <title>code-card</title>
  <g id="code-card">
    <g>
      <path d="M41,8H6a5.006,5.006,0,0,0-5,5V36a5.006,5.006,0,0,0,5,5H41a5.006,5.006,0,0,0,5-5V13A5.006,5.006,0,0,0,41,8ZM3,18H44v5H3Zm3-8H41a3,3,0,0,1,3,3v3H3V13A3,3,0,0,1,6,10ZM41,39H6a3,3,0,0,1-3-3V25H44V36A3,3,0,0,1,41,39Z"/>
      <rect x="25" y="19" width="2" height="3"/>
      <rect x="29" y="19" width="2" height="3"/>
      <rect x="33" y="19" width="2" height="3"/>
      <rect x="37" y="19" width="2" height="3"/>
    </g>
  </g>
</svg>
