<svg xmlns="http://www.w3.org/2000/svg" viewBox="0 0 48 48">
  <title>broken-card</title>
  <g id="brocken-card">
    <g>
      <path d="M41.376,8.038l2.331-2.331a1,1,0,0,0-1.414-1.414l-12,12,0,0-7,7,0,0-20,20a1,1,0,1,0,1.414,1.414L8.45,40.964A.95.95,0,0,0,8.625,41H41a5.006,5.006,0,0,0,5-5V13A4.991,4.991,0,0,0,41.376,8.038ZM31.414,18H44v5H26.414Zm8.336-8H41a3,3,0,0,1,3,3v3H33.414L39.47,9.944A.972.972,0,0,0,39.75,10ZM41,39H10.414l14-14H44V36A3,3,0,0,1,41,39Z"/>
      <path d="M3.645,37.858A2.966,2.966,0,0,1,3,36V25H19a1,1,0,0,0,0-2H3V18H26a1,1,0,0,0,0-2H3V13a3,3,0,0,1,3-3H31.75a1,1,0,0,0,0-2H6a5.006,5.006,0,0,0-5,5V36a5.014,5.014,0,0,0,1.076,3.1,1,1,0,1,0,1.568-1.24Z"/>
      <rect x="33" y="19" width="2" height="3"/>
      <rect x="37" y="19" width="2" height="3"/>
    </g>
  </g>
</svg>
