<svg xmlns="http://www.w3.org/2000/svg" viewBox="0 0 48 48">
  <title>master-card</title>
  <g id="credit-card">
    <g>
      <path d="M41,8H6a5.006,5.006,0,0,0-5,5V36a5.006,5.006,0,0,0,5,5H41a5.006,5.006,0,0,0,5-5V13A5.006,5.006,0,0,0,41,8Zm3,28a3,3,0,0,1-3,3H6a3,3,0,0,1-3-3V13a3,3,0,0,1,3-3H41a3,3,0,0,1,3,3Z"/>
      <path d="M28,25a9,9,0,1,0-9,9A9.01,9.01,0,0,0,28,25ZM17.66,31.832c-.01.01-.012.023-.021.033a6.926,6.926,0,0,1-1.593-.528l9.291-9.291a6.933,6.933,0,0,1,.492,1.433Zm-5.6-5.992a.95.95,0,0,0,.151-.1l7.7-7.674a6.938,6.938,0,0,1,1.308.3l-8.853,8.853A6.941,6.941,0,0,1,12.055,25.84Zm4.714-7.469-4.388,4.371A7.026,7.026,0,0,1,16.769,18.371ZM13.263,29a.981.981,0,0,0,.381-.23l9.441-9.441a7.049,7.049,0,0,1,1.126,1.015l-9.84,9.84c-.01.01-.013.023-.022.033A7.048,7.048,0,0,1,13.263,29Zm7.177,2.85,5.435-5.557A7.017,7.017,0,0,1,20.44,31.849Z"/>
      <path d="M29,16a8.989,8.989,0,0,0-3,.511A1,1,0,0,0,26.67,18.4a7,7,0,1,1-.064,13.183,1,1,0,0,0-.684,1.879A9,9,0,1,0,29,16Z"/>
    </g>
  </g>
</svg>
