<svg xmlns="http://www.w3.org/2000/svg" viewBox="0 0 48 48">
  <title>left-move-2</title>
  <g id="left-move-2">
    <g>
      <path d="M24,.5A23.5,23.5,0,0,0,7.383,40.617,23.5,23.5,0,1,0,40.617,7.383,23.344,23.344,0,0,0,24,.5ZM39.2,39.2A21.5,21.5,0,1,1,8.8,8.8,21.5,21.5,0,1,1,39.2,39.2Z"/>
      <path d="M32.707,13.293a1,1,0,0,0-1.414,0l-10,10a1,1,0,0,0,0,1.414l10,10a1,1,0,0,0,1.414-1.414L23.414,24l9.293-9.293A1,1,0,0,0,32.707,13.293Z"/>
      <path d="M16.414,24l9.293-9.293a1,1,0,0,0-1.414-1.414l-10,10a1,1,0,0,0,0,1.414l10,10a1,1,0,0,0,1.414-1.414Z"/>
    </g>
  </g>
</svg>
