<svg xmlns="http://www.w3.org/2000/svg" viewBox="0 0 48 48">
  <title>right-move-2</title>
  <g id="left-move-2">
    <g>
      <path d="M7.383,7.383a23.5,23.5,0,1,0,33.234,0A23.527,23.527,0,0,0,7.383,7.383ZM39.2,39.2A21.49,21.49,0,1,1,39.2,8.8,21.525,21.525,0,0,1,39.2,39.2Z"/>
      <path d="M26.707,23.293l-10-10a1,1,0,0,0-1.414,1.414L24.586,24l-9.293,9.293a1,1,0,1,0,1.414,1.414l10-10A1,1,0,0,0,26.707,23.293Z"/>
      <path d="M23.707,13.293a1,1,0,0,0-1.414,1.414L31.586,24l-9.293,9.293a1,1,0,1,0,1.414,1.414l10-10a1,1,0,0,0,0-1.414Z"/>
    </g>
  </g>
</svg>
