<svg xmlns="http://www.w3.org/2000/svg" viewBox="0 0 48 48">
  <title>graph-up</title>
  <g id="graph-up">
    <g>
      <path d="M45,44H4V3A1,1,0,0,0,2,3V44a2,2,0,0,0,2,2H45a1,1,0,0,0,0-2Z"/>
      <path d="M9,41h2a2,2,0,0,0,2-2V35a2,2,0,0,0-2-2H9a2,2,0,0,0-2,2v4A2,2,0,0,0,9,41Zm0-6h2v4H9Z"/>
      <path d="M18,26a2,2,0,0,0-2,2V39a2,2,0,0,0,2,2h2a2,2,0,0,0,2-2V28a2,2,0,0,0-2-2Zm2,13H18V28h2Z"/>
      <path d="M27,19a2,2,0,0,0-2,2V39a2,2,0,0,0,2,2h2a2,2,0,0,0,2-2V21a2,2,0,0,0-2-2Zm2,20H27V21h2Z"/>
      <path d="M38,12H36a2,2,0,0,0-2,2V39a2,2,0,0,0,2,2h2a2,2,0,0,0,2-2V14A2,2,0,0,0,38,12Zm0,27H36V14h2Z"/>
      <path d="M8,23a.936.936,0,0,0,.164-.014C8.746,22.89,22.421,20.459,38,3.479V6a1,1,0,0,0,2,0V1a1,1,0,0,0-1-1H34a1,1,0,0,0,0,2h2.643C21.515,18.542,7.973,20.991,7.836,21.014A1,1,0,0,0,8,23Z"/>
    </g>
  </g>
</svg>
