<svg xmlns="http://www.w3.org/2000/svg" viewBox="0 0 48 48">
  <title>progres-bar</title>
  <g id="progres-bar">
    <g>
      <path d="M12,3H8A3,3,0,0,0,5,6V43a3,3,0,0,0,3,3h4a3,3,0,0,0,3-3V6A3,3,0,0,0,12,3Zm1,40a1,1,0,0,1-1,1H8a1,1,0,0,1-1-1V6A1,1,0,0,1,8,5h4a1,1,0,0,1,1,1Z"/>
      <path d="M25,21H21a3,3,0,0,0-3,3V43a3,3,0,0,0,3,3h4a3,3,0,0,0,3-3V24A3,3,0,0,0,25,21Zm1,22a1,1,0,0,1-1,1H21a1,1,0,0,1-1-1V24a1,1,0,0,1,1-1h4a1,1,0,0,1,1,1Z"/>
      <path d="M38,33H34a3,3,0,0,0-3,3v7a3,3,0,0,0,3,3h4a3,3,0,0,0,3-3V36A3,3,0,0,0,38,33Zm1,10a1,1,0,0,1-1,1H34a1,1,0,0,1-1-1V36a1,1,0,0,1,1-1h4a1,1,0,0,1,1,1Z"/>
    </g>
  </g>
</svg>
