<svg xmlns="http://www.w3.org/2000/svg" viewBox="0 0 48 48">
  <title>graph-x</title>
  <g id="graph-2-2" data-name="graph">
    <g>
      <path d="M45,44H4V3A1,1,0,0,0,2,3V44a2,2,0,0,0,2,2H45a1,1,0,0,0,0-2Z"/>
      <path d="M9,42h2a2,2,0,0,0,2-2V17a2,2,0,0,0-2-2H9a2,2,0,0,0-2,2V40A2,2,0,0,0,9,42ZM9,17h2V40H9Z"/>
      <path d="M18,42h2a2,2,0,0,0,2-2V27a2,2,0,0,0-2-2H18a2,2,0,0,0-2,2V40A2,2,0,0,0,18,42Zm0-15h2V40H18Z"/>
      <path d="M27,42h2a2,2,0,0,0,2-2V7a2,2,0,0,0-2-2H27a2,2,0,0,0-2,2V40A2,2,0,0,0,27,42ZM27,7h2V40H27Z"/>
      <path d="M36,42h2a2,2,0,0,0,2-2V34a2,2,0,0,0-2-2H36a2,2,0,0,0-2,2v6A2,2,0,0,0,36,42Zm0-8h2v6H36Z"/>
    </g>
  </g>
</svg>
