<svg xmlns="http://www.w3.org/2000/svg" viewBox="0 0 48 48">
  <title>graph-y</title>
  <g id="graph-2">
    <g>
      <path d="M8,13H30a2,2,0,0,0,2-2V9a2,2,0,0,0-2-2H8A2,2,0,0,0,6,9v2A2,2,0,0,0,8,13ZM8,9H30v2H8Z"/>
      <path d="M8,22H19a2,2,0,0,0,2-2V18a2,2,0,0,0-2-2H8a2,2,0,0,0-2,2v2A2,2,0,0,0,8,22Zm0-4H19v2H8Z"/>
      <path d="M8,31H41a2,2,0,0,0,2-2V27a2,2,0,0,0-2-2H8a2,2,0,0,0-2,2v2A2,2,0,0,0,8,31Zm0-4H41v2H8Z"/>
      <path d="M8,40h7a2,2,0,0,0,2-2V36a2,2,0,0,0-2-2H8a2,2,0,0,0-2,2v2A2,2,0,0,0,8,40Zm0-4h7v2H8Z"/>
      <path d="M45,44H4V3A1,1,0,0,0,2,3V44a2,2,0,0,0,2,2H45a1,1,0,0,0,0-2Z"/>
    </g>
  </g>
</svg>
