<svg xmlns="http://www.w3.org/2000/svg" viewBox="0 0 48 48">
  <title>statitstics</title>
  <g id="statistics">
    <path d="M45,44H4V37.27l5.733-9.826a1,1,0,0,1,1.463-.3l4.392,3.293a3,3,0,0,0,4.4-.911l5.752-10.066a1,1,0,0,1,1.469-.3l4.375,3.281a3,3,0,0,0,4.4-.911L42,11.015V13a1,1,0,0,0,2,0V8a1,1,0,0,0-1-1H38a1,1,0,0,0,0,2h2.848L34.256,20.537a1,1,0,0,1-1.469.3L28.412,17.56a3,3,0,0,0-4.4.911L18.256,28.537a1,1,0,0,1-1.469.3L12.4,25.548a3,3,0,0,0-4.391.888L4,33.3V3A1,1,0,0,0,2,3V44a2,2,0,0,0,2,2H45a1,1,0,0,0,0-2Z"/>
  </g>
</svg>
