<svg xmlns="http://www.w3.org/2000/svg" viewBox="0 0 48 48">
  <title>graph-down</title>
  <g id="graph-y">
    <g>
      <path d="M45,44H4V3A1,1,0,0,0,2,3V44a2,2,0,0,0,2,2H45a1,1,0,0,0,0-2Z"/>
      <path d="M36,33a2,2,0,0,0-2,2v4a2,2,0,0,0,2,2h2a2,2,0,0,0,2-2V35a2,2,0,0,0-2-2Zm0,6V35h2v4Z"/>
      <path d="M27,26a2,2,0,0,0-2,2V39a2,2,0,0,0,2,2h2a2,2,0,0,0,2-2V28a2,2,0,0,0-2-2Zm0,13V28h2V39Z"/>
      <path d="M18,19a2,2,0,0,0-2,2V39a2,2,0,0,0,2,2h2a2,2,0,0,0,2-2V21a2,2,0,0,0-2-2Zm0,20V21h2V39Z"/>
      <path d="M9,41h2a2,2,0,0,0,2-2V14a2,2,0,0,0-2-2H9a2,2,0,0,0-2,2V39A2,2,0,0,0,9,41ZM9,14h2V39H9Z"/>
      <path d="M39.458,22.656,37.4,24.2a1,1,0,1,0,1.2,1.6l4-3c.015-.011.021-.028.035-.039a1.191,1.191,0,0,0,.353-.662c0-.013.009-.024.01-.038a.946.946,0,0,0-.018-.131.7.7,0,0,0-.119-.4A.931.931,0,0,0,42.8,21.4l-3-4a1,1,0,1,0-1.6,1.2l1.563,2.084A40.189,40.189,0,0,1,12.85,2.474a1,1,0,1,0-1.7,1.053A42.236,42.236,0,0,0,39.458,22.656Z"/>
    </g>
  </g>
</svg>
