<?xml version="1.0" encoding="utf-8"?>
<!-- Generator: Adobe Illustrator 18.0.0, SVG Export Plug-In . SVG Version: 6.00 Build 0)  -->
<!DOCTYPE svg PUBLIC "-//W3C//DTD SVG 1.1//EN" "http://www.w3.org/Graphics/SVG/1.1/DTD/svg11.dtd">
<svg version="1.1" xmlns="http://www.w3.org/2000/svg" xmlns:xlink="http://www.w3.org/1999/xlink" x="0px" y="0px"
	 viewBox="0 0 48 48" enable-background="new 0 0 48 48" xml:space="preserve">
<g id="Layer_1">
</g>
<g id="horizotal-bar">
</g>
<g id="verticle-bar">
</g>
<g id="hike">
</g>
<g id="node">
</g>
<g id="wave">
</g>
<g id="block">
</g>
<g id="piller">
</g>
<g id="graph_1_">
</g>
<g id="chart">
</g>
<g id="white-board">
</g>
<g id="statistics">
</g>
<g id="paraboal-s">
</g>
<g id="parabola">
</g>
<g id="graph-smooth">
</g>
<g id="graph-up">
</g>
<g id="graph-y">
</g>
<g id="graph-2">
</g>
<g id="graph">
</g>
<g id="part">
</g>
<g id="fill">
</g>
<g id="cross-2">
</g>
<g id="cross">
</g>
<g id="chart-7">
	<g>
		<path fill="none" stroke="#000000" stroke-width="2" stroke-linecap="round" stroke-linejoin="round" stroke-miterlimit="10" d="
			M21.1715736,24L7.0963326,9.9247599c-0.8840127,1.0592356-1.65098,2.1822596-2.3047862,3.3520679l13.5515995,13.5515985
			L21.1715736,24z"/>
		<path fill="none" stroke="#000000" stroke-width="2" stroke-linecap="round" stroke-linejoin="round" stroke-miterlimit="10" d="
			M26.8284264,18.3431454L13.2768278,4.7915463c-1.1698084,0.6538062-2.2928324,1.4207735-3.3520679,2.3047862L24,21.1715736
			L26.8284264,18.3431454z"/>
		<path fill="none" stroke="#000000" stroke-width="2" stroke-linecap="round" stroke-linejoin="round" stroke-miterlimit="10" d="
			M18.3431454,26.8284264L4.7915463,13.2768278c-0.7071934,1.2654028-1.2796891,2.5847979-1.7175739,3.9392805L15.514719,29.6568546
			L18.3431454,26.8284264z"/>
		<path fill="none" stroke="#000000" stroke-width="2" stroke-linecap="round" stroke-linejoin="round" stroke-miterlimit="10" d="
			M12.6862917,32.4852829L2.1001468,21.8991375c-0.1871346,1.9622383-0.1056516,3.9438972,0.2328396,5.8896923l7.524878,7.5248795
			L12.6862917,32.4852829z"/>
		<path fill="none" stroke="#000000" stroke-width="2" stroke-linecap="round" stroke-linejoin="round" stroke-miterlimit="10" d="
			M15.514719,29.6568546L3.0739725,17.2161083c-0.4940341,1.5281944-0.822685,3.0981674-0.9738257,4.6830292l10.5861454,10.5861454
			L15.514719,29.6568546z"/>
		<path fill="none" stroke="#000000" stroke-width="2" stroke-linecap="round" stroke-linejoin="round" stroke-miterlimit="10" d="
			M29.6568546,15.514719L17.2161083,3.0739725c-1.3544827,0.4378848-2.6738777,1.0103805-3.9392805,1.7175739l13.5515985,13.5515995
			L29.6568546,15.514719z"/>
		<path fill="none" stroke="#000000" stroke-width="2" stroke-linecap="round" stroke-linejoin="round" stroke-miterlimit="10" d="
			M32.4852829,12.6862917L21.8991375,2.1001468c-1.5848618,0.1511407-3.1548347,0.4797916-4.6830292,0.9738257L29.6568546,15.514719
			L32.4852829,12.6862917z"/>
		<path fill="none" stroke="#000000" stroke-width="2" stroke-linecap="round" stroke-linejoin="round" stroke-miterlimit="10" d="
			M35.3137093,15.514719l10.5861435,10.5861435c0.1871338-1.9622383,0.1056519-3.9438972-0.2328377-5.8896923l-7.5248795-7.5248785
			L35.3137093,15.514719z"/>
		<path fill="none" stroke="#000000" stroke-width="2" stroke-linecap="round" stroke-linejoin="round" stroke-miterlimit="10" d="
			M45.6670151,20.2111702c-0.6422424-3.6918106-2.2289162-7.2496147-4.7633476-10.2864103l-2.7615318,2.7615318
			L45.6670151,20.2111702z"/>
		<path fill="none" stroke="#000000" stroke-width="2" stroke-linecap="round" stroke-linejoin="round" stroke-miterlimit="10" d="
			M35.3137093,9.8578644l-7.5248795-7.524878c-1.9457951-0.3384912-3.927454-0.4199742-5.8896923-0.2328396l10.5861454,10.5861454
			L35.3137093,9.8578644z"/>
		<path fill="none" stroke="#000000" stroke-width="2" stroke-linecap="round" stroke-linejoin="round" stroke-miterlimit="10" d="
			M38.0752411,7.0963326c-3.0367966-2.5344319-6.5946007-4.1211066-10.2864113-4.7633462l7.5248795,7.524878L38.0752411,7.0963326z"
			/>
		<path fill="none" stroke="#000000" stroke-width="2" stroke-linecap="round" stroke-linejoin="round" stroke-miterlimit="10" d="
			M9.9247599,40.9036674c3.0367956,2.5344315,6.5945997,4.1211052,10.2864103,4.7633476l-7.5248785-7.5248795L9.9247599,40.9036674z
			"/>
		<path fill="none" stroke="#000000" stroke-width="2" stroke-linecap="round" stroke-linejoin="round" stroke-miterlimit="10" d="
			M2.3329864,27.7888298c0.6422396,3.6918106,2.2289143,7.2496147,4.7633462,10.2864113l2.7615318-2.7615318L2.3329864,27.7888298z"
			/>
		<path fill="none" stroke="#000000" stroke-width="2" stroke-linecap="round" stroke-linejoin="round" stroke-miterlimit="10" d="
			M21.1715736,29.6568546l13.5515976,13.5515995c1.1698074-0.6538048,2.2928314-1.4207726,3.3520699-2.3047867L24,26.8284264
			L21.1715736,29.6568546z"/>
		<path fill="none" stroke="#000000" stroke-width="2" stroke-linecap="round" stroke-linejoin="round" stroke-miterlimit="10" d="
			M26.8284264,24l14.0752411,14.0752411c0.8840141-1.0592384,1.6509819-2.1822624,2.3047867-3.3520699L29.6568546,21.1715736
			L26.8284264,24z"/>
		<path fill="none" stroke="#000000" stroke-width="2" stroke-linecap="round" stroke-linejoin="round" stroke-miterlimit="10" d="
			M35.3137093,15.514719l-2.8284264,2.8284264l12.4407463,12.4407463c0.4940338-1.5281944,0.8226814-3.0981674,0.9738235-4.6830292
			L35.3137093,15.514719z"/>
		<path fill="none" stroke="#000000" stroke-width="2" stroke-linecap="round" stroke-linejoin="round" stroke-miterlimit="10" d="
			M29.6568546,21.1715736l13.5515995,13.5515976c0.7071915-1.2654037,1.2796898-2.5847969,1.7175751-3.9392796
			L32.4852829,18.3431454L29.6568546,21.1715736z"/>
		<path fill="none" stroke="#000000" stroke-width="2" stroke-linecap="round" stroke-linejoin="round" stroke-miterlimit="10" d="
			M18.3431454,32.4852829l12.4407463,12.4407463c1.3544827-0.4378853,2.6738758-1.0103836,3.9392796-1.7175751
			L21.1715736,29.6568546L18.3431454,32.4852829z"/>
		<path fill="none" stroke="#000000" stroke-width="2" stroke-linecap="round" stroke-linejoin="round" stroke-miterlimit="10" d="
			M12.6862917,38.1421356l7.5248785,7.5248795c1.9457951,0.3384895,3.927454,0.4199715,5.8896923,0.2328377L15.514719,35.3137093
			L12.6862917,38.1421356z"/>
		<path fill="none" stroke="#000000" stroke-width="2" stroke-linecap="round" stroke-linejoin="round" stroke-miterlimit="10" d="
			M15.514719,35.3137093l10.5861435,10.5861435c1.5848618-0.1511421,3.1548347-0.4797897,4.6830292-0.9738235L18.3431454,32.4852829
			L15.514719,35.3137093z"/>
	</g>
</g>
<g id="chart-6">
</g>
<g id="chart-4">
</g>
<g id="round-chart2">
</g>
<g id="round-chart">
</g>
<g id="community-3">
</g>
<g id="community_1_">
</g>
<g id="old-hairstylr">
</g>
<g id="girl-hair">
</g>
<g id="small-hair">
</g>
<g id="round-hair">
</g>
<g id="girl-2">
</g>
<g id="boy">
</g>
<g id="girl">
</g>
<g id="men">
</g>
<g id="women">
</g>
<g id="male_1_">
</g>
<g id="male-female">
</g>
<g id="group-m">
</g>
<g id="group-f">
</g>
<g id="male-1">
</g>
<g id="male">
</g>
<g id="read-f">
</g>
<g id="read-m">
</g>
<g id="message-f">
</g>
<g id="message-m">
</g>
<g id="chat-f">
</g>
<g id="chat-m">
</g>
<g id="think-f">
</g>
<g id="think-m">
</g>
<g id="comment-f">
</g>
<g id="comment-m">
</g>
<g id="unloack-rd">
</g>
<g id="user-rd">
</g>
<g id="favorite-rd">
</g>
<g id="reload-rd">
</g>
<g id="bookmark-rd">
</g>
<g id="success-rd">
</g>
<g id="dealete">
</g>
<g id="remove-user_1_">
</g>
<g id="add-user_1_">
</g>
<g id="user-round">
</g>
<g id="upload">
</g>
<g id="download">
</g>
<g id="move">
</g>
<g id="unview">
</g>
<g id="notify">
</g>
<g id="settings">
</g>
<g id="cloud">
</g>
<g id="favorite">
</g>
<g id="reload">
</g>
<g id="bookmark">
</g>
<g id="contact">
</g>
<g id="call">
</g>
<g id="vie">
</g>
<g id="mail">
</g>
<g id="date">
</g>
<g id="trash">
</g>
<g id="time">
</g>
<g id="star">
</g>
<g id="unlock">
</g>
<g id="lock-user">
</g>
<g id="reload-user">
</g>
<g id="refresh-user">
</g>
<g id="search-user">
</g>
<g id="edit-user">
</g>
<g id="success">
</g>
<g id="delete-user">
</g>
<g id="remove-user">
</g>
<g id="add-user">
</g>
<g id="user">
</g>
<g id="Layer_2">
</g>
<g id="block-user">
</g>
<g id="boy-1">
</g>
<g id="community">
</g>
<g id="love-people">
</g>
<g id="chart-5">
</g>
<g id="graph-top">
</g>
<g id="graph-node">
</g>
</svg>
