<svg xmlns="http://www.w3.org/2000/svg" viewBox="0 0 48 48">
  <title>chat-m</title>
  <g id="chat-m">
    <g>
      <path d="M25.542,34.548a11.132,11.132,0,0,1-3.153-1.558A14.034,14.034,0,0,0,25.1,28.676l.025-.016a1.6,1.6,0,0,0,.63-.561c.978-1.73,1.226-3.136.739-4.178a2.279,2.279,0,0,0-.789-.93,13.966,13.966,0,0,0-.409-3.3c-.479-1.779-2.691-5.143-7.633-5.143s-7.153,3.364-7.634,5.147a13.961,13.961,0,0,0-.409,3.292,2.284,2.284,0,0,0-.789.93c-.487,1.042-.239,2.448.739,4.178a1.6,1.6,0,0,0,.631.562l.026.016a14.035,14.035,0,0,0,2.714,4.313,11.132,11.132,0,0,1-3.152,1.558C6.468,35.6,2.009,37.819,1.667,44.981a1,1,0,0,0,.952,1.046h.048a1,1,0,0,0,1-.953c.277-5.813,3.557-7.62,6.729-8.621a12.7,12.7,0,0,0,4.118-2.147,5.5,5.5,0,0,0,6.308,0,12.7,12.7,0,0,0,4.119,2.147c3.172,1,6.452,2.808,6.728,8.621a1,1,0,0,0,1,.953h.048a1,1,0,0,0,.952-1.046C33.325,37.82,28.866,35.6,25.542,34.548Zm-13.5-6.764a1.49,1.49,0,0,0-.777-.822l-.045-.028c-.767-1.421-.636-2-.575-2.148a.36.36,0,0,1,.175-.185,1,1,0,0,0,.817-1.038,12.423,12.423,0,0,1,.333-3.347c.01-.037,1.041-3.663,5.7-3.663,4.61,0,5.661,3.52,5.7,3.659a12.542,12.542,0,0,1,.334,3.352,1,1,0,0,0,.817,1.038.369.369,0,0,1,.167.168c.137.293.053,1.011-.568,2.165l-.045.028a1.485,1.485,0,0,0-.779.828c-.336,1.167-2.6,5.513-5.628,5.513S12.375,28.957,12.038,27.784Z"/>
      <path d="M36.313,1.375c-6.169,0-11.187,4.318-11.187,9.625a9.636,9.636,0,0,0,6.2,8.618,10.56,10.56,0,0,1-.262,2c-.277,1.458-.516,2.717.117,3.482a1.444,1.444,0,0,0,1.136.521c.714,0,1.454-.625,4.061-3.088.85-.8,2-1.888,2.389-2.143C43.833,19.42,47.5,15.487,47.5,11,47.5,5.693,42.481,1.375,36.313,1.375Zm1.973,17.073c-.558.1-1.121.59-3.285,2.635-.652.616-1.521,1.437-2.166,1.992.054-.369.131-.775.189-1.08.333-1.754.677-3.567-.732-4.139-3.139-1.273-5.167-3.965-5.167-6.856,0-4.2,4.122-7.625,9.188-7.625S45.5,6.8,45.5,11C45.5,14.555,42.466,17.688,38.285,18.448Z"/>
    </g>
  </g>
</svg>
