<svg xmlns="http://www.w3.org/2000/svg" viewBox="0 0 48 48">
  <title>timer</title>
  <g id="timer">
    <g>
      <path d="M25,24.586V15a1,1,0,0,0-2,0V25a1,1,0,0,0,.293.707l8,8a1,1,0,0,0,1.414-1.414Z"/>
      <path d="M38.809,38.395A19.75,19.75,0,0,0,43.445,20.4,10.5,10.5,0,0,0,28.6,5.555a19.34,19.34,0,0,0-9.2,0A10.5,10.5,0,0,0,4.555,20.4,19.75,19.75,0,0,0,9.191,38.395l-5.9,5.9a1,1,0,1,0,1.414,1.414l5.9-5.9a19.878,19.878,0,0,0,26.79,0l5.9,5.9a1,1,0,0,0,1.414-1.414Zm3.2-31.406a8.507,8.507,0,0,1,.751,11.148,20.067,20.067,0,0,0-11.9-11.9A8.507,8.507,0,0,1,42.011,6.989Zm-36.021,0a8.507,8.507,0,0,1,11.148-.751,20.067,20.067,0,0,0-11.9,11.9A8.507,8.507,0,0,1,5.989,6.989ZM24,43A18,18,0,1,1,42,25,18.021,18.021,0,0,1,24,43Z"/>
      <path d="M23.29,10.71a1.029,1.029,0,0,0,.33.21.989.989,0,0,0,1.09-.21,1.161,1.161,0,0,0,.21-.33.941.941,0,0,0,0-.76,1.029,1.029,0,0,0-.21-.33,1.047,1.047,0,0,0-1.42,0,1.029,1.029,0,0,0-.21.33A1,1,0,0,0,23,10a.832.832,0,0,0,.08.38A1.161,1.161,0,0,0,23.29,10.71Z"/>
      <path d="M24.71,39.29a1.047,1.047,0,0,0-1.42,0,1.029,1.029,0,0,0-.21.33A1,1,0,0,0,23,40a.989.989,0,0,0,.29.71,1.029,1.029,0,0,0,.33.21A1,1,0,0,0,24,41a1.036,1.036,0,0,0,.71-.29,1.161,1.161,0,0,0,.21-.33.941.941,0,0,0,0-.76A1.029,1.029,0,0,0,24.71,39.29Z"/>
      <path d="M39.92,24.62a1.029,1.029,0,0,0-.21-.33,1.047,1.047,0,0,0-1.42,0,1.147,1.147,0,0,0-.21.33A.832.832,0,0,0,38,25a.989.989,0,0,0,.069.38,1.245,1.245,0,0,0,.221.32.974.974,0,0,0,1.09.22,1.012,1.012,0,0,0,.33-.22.974.974,0,0,0,.21-1.08Z"/>
      <path d="M8.29,24.29A1.048,1.048,0,0,0,8,25a.99.99,0,0,0,1,1,1,1,0,0,0,.38-.08.9.9,0,0,0,.54-.54A.844.844,0,0,0,10,25a1,1,0,0,0-1.71-.71Z"/>
    </g>
  </g>
</svg>
