<svg xmlns="http://www.w3.org/2000/svg" viewBox="0 0 48 48">
  <title>clock</title>
  <g id="clock">
    <g>
      <path d="M24,5A19,19,0,1,0,43,24,19.022,19.022,0,0,0,24,5Zm0,36A17,17,0,1,1,41,24,17.019,17.019,0,0,1,24,41Z"/>
      <path d="M24,9.93a1,1,0,0,0,.38-.08A.96.96,0,0,0,25,8.93a1,1,0,1,0-2,0,.99.99,0,0,0,1,1Z"/>
      <path d="M24.56,38.24a.778.778,0,0,0-.18-.091.658.658,0,0,0-.18-.06,1.018,1.018,0,0,0-.91.27,1.3,1.3,0,0,0-.221.33,1,1,0,0,0,1.311,1.3,1.015,1.015,0,0,0,.33-.221,1.036,1.036,0,0,0,.29-.7,1.054,1.054,0,0,0-.29-.71A1.458,1.458,0,0,0,24.56,38.24Z"/>
      <path d="M39.99,23.62a1.046,1.046,0,0,0-.21-.33,1.023,1.023,0,0,0-.16-.12.558.558,0,0,0-.17-.09.621.621,0,0,0-.19-.061.933.933,0,0,0-.57.061,1.04,1.04,0,0,0-.33.21,1.168,1.168,0,0,0-.21.33.844.844,0,0,0-.08.38,1,1,0,0,0,1.711.71,1.182,1.182,0,0,0,.21-.33.952.952,0,0,0,0-.76Z"/>
      <path d="M9.64,23.29a1.047,1.047,0,0,0-1.42,0,1.147,1.147,0,0,0-.21.33.989.989,0,0,0,.21,1.09,1.147,1.147,0,0,0,.33.21.989.989,0,0,0,1.09-.21A.989.989,0,0,0,9.93,24a1,1,0,0,0-.08-.38A1.029,1.029,0,0,0,9.64,23.29Z"/>
      <path d="M35.359,12.64a1.009,1.009,0,0,0-1.63.32.989.989,0,0,0-.069.38,1.038,1.038,0,0,0,.069.39.878.878,0,0,0,.221.32,1,1,0,0,0,1.409,0,.866.866,0,0,0,.221-.32,1.049,1.049,0,0,0,.08-.39,1,1,0,0,0-.08-.38A.866.866,0,0,0,35.359,12.64Z"/>
      <path d="M13.9,33.819c-.06-.029-.109-.06-.17-.09a1.356,1.356,0,0,0-.189-.05.851.851,0,0,0-.391,0,1.074,1.074,0,0,0-.189.05c-.061.03-.12.061-.17.09a.618.618,0,0,0-.15.131.978.978,0,0,0,0,1.409.866.866,0,0,0,.32.221,1,1,0,0,0,.38.08,1.049,1.049,0,0,0,.39-.08.866.866,0,0,0,.32-.221,1,1,0,0,0,0-1.409A1.516,1.516,0,0,0,13.9,33.819Z"/>
      <path d="M34.27,33.729a1.011,1.011,0,0,0-.319.221,1,1,0,0,0,0,1.409.976.976,0,0,0,1.409,0,1,1,0,0,0,0-1.409A1.017,1.017,0,0,0,34.27,33.729Z"/>
      <path d="M14.05,12.64a1.024,1.024,0,0,0-1.41,0,.875.875,0,0,0-.22.32,1,1,0,0,0-.08.38,1.049,1.049,0,0,0,.08.39,1.061,1.061,0,0,0,.54.54,1.01,1.01,0,0,0,1.31-1.31A1.012,1.012,0,0,0,14.05,12.64Z"/>
      <path d="M25,23.556V14a1,1,0,0,0-2,0V24a1,1,0,0,0,.33.742L31.7,32.3a1,1,0,0,0,1.34-1.484Z"/>
      <path d="M24,1A23,23,0,1,0,47,24,23.026,23.026,0,0,0,24,1Zm0,44A21,21,0,1,1,45,24,21.024,21.024,0,0,1,24,45Z"/>
    </g>
  </g>
</svg>
