<svg xmlns="http://www.w3.org/2000/svg" viewBox="0 0 48 48">
  <title>cloud-right</title>
  <g id="cloud-success">
    <g>
      <path d="M32.349,20.241l-13.3,11.4-5.345-5.345a1,1,0,0,0-1.414,1.414l6,6a1,1,0,0,0,1.358.052l14-12a1,1,0,1,0-1.3-1.518Z" fill="#080808"/>
      <path d="M38.5,19c-.181,0-.361,0-.542.016.028-.347.042-.685.042-1.016a14,14,0,0,0-28,0c0,.331.014.669.042,1.016C9.861,19,9.681,19,9.5,19a9.5,9.5,0,0,0,0,19h29a9.5,9.5,0,0,0,0-19Zm0,17H9.5a7.5,7.5,0,0,1,0-15,7.588,7.588,0,0,1,1.5.149A1,1,0,0,0,12.182,20a12,12,0,1,1,23.637,0A1,1,0,0,0,37,21.149,7.588,7.588,0,0,1,38.5,21a7.5,7.5,0,0,1,0,15Z" fill="#080808"/>
    </g>
  </g>
</svg>
