<svg xmlns="http://www.w3.org/2000/svg" viewBox="0 0 48 48">
  <title>cloud-close</title>
  <g id="cloud-close">
    <g>
      <path d="M31.071,18.929a1,1,0,0,0-1.414,0L24,24.586l-5.657-5.657a1,1,0,0,0-1.414,1.414L22.586,26l-5.657,5.657a1,1,0,1,0,1.414,1.414L24,27.414l5.657,5.657a1,1,0,0,0,1.414-1.414L25.414,26l5.657-5.657A1,1,0,0,0,31.071,18.929Z" fill="#080808"/>
      <path d="M38.5,21c-.181,0-.361,0-.542.016.028-.347.042-.685.042-1.016a14,14,0,0,0-28,0c0,.331.014.669.042,1.016C9.861,21,9.681,21,9.5,21a9.5,9.5,0,0,0,0,19h29a9.5,9.5,0,0,0,0-19Zm0,17H9.5a7.5,7.5,0,0,1,0-15,7.588,7.588,0,0,1,1.5.149A1,1,0,0,0,12.182,22a12,12,0,1,1,23.637,0A1,1,0,0,0,37,23.149,7.588,7.588,0,0,1,38.5,23a7.5,7.5,0,0,1,0,15Z" fill="#080808"/>
    </g>
  </g>
</svg>
