<svg xmlns="http://www.w3.org/2000/svg" viewBox="0 0 48 48">
  <title>cloud-up</title>
  <g id="cloud-up">
    <path d="M38.5,19c-.181,0-.361,0-.542.016.028-.347.042-.685.042-1.016a14,14,0,0,0-28,0c0,.331.014.669.042,1.016C9.861,19,9.681,19,9.5,19a9.5,9.5,0,0,0,0,19H23v8a1,1,0,0,0,2,0V38H38.5a9.5,9.5,0,0,0,0-19Zm0,17H25V25.414l5.125,5.126a1,1,0,0,0,1.414-1.414l-6.832-6.832a1,1,0,0,0-1.415,0L16.46,29.126a1,1,0,0,0,1.414,1.414L23,25.414V36H9.5a7.5,7.5,0,0,1,0-15,7.588,7.588,0,0,1,1.5.149A1,1,0,0,0,12.182,20a12,12,0,1,1,23.637,0A1,1,0,0,0,37,21.149,7.588,7.588,0,0,1,38.5,21a7.5,7.5,0,0,1,0,15Z" fill="#080808"/>
  </g>
</svg>
