<?xml version="1.0" encoding="utf-8"?>
<!-- Generator: Adobe Illustrator 18.0.0, SVG Export Plug-In . SVG Version: 6.00 Build 0)  -->
<!DOCTYPE svg PUBLIC "-//W3C//DTD SVG 1.1//EN" "http://www.w3.org/Graphics/SVG/1.1/DTD/svg11.dtd">
<svg version="1.1" xmlns="http://www.w3.org/2000/svg" xmlns:xlink="http://www.w3.org/1999/xlink" x="0px" y="0px"
	 viewBox="0 0 48 48" enable-background="new 0 0 48 48" xml:space="preserve">
<g id="Layer_1">
</g>
<g id="medium-box">
</g>
<g id="minuse">
</g>
<g id="timer">
</g>
<g id="drawer-2">
</g>
<g id="trash-box">
</g>
<g id="book-label">
</g>
<g id="folder-label">
</g>
<g id="page-back">
</g>
<g id="close-page_1_">
</g>
<g id="pages">
</g>
<g id="list">
</g>
<g id="wave">
</g>
<g id="close-page">
</g>
<g id="add-page">
</g>
<g id="code">
</g>
<g id="shift-mode">
</g>
<g id="bookmarks_1_">
</g>
<g id="bookmarks">
</g>
<g id="open-pages">
</g>
<g id="note">
</g>
<g id="locater">
</g>
<g id="navigater">
</g>
<g id="alarm">
</g>
<g id="clock">
</g>
<g id="time-3">
</g>
<g id="time-1">
</g>
<g id="time">
</g>
<g id="downloads">
</g>
<g id="uploads">
</g>
<g id="drawer-1">
</g>
<g id="mail_drawer">
</g>
<g id="drawer">
</g>
<g id="mail_1_">
</g>
<g id="mail-open">
</g>
<g id="open">
</g>
<g id="card">
</g>
<g id="mails">
</g>
<g id="mail">
</g>
<g id="drag-l-t">
</g>
<g id="comment">
	<g>
		<path fill="none" stroke="#000000" stroke-width="2" stroke-linejoin="round" stroke-miterlimit="10" d="M40,19
			c3,2.8,4.9,6.9,4.9,11.4c0,2.3-0.5,4.5-1.4,6.5c0,0-0.8,4.2,3.5,8.5c0,0-7.9,1.7-10.7-1c-2.1,1-4.4,1.6-6.9,1.6
			c-5.1,0-9.7-2.5-12.5-6.3"/>
		<path fill="none" stroke="#000000" stroke-width="2" stroke-linejoin="round" stroke-miterlimit="10" d="M1,35.6
			c0,0,8.3,1.7,11.3-1c2.2,1.1,4.6,1.7,7.3,1.7c9,0,16.4-7.4,16.4-16.4c0-9.1-7.3-16.4-16.4-16.4c-9,0-16.4,7.4-16.4,16.4
			c0,2.4,0.5,4.8,1.5,6.8C4.7,26.7,5.6,31.1,1,35.6z"/>
	</g>
</g>
<g id="folder">
</g>
<g id="trash">
</g>
<g id="report-flag">
</g>
<g id="setting-roll">
</g>
<g id="spects">
</g>
<g id="search_1_">
</g>
<g id="game-2">
</g>
<g id="game">
</g>
<g id="unloack">
</g>
<g id="loack">
</g>
<g id="settings-ui">
</g>
<g id="abacuse">
</g>
<g id="browser-check-box">
</g>
<g id="browser-reload">
</g>
<g id="browser-check">
</g>
<g id="browser-close">
</g>
<g id="browser-inus">
</g>
<g id="browser-add">
</g>
<g id="flowtting">
</g>
<g id="drag">
</g>
<g id="popup">
</g>
<g id="latter">
</g>
<g id="details">
</g>
<g id="blocks">
</g>
<g id="locate">
</g>
<g id="parabolla">
</g>
<g id="check-box">
</g>
<g id="slide-nav">
</g>
<g id="share">
</g>
<g id="profile">
</g>
<g id="settings">
</g>
<g id="expand">
</g>
<g id="image">
</g>
<g id="pause">
</g>
<g id="player">
</g>
<g id="imager">
</g>
<g id="slider">
</g>
<g id="slide-count">
</g>
<g id="progress-bar">
</g>
<g id="graph">
</g>
<g id="statistics">
</g>
<g id="cloud-reload">
</g>
<g id="cloud-down">
</g>
<g id="cloud-up">
</g>
<g id="cloud">
</g>
<g id="masonary">
</g>
<g id="column">
</g>
<g id="grid-block">
</g>
<g id="horizontal">
</g>
<g id="_x35_-column">
</g>
<g id="_x31_-column">
</g>
<g id="_x33_-column">
</g>
<g id="sidebar_1_">
</g>
<g id="favorite">
</g>
<g id="load">
</g>
<g id="search-list">
</g>
<g id="search">
</g>
<g id="browser_1_">
</g>
<g id="change-mode">
</g>
<g id="tick">
</g>
</svg>
