<svg xmlns="http://www.w3.org/2000/svg" viewBox="0 0 48 48">
  <title>comment-m</title>
  <g id="comment-m">
    <g>
      <path d="M25.542,34.548a11.132,11.132,0,0,1-3.153-1.558A14.034,14.034,0,0,0,25.1,28.676l.025-.016a1.6,1.6,0,0,0,.63-.561c.978-1.73,1.226-3.136.739-4.178a2.279,2.279,0,0,0-.789-.93,13.966,13.966,0,0,0-.409-3.3c-.479-1.779-2.691-5.143-7.633-5.143s-7.153,3.364-7.634,5.147a13.961,13.961,0,0,0-.409,3.292,2.284,2.284,0,0,0-.789.93c-.487,1.042-.239,2.448.739,4.178a1.6,1.6,0,0,0,.631.562l.026.016a14.035,14.035,0,0,0,2.714,4.313,11.132,11.132,0,0,1-3.152,1.558C6.468,35.6,2.009,37.819,1.667,44.981a1,1,0,0,0,.952,1.046h.048a1,1,0,0,0,1-.953c.277-5.813,3.557-7.62,6.729-8.621a12.7,12.7,0,0,0,4.118-2.147,5.5,5.5,0,0,0,6.308,0,12.7,12.7,0,0,0,4.119,2.147c3.172,1,6.452,2.808,6.728,8.621a1,1,0,0,0,1,.953h.048a1,1,0,0,0,.952-1.046C33.325,37.82,28.866,35.6,25.542,34.548Zm-13.5-6.764a1.49,1.49,0,0,0-.777-.822l-.045-.028c-.767-1.421-.636-2-.575-2.148a.36.36,0,0,1,.175-.185,1,1,0,0,0,.817-1.038,12.423,12.423,0,0,1,.333-3.347c.01-.037,1.041-3.663,5.7-3.663,4.61,0,5.661,3.52,5.7,3.659a12.542,12.542,0,0,1,.334,3.352,1,1,0,0,0,.817,1.038.369.369,0,0,1,.167.168c.137.293.053,1.011-.568,2.165l-.045.028a1.485,1.485,0,0,0-.779.828c-.336,1.167-2.6,5.513-5.628,5.513S12.375,28.957,12.038,27.784Z"/>
      <path d="M43,4H30a3,3,0,0,0-3,3v8a3,3,0,0,0,3,3h2v6a1,1,0,0,0,1.659.752L41.376,18H43a3,3,0,0,0,3-3V7A3,3,0,0,0,43,4Zm1,11a1,1,0,0,1-1,1H41a1,1,0,0,0-.659.248L34,21.8V17a1,1,0,0,0-1-1H30a1,1,0,0,1-1-1V7a1,1,0,0,1,1-1H43a1,1,0,0,1,1,1Z"/>
      <path d="M40,9H33a1,1,0,0,0,0,2h7a1,1,0,0,0,0-2Z"/>
      <path d="M35,12H33a1,1,0,0,0,0,2h2a1,1,0,0,0,0-2Z"/>
    </g>
  </g>
</svg>
