<svg xmlns="http://www.w3.org/2000/svg" viewBox="0 0 48 48">
  <title>comment-f</title>
  <g id="comment-f">
    <g>
      <path d="M32.428,43.35c-.768-2.223-2.052-5.942-6.757-7.993l-.379-.166A16.276,16.276,0,0,1,22.605,33.9c.232-.006.478-.007.721-.009,1.782-.01,4-.023,5.137-1.54,1.348-1.8.3-3.4-.621-4.814-.218-.335-.45-.689-.67-1.069a11.038,11.038,0,0,1-1.905-5.475l-.033-.331c-.506-4.924-3.4-7.812-8.153-8.132a1.034,1.034,0,0,0-.135,0c-4.751.319-7.646,3.208-8.153,8.132l-.033.331a11.038,11.038,0,0,1-1.9,5.474c-.221.381-.453.735-.671,1.07-.923,1.415-1.969,3.018-.622,4.814C6.7,33.867,8.917,33.879,10.7,33.89c.286,0,.577,0,.844.012-.306.356-1.1.662-3.144,1.437C3.835,37.065,2.437,41,1.6,43.352a11.773,11.773,0,0,1-.483,1.234A1,1,0,0,0,2.9,45.5a12.85,12.85,0,0,0,.588-1.479c.766-2.156,1.924-5.414,5.622-6.812,3.744-1.417,4.627-1.839,4.627-4.167a1,1,0,0,0-.718-.959,8.87,8.87,0,0,0-2.307-.193c-1.339-.008-3.007-.017-3.549-.74-.457-.609-.263-1.049.7-2.521.237-.363.486-.746.726-1.159a12.927,12.927,0,0,0,2.165-6.281l.032-.323c.4-3.93,2.5-6.062,6.231-6.336,3.731.274,5.827,2.406,6.231,6.336l.032.323a12.927,12.927,0,0,0,2.166,6.282c.239.412.489.8.726,1.159.96,1.472,1.154,1.912.7,2.521-.542.723-2.209.732-3.549.74a8.868,8.868,0,0,0-2.306.193,1,1,0,0,0-.718.959c0,2.154.724,2.469,4.2,3.983l.378.165c3.9,1.7,4.962,4.777,5.666,6.813a11.562,11.562,0,0,0,.582,1.481,1,1,0,1,0,1.776-.919A10.524,10.524,0,0,1,32.428,43.35Z"/>
      <path d="M43,4H30a3,3,0,0,0-3,3v8a3,3,0,0,0,3,3h2v6a1,1,0,0,0,1.659.752L41.376,18H43a3,3,0,0,0,3-3V7A3,3,0,0,0,43,4Zm1,11a1,1,0,0,1-1,1H41a1,1,0,0,0-.659.248L34,21.8V17a1,1,0,0,0-1-1H30a1,1,0,0,1-1-1V7a1,1,0,0,1,1-1H43a1,1,0,0,1,1,1Z"/>
      <path d="M40,8H33a1,1,0,0,0,0,2h7a1,1,0,0,0,0-2Z"/>
      <path d="M35,11H33a1,1,0,0,0,0,2h2a1,1,0,0,0,0-2Z"/>
    </g>
  </g>
</svg>
