<svg xmlns="http://www.w3.org/2000/svg" viewBox="0 0 48 48">
  <title>community-3</title>
  <g id="community-3">
    <g>
      <path d="M24,17a9.01,9.01,0,0,0-9,9V45a3,3,0,0,0,3,3H30a3,3,0,0,0,3-3V26A9.01,9.01,0,0,0,24,17Zm7,28a1,1,0,0,1-1,1H18a1,1,0,0,1-1-1V26a7,7,0,0,1,14,0Z"/>
      <path d="M37,22H36v2h1a7.008,7.008,0,0,1,7,7V45a1,1,0,0,1-1,1H36v2h7a3,3,0,0,0,3-3V31A9.01,9.01,0,0,0,37,22Z"/>
      <path d="M2,31V45a3,3,0,0,0,3,3h7V46H5a1,1,0,0,1-1-1V31a7.008,7.008,0,0,1,7-7h1V22H11A9.01,9.01,0,0,0,2,31Z"/>
      <path d="M24,16a7,7,0,1,0-7-7A7.008,7.008,0,0,0,24,16ZM24,4a5,5,0,1,1-5,5A5.006,5.006,0,0,1,24,4Z"/>
      <path d="M37,20a6,6,0,1,0-6-6A6.007,6.007,0,0,0,37,20Zm0-10a4,4,0,1,1-4,4A4,4,0,0,1,37,10Z"/>
      <path d="M11,20a6,6,0,1,0-6-6A6.007,6.007,0,0,0,11,20Zm0-10a4,4,0,1,1-4,4A4,4,0,0,1,11,10Z"/>
    </g>
  </g>
</svg>
