<svg xmlns="http://www.w3.org/2000/svg" viewBox="0 0 48 48">
  <title>comment</title>
  <g id="comment">
    <g>
      <path d="M47.736,44.645c-3.576-3.56-3.316-6.891-3.235-7.489a16.56,16.56,0,0,0,1.427-6.8,16.751,16.751,0,0,0-5.259-12.13L39.3,19.686a14.711,14.711,0,0,1,3.324,16.767,1.021,1.021,0,0,0-.068.213c-.035.173-.737,3.874,2.521,8-2.6.338-6.513.472-8.1-1a1,1,0,0,0-1.126-.16,14.371,14.371,0,0,1-6.452,1.525h-.031a14.415,14.415,0,0,1-11.688-5.91l-1.607,1.189a16.613,16.613,0,0,0,13.3,6.721H29.4a16.345,16.345,0,0,0,6.767-1.462c3.4,2.3,10.262.935,11.074.762a1,1,0,0,0,.5-1.687Z"/>
      <path d="M36.928,19.871A17.359,17.359,0,1,0,3.722,27c.089.638.373,4.159-3.4,7.931a1,1,0,0,0,.5,1.686c.855.181,8.087,1.608,11.624-.833a17.122,17.122,0,0,0,7.12,1.53A17.421,17.421,0,0,0,36.928,19.871ZM12.314,33.614a1,1,0,0,0-.681.268c-1.7,1.576-5.9,1.425-8.646,1.067,3.466-4.355,2.716-8.261,2.679-8.442a1.024,1.024,0,0,0-.069-.213,15.348,15.348,0,1,1,13.972,9.021,15.154,15.154,0,0,1-6.809-1.6A1,1,0,0,0,12.314,33.614Z"/>
    </g>
  </g>
</svg>
