<svg xmlns="http://www.w3.org/2000/svg" viewBox="0 0 48 48">
  <title>pause</title>
  <g id="pause">
    <path d="M24,47A23,23,0,1,1,47,24,23.026,23.026,0,0,1,24,47ZM24,3A21,21,0,1,0,45,24,21.024,21.024,0,0,0,24,3ZM19,35H15a3,3,0,0,1-3-3V16a3,3,0,0,1,3-3h4a3,3,0,0,1,3,3V32A3,3,0,0,1,19,35ZM15,15a1,1,0,0,0-1,1V32a1,1,0,0,0,1,1h4a1,1,0,0,0,1-1V16a1,1,0,0,0-1-1ZM33,35H29a3,3,0,0,1-3-3V16a3,3,0,0,1,3-3h4a3,3,0,0,1,3,3V32A3,3,0,0,1,33,35ZM29,15a1,1,0,0,0-1,1V32a1,1,0,0,0,1,1h4a1,1,0,0,0,1-1V16a1,1,0,0,0-1-1Z"/>
  </g>
</svg>
