<svg xmlns="http://www.w3.org/2000/svg" viewBox="0 0 48 48">
  <title>backward</title>
  <g id="backward">
    <path d="M24,34.071a3,3,0,0,1-1.641-.49l-10.812-7.07a3,3,0,0,1,0-5.022l10.812-7.07A3,3,0,0,1,27,16.93v1.25l5.306-3.631h0A3,3,0,0,1,37,17.025v13.95a3,3,0,0,1-4.694,2.476L27,29.819v1.25a3,3,0,0,1-3,3Zm-.008-18.145a.973.973,0,0,0-.539.167L12.64,23.163a1,1,0,0,0,0,1.673l10.812,7.071A1,1,0,0,0,25,31.07V27.923a1,1,0,0,1,1.564-.825l6.87,4.7A1,1,0,0,0,35,30.975V17.025a1,1,0,0,0-1.565-.825l-6.87,4.7A1,1,0,0,1,25,20.077V16.93a.981.981,0,0,0-.524-.88A1.04,1.04,0,0,0,23.991,15.926Z"/>
    <path d="M24,47A23,23,0,1,1,47,24,23.026,23.026,0,0,1,24,47ZM24,3A21,21,0,1,0,45,24,21.024,21.024,0,0,0,24,3Z"/>
  </g>
</svg>
