<svg xmlns="http://www.w3.org/2000/svg" viewBox="0 0 48 48">
  <title>play-backward</title>
  <g id="play-backward">
    <path d="M24,47A23,23,0,1,1,47,24,23.026,23.026,0,0,1,24,47ZM24,3A21,21,0,1,0,45,24,21.024,21.024,0,0,0,24,3Z"/>
    <path d="M33,35.727a3,3,0,0,1-1.641-.49L22,29.118V32a3,3,0,0,1-3,3H15a3,3,0,0,1-3-3V16a3,3,0,0,1,3-3h4a3,3,0,0,1,3,3v2.882l9.358-6.119A3,3,0,0,1,36,15.274V32.726a3,3,0,0,1-3,3ZM21,26.269a1,1,0,0,1,.547.163l10.905,7.131A1,1,0,0,0,34,32.726V15.274a1,1,0,0,0-1.548-.837L21.547,21.568A1,1,0,0,1,20,20.731V16a1,1,0,0,0-1-1H15a1,1,0,0,0-1,1V32a1,1,0,0,0,1,1h4a1,1,0,0,0,1-1V27.269a1,1,0,0,1,1-1Z"/>
  </g>
</svg>
