<svg xmlns="http://www.w3.org/2000/svg" viewBox="0 0 48 48">
  <title>sketch-pen</title>
  <g id="sketch-pen">
    <path d="M43.506,8.737,39.264,4.494a3.071,3.071,0,0,0-4.243,0L7.444,32.071A1.984,1.984,0,0,0,7.037,34.3L3.682,43.026a1,1,0,0,0,1.292,1.292L13.7,40.963a1.984,1.984,0,0,0,2.232-.407L43.506,12.979a3,3,0,0,0,0-4.243ZM8.532,35.987l3.481,3.481L6.356,41.644Zm5.983,3.155L8.857,33.487h0L30.705,11.638l5.657,5.657ZM42.092,11.565l-4.316,4.316-5.657-5.657,4.316-4.316a1,1,0,0,1,1.414,0l4.243,4.243a1,1,0,0,1,0,1.414Z"/>
  </g>
</svg>
