<svg xmlns="http://www.w3.org/2000/svg" viewBox="0 0 48 48">
  <title>pen-minus</title>
  <g id="pen-minus">
    <g>
      <path d="M47.163,17.808,30.192.837a.978.978,0,0,0-.769-.291A1,1,0,0,0,28.7.93l-4.95,6.364a1,1,0,0,0,.083,1.321l.353.353-11.025,4.54L1.138,43.556H4.444v3.306L34.492,34.843l4.54-11.025.353.353a1,1,0,0,0,1.321.083L47.07,19.3a1,1,0,0,0,.093-1.5ZM32.964,33.3,6.444,43.908V42.97L20.393,29.021a3.959,3.959,0,0,0,4.85-.607,4,4,0,1,0-6.829-2.828,3.962,3.962,0,0,0,.565,2.021L5.03,41.556H4.092L14.7,15.036,25.714,10.5,37.5,22.286Zm-12.55-7.714A2,2,0,1,1,23.829,27,2.048,2.048,0,0,1,21,27,1.986,1.986,0,0,1,20.414,25.586Zm19.761-3.453-.786-.786h0L25.867,7.825l3.712-4.773L44.948,18.421Z"/>
      <path d="M3,9H13a1,1,0,0,0,0-2H3A1,1,0,0,0,3,9Z"/>
    </g>
  </g>
</svg>
