<svg xmlns="http://www.w3.org/2000/svg" viewBox="0 0 48 48">
  <title>eyedroper</title>
  <g id="eye-droper">
    <path d="M42.8,12.272A5,5,0,1,0,35.728,5.2L33.066,7.863a.991.991,0,0,1-1.023.241l-.726-.242L29.364,5.908a1,1,0,0,0-1.414,0L24.414,9.444a3,3,0,0,0,0,4.242l.708.708L6.737,32.778a3.959,3.959,0,0,0-.607,4.849L4.615,39.142a3,3,0,0,0,4.243,4.243l1.514-1.514a3.959,3.959,0,0,0,4.849-.607L33.606,22.878l.708.708a3,3,0,0,0,4.242,0l3.536-3.536a1,1,0,0,0,0-1.414l-1.954-1.954-.242-.726a.994.994,0,0,1,.241-1.023ZM13.808,39.849a2.048,2.048,0,0,1-2.829,0,1,1,0,0,0-1.414,0h0l-2.12,2.12a1,1,0,1,1-1.415-1.414l2.12-2.12h0a1,1,0,0,0,0-1.414,2,2,0,0,1,0-2.829L26.536,15.808l5.657,5.657ZM37.142,22.172a1,1,0,0,1-1.414,0l-9.9-9.9a1,1,0,0,1,0-1.414l2.829-2.829L39.971,19.343Zm1.581-8.652a3,3,0,0,0-.687,1.061L33.419,9.964a3.005,3.005,0,0,0,1.061-.687l2.662-2.662a3,3,0,1,1,4.243,4.243Z"/>
  </g>
</svg>
