<svg xmlns="http://www.w3.org/2000/svg" viewBox="0 0 48 48">
  <title>ink</title>
  <g id="ink">
    <g>
      <path d="M42.41,9.161a5.366,5.366,0,0,0,.155-7.33l-.025-.025-.026-.026-.05-.047a5.2,5.2,0,0,0-7.125.358L32.678,4.751a1.187,1.187,0,0,1-1.128.139c-.026-.009-.052,0-.078-.01L29.182,2.59a1.029,1.029,0,0,0-1.414,0L23.525,6.833a5,5,0,0,0-.626,6.31.926.926,0,0,0-.081.054L11.5,24.51A4,4,0,0,0,10.9,29.36L9.383,30.874a3.031,3.031,0,0,0-.9,2.07,2.86,2.86,0,0,0,.734,2,.936.936,0,0,0,.066.073l.026.026.025.026h0c.022.022.046.043.069.063a3.223,3.223,0,0,0,2.149.821,2.918,2.918,0,0,0,2.076-.833L15.14,33.6A3.96,3.96,0,0,0,19.989,33L31.3,21.682a.927.927,0,0,0,.054-.081,5,5,0,0,0,6.309-.626l4.243-4.243a1,1,0,0,0,0-1.414l-2.5-2.5c-.006-.026,0-.052-.01-.078a.9.9,0,0,1,.345-.92ZM18.575,31.582a2.049,2.049,0,0,1-2.828,0,1,1,0,0,0-1.414,0L12.212,33.7a1.136,1.136,0,0,1-1.492-.078A.873.873,0,0,1,10.478,33a1.045,1.045,0,0,1,.319-.707l2.121-2.121h0a1,1,0,0,0,0-1.414,2,2,0,0,1,0-2.829L24.232,14.611h0l5.657,5.657h0ZM36.253,19.561a3.071,3.071,0,0,1-4.242,0L24.939,12.49a3,3,0,0,1,0-4.243l3.535-3.536L39.789,16.025Zm2.081-9.151a3.577,3.577,0,0,0-.578.754L33.293,6.7a2.628,2.628,0,0,0,.8-.536L36.753,3.5a3.217,3.217,0,0,1,4.372-.285A3.4,3.4,0,0,1,41,7.747Z"/>
      <path d="M9.688,36.274a1,1,0,0,0-1.375,0C7.592,36.957,4,40.488,4,43a5,5,0,0,0,10,0C14,40.488,10.408,36.957,9.688,36.274ZM9,46a3,3,0,0,1-3-3c0-1.049,1.584-3.106,3-4.587,1.417,1.48,3,3.536,3,4.587A3,3,0,0,1,9,46Z"/>
    </g>
  </g>
</svg>
