<svg xmlns="http://www.w3.org/2000/svg" viewBox="0 0 48 48">
  <title>pen</title>
  <g id="pen">
    <path d="M45.334,6.322,42.506,3.494a3.075,3.075,0,0,0-3.4-.568l-.846-.846a3,3,0,0,0-4.242,0L19.879,16.222a1,1,0,1,0,1.414,1.414L35.435,3.494a1,1,0,0,1,1.414,0l.708.708L26.951,14.807h0l-19.8,19.8h0L5.737,36.021a1,1,0,0,0-.242.391L2.667,44.9a1,1,0,0,0,1.265,1.265l8.485-2.828a1,1,0,0,0,.391-.242L45.334,10.565A3,3,0,0,0,45.334,6.322ZM13.515,39.557,9.272,35.314,27.657,16.929,31.9,21.172ZM5.2,43.632l2.122-6.364.54-.54L12.1,40.971l-.54.54ZM43.92,9.151,33.314,19.758l-4.242-4.242L39.678,4.908a1.023,1.023,0,0,1,1.414,0L43.92,7.736A1,1,0,0,1,43.92,9.151Z"/>
  </g>
</svg>
