<svg xmlns="http://www.w3.org/2000/svg" viewBox="0 0 48 48">
  <title>point-brush</title>
  <g id="point-brush">
    <path d="M44.027,3.973a3.049,3.049,0,0,0-4.268-.061L11.519,30.826c-.009.009-.012.021-.021.03l-.049,0A5.963,5.963,0,0,0,7.206,32.61C5.388,34.429,5.1,36.974,4.841,39.22c-.19,1.666-.37,3.239-1.15,3.979a1,1,0,0,0,.688,1.726c3.015,0,9.093-1.607,11.313-3.829a5.965,5.965,0,0,0,1.7-4.839l26.7-28.021A3.048,3.048,0,0,0,44.027,3.973ZM14.277,39.682c-1.33,1.33-5.144,2.636-8.056,3.082a16.065,16.065,0,0,0,.605-3.317c.23-2.014.469-4.1,1.793-5.422a4,4,0,1,1,5.657,5.657Zm1.414-7.071a5.986,5.986,0,0,0-1.834-1.251l8.13-7.748a6.877,6.877,0,0,1,1.541,1.1,6.76,6.76,0,0,1,.925,1.23l-7.729,8.111A5.918,5.918,0,0,0,15.691,32.61ZM42.641,6.86l-16.77,17.6a7.882,7.882,0,0,0-.929-1.157,8.189,8.189,0,0,0-1.449-1.124L41.135,5.364a1.062,1.062,0,0,1,1.506,1.5Z"/>
  </g>
</svg>
