<svg xmlns="http://www.w3.org/2000/svg" viewBox="0 0 48 48">
  <title>round-brush</title>
  <g id="round-brush">
    <path d="M45.921,2.079a3.172,3.172,0,0,0-4.378-.108L14.137,26.794a.944.944,0,0,0-.079.107A6.953,6.953,0,0,0,9.15,28.95C7.1,31,6.692,33.276,6.257,35.69c-.462,2.559-.944,5.2-3.471,8.06l-.147.1a.972.972,0,0,0-.328.409c-.078.081-.15.161-.231.242a1,1,0,0,0,.707,1.707.969.969,0,0,0,.207-.022c6.927-1.469,12.929-4.213,16.057-7.342a6.976,6.976,0,0,0,2.044-4.906.94.94,0,0,0,.111-.08L46.029,6.457A3.174,3.174,0,0,0,45.921,2.079ZM17.636,37.435c-2.269,2.269-6.28,4.326-11.105,5.779a21.4,21.4,0,0,0,5.409-7.872,1,1,0,1,0-1.879-.684,16.714,16.714,0,0,1-2.493,4.414c.294-1.047.483-2.06.658-3.027.395-2.188.735-4.078,2.339-5.681a5,5,0,0,1,7.071,7.071Zm3.026-5.951a6.933,6.933,0,0,0-4.143-4.15l3.006-2.723a7.392,7.392,0,0,1,2.35,1.631A6.767,6.767,0,0,1,23.4,28.459ZM44.547,5.115l-19.7,21.75a9.291,9.291,0,0,0-1.557-2.036,9.875,9.875,0,0,0-2.173-1.658L42.886,3.453a1.176,1.176,0,0,1,1.661,1.662Z"/>
  </g>
</svg>
