<svg xmlns="http://www.w3.org/2000/svg" viewBox="0 0 48 48">
  <title>picker</title>
  <g id="picker">
    <g>
      <path d="M45.42,12.358,43.3,10.237h0l1.414-1.414a1,1,0,0,0,0-1.414L40.471,3.166a1,1,0,0,0-1.414,0L37.643,4.58h0a1.029,1.029,0,0,0-1.414,0l-29.7,29.7a2,2,0,0,0,0,2.828l4.243,4.243a2,2,0,0,0,2.828,0L42.592,12.358l.707.707-9.9,9.9a1,1,0,1,0,1.414,1.414L45.42,13.772A1,1,0,0,0,45.42,12.358ZM39.057,5.994l.707-.707,2.828,2.829-.707.707h0L39.056,5.994ZM12.187,39.935,7.942,35.693h0L28.45,15.186h0l4.242,4.243h0Zm21.92-21.92h0l-4.242-4.243h0L36.935,6.7l4.243,4.243Z"/>
      <path d="M7.944,39.936h0l-2.12-2.121a1,1,0,0,0-1.414,1.414l1.414,1.414L2.287,44.178A1,1,0,1,0,3.7,45.592l3.535-3.535L8.65,43.471a1,1,0,1,0,1.414-1.414Z"/>
    </g>
  </g>
</svg>
