<svg xmlns="http://www.w3.org/2000/svg" viewBox="0 0 48 48">
  <title>tool</title>
  <g id="tools">
    <g>
      <path d="M17.828,1H6A1,1,0,0,0,5,2V45a1,1,0,0,0,1,1H17.828A2.983,2.983,0,0,0,21,43.171V4A3.131,3.131,0,0,0,17.828,1ZM19,43.171c0,.5-.605.829-1.172.829H7V42h3V40H7V38h5V36H7V34h3V32H7V30h5V28H7V26h3V24H7V22h5V20H7V18h3V16H7V14h5V12H7V10h3V8H7V3H17.828A1.171,1.171,0,0,1,19,4Z"/>
      <path d="M39,2H31a2,2,0,0,0-2,2V36a2,2,0,0,0,.918,1.677l3.815,8.583a1,1,0,0,0,1.828,0l3.682-8.284A2,2,0,0,0,41,36V4A2,2,0,0,0,39,2Zm0,34H36V4h3ZM31,4h3V36H31Zm3.646,39.391L32.251,38h4.792Z"/>
    </g>
  </g>
</svg>
