<svg xmlns="http://www.w3.org/2000/svg" viewBox="0 0 48 48">
  <title>crop-fill</title>
  <g id="crop-fill">
    <g>
      <path d="M37,10H11a1,1,0,0,0-1,1V37a1,1,0,0,0,1,1H37a1,1,0,0,0,1-1V11A1,1,0,0,0,37,10ZM36,31.586,31.586,36H29.414L36,29.414Zm0-5L26.586,36H24.414L36,24.414Zm0-5L21.586,36H19.414L36,19.414Zm0-5L16.586,36H14.414L36,14.414ZM12,18.414,18.414,12h2.172L12,20.586Zm0,5L23.414,12h2.172L12,25.586Zm0,5L28.414,12h2.172L12,30.586Zm0,5L33.414,12h2.172L12,35.586ZM15.586,12,12,15.586V12ZM34.414,36,36,34.414V36Z"/>
      <rect x="36" y="2" width="2" height="6"/>
      <rect x="40" y="10" width="6" height="2"/>
      <rect x="10" y="40" width="2" height="6"/>
      <rect x="2" y="36" width="6" height="2"/>
      <rect x="40" y="36" width="6" height="2"/>
      <rect x="36" y="40" width="2" height="6"/>
      <rect x="2" y="10" width="6" height="2"/>
      <rect x="10" y="2" width="2" height="6"/>
    </g>
  </g>
</svg>
