<svg xmlns="http://www.w3.org/2000/svg" viewBox="0 0 48 48">
  <title>brush-pencil</title>
  <g id="brush-pencil">
    <path d="M45.92,2.079a3.174,3.174,0,0,0-4.378-.108L24.859,17.081,9.979,2.2a2,2,0,0,0-2.828,0L1.494,7.858a2,2,0,0,0-.005,2.823L15.842,25.249l-1.706,1.545a.936.936,0,0,0-.081.11,6.975,6.975,0,0,0-4.9,2.045C7.1,31,6.692,33.276,6.256,35.69c-.461,2.557-.943,5.2-3.468,8.057l-.151.107a.973.973,0,0,0-.329.411c-.077.08-.149.16-.229.24a1,1,0,0,0,.707,1.707.974.974,0,0,0,.208-.022c6.925-1.469,12.927-4.213,16.056-7.342a6.975,6.975,0,0,0,2.045-4.906.936.936,0,0,0,.111-.08l1.546-1.707L33.192,42.385a1.985,1.985,0,0,0,2.232.407l8.722,3.355a1,1,0,0,0,1.292-1.292l-3.356-8.726a2,2,0,0,0-.406-2.229L30.918,23.14,46.029,6.458A3.174,3.174,0,0,0,45.92,2.079ZM8.565,3.615l14.811,14.81L21,20.575,6.437,5.743ZM2.908,9.272,5.023,7.157l14.5,14.762-2.193,1.987ZM17.636,37.435C15.366,39.7,11.355,41.762,6.53,43.215a21.41,21.41,0,0,0,5.41-7.873,1,1,0,1,0-1.88-.684,16.719,16.719,0,0,1-2.493,4.413c.294-1.047.483-2.059.657-3.026.4-2.188.736-4.078,2.34-5.682a5,5,0,0,1,7.071,7.071ZM34.6,40.963,24.1,30.673l2.118-2.339,10.51,10.51Zm2.509.333,3.481-3.481,2.176,5.656Zm3.155-5.983L38.14,37.432,27.558,26.851l2.017-2.226Zm4.283-30.2L20.662,31.484a6.918,6.918,0,0,0-4.147-4.147L42.885,3.453a1.176,1.176,0,0,1,1.662,1.662Z"/>
  </g>
</svg>
