<svg xmlns="http://www.w3.org/2000/svg" viewBox="0 0 48 48">
  <title>crop</title>
  <g id="crop">
    <g>
      <path d="M37,10H11a1,1,0,0,0-1,1V37a1,1,0,0,0,1,1H37a1,1,0,0,0,1-1V11A1,1,0,0,0,37,10ZM36,36H12V12H36Z"/>
      <rect x="36" y="2" width="2" height="6"/>
      <rect x="40" y="10" width="6" height="2"/>
      <rect x="10" y="40" width="2" height="6"/>
      <rect x="2" y="36" width="6" height="2"/>
      <rect x="40" y="36" width="6" height="2"/>
      <rect x="36" y="40" width="2" height="6"/>
      <rect x="2" y="10" width="6" height="2"/>
      <rect x="10" y="2" width="2" height="6"/>
    </g>
  </g>
</svg>
