<svg xmlns="http://www.w3.org/2000/svg" viewBox="0 0 48 48">
  <title>bold-pen</title>
  <g id="bold-pen">
    <path d="M44.567,9.59,38.91,3.933a3,3,0,0,0-4.242,0L7.09,31.51a2,2,0,0,0-.436,2.172L2.66,41.67a1,1,0,0,0,.578,1.4L7.481,44.48a1,1,0,0,0,.688-.021l6.6-2.64a1.986,1.986,0,0,0,2.222-.41L44.567,13.833A3,3,0,0,0,44.567,9.59ZM7.766,42.467l-2.8-.934L8.071,35.32l5.018,5.018ZM15.575,40,8.5,32.925,31.839,9.59l7.071,7.071ZM43.153,12.418l-2.829,2.829L33.253,8.176l2.829-2.829a1,1,0,0,1,1.414,0L43.153,11a1,1,0,0,1,0,1.414Z"/>
  </g>
</svg>
