<svg xmlns="http://www.w3.org/2000/svg" viewBox="0 0 48 48">
  <title>computer-2</title>
  <g id="computer-2">
    <g>
      <path d="M39,5H9A1,1,0,0,0,8,6V30a1,1,0,0,0,1,1H39a1,1,0,0,0,1-1V6A1,1,0,0,0,39,5ZM38,29H10V7H38Z" fill="#080808"/>
      <path d="M41,1H7A3,3,0,0,0,4,4V32a3,3,0,0,0,3,3H21v5.611c-6.477.5-10,2.728-10,6.389a1,1,0,0,0,1,1H36a1,1,0,0,0,1-1c0-3.661-3.523-5.885-10-6.389V35H41a3,3,0,0,0,3-3V4A3,3,0,0,0,41,1ZM34.826,46H13.174c1.159-3.136,7.813-3.5,10.826-3.5S33.667,42.864,34.826,46ZM25,40.518c-.33-.008-.657-.018-1-.018s-.67.01-1,.018V35h2ZM42,32a1,1,0,0,1-1,1H7a1,1,0,0,1-1-1V4A1,1,0,0,1,7,3H41a1,1,0,0,1,1,1Z" fill="#080808"/>
    </g>
  </g>
</svg>
