<svg xmlns="http://www.w3.org/2000/svg" viewBox="0 0 48 48">
  <title>plug-1</title>
  <g id="plug-1">
    <g>
      <path d="M11.515,40.313a1,1,0,0,0,1.414,0l2.122-2.121a1,1,0,0,0-1.414-1.414L11.515,38.9A1,1,0,0,0,11.515,40.313Z" fill="#080808"/>
      <path d="M12.222,33.95a1,1,0,0,0-1.414,0L8.687,36.071A1,1,0,1,0,10.1,37.485l2.121-2.121A1,1,0,0,0,12.222,33.95Z" fill="#080808"/>
      <path d="M41,6.5A6.5,6.5,0,0,0,29.916,1.893L22.293,9.268a2.558,2.558,0,0,1-3.536,0,2.5,2.5,0,0,1,0-3.535,1,1,0,0,0-1.414-1.414A4.5,4.5,0,0,0,23.7,10.693l7.623-7.375A4.5,4.5,0,1,1,37.67,9.693l-5.7,5.9a2.506,2.506,0,0,0-2.749.012,8.5,8.5,0,0,0-11.692.312L7.979,25.465l2.828,2.828L2.322,36.778l9.9,9.9,8.486-8.486,2.828,2.828,9.546-9.546a8.511,8.511,0,0,0,.312-11.692A2.507,2.507,0,0,0,33.388,17L39.1,11.1A6.456,6.456,0,0,0,41,6.5ZM12.222,43.85,5.15,36.778l7.071-7.071,7.071,7.071ZM31.667,30.061l-8.132,8.132L10.808,25.465l8.132-8.132a6.5,6.5,0,0,1,9.192,0,1.536,1.536,0,0,0,2.121,0,.5.5,0,0,1,.708,0l.254.254a.38.38,0,0,0,.206.206l.247.247a.5.5,0,0,1,0,.707,1.5,1.5,0,0,0,0,2.121A6.508,6.508,0,0,1,31.667,30.061Z" fill="#080808"/>
    </g>
  </g>
</svg>
