<svg xmlns="http://www.w3.org/2000/svg" viewBox="0 0 48 48">
  <title>mouse</title>
  <g id="button-mouse">
    <path d="M17,41A13.015,13.015,0,0,1,4,28V9a6.007,6.007,0,0,1,6-6H24a6.007,6.007,0,0,1,6,6V28A13.015,13.015,0,0,1,17,41ZM10,5A4,4,0,0,0,6,9V28a11,11,0,0,0,22,0V9a4,4,0,0,0-4-4Z" fill="#080808"/>
    <path d="M29,17H5a1,1,0,0,1,0-2H29a1,1,0,0,1,0,2Z" fill="#080808"/>
    <path d="M17,17a1,1,0,0,1-1-1V4a1,1,0,0,1,2,0V16A1,1,0,0,1,17,17Z" fill="#080808"/>
    <path d="M24.193,46.256a8.941,8.941,0,0,1-5.651-1.691A6.783,6.783,0,0,1,16,40.076,1,1,0,0,1,18,39.919a4.74,4.74,0,0,0,1.8,3.091c1.555,1.2,3.921,1.535,7.031,1,4-.683,6.89-5.369,9.682-9.9,2.823-4.582,5.489-8.91,9.4-9.243a1,1,0,0,1,.17,1.993c-2.908.247-5.317,4.158-7.868,8.3-3.025,4.911-6.153,9.989-11.049,10.824A17.771,17.771,0,0,1,24.193,46.256Z" fill="#080808"/>
  </g>
</svg>
