<svg xmlns="http://www.w3.org/2000/svg" viewBox="0 0 48 48">
  <title>game-remote-3</title>
  <g id="game-remote-3">
    <g>
      <path d="M33,5H14a1,1,0,0,0-1,1V27a1,1,0,0,0,1,1H33a1,1,0,0,0,1-1V6A1,1,0,0,0,33,5ZM32,26H15V7H32Z" fill="#080808"/>
      <path d="M34,0H13A5.006,5.006,0,0,0,8,5V43a5.006,5.006,0,0,0,5,5H34a5.006,5.006,0,0,0,5-5V5A5.006,5.006,0,0,0,34,0Zm3,43a3,3,0,0,1-3,3H13a3,3,0,0,1-3-3V5a3,3,0,0,1,3-3H34a3,3,0,0,1,3,3Z" fill="#080808"/>
      <path d="M29,31a1,1,0,0,0-1,1v1a1,1,0,0,0,2,0V32A1,1,0,0,0,29,31Z" fill="#080808"/>
      <path d="M33,35H32a1,1,0,0,0,0,2h1a1,1,0,0,0,0-2Z" fill="#080808"/>
      <path d="M29,38a1,1,0,0,0-1,1v1a1,1,0,0,0,2,0V39A1,1,0,0,0,29,38Z" fill="#080808"/>
      <path d="M26,35H25a1,1,0,0,0,0,2h1a1,1,0,0,0,0-2Z" fill="#080808"/>
      <rect x="13" y="39.03" width="1.97" height="1.97" fill="#080808"/>
      <rect x="18.03" y="39.03" width="1.97" height="1.97" fill="#080808"/>
      <rect x="13" y="35.06" width="1.97" height="1.97" fill="#080808"/>
      <rect x="18.03" y="35.06" width="1.97" height="1.97" fill="#080808"/>
      <rect x="13" y="31.03" width="1.97" height="1.97" fill="#080808"/>
      <rect x="18.03" y="31.03" width="1.97" height="1.97" fill="#080808"/>
    </g>
  </g>
</svg>
