<svg xmlns="http://www.w3.org/2000/svg" viewBox="0 0 48 48">
  <title>drive-shelve</title>
  <g id="Layer_1" data-name="Layer 1">
    <path d="M43,43H5a3,3,0,0,1-3-3V32a3,3,0,0,1,3-3H43a3,3,0,0,1,3,3v8A3,3,0,0,1,43,43ZM5,31a1,1,0,0,0-1,1v8a1,1,0,0,0,1,1H43a1,1,0,0,0,1-1V32a1,1,0,0,0-1-1Z" fill="#080808"/>
    <path d="M36,39a3,3,0,1,1,3-3A3,3,0,0,1,36,39Zm0-4a1,1,0,1,0,1,1A1,1,0,0,0,36,35Z" fill="#080808"/>
    <path d="M43,31H5a3,3,0,0,1-3-3V20a3,3,0,0,1,3-3H43a3,3,0,0,1,3,3v8A3,3,0,0,1,43,31ZM5,19a1,1,0,0,0-1,1v8a1,1,0,0,0,1,1H43a1,1,0,0,0,1-1V20a1,1,0,0,0-1-1Z" fill="#080808"/>
    <path d="M36,27a3,3,0,1,1,3-3A3,3,0,0,1,36,27Zm0-4a1,1,0,1,0,1,1A1,1,0,0,0,36,23Z" fill="#080808"/>
    <path d="M43,19H5a3,3,0,0,1-3-3V8A3,3,0,0,1,5,5H43a3,3,0,0,1,3,3v8A3,3,0,0,1,43,19ZM5,7A1,1,0,0,0,4,8v8a1,1,0,0,0,1,1H43a1,1,0,0,0,1-1V8a1,1,0,0,0-1-1Z" fill="#080808"/>
    <path d="M36,15a3,3,0,1,1,3-3A3,3,0,0,1,36,15Zm0-4a1,1,0,1,0,1,1A1,1,0,0,0,36,11Z" fill="#080808"/>
    <path d="M9,14a1,1,0,0,1-1-1V11a1,1,0,0,1,2,0v2A1,1,0,0,1,9,14Z" fill="#080808"/>
    <path d="M12,14a1,1,0,0,1-1-1V11a1,1,0,0,1,2,0v2A1,1,0,0,1,12,14Z" fill="#080808"/>
    <path d="M15,14a1,1,0,0,1-1-1V11a1,1,0,0,1,2,0v2A1,1,0,0,1,15,14Z" fill="#080808"/>
    <path d="M9,26a1,1,0,0,1-1-1V23a1,1,0,0,1,2,0v2A1,1,0,0,1,9,26Z" fill="#080808"/>
    <path d="M12,26a1,1,0,0,1-1-1V23a1,1,0,0,1,2,0v2A1,1,0,0,1,12,26Z" fill="#080808"/>
    <path d="M15,26a1,1,0,0,1-1-1V23a1,1,0,0,1,2,0v2A1,1,0,0,1,15,26Z" fill="#080808"/>
    <path d="M9,38a1,1,0,0,1-1-1V35a1,1,0,0,1,2,0v2A1,1,0,0,1,9,38Z" fill="#080808"/>
    <path d="M12,38a1,1,0,0,1-1-1V35a1,1,0,0,1,2,0v2A1,1,0,0,1,12,38Z" fill="#080808"/>
    <path d="M15,38a1,1,0,0,1-1-1V35a1,1,0,0,1,2,0v2A1,1,0,0,1,15,38Z" fill="#080808"/>
  </g>
  <g id="drive-shelve">
    <path d="M43,43H5a3,3,0,0,1-3-3V32a3,3,0,0,1,3-3H43a3,3,0,0,1,3,3v8A3,3,0,0,1,43,43ZM5,31a1,1,0,0,0-1,1v8a1,1,0,0,0,1,1H43a1,1,0,0,0,1-1V32a1,1,0,0,0-1-1Z" fill="#080808"/>
    <path d="M36,39a3,3,0,1,1,3-3A3,3,0,0,1,36,39Zm0-4a1,1,0,1,0,1,1A1,1,0,0,0,36,35Z" fill="#080808"/>
    <path d="M43,31H5a3,3,0,0,1-3-3V20a3,3,0,0,1,3-3H43a3,3,0,0,1,3,3v8A3,3,0,0,1,43,31ZM5,19a1,1,0,0,0-1,1v8a1,1,0,0,0,1,1H43a1,1,0,0,0,1-1V20a1,1,0,0,0-1-1Z" fill="#080808"/>
    <path d="M36,27a3,3,0,1,1,3-3A3,3,0,0,1,36,27Zm0-4a1,1,0,1,0,1,1A1,1,0,0,0,36,23Z" fill="#080808"/>
    <path d="M43,19H5a3,3,0,0,1-3-3V8A3,3,0,0,1,5,5H43a3,3,0,0,1,3,3v8A3,3,0,0,1,43,19ZM5,7A1,1,0,0,0,4,8v8a1,1,0,0,0,1,1H43a1,1,0,0,0,1-1V8a1,1,0,0,0-1-1Z" fill="#080808"/>
    <path d="M36,15a3,3,0,1,1,3-3A3,3,0,0,1,36,15Zm0-4a1,1,0,1,0,1,1A1,1,0,0,0,36,11Z" fill="#080808"/>
    <path d="M9,14a1,1,0,0,1-1-1V11a1,1,0,0,1,2,0v2A1,1,0,0,1,9,14Z" fill="#080808"/>
    <path d="M12,14a1,1,0,0,1-1-1V11a1,1,0,0,1,2,0v2A1,1,0,0,1,12,14Z" fill="#080808"/>
    <path d="M15,14a1,1,0,0,1-1-1V11a1,1,0,0,1,2,0v2A1,1,0,0,1,15,14Z" fill="#080808"/>
    <path d="M9,26a1,1,0,0,1-1-1V23a1,1,0,0,1,2,0v2A1,1,0,0,1,9,26Z" fill="#080808"/>
    <path d="M12,26a1,1,0,0,1-1-1V23a1,1,0,0,1,2,0v2A1,1,0,0,1,12,26Z" fill="#080808"/>
    <path d="M15,26a1,1,0,0,1-1-1V23a1,1,0,0,1,2,0v2A1,1,0,0,1,15,26Z" fill="#080808"/>
    <path d="M9,38a1,1,0,0,1-1-1V35a1,1,0,0,1,2,0v2A1,1,0,0,1,9,38Z" fill="#080808"/>
    <path d="M12,38a1,1,0,0,1-1-1V35a1,1,0,0,1,2,0v2A1,1,0,0,1,12,38Z" fill="#080808"/>
    <path d="M15,38a1,1,0,0,1-1-1V35a1,1,0,0,1,2,0v2A1,1,0,0,1,15,38Z" fill="#080808"/>
  </g>
</svg>
