<svg xmlns="http://www.w3.org/2000/svg" viewBox="0 0 48 48">
  <title>drive-3</title>
  <g id="drive-3">
    <g>
      <path d="M36,39a3,3,0,1,0-3-3A3,3,0,0,0,36,39Zm0-4a1,1,0,1,1-1,1A1,1,0,0,1,36,35Z" fill="#080808"/>
      <path d="M46,24a7,7,0,0,0-3.413-6A6.993,6.993,0,0,0,39,5H9A6.993,6.993,0,0,0,5.413,18a6.98,6.98,0,0,0,0,12A6.993,6.993,0,0,0,9,43H39a6.993,6.993,0,0,0,3.587-13A7,7,0,0,0,46,24ZM4,12A5.006,5.006,0,0,1,9,7H39a5,5,0,0,1,0,10H9A5.006,5.006,0,0,1,4,12ZM44,36a5.006,5.006,0,0,1-5,5H9A5,5,0,0,1,9,31H39A5.006,5.006,0,0,1,44,36ZM9,29A5,5,0,0,1,9,19H39a5,5,0,0,1,0,10Z" fill="#080808"/>
      <path d="M36,21a3,3,0,1,0,3,3A3,3,0,0,0,36,21Zm0,4a1,1,0,1,1,1-1A1,1,0,0,1,36,25Z" fill="#080808"/>
      <path d="M36,9a3,3,0,1,0,3,3A3,3,0,0,0,36,9Zm0,4a1,1,0,1,1,1-1A1,1,0,0,1,36,13Z" fill="#080808"/>
    </g>
  </g>
</svg>
