<svg xmlns="http://www.w3.org/2000/svg" viewBox="0 0 48 48">
  <title>keyboard</title>
  <g id="keyboard">
    <g>
      <path d="M44,26H9a10.1,10.1,0,0,1,3.017-6.7c2.059-1.866,5.051-2.645,8.9-2.307,5.758.5,9.825-.338,12.429-2.569,3.146-2.7,3.417-6.781,3.636-10.064L37,4.067a1,1,0,1,0-2-.135l-.02.3c-.2,3.061-.435,6.53-2.942,8.679C29.9,14.746,26.211,15.45,21.087,15c-4.42-.383-7.923.563-10.413,2.816A12.093,12.093,0,0,0,7,25.988S7,26,7,26H4a3,3,0,0,0-3,3V43a3,3,0,0,0,3,3H44a3,3,0,0,0,3-3V29A3,3,0,0,0,44,26Zm1,17a1,1,0,0,1-1,1H4a1,1,0,0,1-1-1V29a1,1,0,0,1,1-1H44a1,1,0,0,1,1,1Z" fill="#080808"/>
      <rect x="5" y="30" width="2" height="2" fill="#080808"/>
      <rect x="9" y="30" width="2" height="2" fill="#080808"/>
      <rect x="13" y="30" width="2" height="2" fill="#080808"/>
      <rect x="17" y="30" width="2" height="2" fill="#080808"/>
      <rect x="21" y="30" width="2" height="2" fill="#080808"/>
      <rect x="25" y="30" width="2" height="2" fill="#080808"/>
      <rect x="29" y="30" width="2" height="2" fill="#080808"/>
      <rect x="37" y="30" width="2" height="2" fill="#080808"/>
      <rect x="41" y="30" width="2" height="2" fill="#080808"/>
      <rect x="5" y="34" width="2" height="2" fill="#080808"/>
      <rect x="9" y="34" width="2" height="2" fill="#080808"/>
      <rect x="13" y="34" width="2" height="2" fill="#080808"/>
      <rect x="17" y="34" width="2" height="2" fill="#080808"/>
      <rect x="21" y="34" width="2" height="2" fill="#080808"/>
      <rect x="25" y="34" width="2" height="2" fill="#080808"/>
      <rect x="29" y="34" width="2" height="2" fill="#080808"/>
      <rect x="33" y="34" width="2" height="2" fill="#080808"/>
      <rect x="37" y="34" width="2" height="2" fill="#080808"/>
      <rect x="41" y="34" width="2" height="2" fill="#080808"/>
      <rect x="5" y="38" width="2" height="2" fill="#080808"/>
      <rect x="9" y="38" width="9.867" height="2" fill="#080808"/>
      <rect x="21" y="38" width="2" height="2" fill="#080808"/>
      <rect x="25" y="38" width="2" height="2" fill="#080808"/>
      <rect x="29" y="38" width="2" height="2" fill="#080808"/>
      <rect x="33" y="38" width="2" height="2" fill="#080808"/>
      <rect x="37" y="38" width="2" height="2" fill="#080808"/>
      <rect x="41" y="38" width="2" height="2" fill="#080808"/>
    </g>
  </g>
</svg>
