<svg xmlns="http://www.w3.org/2000/svg" viewBox="0 0 48 48">
  <title>laptop</title>
  <g id="laptop">
    <g>
      <path d="M7,35H41a1,1,0,0,0,1-1V7a1,1,0,0,0-1-1H7A1,1,0,0,0,6,7V34A1,1,0,0,0,7,35ZM8,8H40V33H8Z" fill="#080808"/>
      <path d="M47.993,43a.989.989,0,0,0-.07-.385c-.834-2-1.739-4.224-1.923-4.748V5a3,3,0,0,0-3-3H5A3,3,0,0,0,2,5V37.849C1.809,38.393.788,40.9.076,42.618A.991.991,0,0,0,.007,43H0v2a3,3,0,0,0,3,3H45a3,3,0,0,0,3-3V43ZM3.7,39H44.291c.229.625.61,1.558,1.209,3H2.495C3.124,40.471,3.49,39.559,3.7,39ZM5,4H43a1,1,0,0,1,1,1V37H4V5A1,1,0,0,1,5,4ZM45,46H3a1,1,0,0,1-1-1V44H46v1A1,1,0,0,1,45,46Z" fill="#080808"/>
    </g>
  </g>
</svg>
