<svg xmlns="http://www.w3.org/2000/svg" viewBox="0 0 48 48">
  <title>game-remote</title>
  <g id="game-remote">
    <g>
      <path d="M34,11H14a13,13,0,0,0,0,26H34a13,13,0,0,0,0-26Zm0,24H14a11,11,0,0,1,0-22H34a11,11,0,0,1,0,22Z" fill="#080808"/>
      <path d="M17,31H31V17H17Zm2-12H29V29H19Z" fill="#080808"/>
      <path d="M15,23H12V20a1,1,0,0,0-2,0v3H7a1,1,0,0,0,0,2h3v3a1,1,0,0,0,2,0V25h3a1,1,0,0,0,0-2Z" fill="#080808"/>
      <path d="M37,19a1,1,0,0,0-1,1v1a1,1,0,0,0,2,0V20A1,1,0,0,0,37,19Z" fill="#080808"/>
      <path d="M41,23H40a1,1,0,0,0,0,2h1a1,1,0,0,0,0-2Z" fill="#080808"/>
      <path d="M37,26a1,1,0,0,0-1,1v1a1,1,0,0,0,2,0V27A1,1,0,0,0,37,26Z" fill="#080808"/>
      <path d="M34,23H33a1,1,0,0,0,0,2h1a1,1,0,0,0,0-2Z" fill="#080808"/>
    </g>
  </g>
</svg>
