<svg xmlns="http://www.w3.org/2000/svg" viewBox="0 0 48 48">
  <title>large phone</title>
  <g id="large_phone" data-name="large phone">
    <g>
      <path d="M35,4H13a1,1,0,0,0-1,1V39a1,1,0,0,0,1,1H35a1,1,0,0,0,1-1V5A1,1,0,0,0,35,4ZM34,38H14V6H34Z" fill="#080808"/>
      <path d="M35,0H13A5.006,5.006,0,0,0,8,5V43a5.006,5.006,0,0,0,5,5H35a5.006,5.006,0,0,0,5-5V5A5.006,5.006,0,0,0,35,0Zm3,43a3,3,0,0,1-3,3H13a3,3,0,0,1-3-3V5a3,3,0,0,1,3-3H35a3,3,0,0,1,3,3Z" fill="#080808"/>
      <circle cx="24" cy="43" r="2" fill="#080808"/>
    </g>
  </g>
</svg>
