<svg xmlns="http://www.w3.org/2000/svg" viewBox="0 0 48 48">
  <title>pendrive</title>
  <g id="pendrive">
    <path d="M11.979,39.849a1,1,0,0,1-.707-1.707l2.121-2.121a1,1,0,0,1,1.414,1.414l-2.121,2.121A1,1,0,0,1,11.979,39.849Z" fill="#080808"/>
    <path d="M9.15,37.021a1,1,0,0,1-.707-1.707l2.122-2.122a1,1,0,0,1,1.414,1.414L9.857,36.728A1,1,0,0,1,9.15,37.021Z" fill="#080808"/>
    <path d="M11.979,45.506a1,1,0,0,1-.707-.293L2.787,36.728a1,1,0,0,1,0-1.414l6.435-6.435a5,5,0,0,1,.637-6.293l19.8-19.8a5,5,0,0,1,7.07,0l8.485,8.485a5.006,5.006,0,0,1,0,7.071l-19.8,19.8a5.012,5.012,0,0,1-6.293.636l-6.435,6.435A1,1,0,0,1,11.979,45.506ZM4.908,36.021l7.071,7.071,6.363-6.364a1,1,0,0,1,1.414,0,3.005,3.005,0,0,0,4.243,0l19.8-19.8a3,3,0,0,0,0-4.243L35.313,4.2a3.071,3.071,0,0,0-4.242,0L11.272,24a3,3,0,0,0,0,4.243,1,1,0,0,1,0,1.414Z" fill="#080808"/>
    <path d="M19.05,38.435a1,1,0,0,1-.707-.293L9.858,29.657a1,1,0,0,1,1.414-1.414l8.484,8.485a1,1,0,0,1-.707,1.707Z" fill="#080808"/>
    <path d="M22.586,32.071a1,1,0,0,1-.707-.293l-5.657-5.657a1,1,0,0,1,0-1.414L31.071,9.858a1,1,0,0,1,.707-.293h0a1,1,0,0,1,.707.293l5.656,5.657a1,1,0,0,1,0,1.414L23.293,31.778A1,1,0,0,1,22.586,32.071Zm-4.243-6.657,4.243,4.243L36.021,16.222l-4.242-4.243Z" fill="#080808"/>
  </g>
</svg>
