<svg xmlns="http://www.w3.org/2000/svg" viewBox="0 0 48 48">
  <title>old-computer</title>
  <g id="old-computer">
    <g>
      <path d="M39,5H9A1,1,0,0,0,8,6V30a1,1,0,0,0,1,1H39a1,1,0,0,0,1-1V6A1,1,0,0,0,39,5ZM38,29H10V7H38Z" fill="#080808"/>
      <path d="M41,1H7A3,3,0,0,0,4,4V32a3,3,0,0,0,3,3H41a3,3,0,0,0,3-3V4A3,3,0,0,0,41,1Zm1,31a1,1,0,0,1-1,1H7a1,1,0,0,1-1-1V4A1,1,0,0,1,7,3H41a1,1,0,0,1,1,1Z" fill="#080808"/>
      <path d="M41,36H7a3,3,0,0,0-3,3v8a1,1,0,0,0,1,1H43a1,1,0,0,0,1-1V39A3,3,0,0,0,41,36Zm1,10H6V39a1,1,0,0,1,1-1H41a1,1,0,0,1,1,1Z" fill="#080808"/>
      <path d="M28.567,40.467a1.5,1.5,0,1,0,1.5,1.5A1.5,1.5,0,0,0,28.567,40.467Zm0,2a.5.5,0,1,1,.5-.5A.5.5,0,0,1,28.567,42.467Z" fill="#080808"/>
      <path d="M32.567,40.467a1.5,1.5,0,1,0,1.5,1.5A1.5,1.5,0,0,0,32.567,40.467Zm0,2a.5.5,0,1,1,.5-.5A.5.5,0,0,1,32.567,42.467Z" fill="#080808"/>
      <path d="M36.567,40.467a1.5,1.5,0,1,0,1.5,1.5A1.5,1.5,0,0,0,36.567,40.467Zm0,2a.5.5,0,1,1,.5-.5A.5.5,0,0,1,36.567,42.467Z" fill="#080808"/>
    </g>
  </g>
</svg>
