<svg xmlns="http://www.w3.org/2000/svg" viewBox="0 0 48 48">
  <title>watch-1</title>
  <g id="watch">
    <g>
      <path d="M33.864,12.369l-2.3-8.421A4.009,4.009,0,0,0,27.708,1H20.292a4.009,4.009,0,0,0-3.859,2.947l-2.3,8.421A5,5,0,0,0,11,17V30a5,5,0,0,0,3.126,4.628l2.336,9.341A3.993,3.993,0,0,0,20.342,47h7.315a3.993,3.993,0,0,0,3.88-3.03l2.336-9.342A5,5,0,0,0,37,30V17A5,5,0,0,0,33.864,12.369Zm-15.5-7.9A2,2,0,0,1,20.292,3h7.417a2,2,0,0,1,1.93,1.474L31.691,12H16.309ZM29.6,43.485A2,2,0,0,1,27.658,45H20.342a2,2,0,0,1-1.94-1.515L16.281,35H31.719ZM35,30a3,3,0,0,1-3,3H16a3,3,0,0,1-3-3V17a3,3,0,0,1,3-3H32a3,3,0,0,1,3,3Z" fill="#080808"/>
      <path d="M27.293,20.293,24,23.586l-5.293-5.293a1,1,0,0,0-1.414,1.414l6,6a1,1,0,0,0,1.414,0l4-4a1,1,0,0,0-1.414-1.414Z" fill="#080808"/>
    </g>
  </g>
</svg>
