<svg xmlns="http://www.w3.org/2000/svg" viewBox="0 0 48 48">
  <title>i-pad</title>
  <g id="i-pad">
    <g>
      <path d="M40,5H8A1,1,0,0,0,7,6V39a1,1,0,0,0,1,1H40a1,1,0,0,0,1-1V6A1,1,0,0,0,40,5ZM39,38H9V7H39Z" fill="#080808"/>
      <path d="M41,0H7A5.006,5.006,0,0,0,2,5V43a5.006,5.006,0,0,0,5,5H41a5.006,5.006,0,0,0,5-5V5A5.006,5.006,0,0,0,41,0Zm3,43a3,3,0,0,1-3,3H7a3,3,0,0,1-3-3V5A3,3,0,0,1,7,2H41a3,3,0,0,1,3,3Z" fill="#080808"/>
      <circle cx="24" cy="43" r="2" fill="#080808"/>
    </g>
  </g>
</svg>
