<svg xmlns="http://www.w3.org/2000/svg" viewBox="0 0 48 48">
  <title>headphone</title>
  <g id="headphone">
    <path d="M39.1,8.1A21.533,21.533,0,0,0,23.208,2.015c-11.453.406-20.789,10.21-20.949,21.92,0,.021,0,.044,0,.065v.042c0,.065,0,.133,0,.2V33a3,3,0,0,0,3,3H9a4,4,0,0,0,4-4V27a4,4,0,0,0-4-4H4.295C4.918,12.771,13.2,4.371,23.279,4.013A19.745,19.745,0,0,1,43.729,23H39a4,4,0,0,0-4,4v5a4,4,0,0,0,4,4h1.069A19.186,19.186,0,0,1,27.73,43.772a3.009,3.009,0,1,0,.149,2.023C36.641,44.559,41.3,37.95,42.489,36h.253a3,3,0,0,0,3-3V23.743A21.566,21.566,0,0,0,39.1,8.1ZM9,25a2,2,0,0,1,2,2v5a2,2,0,0,1-2,2H5.257a1,1,0,0,1-1-1V25Zm34.743,8a1,1,0,0,1-1,1H39a2,2,0,0,1-2-2V27a2,2,0,0,1,2-2h4.743Z" fill="#080808"/>
  </g>
</svg>
