<svg xmlns="http://www.w3.org/2000/svg" viewBox="0 0 48 48">
  <title>printer</title>
  <g id="printer">
    <g>
      <path d="M8,17a3,3,0,1,0,3,3A3,3,0,0,0,8,17Zm0,4a1,1,0,1,1,1-1A1,1,0,0,1,8,21Z" fill="#080808"/>
      <path d="M42,13H40V3a1,1,0,0,0-1-1H9A1,1,0,0,0,8,3V13H6a5.006,5.006,0,0,0-5,5V36a1,1,0,0,0,1,1H8v9a1,1,0,0,0,1,1H39a1,1,0,0,0,1-1V37h6a1,1,0,0,0,1-1V18A5.006,5.006,0,0,0,42,13ZM10,4H38v9H10ZM38,45H10V28H38Zm7-10H40V28h2a1,1,0,0,0,0-2H7a1,1,0,0,0,0,2H8v7H3V18a3,3,0,0,1,3-3H42a3,3,0,0,1,3,3Z" fill="#080808"/>
      <path d="M33,31H14a1,1,0,0,0,0,2H33a1,1,0,0,0,0-2Z" fill="#080808"/>
      <path d="M33,35H14a1,1,0,0,0,0,2H33a1,1,0,0,0,0-2Z" fill="#080808"/>
      <path d="M33,39H14a1,1,0,0,0,0,2H33a1,1,0,0,0,0-2Z" fill="#080808"/>
    </g>
  </g>
</svg>
