<svg xmlns="http://www.w3.org/2000/svg" viewBox="0 0 48 48">
  <title>cpu</title>
  <g id="cpu">
    <g>
      <path d="M35,0H13A5.006,5.006,0,0,0,8,5V45a1,1,0,0,0,1,1h3v1a1,1,0,0,0,2,0V46H33v1a1,1,0,0,0,2,0V46h4a1,1,0,0,0,1-1V5A5.006,5.006,0,0,0,35,0Zm3,44H10V5a3,3,0,0,1,3-3H35a3,3,0,0,1,3,3Z" fill="#080808"/>
      <path d="M24,28a4,4,0,1,0,4,4A4,4,0,0,0,24,28Zm0,6a2,2,0,1,1,2-2A2,2,0,0,1,24,34Z" fill="#080808"/>
      <path d="M34,7H14a1,1,0,0,0-1,1v3a1,1,0,0,0,1,1H34a1,1,0,0,0,1-1V8A1,1,0,0,0,34,7Zm-1,3H15V9H33Z" fill="#080808"/>
      <path d="M34,14H14a1,1,0,0,0,0,2H34a1,1,0,0,0,0-2Z" fill="#080808"/>
      <path d="M33,18a1,1,0,0,0-1,1v2a1,1,0,0,0,2,0V19A1,1,0,0,0,33,18Z" fill="#080808"/>
      <path d="M30,18a1,1,0,0,0-1,1v2a1,1,0,0,0,2,0V19A1,1,0,0,0,30,18Z" fill="#080808"/>
    </g>
  </g>
</svg>
