<svg xmlns="http://www.w3.org/2000/svg" viewBox="0 0 48 48">
  <title>floppy</title>
  <g id="floppy">
    <g>
      <path d="M44.768,13.359l-10-12A1,1,0,0,0,34,1H6A3,3,0,0,0,3,4V44a3,3,0,0,0,3,3H42a3,3,0,0,0,3-3V14A1,1,0,0,0,44.768,13.359ZM11,3H29V9H11ZM43,44a1,1,0,0,1-1,1H6a1,1,0,0,1-1-1V4A1,1,0,0,1,6,3H9v7a1,1,0,0,0,1,1H30a1,1,0,0,0,1-1V3h2.532L43,14.362Z" fill="#080808"/>
      <path d="M17.008,35.957a1,1,0,0,0-2,0V40a1,1,0,0,0,1,1H39a1,1,0,0,0,1-1V35.957a1,1,0,0,0-2,0V39H17.008Z" fill="#080808"/>
      <path d="M24,31a7,7,0,1,0-7-7A7.008,7.008,0,0,0,24,31Zm0-12a5,5,0,1,1-5,5A5.006,5.006,0,0,1,24,19Z" fill="#080808"/>
      <rect x="21" y="22" width="2" height="4" fill="#080808"/>
    </g>
  </g>
</svg>
