<svg xmlns="http://www.w3.org/2000/svg" viewBox="0 0 48 48">
  <title>magic-mouse</title>
  <g id="magic-mouse">
    <path d="M27,47H21A13.015,13.015,0,0,1,8,34V14A13.015,13.015,0,0,1,21,1h6A13.015,13.015,0,0,1,40,14V34A13.015,13.015,0,0,1,27,47ZM21,3A11.012,11.012,0,0,0,10,14V34A11.012,11.012,0,0,0,21,45h6A11.012,11.012,0,0,0,38,34V14A11.012,11.012,0,0,0,27,3Z" fill="#080808"/>
    <path d="M24,20a3,3,0,0,1-3-3V12a3,3,0,0,1,6,0v5A3,3,0,0,1,24,20Zm0-9a1,1,0,0,0-1,1v5a1,1,0,0,0,2,0V12A1,1,0,0,0,24,11Z" fill="#080808"/>
  </g>
</svg>
