<svg xmlns="http://www.w3.org/2000/svg" viewBox="0 0 48 48">
  <title>ipod-display</title>
  <g id="i-pod">
    <g>
      <path d="M35,4H13a1,1,0,0,0-1,1V29a1,1,0,0,0,1,1H35a1,1,0,0,0,1-1V5A1,1,0,0,0,35,4ZM34,28H14V6H34Z" fill="#080808"/>
      <path d="M35,0H13A5.006,5.006,0,0,0,8,5V43a5.006,5.006,0,0,0,5,5H35a5.006,5.006,0,0,0,5-5V5A5.006,5.006,0,0,0,35,0Zm3,43a3,3,0,0,1-3,3H13a3,3,0,0,1-3-3V5a3,3,0,0,1,3-3H35a3,3,0,0,1,3,3Z" fill="#080808"/>
      <path d="M24,33a5,5,0,1,0,5,5A5.006,5.006,0,0,0,24,33Zm0,8a3,3,0,1,1,3-3A3,3,0,0,1,24,41Z" fill="#080808"/>
      <rect x="16" y="24" width="4" height="2" fill="#080808"/>
      <rect x="22" y="24" width="4" height="2" fill="#080808"/>
      <rect x="28" y="24" width="4" height="2" fill="#080808"/>
      <rect x="16" y="20" width="4" height="2" fill="#080808"/>
      <rect x="22" y="20" width="4" height="2" fill="#080808"/>
      <rect x="28" y="20" width="4" height="2" fill="#080808"/>
      <rect x="16" y="16" width="4" height="2" fill="#080808"/>
      <rect x="22" y="16" width="4" height="2" fill="#080808"/>
      <rect x="22" y="12" width="4" height="2" fill="#080808"/>
      <rect x="22" y="8" width="4" height="2" fill="#080808"/>
    </g>
  </g>
</svg>
