<?xml version="1.0" encoding="utf-8"?>
<!-- Generator: Adobe Illustrator 18.0.0, SVG Export Plug-In . SVG Version: 6.00 Build 0)  -->
<!DOCTYPE svg PUBLIC "-//W3C//DTD SVG 1.1//EN" "http://www.w3.org/Graphics/SVG/1.1/DTD/svg11.dtd">
<svg version="1.1" xmlns="http://www.w3.org/2000/svg" xmlns:xlink="http://www.w3.org/1999/xlink" x="0px" y="0px"
	 viewBox="0 0 48 48" enable-background="new 0 0 48 48" xml:space="preserve">
<g id="Layer_1">
</g>
<g id="processor">
</g>
<g id="cpu">
</g>
<g id="printer">
</g>
<g id="box">
</g>
<g id="touch-pad">
</g>
<g id="keyboard">
</g>
<g id="cam-6">
</g>
<g id="headphone">
</g>
<g id="floppy">
</g>
<g id="flat-wifi">
</g>
<g id="two-line-wifi">
</g>
<g id="i-phone-iol">
</g>
<g id="hand-phone" display="none">
</g>
<g id="responsive">
</g>
<g id="tabs">
</g>
<g id="wide">
</g>
<g id="rotate">
</g>
<g id="storager-load">
</g>
<g id="storager-close">
</g>
<g id="storager-download_1_">
</g>
<g id="storager-upload">
</g>
<g id="storager-setting">
</g>
<g id="storager-unloack">
</g>
<g id="storager-lock">
</g>
<g id="storager-refresh">
</g>
<g id="storager">
</g>
<g id="microsim">
</g>
<g id="game-remote-3">
</g>
<g id="game-remote-2">
</g>
<g id="game-remote-1">
	<path fill="none" stroke="#080808" stroke-width="2" stroke-linecap="round" stroke-miterlimit="10" d="M37.5272408,20.0490284
		c-2.7752724-0.264328-5.3516235,0.5557728-7.3628807,2.0825787C29.4458904,22.6770172,28.5845089,23,27.6824722,23h-7.3649445
		c-0.9020367,0-1.7634182-0.3229828-2.4818878-0.8683929c-2.0112581-1.5268059-4.5876064-2.3469067-7.3628788-2.0825787
		c-4.8737993,0.4642029-8.8721638,4.3944473-9.407197,9.2609787C0.3694303,35.6418724,5.3089671,41,11.5,41
		c2.3915472,0,4.5940514-0.8019485,6.3586292-2.1491089C18.5669346,38.3101387,19.4226303,38,20.3137589,38h7.3724823
		c0.8911285,0,1.7468243,0.3101387,2.4551296,0.8508911C31.9059486,40.1980515,34.1084518,41,36.5,41
		c6.1910324,0,11.1305695-5.3581276,10.4344368-11.6899929C46.3994026,24.4434757,42.4010391,20.5132313,37.5272408,20.0490284z"/>
	<path fill="none" stroke="#080808" stroke-width="2" stroke-linecap="round" stroke-miterlimit="10" d="M20,22v-2
		c0-1.6568546,1.3431454-3,3-3h2c1.6568546,0,3,1.3431454,3,3v2"/>
	<path fill="none" stroke="#080808" stroke-width="2" stroke-linecap="round" stroke-miterlimit="10" d="M24,17c0,0,1.8666668-8-8-8
		C9.2666664,9,8.9333334,4.4666667,9,2"/>
	
		<line fill="none" stroke="#080808" stroke-width="2" stroke-linecap="round" stroke-miterlimit="10" x1="11" y1="27" x2="11" y2="35"/>
	
		<line fill="none" stroke="#080808" stroke-width="2" stroke-linecap="round" stroke-miterlimit="10" x1="15" y1="31" x2="7" y2="31"/>
	
		<line fill="none" stroke="#080808" stroke-width="2" stroke-linecap="round" stroke-miterlimit="10" x1="37" y1="26" x2="37" y2="27"/>
	
		<line fill="none" stroke="#080808" stroke-width="2" stroke-linecap="round" stroke-miterlimit="10" x1="41" y1="30" x2="40" y2="30"/>
	
		<line fill="none" stroke="#080808" stroke-width="2" stroke-linecap="round" stroke-miterlimit="10" x1="37" y1="34" x2="37" y2="33"/>
	
		<line fill="none" stroke="#080808" stroke-width="2" stroke-linecap="round" stroke-miterlimit="10" x1="33" y1="30" x2="34" y2="30"/>
</g>
<g id="game-remote">
</g>
<g id="nano-sim">
</g>
<g id="sim-card">
</g>
<g id="plug-2">
</g>
<g id="plug">
</g>
<g id="wifi-adaptor-s">
</g>
<g id="wifi-adaptor-r">
</g>
<g id="socket">
</g>
<g id="broken-link">
</g>
<g id="link">
</g>
<g id="network-tred">
</g>
<g id="cloud-down">
</g>
<g id="cloud-up">
</g>
<g id="cloud-success">
</g>
<g id="channel">
</g>
<g id="locate-network">
</g>
<g id="group-share">
</g>
<g id="network-desktop">
</g>
<g id="network-3">
</g>
<g id="network-2">
</g>
<g id="network-1">
</g>
<g id="home-adaptor">
</g>
<g id="wifi-adaptor">
</g>
<g id="adoptor">
</g>
<g id="drive-shelve">
</g>
<g id="drive-3">
</g>
<g id="drive">
</g>
<g id="wifi-laptop">
</g>
<g id="wifi-tab">
</g>
<g id="wifi-mob">
</g>
<g id="wifi">
</g>
<g id="laptop-1">
</g>
<g id="computer-2">
</g>
<g id="old-computer">
</g>
<g id="battery-connected">
</g>
<g id="charging-3">
</g>
<g id="charging-2">
</g>
<g id="charging-1">
</g>
<g id="battery">
</g>
<g id="cam-4">
</g>
<g id="radio-2">
</g>
<g id="radio-1">
</g>
<g id="radio">
</g>
<g id="tape">
</g>
<g id="magic-mouse">
</g>
<g id="pendrive">
</g>
<g id="button-mouse">
</g>
<g id="ipod-pack">
</g>
<g id="i-pod">
</g>
<g id="flat-tv">
</g>
<g id="watch-2">
</g>
<g id="watch">
</g>
<g id="cam-2">
</g>
<g id="cam-1">
</g>
<g id="tv">
</g>
<g id="wirellesss">
</g>
<g id="small-phone">
</g>
<g id="phone">
</g>
<g id="android-phone">
</g>
<g id="i-phone">
</g>
<g id="large_phone">
</g>
<g id="i-pad">
</g>
<g id="tesktop">
</g>
<g id="laptop">
</g>
<g id="cloud-close">
</g>
<g id="plug-1">
</g>
<g id="storager-leg">
</g>
<g id="phone_1_">
</g>
<g id="cold-wifi">
</g>
<g id="handycam">
</g>
</svg>
