<svg xmlns="http://www.w3.org/2000/svg" viewBox="0 0 48 48">
  <title>tesktop</title>
  <g id="tesktop">
    <g>
      <path d="M41,5H7A1,1,0,0,0,6,6V28a1,1,0,0,0,1,1H41a1,1,0,0,0,1-1V6A1,1,0,0,0,41,5ZM40,27H8V7H40Z" fill="#080808"/>
      <path d="M43,1H5A3,3,0,0,0,2,4V35a3,3,0,0,0,3,3H18.153l.473,2.836A1,1,0,0,1,17.639,42H17a3,3,0,0,0-3,3v2a1,1,0,0,0,1,1H33a1,1,0,0,0,1-1V45a3,3,0,0,0-3-3h-.639a1,1,0,0,1-.986-1.164L29.847,38H43a3,3,0,0,0,3-3V4A3,3,0,0,0,43,1ZM28.072,42.939A3,3,0,0,0,30.361,44H31a1,1,0,0,1,1,1v1H16V45a1,1,0,0,1,1-1h.639A3,3,0,0,0,20.6,40.507L20.181,38h7.639L27.4,40.507A2.994,2.994,0,0,0,28.072,42.939ZM44,35a1,1,0,0,1-1,1H5a1,1,0,0,1-1-1V4A1,1,0,0,1,5,3H43a1,1,0,0,1,1,1Z" fill="#080808"/>
      <circle cx="23.5" cy="32.5" r="2" fill="#080808"/>
    </g>
  </g>
</svg>
