<svg xmlns="http://www.w3.org/2000/svg" viewBox="0 0 48 48">
  <title>plug-2</title>
  <g id="plug-2">
    <g>
      <path d="M22.146,23.475a4,4,0,1,0,5.657,0A4.006,4.006,0,0,0,22.146,23.475Zm4.243,4.243a2.048,2.048,0,0,1-2.829,0,2,2,0,1,1,2.829,0Z" fill="#080808"/>
      <path d="M17.2,25.6a1,1,0,0,0-1.414,1.414L24.268,35.5a1,1,0,0,0,1.414-1.414Z" fill="#080808"/>
      <path d="M40.046,9.332A8,8,0,0,0,26.389,3.676L22.854,7.212a4.005,4.005,0,0,1-5.657,0,1,1,0,0,0-1.414,1.414,6.005,6.005,0,0,0,8.485,0L27.8,5.09a6,6,0,0,1,8.485,8.485l-2.251,2.252a2.993,2.993,0,0,0-3.405.577l-.707.707c-.019.019-.026.045-.043.065a10.2,10.2,0,0,0-13.542.792l-6.214,6.214-.708-.708A1,1,0,0,0,8,24.889L9.417,26.3l0,0,0,0,1.412,1.412L4.469,34.082A1,1,0,1,0,5.883,35.5l6.365-6.365,9.9,9.9L15.783,45.4A1,1,0,1,0,17.2,46.81l6.364-6.365,2.828,2.828A1,1,0,0,0,27.8,41.859l-.707-.707,6.214-6.214A10.2,10.2,0,0,0,34.1,21.4c.02-.017.046-.024.065-.043l.708-.707a2.966,2.966,0,0,0,.578-3.407l2.25-2.25A7.946,7.946,0,0,0,40.046,9.332Zm-8,8.486a1,1,0,0,1,1.415,0,1,1,0,0,1,0,1.414l-.708.707-1.414-1.414ZM31.9,33.524l-6.214,6.214L11.54,25.6l6.214-6.214a8.212,8.212,0,0,1,11.613,0L31.9,21.911a8.213,8.213,0,0,1,0,11.613Z" fill="#080808"/>
    </g>
  </g>
</svg>
