<svg xmlns="http://www.w3.org/2000/svg" viewBox="0 0 48 48">
  <title>game-remote-1</title>
  <g id="game-remote-1">
    <g>
      <path d="M47.929,29.2A11.5,11.5,0,0,0,29.56,21.335a3.441,3.441,0,0,1-.56.34V20a4,4,0,0,0-3.875-3.987,7.545,7.545,0,0,0-1.473-5.1C22.119,8.979,19.544,8,16,8c-2.165,0-3.754-.5-4.722-1.5C10.058,5.248,9.964,3.348,10,2.027a1,1,0,1,0-2-.055C7.955,3.656,8.1,6.1,9.845,7.9,11.2,9.292,13.274,10,16,10c2.895,0,4.938.721,6.075,2.143A5.638,5.638,0,0,1,23.122,16H23a4,4,0,0,0-4,4v1.675a3.441,3.441,0,0,1-.56-.34,11.5,11.5,0,1,0,.023,18.312A3.042,3.042,0,0,1,20.313,39h7.373a3.037,3.037,0,0,1,1.848.646A11.387,11.387,0,0,0,36.5,42,11.5,11.5,0,0,0,47.929,29.2ZM21,20a2,2,0,0,1,2-2h2a2,2,0,0,1,2,2v2H21ZM43.578,36.837A9.515,9.515,0,0,1,36.5,40a9.4,9.4,0,0,1-5.753-1.945A5.024,5.024,0,0,0,27.687,37H20.313a5.029,5.029,0,0,0-3.062,1.056A9.392,9.392,0,0,1,11.5,40,9.5,9.5,0,0,1,2.06,29.419a9.617,9.617,0,0,1,8.508-8.375,9.549,9.549,0,0,1,6.664,1.885A5.08,5.08,0,0,0,20.317,24h7.365a5.08,5.08,0,0,0,3.086-1.071,9.495,9.495,0,0,1,15.172,6.49A9.432,9.432,0,0,1,43.578,36.837Z" fill="#080808"/>
      <path d="M15,30H12V27a1,1,0,0,0-2,0v3H7a1,1,0,0,0,0,2h3v3a1,1,0,0,0,2,0V32h3a1,1,0,0,0,0-2Z" fill="#080808"/>
      <path d="M37,25a1,1,0,0,0-1,1v1a1,1,0,0,0,2,0V26A1,1,0,0,0,37,25Z" fill="#080808"/>
      <path d="M41,29H40a1,1,0,0,0,0,2h1a1,1,0,0,0,0-2Z" fill="#080808"/>
      <path d="M37,32a1,1,0,0,0-1,1v1a1,1,0,0,0,2,0V33A1,1,0,0,0,37,32Z" fill="#080808"/>
      <path d="M34,29H33a1,1,0,0,0,0,2h1a1,1,0,0,0,0-2Z" fill="#080808"/>
    </g>
  </g>
</svg>
