<svg xmlns="http://www.w3.org/2000/svg" viewBox="0 0 48 48">
  <title>laptop-2</title>
  <g id="laptop-1">
    <g>
      <path d="M42,35V8a1,1,0,0,0-1-1H7A1,1,0,0,0,6,8V35a1,1,0,0,0,1,1H41A1,1,0,0,0,42,35Zm-2-1H8V9H40Z" fill="#080808"/>
      <path d="M48,38H46V6a3,3,0,0,0-3-3H5A3,3,0,0,0,2,6V38H1a1,1,0,0,0-1,1v5a3,3,0,0,0,3,3H46a3,3,0,0,0,3-3V39A1,1,0,0,0,48,38ZM4,6A1,1,0,0,1,5,5H43a1,1,0,0,1,1,1V38H30a1,1,0,0,0-1,1v2H19V39a1,1,0,0,0-1-1H4ZM47,44a1,1,0,0,1-1,1H3a1,1,0,0,1-1-1V40H17v2a1,1,0,0,0,1,1H30a1,1,0,0,0,1-1V40H47Z" fill="#080808"/>
    </g>
  </g>
</svg>
