<svg xmlns="http://www.w3.org/2000/svg" viewBox="0 0 48 48">
  <title>watch-2</title>
  <g id="watch-2">
    <g>
      <path d="M23.293,25.707a1,1,0,0,0,1.414,0l4-4a1,1,0,0,0-1.414-1.414L24,23.586l-5.293-5.293a1,1,0,0,0-1.414,1.414Z" fill="#080808"/>
      <path d="M38,24a13.939,13.939,0,0,0-3.881-9.648L30.97,1.757A1,1,0,0,0,30,1H18a1,1,0,0,0-.97.757L13.881,14.352a13.934,13.934,0,0,0,0,19.3L17.03,46.243A1,1,0,0,0,18,47H30a1,1,0,0,0,.97-.757l3.149-12.594A13.939,13.939,0,0,0,38,24ZM18.781,3H29.219l2.3,9.212a13.9,13.9,0,0,0-15.044,0ZM24,12A12,12,0,1,1,12,24,12.014,12.014,0,0,1,24,12Zm5.219,33H18.781l-2.3-9.212a13.9,13.9,0,0,0,15.044,0Z" fill="#080808"/>
    </g>
  </g>
</svg>
