<svg xmlns="http://www.w3.org/2000/svg" viewBox="0 0 48 48">
  <title>android-phone</title>
  <g id="android-phone">
    <g>
      <path d="M35,7H13a1,1,0,0,0-1,1V35a1,1,0,0,0,1,1H35a1,1,0,0,0,1-1V8A1,1,0,0,0,35,7ZM34,34H14V9H34Z" fill="#080808"/>
      <path d="M37,0H11A3,3,0,0,0,8,3V45a3,3,0,0,0,3,3H37a3,3,0,0,0,3-3V3A3,3,0,0,0,37,0Zm1,45a1,1,0,0,1-1,1H11a1,1,0,0,1-1-1V3a1,1,0,0,1,1-1H37a1,1,0,0,1,1,1Z" fill="#080808"/>
      <path d="M17,41H13a1,1,0,0,0,0,2h4a1,1,0,0,0,0-2Z" fill="#080808"/>
      <path d="M35,41H31a1,1,0,0,0,0,2h4a1,1,0,0,0,0-2Z" fill="#080808"/>
      <circle cx="24" cy="42" r="2" fill="#080808"/>
    </g>
  </g>
</svg>
