<svg xmlns="http://www.w3.org/2000/svg" viewBox="0 0 48 48">
  <title>move</title>
  <g id="Layer_2" data-name="Layer 2">
    <g id="move">
      <g>
        <path d="M6.595,2.259a1,1,0,0,0-1.325.5A2.993,2.993,0,0,0,5,4v.143a1,1,0,0,0,2,0V4a.993.993,0,0,1,.09-.416A1,1,0,0,0,6.595,2.259Z"/>
        <path d="M20.715,1h-1a1,1,0,0,0,0,2h1a1,1,0,0,0,0-2Z"/>
        <path d="M25,45H24a1,1,0,0,0,0,2h1a1,1,0,0,0,0-2Z"/>
        <path d="M10.715,1h-1a1,1,0,0,0,0,2h1a1,1,0,0,0,0-2Z"/>
        <path d="M15,45H14a1,1,0,0,0,0,2h1a1,1,0,0,0,0-2Z"/>
        <path d="M20,45H19a1,1,0,0,0,0,2h1a1,1,0,0,0,0-2Z"/>
        <path d="M15.715,1h-1a1,1,0,0,0,0,2h1a1,1,0,0,0,0-2Z"/>
        <path d="M10,45H9a1,1,0,0,0,0,2h1a1,1,0,0,0,0-2Z"/>
        <path d="M6,37.143a1,1,0,0,0-1,1v1a1,1,0,0,0,2,0v-1A1,1,0,0,0,6,37.143Z"/>
        <path d="M6,32.143a1,1,0,0,0-1,1v1a1,1,0,0,0,2,0v-1A1,1,0,0,0,6,32.143Z"/>
        <path d="M6,27.143a1,1,0,0,0-1,1v1a1,1,0,0,0,2,0v-1A1,1,0,0,0,6,27.143Z"/>
        <path d="M6,7.143a1,1,0,0,0-1,1v1a1,1,0,0,0,2,0v-1A1,1,0,0,0,6,7.143Z"/>
        <path d="M6,42.143a1,1,0,0,0-1,1v.837q0,.114.006.226a.962.962,0,0,0,.99.9l.069,0A1.037,1.037,0,0,0,7,44v-.857A1,1,0,0,0,6,42.143Z"/>
        <path d="M6,12.143a1,1,0,0,0-1,1v1a1,1,0,0,0,2,0v-1A1,1,0,0,0,6,12.143Z"/>
        <path d="M6,17.143a1,1,0,0,0-1,1v1a1,1,0,0,0,2,0v-1A1,1,0,0,0,6,17.143Z"/>
        <path d="M6,22.143a1,1,0,0,0-1,1v1a1,1,0,0,0,2,0v-1A1,1,0,0,0,6,22.143Z"/>
        <path d="M35,45H34a1,1,0,0,0,0,2h1a1,1,0,0,0,0-2Z"/>
        <path d="M40.2,44.979A1.213,1.213,0,0,1,40,45H39a1,1,0,0,0,0,2h1.007a3.021,3.021,0,0,0,.584-.06,1,1,0,0,0-.389-1.961Z"/>
        <path d="M25.715,1h-1a1,1,0,0,0,0,2h1a1,1,0,0,0,0-2Z"/>
        <path d="M42,40.744a1,1,0,0,0-1,1v1a1,1,0,0,0,2,0v-1A1,1,0,0,0,42,40.744Z"/>
        <path d="M42,35.744a1,1,0,0,0-1,1v1a1,1,0,0,0,2,0v-1A1,1,0,0,0,42,35.744Z"/>
        <path d="M42,25.744a1,1,0,0,0-1,1v1a1,1,0,0,0,2,0v-1A1,1,0,0,0,42,25.744Z"/>
        <path d="M42,15.744a1,1,0,0,0-1,1v1a1,1,0,0,0,2,0v-1A1,1,0,0,0,42,15.744Z"/>
        <path d="M42,20.744a1,1,0,0,0-1,1v1a1,1,0,0,0,2,0v-1A1,1,0,0,0,42,20.744Z"/>
        <path d="M42,30.744a1,1,0,0,0-1,1v1a1,1,0,0,0,2,0v-1A1,1,0,0,0,42,30.744Z"/>
        <path d="M30.707,1.293A1,1,0,0,0,30,1h-.285a1,1,0,0,0-1,1,.983.983,0,0,0,.339.732A.97.97,0,0,0,29,3V4a1,1,0,0,0,2,0V3.353a.963.963,0,0,0,.212-.141,1,1,0,0,0,0-1.414Z"/>
        <path d="M38.283,8.869l-.707-.707a1,1,0,0,0-1.414,1.414l.707.707a1,1,0,1,0,1.414-1.414Z"/>
        <path d="M30,45H29a1,1,0,0,0,0,2h1a1,1,0,0,0,0-2Z"/>
        <path d="M34.041,7.041a1,1,0,0,0,.707-1.707l-.707-.707a1,1,0,0,0-1.414,1.414l.707.707A1,1,0,0,0,34.041,7.041Z"/>
        <path d="M38,14a1,1,0,0,0,1,1h1a.991.991,0,0,0,.982-.913,1.015,1.015,0,0,0,.13.025,1,1,0,0,0,.707-1.707l-.708-.708a1,1,0,0,0-1.414,0,.988.988,0,0,0-.074,1.3H39A1,1,0,0,0,38,14Z"/>
        <path d="M35,13H34a1,1,0,0,0,0,2h1a1,1,0,0,0,0-2Z"/>
        <path d="M30,12a1,1,0,0,0-1,1v1a1,1,0,0,0,2,0V13A1,1,0,0,0,30,12Z"/>
        <path d="M30,7a1,1,0,0,0-1,1V9a1,1,0,0,0,2,0V8A1,1,0,0,0,30,7Z"/>
      </g>
    </g>
  </g>
</svg>
