<svg xmlns="http://www.w3.org/2000/svg" viewBox="0 0 48 48">
  <title>notify</title>
  <g id="Layer_2" data-name="Layer 2">
    <g id="notify">
      <g>
        <path d="M42.743,11.331l-9-10A1,1,0,0,0,33,1H8A3,3,0,0,0,5,4V44a3,3,0,0,0,3,3H40a3,3,0,0,0,3-3V12A1,1,0,0,0,42.743,11.331ZM34,4.606,39.755,11H34ZM40,45H8a1,1,0,0,1-1-1V4A1,1,0,0,1,8,3H32v9a1,1,0,0,0,1,1h8V44A1,1,0,0,1,40,45Z"/>
        <path d="M23.292,14a3.4,3.4,0,0,0-2.52,1.086,2.9,2.9,0,0,0-.756,2.263L21.8,32.12a1,1,0,0,0,.993.88h1a1,1,0,0,0,.993-.88l1.786-14.795a2.884,2.884,0,0,0-.758-2.238A3.4,3.4,0,0,0,23.292,14Zm0,13.8L22,17.132a.905.905,0,0,1,.249-.7,1.469,1.469,0,0,1,2.079,0,.9.9,0,0,1,.251.678Z"/>
        <path d="M23,35a3,3,0,1,0,3,3A3,3,0,0,0,23,35Zm0,4a1,1,0,1,1,1-1A1,1,0,0,1,23,39Z"/>
      </g>
    </g>
  </g>
</svg>
