<svg xmlns="http://www.w3.org/2000/svg" viewBox="0 0 48 48">
  <title>list-file</title>
  <g id="Layer_2" data-name="Layer 2">
    <g id="list-file">
      <g>
        <path d="M42.707,13.293l-12-12A1,1,0,0,0,30,1H8A3,3,0,0,0,5,4V44a3,3,0,0,0,3,3H40a3,3,0,0,0,3-3V14A1,1,0,0,0,42.707,13.293ZM31,4.414,39.586,13H31ZM41,44a1,1,0,0,1-1,1H8a1,1,0,0,1-1-1V4A1,1,0,0,1,8,3H29V14a1,1,0,0,0,1,1H41Z"/>
        <path d="M13,35a3,3,0,1,0,3,3A3,3,0,0,0,13,35Zm0,4a1,1,0,1,1,1-1A1,1,0,0,1,13,39Z"/>
        <path d="M13,26a3,3,0,1,0,3,3A3,3,0,0,0,13,26Zm0,4a1,1,0,1,1,1-1A1,1,0,0,1,13,30Z"/>
        <path d="M13,17a3,3,0,1,0,3,3A3,3,0,0,0,13,17Zm0,4a1,1,0,1,1,1-1A1,1,0,0,1,13,21Z"/>
        <path d="M19,20a1,1,0,0,0,1,1H35a1,1,0,0,0,0-2H20A1,1,0,0,0,19,20Z"/>
        <path d="M35,28H20a1,1,0,0,0,0,2H35a1,1,0,0,0,0-2Z"/>
        <path d="M35,37H20a1,1,0,0,0,0,2H35a1,1,0,0,0,0-2Z"/>
      </g>
    </g>
  </g>
</svg>
