<svg xmlns="http://www.w3.org/2000/svg" viewBox="0 0 48 48">
  <title>drawer</title>
  <g id="drawer">
    <g>
      <path d="M44.992,16.958a2.167,2.167,0,0,0-.1-.386c-.007-.014-.005-.029-.013-.043L37.729,3.117A3.992,3.992,0,0,0,34.2,1H13.8a4,4,0,0,0-3.529,2.117L3.117,16.529c-.007.014-.006.029-.013.043a2.169,2.169,0,0,0-.1.386c0,.015-.008.027-.008.042V44a4,4,0,0,0,4,4H41a4,4,0,0,0,4-4V17C45,16.985,44.992,16.973,44.992,16.958ZM43,26H5V18H43ZM5,28H43v8H5ZM12.035,4.059A2,2,0,0,1,13.8,3H34.2a1.993,1.993,0,0,1,1.764,1.059L42.333,16H5.667ZM43,44a2,2,0,0,1-2,2H7a2,2,0,0,1-2-2V38H43Z"/>
      <path d="M19,23H30a1,1,0,0,0,0-2H19a1,1,0,0,0,0,2Z"/>
      <path d="M30,31H19a1,1,0,0,0,0,2H30a1,1,0,0,0,0-2Z"/>
      <path d="M19,43H30a1,1,0,0,0,0-2H19a1,1,0,0,0,0,2Z"/>
      <path d="M13,13a1,1,0,0,1,1-1H34a1,1,0,0,1,1,1h2a3,3,0,0,0-3-3H14a3,3,0,0,0-3,3Z"/>
      <path d="M17,7H31a1,1,0,0,1,1,1h2a3,3,0,0,0-3-3H17a3,3,0,0,0-3,3h2A1,1,0,0,1,17,7Z"/>
    </g>
  </g>
</svg>
