<svg xmlns="http://www.w3.org/2000/svg" viewBox="0 0 48 48">
  <title>drawer-2</title>
  <g id="Layer_2" data-name="Layer 2">
    <g id="drawer-2">
      <g>
        <path d="M46.622,22.062l-8.891-16A4,4,0,0,0,34.234,4H13.766a4,4,0,0,0-3.5,2.058l-8.891,16A3.012,3.012,0,0,0,1,23.519V42a4,4,0,0,0,4,4H43a4,4,0,0,0,4-4V23.519A3.006,3.006,0,0,0,46.622,22.062ZM12.017,7.029A2,2,0,0,1,13.766,6H34.234a2,2,0,0,1,1.749,1.028L44.856,23H35a1,1,0,0,0-.929.629l-1.246,3.114A1.989,1.989,0,0,1,30.969,28H17.031a1.989,1.989,0,0,1-1.856-1.257l-1.246-3.114A1,1,0,0,0,13,23H3.144ZM43,44H5a2,2,0,0,1-2-2V25h9.323l.994,2.485A3.98,3.98,0,0,0,17.031,30H30.969a3.98,3.98,0,0,0,3.714-2.515L35.677,25H45V42A2,2,0,0,1,43,44Z"/>
        <path d="M11,20a1,1,0,0,1,1-1H36a1,1,0,0,1,1,1h2a3,3,0,0,0-3-3H12a3,3,0,0,0-3,3Z"/>
        <path d="M15,13H33a1,1,0,0,1,1,1h2a3,3,0,0,0-3-3H15a3,3,0,0,0-3,3h2A1,1,0,0,1,15,13Z"/>
        <path d="M35,35H13a1,1,0,0,0,0,2H35a1,1,0,0,0,0-2Z"/>
      </g>
    </g>
  </g>
</svg>
