<?xml version="1.0" encoding="utf-8"?>
<!-- Generator: Adobe Illustrator 18.0.0, SVG Export Plug-In . SVG Version: 6.00 Build 0)  -->
<!DOCTYPE svg PUBLIC "-//W3C//DTD SVG 1.1//EN" "http://www.w3.org/Graphics/SVG/1.1/DTD/svg11.dtd">
<svg version="1.1" xmlns="http://www.w3.org/2000/svg" xmlns:xlink="http://www.w3.org/1999/xlink" x="0px" y="0px"
	 viewBox="0 0 48 48" enable-background="new 0 0 48 48" xml:space="preserve">
<g id="Layer_1">
</g>
<g id="Layer_2">
	<g id="Layer_3">
	</g>
	<g id="Layer_4">
	</g>
	<g id="drawer-2">
	</g>
	<g id="file-pen">
	</g>
	<g id="file-drawer-2">
	</g>
	<g id="move">
	</g>
	<g id="papper-hold">
	</g>
	<g id="papper">
	</g>
	<g id="file-label">
	</g>
	<g id="file-drawer-1">
	</g>
	<g id="file-drawer">
	</g>
	<g id="disorder-list">
	</g>
	<g id="image-list">
	</g>
	<g id="bookholder-2">
	</g>
	<g id="bookholder">
	</g>
	<g id="success-file">
	</g>
	<g id="ask-file">
	</g>
	<g id="notify">
	</g>
	<g id="news">
	</g>
	<g id="board-edit">
	</g>
	<g id="board-unblock">
	</g>
	<g id="board-block">
	</g>
	<g id="board-close">
	</g>
	<g id="board-check">
	</g>
	<g id="board-minus">
	</g>
	<g id="board-add">
	</g>
	<g id="board-pen">
	</g>
	<g id="board-write">
	</g>
	<g id="board">
	</g>
	<g id="number-file">
		<path fill="none" stroke="#000000" stroke-width="2" stroke-linejoin="round" stroke-miterlimit="10" d="M40,46H8
			c-1.1045694,0-2-0.8954315-2-2V4c0-1.1045694,0.8954306-2,2-2h22.0000134L42,14v30C42,45.1045685,41.1045685,46,40,46z"/>
		<polyline fill="none" stroke="#000000" stroke-width="2" stroke-linejoin="round" stroke-miterlimit="10" points="30,3 30,14 
			42,14 		"/>
		
			<line fill="none" stroke="#000000" stroke-width="2" stroke-linecap="round" stroke-linejoin="round" stroke-miterlimit="10" x1="20" y1="20" x2="35" y2="20"/>
		
			<line fill="none" stroke="#000000" stroke-width="2" stroke-linecap="round" stroke-linejoin="round" stroke-miterlimit="10" x1="20" y1="29" x2="35" y2="29"/>
		
			<line fill="none" stroke="#000000" stroke-width="2" stroke-linecap="round" stroke-linejoin="round" stroke-miterlimit="10" x1="20" y1="38" x2="35" y2="38"/>
		<g>
			<path d="M12.4228516,17.5703125l-0.4316406,0.1123047c-0.0634766,0.015625-0.1513672,0.0322266-0.2158203,0.0322266
				c-0.2880859,0-0.5351563-0.2402344-0.5351563-0.5283203c0-0.2480469,0.1591797-0.4560547,0.4072266-0.5273438
				l0.7919922-0.2324219c0.2314453-0.0634766,0.4072266-0.1035156,0.5751953-0.1035156H13.03125
				c0.3359375,0,0.6074219,0.2714844,0.6074219,0.6074219v4.5097656c0,0.3359375-0.2714844,0.6074219-0.6074219,0.6074219
				s-0.6083984-0.2714844-0.6083984-0.6074219V17.5703125z"/>
		</g>
		<g>
			<path d="M11.6640625,29.8007813l1.5908203-1.3037109c0.6953125-0.5673828,0.9677734-0.8789063,0.9677734-1.3427734
				c0-0.4716797-0.3125-0.7275391-0.7519531-0.7275391c-0.3515625,0-0.5996094,0.1513672-0.9111328,0.4873047
				c-0.0800781,0.0878906-0.2246094,0.1757813-0.4160156,0.1757813c-0.3115234,0-0.5595703-0.2480469-0.5595703-0.5595703
				c0-0.1357422,0.0556641-0.2792969,0.1435547-0.3837891c0.4482422-0.5195313,0.9755859-0.8232422,1.8232422-0.8232422
				c1.1591797,0,1.9267578,0.6796875,1.9267578,1.7265625v0.0166016c0,0.9355469-0.4794922,1.3994141-1.4716797,2.1669922
				l-0.9111328,0.703125h1.9511719c0.2958984,0,0.5351563,0.2402344,0.5351563,0.5361328S15.3417969,31,15.0458984,31h-3.0380859
				c-0.3837891,0-0.6640625-0.2158203-0.6640625-0.5839844C11.34375,30.1767578,11.4560547,29.96875,11.6640625,29.8007813z"/>
		</g>
		<g>
			<path d="M11.6318359,40.4560547c-0.1123047-0.0957031-0.2080078-0.2636719-0.2080078-0.4394531
				c0-0.3203125,0.2714844-0.5917969,0.5917969-0.5917969c0.1757813,0,0.2958984,0.0722656,0.3916016,0.1523438
				c0.3193359,0.2714844,0.6552515,0.4150391,1.0957031,0.4150391c0.4638672,0,0.7910156-0.2636719,0.7910156-0.6796875v-0.015625
				c0-0.4560547-0.4072266-0.7119141-1.0947266-0.7119141h-0.1923828c-0.2880859,0-0.5273438-0.2392578-0.5273438-0.5273438
				c0-0.1679688,0.0712891-0.3115234,0.2636719-0.5039063l1.0869141-1.0947266h-1.71875
				c-0.2880859,0-0.5273438-0.2402344-0.5273438-0.5283203s0.2392578-0.5273438,0.5273438-0.5273438h2.7265625
				c0.359375,0,0.6240234,0.2080078,0.6240234,0.5439453c0,0.3037109-0.1445313,0.4716797-0.3681641,0.6875l-1.0957031,1.046875
				c0.7597656,0.1279297,1.5039063,0.5283203,1.5039063,1.5673828v0.015625c0,1.0556641-0.7675781,1.8310547-2.015625,1.8310547
				C12.6874781,41.0957031,12.0878906,40.8476563,11.6318359,40.4560547z"/>
		</g>
	</g>
	<g id="list-file">
	</g>
	<g id="upload">
	</g>
	<g id="download">
	</g>
	<g id="png_1_">
	</g>
	<g id="png">
	</g>
	<g id="jpg">
	</g>
	<g id="doc">
	</g>
	<g id="xls">
	</g>
	<g id="adobe_acrobat">
	</g>
	<g id="after-effects">
	</g>
	<g id="illustrator">
	</g>
	<g id="photoshop">
	</g>
	<g id="word-file">
	</g>
	<g id="text-file">
	</g>
	<g id="letter">
	</g>
	<g id="file-folder">
	</g>
	<g id="files-3">
	</g>
	<g id="two-files-1">
	</g>
	<g id="two-files">
	</g>
	<g id="file-favorite">
	</g>
	<g id="file-block">
	</g>
	<g id="file-notification">
	</g>
	<g id="file-clude">
	</g>
	<g id="files-settings">
	</g>
	<g id="fileedit">
	</g>
	<g id="file-lock">
	</g>
	<g id="file-trash">
	</g>
	<g id="file-star">
	</g>
	<g id="file_locak">
	</g>
	<g id="file_reload">
	</g>
	<g id="file-check">
	</g>
	<g id="file_close">
	</g>
	<g id="file-remove">
	</g>
	<g id="file-add">
	</g>
	<g id="file-wide">
	</g>
	<g id="file-rotate">
	</g>
	<g id="file-transfer">
	</g>
	<g id="file-hold">
	</g>
	<g id="file-zip-1">
	</g>
	<g id="file-music">
	</g>
	<g id="file-code">
	</g>
	<g id="file-play">
	</g>
	<g id="file-inage">
	</g>
	<g id="file-chart">
	</g>
	<g id="file-graph">
	</g>
	<g id="file-1">
	</g>
	<g id="files">
	</g>
	<g id="file-2">
	</g>
	<g id="file">
	</g>
	<g id="folder-flat">
	</g>
	<g id="folder-notify">
	</g>
	<g id="folder-cloude">
	</g>
	<g id="folder-settings">
	</g>
	<g id="folder-edit">
	</g>
	<g id="folder-unloack">
	</g>
	<g id="folder-lock">
	</g>
	<g id="folder-star">
	</g>
	<g id="folder-search">
	</g>
	<g id="folder-trash">
	</g>
	<g id="folder-block">
	</g>
	<g id="folder-favorite">
	</g>
	<g id="folder-loading">
	</g>
	<g id="folder-refresh">
	</g>
	<g id="folder-check">
	</g>
	<g id="folder-close">
	</g>
	<g id="folder-remove">
	</g>
	<g id="folder-ad">
	</g>
	<g id="folder">
	</g>
</g>
<g id="folder-zip">
</g>
<g id="bookmark">
</g>
<g id="bookmark-file">
</g>
<g id="drawer">
</g>
</svg>
