<svg xmlns="http://www.w3.org/2000/svg" viewBox="0 0 48 48">
  <title>news</title>
  <g id="Layer_2" data-name="Layer 2">
    <g id="news">
      <g>
        <path d="M40,2H7A4,4,0,0,0,3,6V43a4,4,0,0,0,4,4H40a4,4,0,0,0,4-4V6A4,4,0,0,0,40,2Zm2,41a2,2,0,0,1-2,2H7a2,2,0,0,1-2-2V6A2,2,0,0,1,7,4H40a2,2,0,0,1,2,2Z"/>
        <path d="M22,19V9a1,1,0,0,0-1-1H11a1,1,0,0,0-1,1V19a1,1,0,0,0,1,1H21A1,1,0,0,0,22,19Zm-2-1H12V10h8Z"/>
        <path d="M36,9H26a1,1,0,0,0,0,2H36a1,1,0,0,0,0-2Z"/>
        <path d="M36,13H26a1,1,0,0,0,0,2H36a1,1,0,0,0,0-2Z"/>
        <path d="M36,17H26a1,1,0,0,0,0,2H36a1,1,0,0,0,0-2Z"/>
        <path d="M34,24H13a1,1,0,0,0,0,2H34a1,1,0,0,0,0-2Z"/>
        <path d="M34,29H13a1,1,0,0,0,0,2H34a1,1,0,0,0,0-2Z"/>
        <path d="M34,34H13a1,1,0,0,0,0,2H34a1,1,0,0,0,0-2Z"/>
        <path d="M34,39H13a1,1,0,0,0,0,2H34a1,1,0,0,0,0-2Z"/>
      </g>
    </g>
  </g>
</svg>
