<svg xmlns="http://www.w3.org/2000/svg" viewBox="0 0 48 48">
  <title>list-file_1</title>
  <g id="Layer_2" data-name="Layer 2">
    <g id="number-file">
      <g>
        <path d="M42.707,13.293l-12-12A1,1,0,0,0,30,1H8A3,3,0,0,0,5,4V44a3,3,0,0,0,3,3H40a3,3,0,0,0,3-3V14A1,1,0,0,0,42.707,13.293ZM31,4.414,39.586,13H31ZM41,44a1,1,0,0,1-1,1H8a1,1,0,0,1-1-1V4A1,1,0,0,1,8,3H29V14a1,1,0,0,0,1,1H41Z"/>
        <path d="M19,20a1,1,0,0,0,1,1H35a1,1,0,0,0,0-2H20A1,1,0,0,0,19,20Z"/>
        <path d="M35,28H20a1,1,0,0,0,0,2H35a1,1,0,0,0,0-2Z"/>
        <path d="M35,37H20a1,1,0,0,0,0,2H35a1,1,0,0,0,0-2Z"/>
        <path d="M11.775,17.715a1.02,1.02,0,0,0,.216-.032l.432-.112v3.87a.608.608,0,0,0,1.216,0v-4.51a.607.607,0,0,0-.607-.607h-.017a2.212,2.212,0,0,0-.575.1l-.792.232a.536.536,0,0,0,.128,1.056Z"/>
        <path d="M15.046,29.937H13.095l.911-.7C15,28.466,15.478,28,15.478,27.066V27.05a1.726,1.726,0,0,0-1.927-1.727,2.2,2.2,0,0,0-1.823.823.618.618,0,0,0-.144.384.556.556,0,0,0,.56.56.564.564,0,0,0,.416-.176,1.18,1.18,0,0,1,.911-.487.687.687,0,0,1,.752.728c0,.464-.272.775-.968,1.343l-1.591,1.3a.778.778,0,0,0-.32.615.591.591,0,0,0,.664.584h3.038a.528.528,0,0,0,.535-.527A.536.536,0,0,0,15.046,29.937Z"/>
        <path d="M14,37.682l1.1-1.047a.894.894,0,0,0,.368-.687.558.558,0,0,0-.624-.544H12.111a.528.528,0,0,0,0,1.056H13.83l-1.087,1.095a.694.694,0,0,0-.264.5.531.531,0,0,0,.527.527H13.2c.688,0,1.095.256,1.095.712v.016a.7.7,0,0,1-.791.68,1.6,1.6,0,0,1-1.1-.415.584.584,0,0,0-.392-.152.584.584,0,0,0-.384,1.031,2.738,2.738,0,0,0,1.854.64A1.826,1.826,0,0,0,15.5,39.265v-.016A1.553,1.553,0,0,0,14,37.682Z"/>
      </g>
    </g>
  </g>
</svg>
