<svg xmlns="http://www.w3.org/2000/svg" viewBox="0 0 48 48">
  <title>h3</title>
  <g id="h3">
    <path d="M11.829,8.34V20.75H26.175V8.34h3.873V38H26.175V24.094H11.829V38H8V8.34Z"/>
    <path d="M37.713,36.789a3.528,3.528,0,0,0,1.727.492c1.355,0,1.775-.863,1.763-1.511-.012-1.091-1-1.559-2.015-1.559H38.6v-.792h.587c.768,0,1.739-.4,1.739-1.319,0-.624-.4-1.175-1.367-1.175A2.862,2.862,0,0,0,38,31.439l-.276-.768a3.705,3.705,0,0,1,2.039-.6c1.535,0,2.231.912,2.231,1.859a1.936,1.936,0,0,1-1.439,1.835v.024a2.03,2.03,0,0,1,1.739,2c0,1.248-.972,2.339-2.842,2.339a3.962,3.962,0,0,1-2.027-.528Z"/>
  </g>
</svg>
