<svg xmlns="http://www.w3.org/2000/svg" viewBox="0 0 48 48">
  <title>right-middle</title>
  <g id="right-middle">
    <g>
      <path d="M4,18H21a1,1,0,0,0,0-2H4a1,1,0,0,0,0,2Z"/>
      <path d="M4,23H21a1,1,0,0,0,0-2H4a1,1,0,0,0,0,2Z"/>
      <path d="M4,28H21a1,1,0,0,0,0-2H4a1,1,0,0,0,0,2Z"/>
      <path d="M4,33H21a1,1,0,0,0,0-2H4a1,1,0,0,0,0,2Z"/>
      <path d="M4,8H44a1,1,0,0,0,0-2H4A1,1,0,0,0,4,8Z"/>
      <path d="M44,11H4a1,1,0,0,0,0,2H44a1,1,0,0,0,0-2Z"/>
      <path d="M44,36H4a1,1,0,0,0,0,2H44a1,1,0,0,0,0-2Z"/>
      <path d="M44,41H4a1,1,0,0,0,0,2H44a1,1,0,0,0,0-2Z"/>
      <path d="M44,16H26a1,1,0,0,0-1,1V32a1,1,0,0,0,1,1H44a1,1,0,0,0,1-1V17A1,1,0,0,0,44,16ZM43,31H27V18H43Z"/>
    </g>
  </g>
</svg>
