<svg xmlns="http://www.w3.org/2000/svg" viewBox="0 0 48 48">
  <title>move-place</title>
  <g id="move-place">
    <path d="M47,23H45.449A21.493,21.493,0,0,0,25,2.551V1a1,1,0,0,0-2,0V2.551A21.493,21.493,0,0,0,2.551,23H1a1,1,0,0,0,0,2H2.551A21.493,21.493,0,0,0,23,45.449V47a1,1,0,0,0,2,0V45.449A21.493,21.493,0,0,0,45.449,25H47a1,1,0,0,0,0-2Zm-3.551,0h-7A12.505,12.505,0,0,0,25,11.551v-7A19.493,19.493,0,0,1,43.449,23ZM23,23H13.551A10.514,10.514,0,0,1,23,13.551Zm0,2v9.449A10.514,10.514,0,0,1,13.551,25Zm2,0h9.449A10.514,10.514,0,0,1,25,34.449Zm0-2V13.551A10.514,10.514,0,0,1,34.449,23ZM23,4.551v7A12.505,12.505,0,0,0,11.551,23h-7A19.493,19.493,0,0,1,23,4.551ZM4.551,25h7A12.505,12.505,0,0,0,23,36.449v7A19.493,19.493,0,0,1,4.551,25ZM25,43.449v-7A12.505,12.505,0,0,0,36.449,25h7A19.493,19.493,0,0,1,25,43.449Z"/>
  </g>
</svg>
