<svg xmlns="http://www.w3.org/2000/svg" viewBox="0 0 48 48">
  <title>pen-ink</title>
  <g id="pen">
    <path d="M38.923,19.615,34.5,9H35a1,1,0,0,0,.986-.835l1-6-1.973-.329L34.153,7H13.847l-.861-5.165-1.973.329,1,6A1,1,0,0,0,13,9h.5L9.077,19.615a1,1,0,0,0,.021.817l12,25a1,1,0,0,0,1.608.274L24,44.414l1.293,1.293A1,1,0,0,0,26,46a1.026,1.026,0,0,0,.168-.014,1,1,0,0,0,.733-.553l12-25A1,1,0,0,0,38.923,19.615ZM24,24a2,2,0,1,1,2-2A2,2,0,0,1,24,24Zm1.709,19.295L25,42.586V25.858a4,4,0,1,0-2,0V42.586l-.709.709L11.1,19.971,15.667,9H32.333L36.9,19.971Z"/>
  </g>
</svg>
