<svg xmlns="http://www.w3.org/2000/svg" viewBox="0 0 48 48">
  <title>central-block</title>
  <g id="central-block">
    <g>
      <path d="M4,18h6a1,1,0,0,0,0-2H4a1,1,0,0,0,0,2Z"/>
      <path d="M4,23h6a1,1,0,0,0,0-2H4a1,1,0,0,0,0,2Z"/>
      <path d="M4,28h6a1,1,0,0,0,0-2H4a1,1,0,0,0,0,2Z"/>
      <path d="M4,33h6a1,1,0,0,0,0-2H4a1,1,0,0,0,0,2Z"/>
      <path d="M37,18h6a1,1,0,0,0,0-2H37a1,1,0,0,0,0,2Z"/>
      <path d="M37,23h6a1,1,0,0,0,0-2H37a1,1,0,0,0,0,2Z"/>
      <path d="M37,28h6a1,1,0,0,0,0-2H37a1,1,0,0,0,0,2Z"/>
      <path d="M37,33h6a1,1,0,0,0,0-2H37a1,1,0,0,0,0,2Z"/>
      <path d="M4,8H44a1,1,0,0,0,0-2H4A1,1,0,0,0,4,8Z"/>
      <path d="M44,11H4a1,1,0,0,0,0,2H44a1,1,0,0,0,0-2Z"/>
      <path d="M44,36H4a1,1,0,0,0,0,2H44a1,1,0,0,0,0-2Z"/>
      <path d="M44,41H4a1,1,0,0,0,0,2H44a1,1,0,0,0,0-2Z"/>
      <path d="M32,33a1,1,0,0,0,1-1V17a1,1,0,0,0-1-1H15a1,1,0,0,0-1,1V32a1,1,0,0,0,1,1ZM16,18H31V31H16Z"/>
    </g>
  </g>
</svg>
