<svg xmlns="http://www.w3.org/2000/svg" viewBox="0 0 48 48">
  <title>share</title>
  <g id="share">
    <path d="M16,37A13,13,0,1,1,29,24,13.015,13.015,0,0,1,16,37Zm0-24A11,11,0,1,0,27,24,11.012,11.012,0,0,0,16,13Z"/>
    <path d="M16,30a6,6,0,1,1,6-6A6.007,6.007,0,0,1,16,30Zm0-10a4,4,0,1,0,4,4A4,4,0,0,0,16,20Z"/>
    <path d="M38,14a6,6,0,1,1,6-6A6.007,6.007,0,0,1,38,14ZM38,4a4,4,0,1,0,4,4A4,4,0,0,0,38,4Z"/>
    <path d="M38,46a6,6,0,1,1,6-6A6.007,6.007,0,0,1,38,46Zm0-10a4,4,0,1,0,4,4A4,4,0,0,0,38,36Z"/>
    <path d="M38,41a.993.993,0,0,1-.587-.191l-22-16a1,1,0,0,1,0-1.617l22-16a1,1,0,1,1,1.176,1.617L17.7,24,38.588,39.191A1,1,0,0,1,38,41Z"/>
  </g>
</svg>
