<svg xmlns="http://www.w3.org/2000/svg" viewBox="0 0 48 48">
  <title>square-path</title>
  <g id="square-path">
    <path d="M45,10a1,1,0,0,0,1-1V3a1,1,0,0,0-1-1H39a1,1,0,0,0-1,1V5H10V3A1,1,0,0,0,9,2H3A1,1,0,0,0,2,3V9a1,1,0,0,0,1,1H5V38H3a1,1,0,0,0-1,1v6a1,1,0,0,0,1,1H9a1,1,0,0,0,1-1V43H38v2a1,1,0,0,0,1,1h6a1,1,0,0,0,1-1V39a1,1,0,0,0-1-1H43V10ZM40,4h4V8H40ZM4,4H8V8H4ZM8,44H4V40H8Zm36,0H40V40h4Zm-3-6H39a1,1,0,0,0-1,1v2H10V39a1,1,0,0,0-1-1H7V10H9a1,1,0,0,0,1-1V7H38V9a1,1,0,0,0,1,1h2Z"/>
  </g>
</svg>
