<?xml version="1.0" encoding="utf-8"?>
<!-- Generator: Adobe Illustrator 18.0.0, SVG Export Plug-In . SVG Version: 6.00 Build 0)  -->
<!DOCTYPE svg PUBLIC "-//W3C//DTD SVG 1.1//EN" "http://www.w3.org/Graphics/SVG/1.1/DTD/svg11.dtd">
<svg version="1.1" xmlns="http://www.w3.org/2000/svg" xmlns:xlink="http://www.w3.org/1999/xlink" x="0px" y="0px"
	 viewBox="0 0 48 48" enable-background="new 0 0 48 48" xml:space="preserve">
<g id="Layer_1">
</g>
<g id="paper">
</g>
<g id="ink">
</g>
<g id="leaf">
</g>
<g id="path-text">
</g>
<g id="square-path">
</g>
<g id="twoblock">
</g>
<g id="move-dash">
</g>
<g id="move-block">
</g>
<g id="block">
</g>
<g id="central-block">
</g>
<g id="right-middle">
</g>
<g id="top-left">
</g>
<g id="top-block">
</g>
<g id="bottom-block">
</g>
<g id="verticle-block">
</g>
<g id="lag-block">
</g>
<g id="right-arw">
</g>
<g id="left-arw">
</g>
<g id="screen">
</g>
<g id="underline_1_">
</g>
<g id="test-verticle-line">
</g>
<g id="board-paper">
</g>
<g id="board">
</g>
<g id="scale">
</g>
<g id="ohm">
</g>
<g id="pen">
</g>
<g id="crop">
</g>
<g id="pencil-2">
</g>
<g id="pencil">
</g>
<g id="paragraph">
</g>
<g id="quote">
</g>
<g id="break">
</g>
<g id="light">
</g>
<g id="braces">
	<path fill="none" stroke="#000000" stroke-width="2" stroke-linecap="round" stroke-linejoin="round" stroke-miterlimit="10" d="
		M21,1h-2c-2.7614231,0-5,2.2385762-5,5v12.179554c0,2.8028831-1.9783831,5.2161217-4.7268372,5.7658138L9,24l0.2713699,0.0542736
		c2.7492609,0.5498524,4.7278795,2.9642944,4.7268372,5.7680016L13.99368,41.9981422
		C13.9926529,44.7602921,16.2315292,47,18.993679,47H21"/>
	<path fill="none" stroke="#000000" stroke-width="2" stroke-linecap="round" stroke-linejoin="round" stroke-miterlimit="10" d="
		M27,47h2c2.7614231,0,5-2.238575,5-5V30.0541496c0-2.9063816,2.1234016-5.376749,4.9968109-5.8132935L39,24.2403717
		l-0.5441971-0.1344967c-2.627491-0.6493855-4.4723206-3.0084648-4.4692039-5.7150154l0.0142593-12.3851032
		C34.0040398,3.2420859,31.764534,1,29.0008621,1H27"/>
</g>
<g id="eraser">
</g>
<g id="bold-pen">
</g>
<g id="move-place">
</g>
<g id="place-text">
</g>
<g id="move">
</g>
<g id="share">
</g>
<g id="extand-edge">
</g>
<g id="round-edge">
</g>
<g id="flat-edge">
</g>
<g id="scissor">
</g>
<g id="compress">
</g>
<g id="verticle-scale">
</g>
<g id="first-right-indent">
</g>
<g id="firstleft-indent">
</g>
<g id="verticle-scale-down">
</g>
<g id="right-indent">
</g>
<g id="left-indent">
</g>
<g id="o-list">
</g>
<g id="justify">
</g>
<g id="justify-left">
</g>
<g id="rightalign">
</g>
<g id="center-align">
</g>
<g id="left-align">
</g>
<g id="bold">
</g>
<g id="italic">
</g>
<g id="underline">
</g>
<g id="text-increase">
</g>
<g id="h6">
</g>
<g id="h5">
</g>
<g id="h4">
</g>
<g id="h3">
</g>
<g id="h2">
</g>
<g id="h1">
</g>
<g id="no-list">
</g>
<g id="text-cursor">
</g>
<g id="tree-block">
</g>
</svg>
