<svg xmlns="http://www.w3.org/2000/svg" viewBox="0 0 48 48">
  <title>h5_1</title>
  <g id="h6">
    <path d="M11.829,8.34V20.75H26.176V8.34h3.872V38H26.176V24.094H11.829V38H8V8.34Z"/>
    <path d="M41.911,30.948A3.8,3.8,0,0,0,41.12,31a3.168,3.168,0,0,0-2.711,2.77h.036a2.376,2.376,0,0,1,4.233,1.619,2.607,2.607,0,0,1-2.591,2.747c-1.667,0-2.758-1.3-2.758-3.322A4.9,4.9,0,0,1,38.649,31.3a4.24,4.24,0,0,1,2.494-1.151,5.032,5.032,0,0,1,.768-.06Zm-.3,4.5A1.584,1.584,0,0,0,40,33.658a1.738,1.738,0,0,0-1.512.959.9.9,0,0,0-.12.468c.024,1.284.612,2.231,1.715,2.231C41,37.316,41.611,36.561,41.611,35.445Z"/>
  </g>
</svg>
