<svg xmlns="http://www.w3.org/2000/svg" viewBox="0 0 48 48">
  <title>h5</title>
  <g id="h5">
    <path d="M11.829,8.34V20.75H26.175V8.34h3.873V38H26.175V24.094H11.829V38H8V8.34Z"/>
    <path d="M42.115,31.092H39.141l-.3,2a4.175,4.175,0,0,1,.636-.048,3.3,3.3,0,0,1,1.679.419,2.223,2.223,0,0,1,1.115,2,2.7,2.7,0,0,1-2.9,2.663,3.817,3.817,0,0,1-1.943-.479l.264-.8a3.491,3.491,0,0,0,1.667.432A1.72,1.72,0,0,0,41.2,35.589c-.012-1.007-.684-1.727-2.243-1.727a8.037,8.037,0,0,0-1.08.084l.5-3.742h3.73Z"/>
  </g>
</svg>
