<svg xmlns="http://www.w3.org/2000/svg" viewBox="0 0 48 48">
  <title>no-list</title>
  <g id="no-list">
    <g>
      <path d="M14,11H46a1,1,0,0,0,0-2H14a1,1,0,0,0,0,2Z"/>
      <path d="M46,18H14a1,1,0,0,0,0,2H46a1,1,0,0,0,0-2Z"/>
      <path d="M46,27H14a1,1,0,0,0,0,2H46a1,1,0,0,0,0-2Z"/>
      <path d="M46,36H14a1,1,0,0,0,0,2H46a1,1,0,0,0,0-2Z"/>
    </g>
    <path d="M5.816,7.887H5.8L4.78,8.436l-.152-.6,1.278-.684h.675V13H5.816Z"/>
    <path d="M4.1,22v-.486l.621-.6c1.494-1.422,2.17-2.179,2.179-3.061a1.044,1.044,0,0,0-1.161-1.143,2,2,0,0,0-1.243.5l-.252-.558A2.568,2.568,0,0,1,5.9,16.049a1.646,1.646,0,0,1,1.791,1.7c0,1.08-.783,1.953-2.017,3.142l-.468.432v.018H7.833V22Z"/>
    <path d="M4.285,30.091a2.653,2.653,0,0,0,1.3.369c1.018,0,1.332-.648,1.323-1.134-.009-.819-.747-1.17-1.513-1.17h-.44v-.594h.44c.576,0,1.306-.3,1.306-.99,0-.468-.3-.882-1.026-.882a2.148,2.148,0,0,0-1.17.387L4.295,25.5a2.78,2.78,0,0,1,1.53-.45c1.152,0,1.675.684,1.675,1.4a1.454,1.454,0,0,1-1.081,1.377v.018a1.525,1.525,0,0,1,1.306,1.5C7.725,30.28,7,31.1,5.591,31.1a2.976,2.976,0,0,1-1.521-.4Z"/>
    <path d="M6.544,40V38.407H3.825v-.522l2.611-3.736h.855v3.637H8.11v.622H7.292V40Zm0-2.215V35.832c0-.306.01-.612.027-.918H6.544c-.18.342-.324.594-.485.864l-1.432,1.99v.018Z"/>
  </g>
</svg>
