<svg xmlns="http://www.w3.org/2000/svg" viewBox="0 0 48 48">
  <title>break</title>
  <g id="break">
    <g>
      <path d="M46.6,10l-3.08-5.149a5.007,5.007,0,0,0-6.858-1.723l-13.73,8.214a1,1,0,1,0,1.027,1.716l13.73-8.214A3,3,0,0,1,41.8,5.878l3.08,5.149a3,3,0,0,1-1.034,4.115l-13.73,8.214A3,3,0,0,1,26,22.322a1,1,0,0,0-1.717,1.027,5,5,0,0,0,6.858,1.723l13.73-8.214A5,5,0,0,0,46.6,10Z"/>
      <path d="M23.1,24.054a1,1,0,1,0-.982,1.741,3,3,0,0,1,1.137,4.087L15.392,43.815A3,3,0,0,1,11.3,44.954L6.081,42a3,3,0,0,1-1.138-4.087l7.865-13.933A1,1,0,0,0,11.066,23L3.2,36.933a5,5,0,0,0,1.9,6.813l5.225,2.95a5,5,0,0,0,6.812-1.9L25,30.866A5,5,0,0,0,23.1,24.054Z"/>
      <path d="M18.03,13.243a1,1,0,1,0,1.939-.485l-2-8a1,1,0,1,0-1.939.485Z"/>
      <path d="M13.293,14.707a1,1,0,0,0,1.414-1.414l-3-3a1,1,0,0,0-1.414,1.414Z"/>
      <path d="M6,20h6a1,1,0,0,0,0-2H6a1,1,0,0,0,0,2Z"/>
    </g>
  </g>
</svg>
