<svg xmlns="http://www.w3.org/2000/svg" viewBox="0 0 48 48">
  <title>o-list</title>
  <g id="o-list">
    <g>
      <path d="M13,12H46a1,1,0,0,0,0-2H13a1,1,0,0,0,0,2Z"/>
      <path d="M46,19H13a1,1,0,0,0,0,2H46a1,1,0,0,0,0-2Z"/>
      <path d="M46,28H13a1,1,0,0,0,0,2H46a1,1,0,0,0,0-2Z"/>
      <path d="M46,37H13a1,1,0,0,0,0,2H46a1,1,0,0,0,0-2Z"/>
      <circle cx="4.938" cy="10.938" r="2"/>
      <circle cx="4.938" cy="19.938" r="2"/>
      <circle cx="4.938" cy="28.938" r="2"/>
      <circle cx="4.938" cy="37.938" r="2"/>
    </g>
  </g>
</svg>
