<svg xmlns="http://www.w3.org/2000/svg" viewBox="0 0 48 48">
  <title>bold</title>
  <g id="bold">
    <path d="M15.421,8.736a37.094,37.094,0,0,1,7-.616c3.828,0,6.293.66,8.141,2.156a6.217,6.217,0,0,1,2.465,5.237c0,2.86-1.893,5.369-5.017,6.513v.088a7.645,7.645,0,0,1,6.117,7.437,8,8,0,0,1-2.509,5.941c-2.068,1.892-5.413,2.772-10.254,2.772a44.8,44.8,0,0,1-5.94-.352Zm3.828,12.146h3.477c4.049,0,6.425-2.112,6.425-4.973,0-3.477-2.64-4.84-6.513-4.84a16.451,16.451,0,0,0-3.389.264Zm0,14.214a20.491,20.491,0,0,0,3.213.176c3.961,0,7.613-1.452,7.613-5.765,0-4.049-3.477-5.721-7.657-5.721H19.249Z"/>
  </g>
</svg>
