<svg xmlns="http://www.w3.org/2000/svg" viewBox="0 0 48 48">
  <title>top-left</title>
  <g id="top-left">
    <g>
      <path d="M4,7H21a1,1,0,0,0,0-2H4A1,1,0,0,0,4,7Z"/>
      <path d="M4,12H21a1,1,0,0,0,0-2H4a1,1,0,0,0,0,2Z"/>
      <path d="M4,17H21a1,1,0,0,0,0-2H4a1,1,0,0,0,0,2Z"/>
      <path d="M4,22H21a1,1,0,0,0,0-2H4a1,1,0,0,0,0,2Z"/>
      <path d="M44,26H4a1,1,0,0,0,0,2H44a1,1,0,0,0,0-2Z"/>
      <path d="M44,31H4a1,1,0,0,0,0,2H44a1,1,0,0,0,0-2Z"/>
      <path d="M44,36H4a1,1,0,0,0,0,2H44a1,1,0,0,0,0-2Z"/>
      <path d="M44,41H4a1,1,0,0,0,0,2H44a1,1,0,0,0,0-2Z"/>
      <path d="M44,5H26a1,1,0,0,0-1,1V21a1,1,0,0,0,1,1H44a1,1,0,0,0,1-1V6A1,1,0,0,0,44,5ZM43,20H27V7H43Z"/>
    </g>
  </g>
</svg>
