<svg xmlns="http://www.w3.org/2000/svg" viewBox="0 0 48 48">
  <title>quote</title>
  <g id="quote">
    <g>
      <path d="M17,26H6V21a6.007,6.007,0,0,1,2.014-4.484l6.65-5.912a1,1,0,0,0-1.328-1.5l-6.65,5.912A8.005,8.005,0,0,0,4,21V38a5.006,5.006,0,0,0,5,5h8a4,4,0,0,0,4-4V30A4,4,0,0,0,17,26Zm2,13a2,2,0,0,1-2,2H9a3,3,0,0,1-3-3V28H17a2,2,0,0,1,2,2Z"/>
      <path d="M40,26H29V21a6.007,6.007,0,0,1,2.014-4.484l6.65-5.912a1,1,0,0,0-1.328-1.5l-6.65,5.912A8.005,8.005,0,0,0,27,21V38a5.006,5.006,0,0,0,5,5h8a4,4,0,0,0,4-4V30A4,4,0,0,0,40,26Zm2,13a2,2,0,0,1-2,2H32a3,3,0,0,1-3-3V28H40a2,2,0,0,1,2,2Z"/>
    </g>
  </g>
</svg>
