<svg xmlns="http://www.w3.org/2000/svg" viewBox="0 0 48 48">
  <title>file-star</title>
  <g id="Layer_2" data-name="Layer 2">
    <g id="file-star">
      <g>
        <path d="M7,44V4A1,1,0,0,1,8,3H29V14a1,1,0,0,0,1,1H41V27h2V14a1,1,0,0,0-.293-.707l-12-12A1,1,0,0,0,30,1H8A3,3,0,0,0,5,4V44a3,3,0,0,0,3,3H28V45H8A1,1,0,0,1,7,44ZM31,4.414,39.586,13H31Z"/>
        <path d="M12,18H24a1,1,0,0,0,0-2H12a1,1,0,0,0,0,2Z"/>
        <path d="M37,23a1,1,0,0,0-1-1H12a1,1,0,0,0,0,2H36A1,1,0,0,0,37,23Z"/>
        <path d="M26,28H12a1,1,0,0,0,0,2H26a1,1,0,0,0,0-2Z"/>
        <path d="M26,34H12a1,1,0,0,0,0,2H26a1,1,0,0,0,0-2Z"/>
        <path d="M48.367,34.692A1,1,0,0,0,47.415,34H40.949l-2-6.149a1,1,0,0,0-1.9,0l-2,6.149H28.585A1,1,0,0,0,28,35.811l5.227,3.772-2,6.119a1,1,0,0,0,1.538,1.119l5.23-3.8,5.231,3.807a1,1,0,0,0,1.539-1.118l-2-6.131L48,35.811A1,1,0,0,0,48.367,34.692Zm-7.355,3.695a1,1,0,0,0-.366,1.121L41.913,43.4,38.588,40.98a1,1,0,0,0-1.176,0l-3.325,2.414,1.267-3.883a1,1,0,0,0-.365-1.121L31.679,36h4.1a1,1,0,0,0,.951-.691L38,31.4l1.271,3.914a1,1,0,0,0,.951.691h4.1Z"/>
      </g>
    </g>
  </g>
</svg>
