<svg xmlns="http://www.w3.org/2000/svg" viewBox="0 0 48 48">
  <title>file-trash</title>
  <g id="Layer_2" data-name="Layer 2">
    <g id="file-trash">
      <g>
        <path d="M7,44V4A1,1,0,0,1,8,3H29V14a1,1,0,0,0,1,1H41V27h2V14a1,1,0,0,0-.293-.707l-12-12A1,1,0,0,0,30,1H8A3,3,0,0,0,5,4V44a3,3,0,0,0,3,3H28V45H8A1,1,0,0,1,7,44ZM31,4.414,39.586,13H31Z"/>
        <path d="M12,18H24a1,1,0,0,0,0-2H12a1,1,0,0,0,0,2Z"/>
        <path d="M37,23a1,1,0,0,0-1-1H12a1,1,0,0,0,0,2H36A1,1,0,0,0,37,23Z"/>
        <path d="M26,28H12a1,1,0,0,0,0,2H26a1,1,0,0,0,0-2Z"/>
        <path d="M26,34H12a1,1,0,0,0,0,2H26a1,1,0,0,0,0-2Z"/>
        <path d="M46,32a1,1,0,0,0-1-1H30a1,1,0,0,0-.012,2l1.763,11.459A2.983,2.983,0,0,0,34.716,47h5.568a2.983,2.983,0,0,0,2.965-2.544L45.012,33A1,1,0,0,0,46,32ZM41.272,44.152a.994.994,0,0,1-.988.848H34.716a.994.994,0,0,1-.988-.848L32.012,33H42.988Z"/>
      </g>
    </g>
  </g>
</svg>
