<svg xmlns="http://www.w3.org/2000/svg" viewBox="0 0 48 48">
  <title>file-close</title>
  <g id="Layer_2" data-name="Layer 2">
    <g id="file_close" data-name="file close">
      <g>
        <path d="M12,18H24a1,1,0,0,0,0-2H12a1,1,0,0,0,0,2Z"/>
        <path d="M36,23a1,1,0,0,0-1-1H12a1,1,0,0,0,0,2H35A1,1,0,0,0,36,23Z"/>
        <path d="M42.911,27H43V14a1,1,0,0,0-.293-.707l-12-12A1,1,0,0,0,30,1H8A3,3,0,0,0,5,4V44a3,3,0,0,0,3,3H30v-.105A11.981,11.981,0,0,0,42.911,27ZM31,4.414,39.586,13H31ZM8,45a1,1,0,0,1-1-1V4A1,1,0,0,1,8,3H29V14a1,1,0,0,0,1,1H41V25.624a11.927,11.927,0,0,0-14.932,2.39c-.024,0-.044-.014-.068-.014H12a1,1,0,0,0,0,2H24.624a11.9,11.9,0,0,0-1.448,4.035A.947.947,0,0,0,23,34H12a1,1,0,0,0,0,2H23a11.963,11.963,0,0,0,4.089,9Zm27,1A10,10,0,1,1,45,36,10.011,10.011,0,0,1,35,46Z"/>
        <path d="M39.949,31.05a1,1,0,0,0-1.414,0L35,34.586,31.465,31.05a1,1,0,0,0-1.414,1.414L33.586,36l-3.535,3.536a1,1,0,1,0,1.414,1.414L35,37.414l3.535,3.536a1,1,0,0,0,1.414-1.414L36.414,36l3.535-3.536A1,1,0,0,0,39.949,31.05Z"/>
      </g>
    </g>
  </g>
</svg>
