<svg xmlns="http://www.w3.org/2000/svg" viewBox="0 0 48 48">
  <title>doc</title>
  <g id="Layer_2" data-name="Layer 2">
    <g id="doc">
      <path d="M43.707,13.293l-12-12A1,1,0,0,0,31,1H9A3,3,0,0,0,6,4V21H1a1,1,0,0,0-1,1V35a1,1,0,0,0,1,1H6v8a3,3,0,0,0,3,3H41a3,3,0,0,0,3-3V14A1,1,0,0,0,43.707,13.293ZM32,4.414,40.586,13H32ZM2,34V23H34V34H2ZM41,45H9a1,1,0,0,1-1-1V36H35a1,1,0,0,0,1-1V22a1,1,0,0,0-1-1H8V4A1,1,0,0,1,9,3H30V14a1,1,0,0,0,1,1H42V44A1,1,0,0,1,41,45Z"/>
      <g>
        <path d="M6.751,26.375a11.177,11.177,0,0,1,1.666-.127A3.476,3.476,0,0,1,10.875,27a2.8,2.8,0,0,1,.855,2.179,3.209,3.209,0,0,1-.873,2.358,3.738,3.738,0,0,1-2.683.873,12.681,12.681,0,0,1-1.422-.071Zm.783,5.365a4.937,4.937,0,0,0,.792.045,2.333,2.333,0,0,0,2.583-2.575,2.164,2.164,0,0,0-2.458-2.34,4.389,4.389,0,0,0-.918.081Z"/>
        <path d="M18.831,29.265c0,2.089-1.269,3.2-2.818,3.2a2.781,2.781,0,0,1-2.728-3.078A2.883,2.883,0,0,1,16.1,26.194,2.763,2.763,0,0,1,18.831,29.265Zm-4.708.1c0,1.3.7,2.458,1.936,2.458S18,30.678,18,29.3c0-1.207-.63-2.467-1.936-2.467S14.123,28.031,14.123,29.363Z"/>
        <path d="M24.986,32.163a3.88,3.88,0,0,1-1.6.288,2.835,2.835,0,0,1-3-3.069,3.019,3.019,0,0,1,3.169-3.187,3.245,3.245,0,0,1,1.44.271l-.189.639a2.862,2.862,0,0,0-1.225-.252,2.256,2.256,0,0,0-2.368,2.5,2.206,2.206,0,0,0,2.332,2.439,3.128,3.128,0,0,0,1.278-.252Z"/>
      </g>
    </g>
  </g>
</svg>
