<svg xmlns="http://www.w3.org/2000/svg" viewBox="0 0 48 48">
  <title>file-lock</title>
  <g id="Layer_2" data-name="Layer 2">
    <g id="file_locak" data-name="file locak">
      <g>
        <path d="M7,44V4A1,1,0,0,1,8,3H29V14a1,1,0,0,0,1,1H41V27h2V14a1,1,0,0,0-.293-.707l-12-12A1,1,0,0,0,30,1H8A3,3,0,0,0,5,4V44a3,3,0,0,0,3,3H28V45H8A1,1,0,0,1,7,44ZM31,4.414,39.586,13H31Z"/>
        <path d="M12,18H24a1,1,0,0,0,0-2H12a1,1,0,0,0,0,2Z"/>
        <path d="M37,23a1,1,0,0,0-1-1H12a1,1,0,0,0,0,2H36A1,1,0,0,0,37,23Z"/>
        <path d="M26,28H12a1,1,0,0,0,0,2H26a1,1,0,0,0,0-2Z"/>
        <path d="M26,34H12a1,1,0,0,0,0,2H26a1,1,0,0,0,0-2Z"/>
        <path d="M44.5,37.153v-.4a6.5,6.5,0,0,0-13,0v.4A.986.986,0,0,0,31,38v6a3,3,0,0,0,3,3h8a3,3,0,0,0,3-3V38A.986.986,0,0,0,44.5,37.153ZM38,32.25a4.5,4.5,0,0,1,4.5,4.5V37h-9v-.25A4.5,4.5,0,0,1,38,32.25ZM43,44a1,1,0,0,1-1,1H34a1,1,0,0,1-1-1V39H43Z"/>
      </g>
    </g>
  </g>
</svg>
