<svg xmlns="http://www.w3.org/2000/svg" viewBox="0 0 48 48">
  <title>files</title>
  <g id="files">
    <g>
      <path d="M40,2H8A3,3,0,0,0,5,5V45a3,3,0,0,0,3,3H31a1,1,0,0,0,.588-.191l11-8A1,1,0,0,0,43,39V5A3,3,0,0,0,40,2ZM30.675,46H8a1,1,0,0,1-1-1V5A1,1,0,0,1,8,4H40a1,1,0,0,1,1,1V37H30a1,1,0,0,0-1,1v7a1,1,0,0,0,2,0V39h9.3Z"/>
      <path d="M19,12H29a1,1,0,0,0,0-2H19a1,1,0,0,0,0,2Z"/>
      <path d="M25,18H12a1,1,0,0,0,0,2H25a1,1,0,0,0,0-2Z"/>
      <path d="M25,22H12a1,1,0,0,0,0,2H25a1,1,0,0,0,0-2Z"/>
      <path d="M25,26H12a1,1,0,0,0,0,2H25a1,1,0,0,0,0-2Z"/>
      <path d="M25,30H12a1,1,0,0,0,0,2H25a1,1,0,0,0,0-2Z"/>
      <path d="M33,20h3a1,1,0,0,0,0-2H33a1,1,0,0,0,0,2Z"/>
      <path d="M33,24h3a1,1,0,0,0,0-2H33a1,1,0,0,0,0,2Z"/>
      <path d="M33,28h3a1,1,0,0,0,0-2H33a1,1,0,0,0,0,2Z"/>
      <path d="M33,32h3a1,1,0,0,0,0-2H33a1,1,0,0,0,0,2Z"/>
    </g>
  </g>
</svg>
