<svg xmlns="http://www.w3.org/2000/svg" viewBox="0 0 48 48">
  <title>file-chart</title>
  <g id="Layer_2" data-name="Layer 2">
    <g id="file-chart">
      <g>
        <path d="M42.707,13.293l-12-12A1,1,0,0,0,30,1H8A3,3,0,0,0,5,4V44a3,3,0,0,0,3,3H40a3,3,0,0,0,3-3V14A1,1,0,0,0,42.707,13.293ZM31,4.414,39.586,13H31ZM40,45H8a1,1,0,0,1-1-1V4A1,1,0,0,1,8,3H29V14a1,1,0,0,0,1,1H41V44A1,1,0,0,1,40,45Z"/>
        <path d="M34,18H13a1,1,0,0,0-1,1V39a1,1,0,0,0,1,1H34a1,1,0,0,0,1-1V19A1,1,0,0,0,34,18ZM21,28H33v2H21Zm-2,2H14V28h5Zm2-4V24H33v2Zm-2,0H14V24h5Zm-5,6h5v2H14Zm7,0H33v2H21ZM33,22H21V20H33ZM19,20v2H14V20ZM14,36h5v2H14Zm7,2V36H33v2Z"/>
      </g>
    </g>
  </g>
</svg>
