<?xml version="1.0" encoding="utf-8"?>
<!-- Generator: Adobe Illustrator 18.0.0, SVG Export Plug-In . SVG Version: 6.00 Build 0)  -->
<!DOCTYPE svg PUBLIC "-//W3C//DTD SVG 1.1//EN" "http://www.w3.org/Graphics/SVG/1.1/DTD/svg11.dtd">
<svg version="1.1" xmlns="http://www.w3.org/2000/svg" xmlns:xlink="http://www.w3.org/1999/xlink" x="0px" y="0px"
	 viewBox="0 0 48 48" enable-background="new 0 0 48 48" xml:space="preserve">
<g id="Layer_1">
</g>
<g id="Layer_2">
	<g id="Layer_3">
	</g>
	<g id="Layer_4">
	</g>
	<g id="drawer-2">
	</g>
	<g id="file-pen">
	</g>
	<g id="file-drawer-2">
	</g>
	<g id="move">
	</g>
	<g id="papper-hold">
	</g>
	<g id="papper">
	</g>
	<g id="file-label">
	</g>
	<g id="file-drawer-1">
	</g>
	<g id="file-drawer">
	</g>
	<g id="disorder-list">
	</g>
	<g id="image-list">
	</g>
	<g id="bookholder-2">
	</g>
	<g id="bookholder">
	</g>
	<g id="success-file">
	</g>
	<g id="ask-file">
	</g>
	<g id="notify">
	</g>
	<g id="news">
	</g>
	<g id="board-edit">
	</g>
	<g id="board-unblock">
	</g>
	<g id="board-block">
	</g>
	<g id="board-close">
	</g>
	<g id="board-check">
	</g>
	<g id="board-minus">
	</g>
	<g id="board-add">
	</g>
	<g id="board-pen">
	</g>
	<g id="board-write">
	</g>
	<g id="board">
	</g>
	<g id="number-file">
	</g>
	<g id="list-file">
	</g>
	<g id="upload">
	</g>
	<g id="download">
	</g>
	<g id="png_1_">
	</g>
	<g id="png">
	</g>
	<g id="jpg">
	</g>
	<g id="doc">
	</g>
	<g id="xls">
	</g>
	<g id="adobe_acrobat">
	</g>
	<g id="after-effects">
	</g>
	<g id="illustrator">
	</g>
	<g id="photoshop">
	</g>
	<g id="word-file">
		<path fill="none" stroke="#000000" stroke-width="2" stroke-linejoin="round" stroke-miterlimit="10" d="M40,46H8
			c-1.1045694,0-2-0.8954315-2-2V4c0-1.1045694,0.8954306-2,2-2h22.0000134L42,14v30C42,45.1045685,41.1045685,46,40,46z"/>
		<polyline fill="none" stroke="#000000" stroke-width="2" stroke-linejoin="round" stroke-miterlimit="10" points="30,3 30,14 
			42,14 		"/>
		<g>
			<path d="M14.140625,22.0576172c-0.0400391-0.1201172-0.0800781-0.2402344-0.0800781-0.3603516
				c0-0.4199219,0.3798828-0.7998047,0.8203125-0.7998047c0.3994141,0,0.6992188,0.2998047,0.8193359,0.6601563
				l3.8613281,11.1220703l3.6611328-11.1621094c0.1191406-0.3603516,0.359375-0.6201172,0.7792969-0.6201172h0.1005859
				c0.4003906,0,0.6601563,0.2597656,0.7802734,0.6201172l3.6601563,11.1621094l3.8808594-11.1621094
				c0.1201172-0.3603516,0.3808594-0.6201172,0.7607422-0.6201172c0.4199219,0,0.7998047,0.3798828,0.7998047,0.7792969
				c0,0.1201172-0.0595703,0.2607422-0.0996094,0.3808594L29.4033203,34.5
				c-0.1396484,0.4003906-0.4199219,0.6796875-0.8203125,0.6796875h-0.1201172
				c-0.3994141,0-0.6796875-0.2792969-0.8193359-0.6796875l-3.6416016-10.7626953L20.3818359,34.5
				c-0.140625,0.4003906-0.4199219,0.6796875-0.8203125,0.6796875h-0.1201172c-0.4003906,0-0.6796875-0.2597656-0.8203125-0.6796875
				L14.140625,22.0576172z"/>
		</g>
	</g>
	<g id="text-file">
	</g>
	<g id="letter">
	</g>
	<g id="file-folder">
	</g>
	<g id="files-3">
	</g>
	<g id="two-files-1">
	</g>
	<g id="two-files">
	</g>
	<g id="file-favorite">
	</g>
	<g id="file-block">
	</g>
	<g id="file-notification">
	</g>
	<g id="file-clude">
	</g>
	<g id="files-settings">
	</g>
	<g id="fileedit">
	</g>
	<g id="file-lock">
	</g>
	<g id="file-trash">
	</g>
	<g id="file-star">
	</g>
	<g id="file_locak">
	</g>
	<g id="file_reload">
	</g>
	<g id="file-check">
	</g>
	<g id="file_close">
	</g>
	<g id="file-remove">
	</g>
	<g id="file-add">
	</g>
	<g id="file-wide">
	</g>
	<g id="file-rotate">
	</g>
	<g id="file-transfer">
	</g>
	<g id="file-hold">
	</g>
	<g id="file-zip-1">
	</g>
	<g id="file-music">
	</g>
	<g id="file-code">
	</g>
	<g id="file-play">
	</g>
	<g id="file-inage">
	</g>
	<g id="file-chart">
	</g>
	<g id="file-graph">
	</g>
	<g id="file-1">
	</g>
	<g id="files">
	</g>
	<g id="file-2">
	</g>
	<g id="file">
	</g>
	<g id="folder-flat">
	</g>
	<g id="folder-notify">
	</g>
	<g id="folder-cloude">
	</g>
	<g id="folder-settings">
	</g>
	<g id="folder-edit">
	</g>
	<g id="folder-unloack">
	</g>
	<g id="folder-lock">
	</g>
	<g id="folder-star">
	</g>
	<g id="folder-search">
	</g>
	<g id="folder-trash">
	</g>
	<g id="folder-block">
	</g>
	<g id="folder-favorite">
	</g>
	<g id="folder-loading">
	</g>
	<g id="folder-refresh">
	</g>
	<g id="folder-check">
	</g>
	<g id="folder-close">
	</g>
	<g id="folder-remove">
	</g>
	<g id="folder-ad">
	</g>
	<g id="folder">
	</g>
</g>
<g id="folder-zip">
</g>
<g id="bookmark">
</g>
<g id="bookmark-file">
</g>
<g id="drawer">
</g>
</svg>
