<svg xmlns="http://www.w3.org/2000/svg" viewBox="0 0 48 48">
  <title>adobe acrobat</title>
  <g id="Layer_2" data-name="Layer 2">
    <g id="adobe_acrobat" data-name="adobe acrobat">
      <g>
        <path d="M25.154,24.315a40.867,40.867,0,0,0,.838-5.445,3.783,3.783,0,0,0-1.612-3.793,2.216,2.216,0,0,0-2.419.136c-.468.349-1.495,1.435-.937,3.994a25.552,25.552,0,0,0,2.008,5.348,31.425,31.425,0,0,1-1.918,5.665c-5.133.9-7.435,3.735-8,5.535a2.439,2.439,0,0,0,.676,2.879A2.085,2.085,0,0,0,15,39a4.858,4.858,0,0,0,2.852-1.21,16.816,16.816,0,0,0,4.6-5.738,18.723,18.723,0,0,1,2.09-.113c1.255,0,2.368.056,3.351.151a14.487,14.487,0,0,0,4.694,3.815c1.526.688,2.894.663,3.659-.073a1.772,1.772,0,0,0,.372-2.007c-.6-1.481-2.94-3.043-7.7-3.637A35.3,35.3,0,0,1,25.154,24.315ZM16.645,36.2c-1.056.8-1.626.84-1.685.823a1.694,1.694,0,0,1,.317-1.25,7.675,7.675,0,0,1,4.569-3.19A13.523,13.523,0,0,1,16.645,36.2Zm6.333-17.417c-.271-1.246,0-1.83.178-1.964a.159.159,0,0,1,.1-.036.325.325,0,0,1,.153.047c.35.193.667.851.585,1.884-.024.307-.1,1.184-.29,2.405A16.542,16.542,0,0,1,22.977,18.781Zm1.566,11.157q-.582,0-1.129.028c.387-.945.718-1.9,1-2.824.561.961,1.172,1.917,1.823,2.83Q25.425,29.939,24.543,29.938Zm10.124,4.467a3.079,3.079,0,0,1-1.255-.322,9.129,9.129,0,0,1-2.125-1.4A6.511,6.511,0,0,1,34.667,34.405Z"/>
        <path d="M42.707,13.293l-12-12A1,1,0,0,0,30,1H8A3,3,0,0,0,5,4V44a3,3,0,0,0,3,3H40a3,3,0,0,0,3-3V14A1,1,0,0,0,42.707,13.293ZM31,4.414,39.586,13H31ZM41,44a1,1,0,0,1-1,1H8a1,1,0,0,1-1-1V4A1,1,0,0,1,8,3H29V14a1,1,0,0,0,1,1H41Z"/>
      </g>
    </g>
  </g>
</svg>
