<svg xmlns="http://www.w3.org/2000/svg" viewBox="0 0 48 48">
  <title>png</title>
  <g id="Layer_2" data-name="Layer 2">
    <g id="png-2" data-name="png">
      <path d="M43.707,13.293l-12-12A1,1,0,0,0,31,1H9A3,3,0,0,0,6,4V21H1a1,1,0,0,0-1,1V35a1,1,0,0,0,1,1H6v8a3,3,0,0,0,3,3H41a3,3,0,0,0,3-3V14A1,1,0,0,0,43.707,13.293ZM32,4.414,40.586,13H32ZM2,34V23H34V34H2ZM41,45H9a1,1,0,0,1-1-1V36H35a1,1,0,0,0,1-1V22a1,1,0,0,0-1-1H8V4A1,1,0,0,1,9,3H30V14a1,1,0,0,0,1,1H42V44A1,1,0,0,1,41,45Z"/>
      <g>
        <path d="M6.751,26.365a9.138,9.138,0,0,1,1.5-.117,2.492,2.492,0,0,1,1.7.5,1.631,1.631,0,0,1,.531,1.27,1.786,1.786,0,0,1-.468,1.3,2.513,2.513,0,0,1-1.854.666,2.705,2.705,0,0,1-.63-.054v2.431H6.751Zm.783,2.926a2.632,2.632,0,0,0,.648.063c.945,0,1.521-.459,1.521-1.3,0-.8-.567-1.187-1.432-1.187a3.292,3.292,0,0,0-.738.063Z"/>
        <path d="M12.439,32.361V26.294h.855l1.944,3.069a17.153,17.153,0,0,1,1.089,1.972l.018-.009c-.072-.811-.09-1.549-.09-2.494V26.294H17v6.067H16.2l-1.926-3.079a19.193,19.193,0,0,1-1.135-2.025l-.027.009c.045.766.063,1.494.063,2.5v2.593Z"/>
        <path d="M23.88,32.091a5.651,5.651,0,0,1-1.864.334A2.85,2.85,0,0,1,18.9,29.363a3.043,3.043,0,0,1,3.286-3.133,3.752,3.752,0,0,1,1.513.279l-.189.639a3.155,3.155,0,0,0-1.341-.261,2.269,2.269,0,0,0-2.44,2.439,2.224,2.224,0,0,0,2.341,2.449,2.554,2.554,0,0,0,1.044-.162V29.8H21.881v-.63h2Z"/>
      </g>
    </g>
  </g>
</svg>
