<svg xmlns="http://www.w3.org/2000/svg" viewBox="0 0 48 48">
  <title>file-transfer</title>
  <g id="Layer_2" data-name="Layer 2">
    <g id="file-transfer">
      <g>
        <path d="M46.707,13.293l-12-12A1,1,0,0,0,34,1H20a3,3,0,0,0-3,3V15H5a3,3,0,0,0-3,3V44a3,3,0,0,0,3,3H27a3,3,0,0,0,3-3V34H44a3,3,0,0,0,3-3V14A1,1,0,0,0,46.707,13.293ZM35,4.414,43.586,13H35ZM28,44a1,1,0,0,1-1,1H5a1,1,0,0,1-1-1V18a1,1,0,0,1,1-1H17V31a3,3,0,0,0,3,3h8ZM44,32H20a1,1,0,0,1-1-1V4a1,1,0,0,1,1-1H33V14a1,1,0,0,0,1,1H45V31A1,1,0,0,1,44,32Z"/>
        <path d="M5,6.243h6.586L9.05,8.778l1.414,1.414L14.707,5.95a1,1,0,0,0,0-1.414L10.464.293,9.05,1.707l2.536,2.536H4a1,1,0,0,0-1,1v6H5Z"/>
        <path d="M43,41H36.414l2.536-2.536L37.536,37.05l-4.243,4.243a1,1,0,0,0,0,1.414l4.243,4.243,1.414-1.414L36.414,43H44a1,1,0,0,0,1-1V36H43Z"/>
      </g>
    </g>
  </g>
</svg>
