<?xml version="1.0" encoding="utf-8"?>
<!-- Generator: Adobe Illustrator 18.0.0, SVG Export Plug-In . SVG Version: 6.00 Build 0)  -->
<!DOCTYPE svg PUBLIC "-//W3C//DTD SVG 1.1//EN" "http://www.w3.org/Graphics/SVG/1.1/DTD/svg11.dtd">
<svg version="1.1" xmlns="http://www.w3.org/2000/svg" xmlns:xlink="http://www.w3.org/1999/xlink" x="0px" y="0px"
	 viewBox="0 0 48 48" enable-background="new 0 0 48 48" xml:space="preserve">
<g id="Layer_1">
</g>
<g id="Layer_2">
	<g id="Layer_3">
	</g>
	<g id="Layer_4">
	</g>
	<g id="drawer-2">
	</g>
	<g id="file-pen">
	</g>
	<g id="file-drawer-2">
	</g>
	<g id="move">
	</g>
	<g id="papper-hold">
	</g>
	<g id="papper">
	</g>
	<g id="file-label">
	</g>
	<g id="file-drawer-1">
	</g>
	<g id="file-drawer">
	</g>
	<g id="disorder-list">
	</g>
	<g id="image-list">
	</g>
	<g id="bookholder-2">
	</g>
	<g id="bookholder">
	</g>
	<g id="success-file">
	</g>
	<g id="ask-file">
	</g>
	<g id="notify">
	</g>
	<g id="news">
	</g>
	<g id="board-edit">
	</g>
	<g id="board-unblock">
	</g>
	<g id="board-block">
	</g>
	<g id="board-close">
	</g>
	<g id="board-check">
	</g>
	<g id="board-minus">
	</g>
	<g id="board-add">
	</g>
	<g id="board-pen">
	</g>
	<g id="board-write">
	</g>
	<g id="board">
	</g>
	<g id="number-file">
	</g>
	<g id="list-file">
	</g>
	<g id="upload">
	</g>
	<g id="download">
	</g>
	<g id="png_1_">
		<path fill="none" stroke="#000000" stroke-width="2" stroke-linejoin="round" stroke-miterlimit="10" d="M40,46H8
			c-1.1045694,0-2-0.8954315-2-2V4c0-1.1045694,0.8954306-2,2-2h22.0000134L42,14v30C42,45.1045685,41.1045685,46,40,46z"/>
		<polyline fill="none" stroke="#000000" stroke-width="2" stroke-linejoin="round" stroke-miterlimit="10" points="30,3 30,14 
			42,14 		"/>
		<path fill="none" stroke="#000000" stroke-width="2" stroke-linejoin="round" stroke-miterlimit="10" d="M23.6666679,29.1690826
			c2.5223675,0,4.198555-3.3553104,4.4431782-4.2051945c0.0178909-0.0617542,0.3952847-0.2534332,0.4268627-0.3092709
			c1.3653812-2.4162502-0.1270771-2.6908722-0.1270771-2.6908722s0.069931-1.273222-0.2468395-2.4694214
			c0,0-0.7998295-2.9688358-4.4961243-2.9688358s-4.4961243,2.9688358-4.4961243,2.9688358
			c-0.3167706,1.1961994-0.2468395,2.4694214-0.2468395,2.4694214s-1.4924583,0.274622-0.1270771,2.6908722
			c0.0315781,0.0558376,0.4089718,0.2475166,0.4268627,0.3092709
			C19.4681129,25.8137722,21.1443005,29.1690826,23.6666679,29.1690826z"/>
		<path fill="none" stroke="#000000" stroke-width="2" stroke-linejoin="round" stroke-miterlimit="10" d="M25.982357,28.4477673
			c0,0,0.9615135,0.9524784,2.7917042,1.5301819c2.5931568,0.8183517,4.8146572,2.358923,5.0080967,6.4247074
			c0,0-4.1967926,0.9035072-10.11549,0.9035072s-10.11549-0.9035072-10.11549-0.9035072
			c0.19345-4.0657845,2.4149399-5.6063557,5.0080967-6.4247074c1.8301907-0.5777035,2.7917042-1.5301819,2.7917042-1.5301819"/>
	</g>
	<g id="png">
	</g>
	<g id="jpg">
	</g>
	<g id="doc">
	</g>
	<g id="xls">
	</g>
	<g id="adobe_acrobat">
	</g>
	<g id="after-effects">
	</g>
	<g id="illustrator">
	</g>
	<g id="photoshop">
	</g>
	<g id="word-file">
	</g>
	<g id="text-file">
	</g>
	<g id="letter">
	</g>
	<g id="file-folder">
	</g>
	<g id="files-3">
	</g>
	<g id="two-files-1">
	</g>
	<g id="two-files">
	</g>
	<g id="file-favorite">
	</g>
	<g id="file-block">
	</g>
	<g id="file-notification">
	</g>
	<g id="file-clude">
	</g>
	<g id="files-settings">
	</g>
	<g id="fileedit">
	</g>
	<g id="file-lock">
	</g>
	<g id="file-trash">
	</g>
	<g id="file-star">
	</g>
	<g id="file_locak">
	</g>
	<g id="file_reload">
	</g>
	<g id="file-check">
	</g>
	<g id="file_close">
	</g>
	<g id="file-remove">
	</g>
	<g id="file-add">
	</g>
	<g id="file-wide">
	</g>
	<g id="file-rotate">
	</g>
	<g id="file-transfer">
	</g>
	<g id="file-hold">
	</g>
	<g id="file-zip-1">
	</g>
	<g id="file-music">
	</g>
	<g id="file-code">
	</g>
	<g id="file-play">
	</g>
	<g id="file-inage">
	</g>
	<g id="file-chart">
	</g>
	<g id="file-graph">
	</g>
	<g id="file-1">
	</g>
	<g id="files">
	</g>
	<g id="file-2">
	</g>
	<g id="file">
	</g>
	<g id="folder-flat">
	</g>
	<g id="folder-notify">
	</g>
	<g id="folder-cloude">
	</g>
	<g id="folder-settings">
	</g>
	<g id="folder-edit">
	</g>
	<g id="folder-unloack">
	</g>
	<g id="folder-lock">
	</g>
	<g id="folder-star">
	</g>
	<g id="folder-search">
	</g>
	<g id="folder-trash">
	</g>
	<g id="folder-block">
	</g>
	<g id="folder-favorite">
	</g>
	<g id="folder-loading">
	</g>
	<g id="folder-refresh">
	</g>
	<g id="folder-check">
	</g>
	<g id="folder-close">
	</g>
	<g id="folder-remove">
	</g>
	<g id="folder-ad">
	</g>
	<g id="folder">
	</g>
</g>
<g id="folder-zip">
</g>
<g id="bookmark">
</g>
<g id="bookmark-file">
</g>
<g id="drawer">
</g>
</svg>
