<svg xmlns="http://www.w3.org/2000/svg" viewBox="0 0 48 48">
  <title>file-zip</title>
  <g id="Layer_2" data-name="Layer 2">
    <g id="file-zip-1">
      <g>
        <path d="M42.707,13.293l-12-12A1,1,0,0,0,30,1H8A3,3,0,0,0,5,4V44a3,3,0,0,0,3,3H40a3,3,0,0,0,3-3V14A1,1,0,0,0,42.707,13.293ZM31,4.414,39.586,13H31ZM40,45H8a1,1,0,0,1-1-1V4A1,1,0,0,1,8,3H20V6h4v6H19V8H17v6h4v4H19v2h2v2H19v2h2v2H19v2h2v2H19v2h2v2H19v2h2v2H19v2h2v2h4V40H23V38h2V36H23V34h2V32H23V30h2V28H23V26h2V24H23V22h2V20H23V18h2V16H23V14h3V4H22V3h7V14a1,1,0,0,0,1,1H41V44A1,1,0,0,1,40,45Z"/>
        <rect x="21" y="10" width="1" height="1"/>
      </g>
    </g>
  </g>
</svg>
