<svg xmlns="http://www.w3.org/2000/svg" viewBox="0 0 48 48">
  <title>text file</title>
  <g id="Layer_2" data-name="Layer 2">
    <g id="text-file">
      <g>
        <path d="M42.707,13.293l-12-12A1,1,0,0,0,30,1H8A3,3,0,0,0,5,4V44a3,3,0,0,0,3,3H40a3,3,0,0,0,3-3V14A1,1,0,0,0,42.707,13.293ZM31,4.414,39.586,13H31ZM40,45H8a1,1,0,0,1-1-1V4A1,1,0,0,1,8,3H29V14a1,1,0,0,0,1,1H41V44A1,1,0,0,1,40,45Z"/>
        <path d="M24.862,20.537a1.009,1.009,0,0,0-.98-.7H23.8a1.032,1.032,0,0,0-1,.7L17.12,32.96a.908.908,0,0,0-.1.42.716.716,0,0,0,.72.72.792.792,0,0,0,.761-.54l1.46-3.261h7.682L29.1,33.52a.863.863,0,0,0,.78.58.76.76,0,0,0,.761-.76,1.063,1.063,0,0,0-.1-.4Zm-4.281,8.322L23.8,21.7l3.221,7.162Z"/>
      </g>
    </g>
  </g>
</svg>
