<svg xmlns="http://www.w3.org/2000/svg" viewBox="0 0 48 48">
  <title>file-folder</title>
  <g id="Layer_2" data-name="Layer 2">
    <g id="file-folder">
      <g>
        <path d="M46.179,24.879A2,2,0,0,0,44.523,24H41V14a1,1,0,0,0-.26-.673l-10-11A1,1,0,0,0,30,2H12A3,3,0,0,0,9,5V9H4a3,3,0,0,0-3,3V42.57a3.435,3.435,0,0,0,3,3.4L35.969,46a3.982,3.982,0,0,0,3.714-2.515l6.7-16.742A2,2,0,0,0,46.179,24.879ZM31,5.587,37.739,13H31ZM12,4H29V14a1,1,0,0,0,1,1h9v9H16.293a3.006,3.006,0,0,0-2.736,1.77L11,31.452V5A1,1,0,0,1,12,4ZM4.429,44A1.431,1.431,0,0,1,3,42.57V12a1,1,0,0,1,1-1H9V35.9L5.732,43.157A1.431,1.431,0,0,1,4.429,44Zm33.4-1.257A1.991,1.991,0,0,1,35.969,44H7.546l.01-.022L15.381,26.59a1,1,0,0,1,.912-.59h28.23Z"/>
        <rect x="15" y="14" width="8" height="2"/>
        <rect x="15" y="19" width="16" height="2"/>
      </g>
    </g>
  </g>
</svg>
