<svg xmlns="http://www.w3.org/2000/svg" viewBox="0 0 48 48">
  <title>file-reload</title>
  <g id="Layer_2" data-name="Layer 2">
    <g id="file_reload" data-name="file reload">
      <g>
        <path d="M12,18H24a1,1,0,0,0,0-2H12a1,1,0,0,0,0,2Z"/>
        <path d="M36,23a1,1,0,0,0-1-1H12a1,1,0,0,0,0,2H35A1,1,0,0,0,36,23Z"/>
        <path d="M42.911,27H43V14a1,1,0,0,0-.293-.707l-12-12A1,1,0,0,0,30,1H8A3,3,0,0,0,5,4V44a3,3,0,0,0,3,3H30v-.105A11.981,11.981,0,0,0,42.911,27ZM31,4.414,39.586,13H31ZM8,45a1,1,0,0,1-1-1V4A1,1,0,0,1,8,3H29V14a1,1,0,0,0,1,1H41V25.624a11.927,11.927,0,0,0-14.932,2.39c-.024,0-.044-.014-.068-.014H12a1,1,0,0,0,0,2H24.624a11.9,11.9,0,0,0-1.448,4.035A.947.947,0,0,0,23,34H12a1,1,0,0,0,0,2H23a11.963,11.963,0,0,0,4.089,9Zm27,1a10,10,0,0,1-8.313-4.452.975.975,0,0,0,1.208-.5l.615-1.23a7.395,7.395,0,1,0,.377-8.07,1,1,0,0,0,1.621,1.172,5.415,5.415,0,1,1-.344,5.782l1.554.389a1,1,0,0,0,.484-1.94L28.9,36.329a1,1,0,0,0-1.137.523l-1.653,3.307a.965.965,0,0,0-.068.25A9.992,9.992,0,1,1,35,46Z"/>
      </g>
    </g>
  </g>
</svg>
