<svg xmlns="http://www.w3.org/2000/svg" viewBox="0 0 48 48">
  <title>file-image</title>
  <g id="Layer_2" data-name="Layer 2">
    <g id="file-inage">
      <g>
        <path d="M42.707,13.293l-12-12A1,1,0,0,0,30,1H8A3,3,0,0,0,5,4V44a3,3,0,0,0,3,3H40a3,3,0,0,0,3-3V14A1,1,0,0,0,42.707,13.293ZM31,4.414,39.586,13H31ZM40,45H8a1,1,0,0,1-1-1V4A1,1,0,0,1,8,3H29V14a1,1,0,0,0,1,1H41V44A1,1,0,0,1,40,45Z"/>
        <path d="M29.813,28.419a1,1,0,0,0-.676-.41,1.013,1.013,0,0,0-.763.21l-4.245,3.4-5.371-6.266A.981.981,0,0,0,17.916,25a1,1,0,0,0-.773.482l-6,10A1,1,0,0,0,12,37H34a1,1,0,0,0,.813-1.581ZM13.767,35l4.377-7.3,5.1,5.947a1,1,0,0,0,1.384.13L28.8,30.44,32.057,35Z"/>
        <path d="M18.5,22A4.5,4.5,0,1,0,14,17.5,4.5,4.5,0,0,0,18.5,22Zm0-7A2.5,2.5,0,1,1,16,17.5,2.5,2.5,0,0,1,18.5,15Z"/>
      </g>
    </g>
  </g>
</svg>
