<?xml version="1.0" encoding="utf-8"?>
<!-- Generator: Adobe Illustrator 18.0.0, SVG Export Plug-In . SVG Version: 6.00 Build 0)  -->
<!DOCTYPE svg PUBLIC "-//W3C//DTD SVG 1.1//EN" "http://www.w3.org/Graphics/SVG/1.1/DTD/svg11.dtd">
<svg version="1.1" xmlns="http://www.w3.org/2000/svg" xmlns:xlink="http://www.w3.org/1999/xlink" x="0px" y="0px"
	 viewBox="0 0 48 48" enable-background="new 0 0 48 48" xml:space="preserve">
<g id="Layer_1">
</g>
<g id="Layer_2">
	<g id="Layer_3">
	</g>
	<g id="Layer_4">
	</g>
	<g id="sg-file">
	</g>
	<g id="au-files">
	</g>
	<g id="ae-files">
	</g>
	<g id="prelude-file">
	</g>
	<g id="premier-file">
	</g>
	<g id="br-file">
	</g>
	<g id="fl-file">
	</g>
	<g id="id-file">
	</g>
	<g id="ai-file">
	</g>
	<g id="ps-file">
	</g>
	<g id="move-file">
	</g>
	<g id="break-file">
	</g>
	<g id="blend-file">
	</g>
	<g id="hold-file">
	</g>
	<g id="bookmark">
	</g>
	<g id="file-down">
	</g>
	<g id="file-up">
		<path fill="none" stroke="#000000" stroke-width="2" stroke-linecap="round" stroke-linejoin="round" stroke-miterlimit="10" d="
			M29.1202545,45H9c-1.1045694,0-2-0.8954315-2-2V4c0-1.1045694,0.8954306-2,2-2h30c1.1045685,0,2,0.8954306,2,2v28.2220345
			c0,0.5003815-0.1875687,0.9825859-0.5256882,1.3514481l-9.8797455,10.7779617C30.2157459,44.7647057,29.6808681,45,29.1202545,45z
			"/>
		<path fill="none" stroke="#000000" stroke-width="2" stroke-linecap="round" stroke-linejoin="round" stroke-miterlimit="10" d="
			M40,33h-8c-1.1045704,0-2,0.8954315-2,2v10"/>
		
			<line fill="none" stroke="#000000" stroke-width="2" stroke-linejoin="round" stroke-miterlimit="10" x1="16" y1="7" x2="16" y2="20"/>
		<polyline fill="none" stroke="#000000" stroke-width="2" stroke-linejoin="round" stroke-miterlimit="10" points="
			10.3431454,12.3431454 16,6.6862917 21.6568546,12.3431454 		"/>
	</g>
	<g id="check-file">
	</g>
	<g id="remove-file">
	</g>
	<g id="new-file">
	</g>
	<g id="fileupload">
	</g>
	<g id="paper">
	</g>
	<g id="folder-label">
	</g>
	<g id="right-folder">
	</g>
	<g id="left-folder">
	</g>
	<g id="seperate-folder">
	</g>
	<g id="drag-folder">
	</g>
	<g id="remove-folder">
	</g>
	<g id="new-folder">
	</g>
</g>
<g id="folder-code">
</g>
</svg>
