<svg xmlns="http://www.w3.org/2000/svg" viewBox="0 0 48 48">
  <title>success-file</title>
  <g id="Layer_2" data-name="Layer 2">
    <g id="success-file">
      <g>
        <path d="M42.743,11.331l-9-10A1,1,0,0,0,33,1H8A3,3,0,0,0,5,4V44a3,3,0,0,0,3,3H40a3,3,0,0,0,3-3V12A1,1,0,0,0,42.743,11.331ZM34,4.606,39.755,11H34ZM41,44a1,1,0,0,1-1,1H8a1,1,0,0,1-1-1V4A1,1,0,0,1,8,3H32v9a1,1,0,0,0,1,1h8Z"/>
        <path d="M11,27A13,13,0,1,0,24,14,13.015,13.015,0,0,0,11,27Zm24,0A11,11,0,1,1,24,16,11.012,11.012,0,0,1,35,27Z"/>
        <path d="M19.707,23.293a1,1,0,0,0-1.414,1.414l4,4a1,1,0,0,0,1.414,0l6-6a1,1,0,0,0-1.414-1.414L23,26.586Z"/>
      </g>
    </g>
  </g>
</svg>
