<svg xmlns="http://www.w3.org/2000/svg" viewBox="0 0 48 48">
  <title>xls</title>
  <g id="Layer_2" data-name="Layer 2">
    <g id="xls">
      <path d="M43.707,13.293l-12-12A1,1,0,0,0,31,1H9A3,3,0,0,0,6,4V21H1a1,1,0,0,0-1,1V35a1,1,0,0,0,1,1H6v8a3,3,0,0,0,3,3H41a3,3,0,0,0,3-3V14A1,1,0,0,0,43.707,13.293ZM32,4.414,40.586,13H32ZM6,34H2V23H34V34H6ZM42,44a1,1,0,0,1-1,1H9a1,1,0,0,1-1-1V36H35a1,1,0,0,0,1-1V22a1,1,0,0,0-1-1H8V4A1,1,0,0,1,9,3H30V14a1,1,0,0,0,1,1H42Z"/>
      <g>
        <path d="M10.074,32.361,9.3,31.02c-.315-.513-.513-.846-.7-1.2H8.579c-.171.352-.342.676-.657,1.207l-.729,1.332h-.9l1.854-3.07-1.783-3h.91l.8,1.422c.225.4.4.7.558,1.026H8.66c.171-.36.324-.639.549-1.026l.828-1.422h.9L9.092,29.246l1.891,3.115Z"/>
        <path d="M12.791,26.294h.783V31.7h2.593v.657H12.791Z"/>
        <path d="M17.831,31.407a2.778,2.778,0,0,0,1.4.4c.8,0,1.27-.423,1.27-1.035,0-.566-.324-.891-1.144-1.206-.99-.352-1.6-.864-1.6-1.72a1.747,1.747,0,0,1,1.962-1.647,2.765,2.765,0,0,1,1.341.3l-.216.64a2.414,2.414,0,0,0-1.152-.288c-.829,0-1.144.5-1.144.909,0,.567.369.847,1.207,1.17,1.026.4,1.548.892,1.548,1.783,0,.936-.693,1.746-2.125,1.746a3.14,3.14,0,0,1-1.549-.387Z"/>
      </g>
    </g>
  </g>
</svg>
