<svg xmlns="http://www.w3.org/2000/svg" viewBox="0 0 48 48">
  <title>file-notification</title>
  <g id="Layer_2" data-name="Layer 2">
    <g id="file-notification">
      <g>
        <path d="M7,44V4A1,1,0,0,1,8,3H29V14a1,1,0,0,0,1,1H41V27h2V14a1,1,0,0,0-.293-.707l-12-12A1,1,0,0,0,30,1H8A3,3,0,0,0,5,4V44a3,3,0,0,0,3,3H28V45H8A1,1,0,0,1,7,44ZM31,4.414,39.586,13H31Z"/>
        <path d="M12,18H24a1,1,0,0,0,0-2H12a1,1,0,0,0,0,2Z"/>
        <path d="M37,23a1,1,0,0,0-1-1H12a1,1,0,0,0,0,2H36A1,1,0,0,0,37,23Z"/>
        <path d="M26,28H12a1,1,0,0,0,0,2H26a1,1,0,0,0,0-2Z"/>
        <path d="M26,34H12a1,1,0,0,0,0,2H26a1,1,0,0,0,0-2Z"/>
        <path d="M38.55,29.786c-5,0-8.755,7.075-8.755,11.663,0,5.847,5.7,5.847,8.755,5.847s8.754,0,8.754-5.847C47.3,36.861,43.545,29.786,38.55,29.786Zm0,15.509c-5.051,0-6.755-.971-6.755-3.847,0-3.728,3.092-9.663,6.755-9.663S45.3,37.721,45.3,41.449C45.3,44.325,43.6,45.3,38.55,45.3Z"/>
        <path d="M39,35a1,1,0,0,0-1,1v3a1,1,0,0,0,2,0V36A1,1,0,0,0,39,35Z"/>
        <path d="M39,41a1,1,0,0,0-1,1v1a1,1,0,0,0,2,0V42A1,1,0,0,0,39,41Z"/>
      </g>
    </g>
  </g>
</svg>
