<svg xmlns="http://www.w3.org/2000/svg" viewBox="0 0 48 48">
  <title>file-pen</title>
  <g id="Layer_2" data-name="Layer 2">
    <g id="file-pen">
      <g>
        <path d="M46.788,19.126l-1.414-1.414A3.063,3.063,0,0,0,43,16.81V14a1,1,0,0,0-.293-.707l-12-12A1,1,0,0,0,30,1H8A3,3,0,0,0,5,4V44a3,3,0,0,0,3,3H40a3,3,0,0,0,3-3V27.157l3.932-3.932A2.907,2.907,0,0,0,46.788,19.126ZM31,4.414,39.586,13H31ZM41,44a1,1,0,0,1-1,1H8a1,1,0,0,1-1-1V4A1,1,0,0,1,8,3H29V14a1,1,0,0,0,1,1H41v2.843L34.843,24H12v2H32.843l-3,3H12v2H27.843l-4,4H12v2h9.978a1,1,0,0,0-.067.365L22,42.02A1,1,0,0,0,23,43c.032,0,.065,0,.1,0l4.154-.411a1,1,0,0,0,.608-.288L41,29.157ZM37.532,24.139l2.829,2.829L26.7,40.629l-2.721.27-.061-3.146Zm7.986-2.328-3.743,3.743-2.829-2.829,3.743-3.743a.744.744,0,0,1,.553-.193,1.112,1.112,0,0,1,.719.337l1.414,1.414A.929.929,0,0,1,45.518,21.812Z"/>
        <rect x="12" y="14" width="9" height="2"/>
        <rect x="12" y="19" width="24" height="2"/>
      </g>
    </g>
  </g>
</svg>
