<svg xmlns="http://www.w3.org/2000/svg" viewBox="0 0 48 48">
  <title>file-setting</title>
  <g id="Layer_2" data-name="Layer 2">
    <g id="files-settings">
      <path d="M28,47H8a3,3,0,0,1-3-3V4A3,3,0,0,1,8,1H30a1,1,0,0,1,.707.293l12,12A1,1,0,0,1,43,14V27H41V14.414L29.586,3H8A1,1,0,0,0,7,4V44a1,1,0,0,0,1,1H28Z"/>
      <path d="M24,18H12a1,1,0,0,1,0-2H24a1,1,0,0,1,0,2Z"/>
      <path d="M36,24H12a1,1,0,0,1,0-2H36a1,1,0,0,1,0,2Z"/>
      <path d="M26,30H12a1,1,0,0,1,0-2H26a1,1,0,0,1,0,2Z"/>
      <path d="M26,36H12a1,1,0,0,1,0-2H26a1,1,0,0,1,0,2Z"/>
      <path d="M39.883,47H35.117l-.466-3.729-3.665,1.362-2.4-3.994,2.776-2.466-2.91-2.306,2.172-4.123,4,1.234.5-3.979h4.766l.466,3.729,3.665-1.362,2.4,3.994-2.776,2.466,2.91,2.306-2.172,4.123-4-1.234Zm-3-2h1.234l.278-2.227a2,2,0,0,1,2.575-1.663l2.41.745.625-1.186L42.4,39.394a2,2,0,0,1-.088-3.062l1.535-1.364-.69-1.148-2.108.784a2,2,0,0,1-2.682-1.627L38.117,31H36.883L36.6,33.227a2,2,0,0,1-2.575,1.663l-2.41-.745-.625,1.186L32.6,36.606a2,2,0,0,1,.088,3.062l-1.535,1.364.69,1.148,2.108-.784a2,2,0,0,1,2.682,1.627Z"/>
      <path d="M42,15H30a1,1,0,0,1-1-1V3h2V13H42Z"/>
    </g>
  </g>
</svg>
