<?xml version="1.0" encoding="utf-8"?>
<!-- Generator: Adobe Illustrator 18.0.0, SVG Export Plug-In . SVG Version: 6.00 Build 0)  -->
<!DOCTYPE svg PUBLIC "-//W3C//DTD SVG 1.1//EN" "http://www.w3.org/Graphics/SVG/1.1/DTD/svg11.dtd">
<svg version="1.1" xmlns="http://www.w3.org/2000/svg" xmlns:xlink="http://www.w3.org/1999/xlink" x="0px" y="0px"
	 viewBox="0 0 48 48" enable-background="new 0 0 48 48" xml:space="preserve">
<g id="Layer_1">
</g>
<g id="Layer_2">
	<g id="Layer_3">
	</g>
	<g id="Layer_4">
	</g>
	<g id="sg-file">
	</g>
	<g id="au-files">
	</g>
	<g id="ae-files">
	</g>
	<g id="prelude-file">
	</g>
	<g id="premier-file">
	</g>
	<g id="br-file">
	</g>
	<g id="fl-file">
	</g>
	<g id="id-file">
	</g>
	<g id="ai-file">
	</g>
	<g id="ps-file">
	</g>
	<g id="move-file">
	</g>
	<g id="break-file">
	</g>
	<g id="blend-file">
	</g>
	<g id="hold-file">
	</g>
	<g id="bookmark">
		<path fill="none" stroke="#000000" stroke-width="2" stroke-linecap="round" stroke-linejoin="round" stroke-miterlimit="10" d="
			M40,33h-8c-1.1045704,0-2,0.8954315-2,2v10"/>
		<polygon fill="none" stroke="#000000" stroke-width="2" stroke-linejoin="round" stroke-miterlimit="10" points="25,25 
			20.0000572,21 15,25 15,1 25,1 		"/>
		<path fill="none" stroke="#000000" stroke-width="2" stroke-linecap="round" stroke-linejoin="round" stroke-miterlimit="10" d="
			M39,3H25v22l-4.999939-4L15,25V3H9C7.8954468,3,7,3.8953857,7,5v38c0,1.1045532,0.8954468,2,2,2h20.1202393
			c0.5606079,0,1.09552-0.2352905,1.4743042-0.6485596l9.8797607-10.7779541C40.812439,33.2045898,41,32.7224121,41,32.2220459V5
			C41,3.8953857,40.1045532,3,39,3z"/>
	</g>
	<g id="file-down">
	</g>
	<g id="file-up">
	</g>
	<g id="check-file">
	</g>
	<g id="remove-file">
	</g>
	<g id="new-file">
	</g>
	<g id="fileupload">
	</g>
	<g id="paper">
	</g>
	<g id="folder-label">
	</g>
	<g id="right-folder">
	</g>
	<g id="left-folder">
	</g>
	<g id="seperate-folder">
	</g>
	<g id="drag-folder">
	</g>
	<g id="remove-folder">
	</g>
	<g id="new-folder">
	</g>
</g>
<g id="folder-code">
</g>
</svg>
