<svg xmlns="http://www.w3.org/2000/svg" viewBox="0 0 48 48">
  <title>file-block</title>
  <g id="Layer_2" data-name="Layer 2">
    <g id="file-block">
      <g>
        <path d="M7,44V4A1,1,0,0,1,8,3H29V14a1,1,0,0,0,1,1H41V27h2V14a1,1,0,0,0-.293-.707l-12-12A1,1,0,0,0,30,1H8A3,3,0,0,0,5,4V44a3,3,0,0,0,3,3H28V45H8A1,1,0,0,1,7,44ZM31,4.414,39.586,13H31Z"/>
        <path d="M12,18H24a1,1,0,0,0,0-2H12a1,1,0,0,0,0,2Z"/>
        <path d="M37,23a1,1,0,0,0-1-1H12a1,1,0,0,0,0,2H36A1,1,0,0,0,37,23Z"/>
        <path d="M26,28H12a1,1,0,0,0,0,2H26a1,1,0,0,0,0-2Z"/>
        <path d="M26,34H12a1,1,0,0,0,0,2H26a1,1,0,0,0,0-2Z"/>
        <path d="M43.74,32.35a8.755,8.755,0,1,0,0,12.381A8.766,8.766,0,0,0,43.74,32.35ZM32.773,33.764a6.748,6.748,0,0,1,8.787-.649l-9.437,9.437a6.74,6.74,0,0,1,.65-8.788Zm9.553,9.553a6.739,6.739,0,0,1-8.788.65l9.437-9.437A6.759,6.759,0,0,1,42.326,43.317Z"/>
      </g>
    </g>
  </g>
</svg>
