<svg xmlns="http://www.w3.org/2000/svg" viewBox="0 0 48 48">
  <title>two-files</title>
  <g id="Layer_2" data-name="Layer 2">
    <g id="two-files">
      <g>
        <path d="M46.74,12.327l-10-11A1,1,0,0,0,36,1H17a3,3,0,0,0-3,3V9H8a3,3,0,0,0-3,3V44a3,3,0,0,0,3,3H35a3,3,0,0,0,3-3V39h6a3,3,0,0,0,3-3V13A1,1,0,0,0,46.74,12.327ZM37,4.587,43.739,12H37ZM35,45H8a1,1,0,0,1-1-1V12a1,1,0,0,1,1-1H26V21a1,1,0,0,0,1,1h9V44A1,1,0,0,1,35,45ZM28,12.587,34.739,20H28ZM44,37H38V21a1,1,0,0,0-.26-.673l-10-11A1,1,0,0,0,27,9H16V4a1,1,0,0,1,1-1H35V13a1,1,0,0,0,1,1h9V36A1,1,0,0,1,44,37Z"/>
        <rect x="12" y="22" width="7" height="2"/>
        <rect x="12" y="27" width="18" height="2"/>
        <rect x="12" y="32" width="18" height="2"/>
        <rect x="12" y="37" width="18" height="2"/>
      </g>
    </g>
  </g>
</svg>
