<svg xmlns="http://www.w3.org/2000/svg" viewBox="0 0 48 48">
  <title>user</title>
  <g id="Layer_2" data-name="Layer 2">
    <g id="png">
      <g>
        <path d="M42.707,13.293l-12-12A1,1,0,0,0,30,1H8A3,3,0,0,0,5,4V44a3,3,0,0,0,3,3H40a3,3,0,0,0,3-3V14A1,1,0,0,0,42.707,13.293ZM31,4.414,39.586,13H31ZM41,44a1,1,0,0,1-1,1H8a1,1,0,0,1-1-1V4A1,1,0,0,1,8,3H29V14a1,1,0,0,0,1,1H41Z"/>
        <path d="M29.408,25.146c.724-1.281.89-2.3.509-3.115a1.873,1.873,0,0,0-.5-.652,9.594,9.594,0,0,0-.283-2.145,5.438,5.438,0,0,0-5.462-3.709A5.439,5.439,0,0,0,18.2,19.237a9.557,9.557,0,0,0-.283,2.142,1.883,1.883,0,0,0-.5.652,3.388,3.388,0,0,0,.5,3.106,1.246,1.246,0,0,0,.46.452,9.345,9.345,0,0,0,1.611,2.633,7.359,7.359,0,0,1-1.733.8c-2.335.737-5.468,2.3-5.707,7.331a1,1,0,0,0,.788,1.025,53.561,53.561,0,0,0,10.327.927,53.557,53.557,0,0,0,10.326-.927,1,1,0,0,0,.788-1.025c-.239-5.032-3.371-6.594-5.706-7.331a7.361,7.361,0,0,1-1.733-.8,9.315,9.315,0,0,0,1.611-2.633A1.268,1.268,0,0,0,29.408,25.146Zm-.935,5.785c1.958.618,3.8,1.624,4.23,4.653a55.668,55.668,0,0,1-9.037.722,55.935,55.935,0,0,1-9.038-.722c.428-3.029,2.272-4.036,4.231-4.653a9.1,9.1,0,0,0,2.709-1.368,3.939,3.939,0,0,0,4.2,0A9.124,9.124,0,0,0,28.474,30.932Zm-.7-6.962a1.254,1.254,0,0,0-.623.718c-.2.709-1.648,3.481-3.481,3.481s-3.278-2.772-3.481-3.479a1.251,1.251,0,0,0-.622-.719,2.162,2.162,0,0,1-.34-1.053,1,1,0,0,0,.7-1.008,8.087,8.087,0,0,1,.214-2.156,3.427,3.427,0,0,1,3.53-2.229A3.39,3.39,0,0,1,27.2,19.75a8.075,8.075,0,0,1,.214,2.16,1,1,0,0,0,.7,1.008A2.162,2.162,0,0,1,27.771,23.97Z"/>
      </g>
    </g>
  </g>
</svg>
