<svg xmlns="http://www.w3.org/2000/svg" viewBox="0 0 48 48">
  <title>file-wide</title>
  <g id="Layer_2" data-name="Layer 2">
    <g id="file-wide">
      <g>
        <path d="M46.707,17.293l-10-10A1,1,0,0,0,36,7H5a3,3,0,0,0-3,3V40a3,3,0,0,0,3,3H44a3,3,0,0,0,3-3V18A1,1,0,0,0,46.707,17.293ZM37,10.414,43.586,17H37ZM44,41H5a1,1,0,0,1-1-1V10A1,1,0,0,1,5,9H35v9a1,1,0,0,0,1,1h9V40A1,1,0,0,1,44,41Z"/>
        <path d="M9,16h7a1,1,0,0,0,0-2H9a1,1,0,0,0,0,2Z"/>
        <path d="M29,19H9a1,1,0,0,0,0,2H29a1,1,0,0,0,0-2Z"/>
        <path d="M29,24H9a1,1,0,0,0,0,2H29a1,1,0,0,0,0-2Z"/>
        <path d="M29,29H9a1,1,0,0,0,0,2H29a1,1,0,0,0,0-2Z"/>
        <path d="M29,34H9a1,1,0,0,0,0,2H29a1,1,0,0,0,0-2Z"/>
      </g>
    </g>
  </g>
</svg>
