<svg xmlns="http://www.w3.org/2000/svg" viewBox="0 0 48 48">
  <title>word-file</title>
  <g id="Layer_2" data-name="Layer 2">
    <g id="word-file">
      <g>
        <path d="M42.707,13.293l-12-12A1,1,0,0,0,30,1H8A3,3,0,0,0,5,4V44a3,3,0,0,0,3,3H40a3,3,0,0,0,3-3V14A1,1,0,0,0,42.707,13.293ZM31,4.414,39.586,13H31ZM40,45H8a1,1,0,0,1-1-1V4A1,1,0,0,1,8,3H29V14a1,1,0,0,0,1,1H41V44A1,1,0,0,1,40,45Z"/>
        <path d="M33.185,20.9a.807.807,0,0,0-.761.62L28.543,32.68l-3.66-11.162a.811.811,0,0,0-.78-.62H24a.793.793,0,0,0-.779.62L19.562,32.68,15.7,21.558a.9.9,0,0,0-.819-.66.833.833,0,0,0-.82.8,1.169,1.169,0,0,0,.08.36L18.621,34.5a.864.864,0,0,0,.82.68h.12a.886.886,0,0,0,.82-.68L24,23.737,27.644,34.5a.885.885,0,0,0,.819.68h.12a.885.885,0,0,0,.82-.68l4.481-12.442a1.34,1.34,0,0,0,.1-.381A.826.826,0,0,0,33.185,20.9Z"/>
      </g>
    </g>
  </g>
</svg>
