<svg xmlns="http://www.w3.org/2000/svg" viewBox="0 0 48 48">
  <title>file-edits</title>
  <g id="Layer_2" data-name="Layer 2">
    <g id="fileedit">
      <g>
        <path d="M7,44V4A1,1,0,0,1,8,3H29V14a1,1,0,0,0,1,1H41V27h2V14a1,1,0,0,0-.293-.707l-12-12A1,1,0,0,0,30,1H8A3,3,0,0,0,5,4V44a3,3,0,0,0,3,3H28V45H8A1,1,0,0,1,7,44ZM31,4.414,39.586,13H31Z"/>
        <path d="M12,18H24a1,1,0,0,0,0-2H12a1,1,0,0,0,0,2Z"/>
        <path d="M37,23a1,1,0,0,0-1-1H12a1,1,0,0,0,0,2H36A1,1,0,0,0,37,23Z"/>
        <path d="M26,28H12a1,1,0,0,0,0,2H26a1,1,0,0,0,0-2Z"/>
        <path d="M26,34H12a1,1,0,0,0,0,2H26a1,1,0,0,0,0-2Z"/>
        <path d="M45.568,35.927,41.5,31.86a1,1,0,0,0-1.414,0l-8.133,8.134a1,1,0,0,0-.26.452l-1.454,5.52a1,1,0,0,0,1.221,1.222l5.52-1.453a1,1,0,0,0,.453-.26l8.134-8.134A1,1,0,0,0,45.568,35.927Zm-12.433,6.9,1.52,1.455-2.045.538Zm3.519.6-2.71-2.595,6.849-6.85,2.653,2.653Z"/>
      </g>
    </g>
  </g>
</svg>
