<svg xmlns="http://www.w3.org/2000/svg" viewBox="0 0 48 48">
  <title>two-files-1</title>
  <g id="Layer_2" data-name="Layer 2">
    <g id="two-files-1">
      <g>
        <path d="M42.707,13.293l-12-12A1,1,0,0,0,30,1H13a3,3,0,0,0-3,3V6H8A3,3,0,0,0,5,9V44a3,3,0,0,0,3,3H35a3,3,0,0,0,3-3V42h2a3,3,0,0,0,3-3V14A1,1,0,0,0,42.707,13.293ZM31,4.414,39.586,13H31ZM36,44a1,1,0,0,1-1,1H8a1,1,0,0,1-1-1V9A1,1,0,0,1,8,8h2V39a3,3,0,0,0,3,3H36Zm4-4H13a1,1,0,0,1-1-1V4a1,1,0,0,1,1-1H29V14a1,1,0,0,0,1,1H41V39A1,1,0,0,1,40,40Z"/>
        <rect x="18" y="17" width="7" height="2"/>
        <rect x="18" y="22" width="17" height="2"/>
        <rect x="18" y="27" width="17" height="2"/>
        <rect x="18" y="32" width="17" height="2"/>
      </g>
    </g>
  </g>
</svg>
