<svg xmlns="http://www.w3.org/2000/svg" viewBox="0 0 48 48">
  <title>files-3</title>
  <g id="Layer_2" data-name="Layer 2">
    <g id="files-3">
      <g>
        <path d="M44.707,13.293l-12-12A1,1,0,0,0,32,1H17a3,3,0,0,0-3,3V6H12A3,3,0,0,0,9,9v2H7a3,3,0,0,0-3,3V44a3,3,0,0,0,3,3H32a3,3,0,0,0,3-3V42h2a3,3,0,0,0,3-3V37h2a3,3,0,0,0,3-3V14A1,1,0,0,0,44.707,13.293ZM33,4.414,41.586,13H33ZM33,44a1,1,0,0,1-1,1H7a1,1,0,0,1-1-1V14a1,1,0,0,1,1-1H9V39a3,3,0,0,0,3,3H33Zm5-5a1,1,0,0,1-1,1H12a1,1,0,0,1-1-1V9a1,1,0,0,1,1-1h2V34a3,3,0,0,0,3,3H38Zm4-4H17a1,1,0,0,1-1-1V4a1,1,0,0,1,1-1H31V14a1,1,0,0,0,1,1H43V34A1,1,0,0,1,42,35Z"/>
        <rect x="22" y="18" width="7" height="2"/>
        <rect x="22" y="23" width="16" height="2"/>
        <rect x="22" y="28" width="16" height="2"/>
      </g>
    </g>
  </g>
</svg>
