<svg xmlns="http://www.w3.org/2000/svg" viewBox="0 0 48 48">
  <title>file-rotate</title>
  <g id="Layer_2" data-name="Layer 2">
    <g id="file-rotate">
      <path d="M46.707,17.293l-10-10A1,1,0,0,0,36,7H9a3,3,0,0,0-3,3v2H4a3,3,0,0,0-3,3V40a3,3,0,0,0,3,3H39a3,3,0,0,0,3-3V38h2a3,3,0,0,0,3-3V18A1,1,0,0,0,46.707,17.293ZM37,10.414,43.586,17H37ZM40,40a1,1,0,0,1-1,1H4a1,1,0,0,1-1-1V15a1,1,0,0,1,1-1H6V35a3,3,0,0,0,3,3H40Zm4-4H9a1,1,0,0,1-1-1V10A1,1,0,0,1,9,9H35v9a1,1,0,0,0,1,1h9V35A1,1,0,0,1,44,36Z"/>
    </g>
  </g>
</svg>
