<svg xmlns="http://www.w3.org/2000/svg" viewBox="0 0 48 48">
  <title>jpg</title>
  <g id="Layer_2" data-name="Layer 2">
    <g id="jpg">
      <path d="M43.707,13.293l-12-12A1,1,0,0,0,31,1H9A3,3,0,0,0,6,4V21H1a1,1,0,0,0-1,1V35a1,1,0,0,0,1,1H6v8a3,3,0,0,0,3,3H41a3,3,0,0,0,3-3V14A1,1,0,0,0,43.707,13.293ZM32,4.414,40.586,13H32ZM2,34V23H34V34H2ZM41,45H9a1,1,0,0,1-1-1V36H35a1,1,0,0,0,1-1V22a1,1,0,0,0-1-1H8V4A1,1,0,0,1,9,3H30V14a1,1,0,0,0,1,1H42V44A1,1,0,0,1,41,45Z"/>
      <g>
        <path d="M7.994,26.294h.783v4.06c0,1.611-.792,2.106-1.837,2.106a2.533,2.533,0,0,1-.837-.144l.117-.64a1.859,1.859,0,0,0,.657.117c.7,0,1.117-.314,1.117-1.5Z"/>
        <path d="M10.981,26.365a9.138,9.138,0,0,1,1.5-.117,2.493,2.493,0,0,1,1.7.5,1.631,1.631,0,0,1,.531,1.27,1.786,1.786,0,0,1-.468,1.3,2.513,2.513,0,0,1-1.854.666,2.705,2.705,0,0,1-.63-.054v2.431h-.783Zm.783,2.926a2.632,2.632,0,0,0,.648.063c.945,0,1.521-.459,1.521-1.3,0-.8-.567-1.187-1.432-1.187a3.292,3.292,0,0,0-.738.063Z"/>
        <path d="M21.288,32.091a5.651,5.651,0,0,1-1.864.334,2.85,2.85,0,0,1-3.115-3.062A3.043,3.043,0,0,1,19.6,26.23a3.752,3.752,0,0,1,1.513.279l-.189.639a3.155,3.155,0,0,0-1.341-.261,2.269,2.269,0,0,0-2.44,2.439,2.224,2.224,0,0,0,2.341,2.449,2.554,2.554,0,0,0,1.044-.162V29.8H19.29v-.63h2Z"/>
      </g>
    </g>
  </g>
</svg>
