<svg xmlns="http://www.w3.org/2000/svg" viewBox="0 0 48 48">
  <title>download</title>
  <g id="Layer_2" data-name="Layer 2">
    <g id="download">
      <g>
        <path d="M42.707,13.293l-12-12A1,1,0,0,0,30,1H8A3,3,0,0,0,5,4V44a3,3,0,0,0,3,3H40a3,3,0,0,0,3-3V14A1,1,0,0,0,42.707,13.293ZM31,4.414,39.586,13H31ZM41,44a1,1,0,0,1-1,1H8a1,1,0,0,1-1-1V4A1,1,0,0,1,8,3H29V14a1,1,0,0,0,1,1H41Z"/>
        <path d="M23.293,30.707a1,1,0,0,0,1.414,0l3.313-3.312a1,1,0,0,0-1.414-1.414L25,27.586V20a1,1,0,0,0-2,0v7.586l-1.48-1.48a1,1,0,0,0-1.414,1.414Z"/>
        <path d="M30,33a1,1,0,0,1-1,1H19a1,1,0,0,1-1-1V31a1,1,0,0,0-2,0v2a3,3,0,0,0,3,3H29a3,3,0,0,0,3-3V31a1,1,0,0,0-2,0Z"/>
      </g>
    </g>
  </g>
</svg>
