<svg xmlns="http://www.w3.org/2000/svg" viewBox="0 0 48 48">
  <title>file-loack</title>
  <g id="Layer_2" data-name="Layer 2">
    <g id="file-lock">
      <g>
        <path d="M7,44V4A1,1,0,0,1,8,3H29V14a1,1,0,0,0,1,1H41V27h2V14a1,1,0,0,0-.293-.707l-12-12A1,1,0,0,0,30,1H8A3,3,0,0,0,5,4V44a3,3,0,0,0,3,3H28V45H8A1,1,0,0,1,7,44ZM31,4.414,39.586,13H31Z"/>
        <path d="M12,18H24a1,1,0,0,0,0-2H12a1,1,0,0,0,0,2Z"/>
        <path d="M37,23a1,1,0,0,0-1-1H12a1,1,0,0,0,0,2H36A1,1,0,0,0,37,23Z"/>
        <path d="M26,28H12a1,1,0,0,0,0,2H26a1,1,0,0,0,0-2Z"/>
        <path d="M26,34H12a1,1,0,0,0,0,2H26a1,1,0,0,0,0-2Z"/>
        <path d="M44.443,37.115a6.537,6.537,0,0,0-1.791-5.766,6.5,6.5,0,0,0-9.192,0,1,1,0,0,0,1.414,1.414,4.5,4.5,0,0,1,6.364,0A4.521,4.521,0,0,1,42.421,37H32a1,1,0,0,0-1,1v6a3,3,0,0,0,3,3h8a3,3,0,0,0,3-3V38A.992.992,0,0,0,44.443,37.115ZM43,44a1,1,0,0,1-1,1H34a1,1,0,0,1-1-1V39H43Z"/>
      </g>
    </g>
  </g>
</svg>
