<svg xmlns="http://www.w3.org/2000/svg" viewBox="0 0 48 48">
  <title>file-cloude</title>
  <g id="Layer_2" data-name="Layer 2">
    <g id="file-clude">
      <g>
        <path d="M7,44V4A1,1,0,0,1,8,3H29V14a1,1,0,0,0,1,1H41V27h2V14a1,1,0,0,0-.293-.707l-12-12A1,1,0,0,0,30,1H8A3,3,0,0,0,5,4V44a3,3,0,0,0,3,3H28V45H8A1,1,0,0,1,7,44ZM31,4.414,39.586,13H31Z"/>
        <path d="M12,18H24a1,1,0,0,0,0-2H12a1,1,0,0,0,0,2Z"/>
        <path d="M37,23a1,1,0,0,0-1-1H12a1,1,0,0,0,0,2H36A1,1,0,0,0,37,23Z"/>
        <path d="M26,28H12a1,1,0,0,0,0,2H26a1,1,0,0,0,0-2Z"/>
        <path d="M26,34H12a1,1,0,0,0,0,2H26a1,1,0,0,0,0-2Z"/>
        <path d="M46.472,38.017A5.066,5.066,0,0,0,46.5,37.5a6,6,0,0,0-11.986-.4A5.238,5.238,0,0,0,33.5,37a5.5,5.5,0,0,0,0,11H42a6.007,6.007,0,0,0,6-6A5.915,5.915,0,0,0,46.472,38.017ZM42,46H33.5a3.5,3.5,0,0,1,0-7,3.453,3.453,0,0,1,1.643.432,1,1,0,0,0,1.45-1.092,3.932,3.932,0,0,1-.093-.84,4,4,0,0,1,8,0,3.961,3.961,0,0,1-.072.692,1,1,0,0,0,.3.9A3.954,3.954,0,0,1,46,42,4,4,0,0,1,42,46Z"/>
      </g>
    </g>
  </g>
</svg>
