<svg xmlns="http://www.w3.org/2000/svg" viewBox="0 0 48 48">
  <title>files-3</title>
  <g id="files-3">
    <g>
      <path d="M40,1H8A3,3,0,0,0,5,4V44a3,3,0,0,0,3,3H31a1,1,0,0,0,.588-.191l11-8A1,1,0,0,0,43,38V4A3,3,0,0,0,40,1ZM8,45a1,1,0,0,1-1-1V4A1,1,0,0,1,8,3H40a1,1,0,0,1,1,1V37H30a1,1,0,0,0-1,1v7Zm23-.237V39h7.925Z"/>
      <path d="M29,12a1,1,0,0,0,0-2H19a1,1,0,0,0,0,2Z"/>
      <path d="M27,20a1,1,0,0,0,1,1h4a1,1,0,0,0,0-2H28A1,1,0,0,0,27,20Z"/>
      <path d="M16,19H12a1,1,0,0,0,0,2h4a1,1,0,0,0,0-2Z"/>
      <path d="M20,19a1,1,0,0,0,0,2h4a1,1,0,0,0,0-2Z"/>
      <path d="M16,23H12a1,1,0,0,0,0,2h4a1,1,0,0,0,0-2Z"/>
      <path d="M24,24a1,1,0,0,0-1-1H20a1,1,0,0,0,0,2h3A1,1,0,0,0,24,24Z"/>
      <path d="M30.362,33.191a1,1,0,0,0,.962.828,1.546,1.546,0,0,0,.855-.241,1,1,0,0,0,1.159.122A4.123,4.123,0,0,0,34.9,32.309l3.156-1.174a1,1,0,0,0-.7-1.875l-3.532,1.314a1.024,1.024,0,0,0-.332.205,17.2,17.2,0,0,1-.064-2.421,1,1,0,0,0-1.995-.14l-.16,1.669a1,1,0,0,0-1.769.5,2.715,2.715,0,0,1-.312,1.161c-.061.081-.174.131-.135.163a.974.974,0,0,0-.1-.065c.034-1.3-.03-2.894-.075-3.338a1,1,0,0,0-1.653-.653,9.45,9.45,0,0,1-3.007,1.774,1,1,0,0,0,.682,1.881,11.462,11.462,0,0,0,2.061-.989c.008.664,0,1.35-.025,1.827L24.2,33.444a1,1,0,0,0,.095,1.848,4.981,4.981,0,0,0,1.648.349,2.833,2.833,0,0,0,.717-.091,3.062,3.062,0,0,0,2-1.889A2.22,2.22,0,0,0,30.362,33.191Z"/>
    </g>
  </g>
</svg>
