<svg xmlns="http://www.w3.org/2000/svg" viewBox="0 0 48 48">
  <title>flag</title>
  <g id="flag">
    <path d="M39,3H10V2A1,1,0,0,0,9,1H5A1,1,0,0,0,4,2V46a1,1,0,0,0,1,1H9a1,1,0,0,0,1-1V29H39a1,1,0,0,0,1-1V4A1,1,0,0,0,39,3ZM32,15H28V11h4Zm2-4h4v4H34Zm-8,4H22V11h4Zm0,2v4H22V17Zm-6-2H16V11h4Zm-6,0H10V11h4Zm-4,2h4v4H10Zm6,0h4v4H16Zm4,6v4H16V23Zm2,0h4v4H22Zm6,0h4v4H28Zm0-2V17h4v4Zm6-4h4v4H34ZM38,5V9H34V5ZM32,5V9H28V5ZM26,5V9H22V5ZM20,5V9H16V5ZM14,5V9H10V5ZM8,45H6V3H8Zm2-22h4v4H10Zm24,4V23h4v4Z"/>
  </g>
</svg>
