<svg xmlns="http://www.w3.org/2000/svg" viewBox="0 0 48 48">
  <title>folder-lock</title>
  <g id="Layer_2" data-name="Layer 2">
    <g id="folder-lock">
      <g>
        <path d="M44.5,36.153v-.4a6.5,6.5,0,0,0-13,0v.4A.986.986,0,0,0,31,37v6a3,3,0,0,0,3,3h8a3,3,0,0,0,3-3V37A.986.986,0,0,0,44.5,36.153ZM38,31.25a4.5,4.5,0,0,1,4.5,4.5V36h-9v-.25A4.5,4.5,0,0,1,38,31.25ZM43,43a1,1,0,0,1-1,1H34a1,1,0,0,1-1-1V38H43Z"/>
        <path d="M46.788,18.385A1,1,0,0,0,46,18H13a1,1,0,0,0-.975.775L6.562,42.45A1.99,1.99,0,0,1,4.613,44H4a1,1,0,0,1-1-1V5H17.757a1.987,1.987,0,0,1,1.415.586l5.121,5.121A1,1,0,0,0,25,11H43v5h2V10a1,1,0,0,0-1-1H25.414L20.586,4.172A3.973,3.973,0,0,0,17.757,3H2A1,1,0,0,0,1,4V43a3,3,0,0,0,3,3H29V44H8.068a4.013,4.013,0,0,0,.443-1.1L13.8,20H44.719L43.03,26.757l1.94.485,2-8A1,1,0,0,0,46.788,18.385Z"/>
      </g>
    </g>
  </g>
</svg>
