<svg xmlns="http://www.w3.org/2000/svg" viewBox="0 0 48 48">
  <title>folder-settings</title>
  <g id="Layer_2" data-name="Layer 2">
    <g id="folder-settings">
      <g>
        <path d="M46.788,18.385A1,1,0,0,0,46,18H13a1,1,0,0,0-.975.775L6.563,42.45A1.992,1.992,0,0,1,4.613,44H4a1,1,0,0,1-1-1V5H17.758a2.012,2.012,0,0,1,1.414.586l5.121,5.121A1,1,0,0,0,25,11H43v5h2V10a1,1,0,0,0-1-1H25.414L20.586,4.172A4.025,4.025,0,0,0,17.758,3H2A1,1,0,0,0,1,4V43a3,3,0,0,0,3,3H29V44H8.068a4.014,4.014,0,0,0,.443-1.1L13.8,20H44.719L43.03,26.757l1.939.485,2-8A1,1,0,0,0,46.788,18.385Z"/>
        <path d="M46.415,35.361l-2.4-3.994-3.665,1.362L39.883,29H35.117l-.5,3.979-4-1.234-2.172,4.123,2.91,2.306-2.776,2.466,2.4,3.994,3.665-1.362L35.117,47h4.766l.5-3.979,4,1.234,2.172-4.123-2.91-2.306Zm-2.409,5.308-.625,1.186-2.41-.745A2,2,0,0,0,38.4,42.773L38.117,45H36.883l-.247-1.977A2,2,0,0,0,33.954,41.4l-2.108.784-.69-1.148,1.535-1.364a2,2,0,0,0-.088-3.062l-1.608-1.275.625-1.186,2.41.745A2,2,0,0,0,36.6,33.227L36.883,31h1.234l.247,1.977A2,2,0,0,0,41.046,34.6l2.108-.784.69,1.148L42.31,36.333a2,2,0,0,0,.088,3.062Z"/>
      </g>
    </g>
  </g>
</svg>
