<svg xmlns="http://www.w3.org/2000/svg" viewBox="0 0 48 48">
  <title>folder-block</title>
  <g id="Layer_2" data-name="Layer 2">
    <g id="folder-block">
      <g>
        <path d="M46.788,18.385A1,1,0,0,0,46,18H13a1,1,0,0,0-.975.775L6.563,42.45A1.992,1.992,0,0,1,4.613,44H4a1,1,0,0,1-1-1V5H17.758a2.012,2.012,0,0,1,1.414.586l5.121,5.121A1,1,0,0,0,25,11H43v5h2V10a1,1,0,0,0-1-1H25.414L20.586,4.172A4.025,4.025,0,0,0,17.758,3H2A1,1,0,0,0,1,4V43a3,3,0,0,0,3,3H29V44H8.068a4.014,4.014,0,0,0,.443-1.1L13.8,20H44.719L43.03,26.757l1.939.485,2-8A1,1,0,0,0,46.788,18.385Z"/>
        <path d="M31.359,32.35a8.755,8.755,0,1,0,12.381,0A8.695,8.695,0,0,0,31.359,32.35Zm1.414,1.414a6.748,6.748,0,0,1,8.787-.649l-9.437,9.437a6.74,6.74,0,0,1,.65-8.788Zm9.553,9.553a6.739,6.739,0,0,1-8.788.65l9.437-9.437A6.759,6.759,0,0,1,42.326,43.317Z"/>
      </g>
    </g>
  </g>
</svg>
