<svg xmlns="http://www.w3.org/2000/svg" viewBox="0 0 48 48">
  <title>folder-search</title>
  <g id="Layer_2" data-name="Layer 2">
    <g id="folder-search">
      <g>
        <path d="M46.788,18.385A1,1,0,0,0,46,18H13a1,1,0,0,0-.975.775L6.562,42.45A1.99,1.99,0,0,1,4.613,44H4a1,1,0,0,1-1-1V5H17.757a1.987,1.987,0,0,1,1.415.586l5.121,5.121A1,1,0,0,0,25,11H43v5h2V10a1,1,0,0,0-1-1H25.414L20.586,4.172A3.973,3.973,0,0,0,17.757,3H2A1,1,0,0,0,1,4V43a3,3,0,0,0,3,3H29V44H8.068a4.013,4.013,0,0,0,.443-1.1L13.8,20H44.719L43.03,26.757l1.94.485,2-8A1,1,0,0,0,46.788,18.385Z"/>
        <path d="M39.358,29.835A7.323,7.323,0,0,0,33.52,41.591l-2.254,2.254a1,1,0,1,0,1.414,1.414L34.935,43a7.328,7.328,0,1,0,4.424-13.17Zm3.771,11.1a5.333,5.333,0,1,1,1.561-3.77A5.3,5.3,0,0,1,43.129,40.937Z"/>
      </g>
    </g>
  </g>
</svg>
