<svg xmlns="http://www.w3.org/2000/svg" viewBox="0 0 48 48">
  <title>folder</title>
  <g id="folder">
    <path d="M43,8H26.338L20.046,3.205A1,1,0,0,0,19.439,3H10A4,4,0,0,0,6,7V17H5.211a4,4,0,0,0-3.9,4.9l4.615,20a3.982,3.982,0,0,0,3.9,3.1H44a3,3,0,0,0,3-3V12A4,4,0,0,0,43,8ZM8,7a2,2,0,0,1,2-2h9.1l6.292,4.795A1,1,0,0,0,26,10H43a2,2,0,0,1,2,2V35.218L41.69,20.876A4.977,4.977,0,0,0,36.818,17H8ZM42,43H9.826a1.992,1.992,0,0,1-1.949-1.55l-4.615-20A2,2,0,0,1,5.211,19H36.818a2.985,2.985,0,0,1,2.923,2.325L44.46,41.774A1,1,0,0,1,43.486,43Z"/>
  </g>
</svg>
