<svg xmlns="http://www.w3.org/2000/svg" viewBox="0 0 48 48">
  <title>folder-star</title>
  <g id="Layer_2" data-name="Layer 2">
    <g id="folder-star">
      <g>
        <path d="M8.511,42.9,13.8,20H44.719L43.03,26.757l1.94.485,2-8A1,1,0,0,0,46,18H13a1,1,0,0,0-.975.775L6.562,42.45A1.99,1.99,0,0,1,4.613,44H4a1,1,0,0,1-1-1V5H17.757a1.987,1.987,0,0,1,1.415.586l5.121,5.121A1,1,0,0,0,25,11H43v5h2V10a1,1,0,0,0-1-1H25.414L20.586,4.172A3.973,3.973,0,0,0,17.757,3H2A1,1,0,0,0,1,4V43a3,3,0,0,0,3,3H29V44H8.068A4.013,4.013,0,0,0,8.511,42.9Z"/>
        <path d="M48.367,34.692A1,1,0,0,0,47.415,34H40.949l-2-6.149a1,1,0,0,0-1.9,0l-2,6.149H28.585A1,1,0,0,0,28,35.811l5.227,3.772-2,6.119a1,1,0,0,0,1.538,1.119l5.23-3.8,5.231,3.807a1,1,0,0,0,1.539-1.118l-2-6.131L48,35.811A1,1,0,0,0,48.367,34.692Zm-7.355,3.695a1,1,0,0,0-.366,1.121L41.913,43.4,38.588,40.98a1,1,0,0,0-1.176,0l-3.325,2.414,1.267-3.883a1,1,0,0,0-.365-1.121L31.679,36h4.1a1,1,0,0,0,.951-.691L38,31.4l1.271,3.914a1,1,0,0,0,.951.691h4.1Z"/>
      </g>
    </g>
  </g>
</svg>
