<svg xmlns="http://www.w3.org/2000/svg" viewBox="0 0 48 48">
  <title>folder-favorite</title>
  <g id="Layer_2" data-name="Layer 2">
    <g id="folder-favorite">
      <g>
        <path d="M46.788,18.385A1,1,0,0,0,46,18H13a1,1,0,0,0-.975.775L6.563,42.45A1.992,1.992,0,0,1,4.613,44H4a1,1,0,0,1-1-1V5H17.758a2.012,2.012,0,0,1,1.414.586l5.121,5.121A1,1,0,0,0,25,11H43v5h2V10a1,1,0,0,0-1-1H25.414L20.586,4.172A4.025,4.025,0,0,0,17.758,3H2A1,1,0,0,0,1,4V43a3,3,0,0,0,3,3H29V44H8.068a4.014,4.014,0,0,0,.443-1.1L13.8,20H44.719L43.03,26.757l1.939.485,2-8A1,1,0,0,0,46.788,18.385Z"/>
        <path d="M41,30a5,5,0,0,0-4,2,5,5,0,0,0-9,3c0,5.992,8.092,11.59,8.436,11.826l.525.359.548-.324C37.855,46.655,46,41.759,46,35A5.006,5.006,0,0,0,41,30ZM37.035,44.789C35.314,43.495,30,39.159,30,35a3,3,0,0,1,6,0h2a3,3,0,0,1,6,0C44,39.714,38.762,43.626,37.035,44.789Z"/>
      </g>
    </g>
  </g>
</svg>
