<svg xmlns="http://www.w3.org/2000/svg" viewBox="0 0 48 48">
  <title>folder-notification</title>
  <g id="Layer_2" data-name="Layer 2">
    <g id="folder-notify">
      <g>
        <path d="M8.512,42.9,13.8,20H44.719L43.03,26.757l1.939.485,2-8A1,1,0,0,0,46,18H13a1,1,0,0,0-.975.775L6.563,42.45A1.992,1.992,0,0,1,4.613,44H4a1,1,0,0,1-1-1V5H17.758a2.012,2.012,0,0,1,1.414.586l5.121,5.121A1,1,0,0,0,25,11H43v5h2V10a1,1,0,0,0-1-1H25.414L20.586,4.172A4.025,4.025,0,0,0,17.758,3H2A1,1,0,0,0,1,4V43a3,3,0,0,0,3,3H29V44H8.068A4.014,4.014,0,0,0,8.512,42.9Z"/>
        <path d="M38.55,29.786c-5,0-8.755,7.075-8.755,11.663,0,5.847,5.7,5.847,8.755,5.847s8.754,0,8.754-5.847C47.3,36.861,43.545,29.786,38.55,29.786Zm0,15.509c-5.051,0-6.755-.971-6.755-3.847,0-3.728,3.092-9.663,6.755-9.663S45.3,37.721,45.3,41.449C45.3,44.325,43.6,45.3,38.55,45.3Z"/>
        <path d="M39,35a1,1,0,0,0-1,1v3a1,1,0,0,0,2,0V36A1,1,0,0,0,39,35Z"/>
        <path d="M39,41a1,1,0,0,0-1,1v1a1,1,0,0,0,2,0V42A1,1,0,0,0,39,41Z"/>
      </g>
    </g>
  </g>
</svg>
