<svg xmlns="http://www.w3.org/2000/svg" viewBox="0 0 48 48">
  <title>folder-loading</title>
  <g id="Layer_2" data-name="Layer 2">
    <g id="folder-loading">
      <g>
        <path d="M35,30H33v6a1,1,0,0,0,1,1h7V35H35Z"/>
        <path d="M44.872,28.193l.1.023,2-9A1,1,0,0,0,46,18H13a1,1,0,0,0-.975.775L6.563,42.45A1.992,1.992,0,0,1,4.613,44H4a1,1,0,0,1-1-1V5H17.758a2.012,2.012,0,0,1,1.414.586l5.121,5.121A1,1,0,0,0,25,11H43v5h2V10a1,1,0,0,0-1-1H25.414L20.586,4.172A4.025,4.025,0,0,0,17.758,3H2A1,1,0,0,0,1,4V43a3,3,0,0,0,3,3H30v-.105a11.984,11.984,0,0,0,14.872-17.7ZM8.068,44a4.014,4.014,0,0,0,.443-1.1L13.8,20H44.753l-1.419,6.385A11.985,11.985,0,1,0,27.089,44ZM35,45A10,10,0,1,1,45,35,10.011,10.011,0,0,1,35,45Z"/>
      </g>
    </g>
  </g>
</svg>
