<svg xmlns="http://www.w3.org/2000/svg" viewBox="0 0 48 48">
  <title>folder-trash</title>
  <g id="Layer_2" data-name="Layer 2">
    <g id="folder-trash">
      <g>
        <path d="M46.788,18.385A1,1,0,0,0,46,18H13a1,1,0,0,0-.975.775L6.563,42.45A1.992,1.992,0,0,1,4.613,44H4a1,1,0,0,1-1-1V5H17.758a2.012,2.012,0,0,1,1.414.586l5.121,5.121A1,1,0,0,0,25,11H43v5h2V10a1,1,0,0,0-1-1H25.414L20.586,4.172A4.025,4.025,0,0,0,17.758,3H2A1,1,0,0,0,1,4V43a3,3,0,0,0,3,3H29V44H8.068a4.014,4.014,0,0,0,.443-1.1L13.8,20H44.719L43.03,26.757l1.939.485,2-8A1,1,0,0,0,46.788,18.385Z"/>
        <path d="M45,31H30a1,1,0,0,0-.012,2l1.763,11.459A2.984,2.984,0,0,0,34.716,47h5.568a2.984,2.984,0,0,0,2.965-2.544L45.012,33A1,1,0,0,0,45,31ZM41.272,44.152a1,1,0,0,1-.988.848H34.716a1,1,0,0,1-.988-.848L32.011,33H42.989Z"/>
      </g>
    </g>
  </g>
</svg>
