<svg xmlns="http://www.w3.org/2000/svg" viewBox="0 0 48 48">
  <title>folder-close</title>
  <g id="Layer_2" data-name="Layer 2">
    <g id="folder-close">
      <g>
        <path d="M44.872,28.194l.1.023,2-9A1,1,0,0,0,46,18H13a1,1,0,0,0-.975.775L6.562,42.45A1.99,1.99,0,0,1,4.613,44H4a1,1,0,0,1-1-1V5H17.757a1.987,1.987,0,0,1,1.415.586l5.121,5.121A1,1,0,0,0,25,11H43v5h2V10a1,1,0,0,0-1-1H25.414L20.586,4.172A3.973,3.973,0,0,0,17.757,3H2A1,1,0,0,0,1,4V43a3,3,0,0,0,3,3H30v-.105a11.984,11.984,0,0,0,14.872-17.7ZM8.068,44a4.013,4.013,0,0,0,.443-1.1L13.8,20H44.753l-1.419,6.385A11.985,11.985,0,1,0,27.089,44ZM35,45A10,10,0,1,1,45,35,10.011,10.011,0,0,1,35,45Z"/>
        <path d="M39.95,30.05a1,1,0,0,0-1.414,0L35,33.586,31.464,30.05a1,1,0,0,0-1.414,1.414L33.586,35,30.05,38.536a1,1,0,1,0,1.414,1.414L35,36.414l3.536,3.536a1,1,0,0,0,1.414-1.414L36.414,35l3.536-3.536A1,1,0,0,0,39.95,30.05Z"/>
      </g>
    </g>
  </g>
</svg>
