<svg xmlns="http://www.w3.org/2000/svg" viewBox="0 0 48 48">
  <title>folder-edit</title>
  <g id="Layer_2" data-name="Layer 2">
    <g id="folder-edit">
      <g>
        <path d="M41.5,29.86a1,1,0,0,0-1.414,0l-8.133,8.134a1,1,0,0,0-.26.452l-1.454,5.52a1,1,0,0,0,1.221,1.222l5.52-1.453a1,1,0,0,0,.453-.26l8.134-8.134a1,1,0,0,0,0-1.414ZM33.135,40.825l1.52,1.455-2.045.538Zm3.519.6-2.71-2.595,6.849-6.85,2.653,2.653Z"/>
        <path d="M46.788,18.385A1,1,0,0,0,46,18H13a1,1,0,0,0-.975.775L6.562,42.45A1.99,1.99,0,0,1,4.613,44H4a1,1,0,0,1-1-1V5H17.757a1.987,1.987,0,0,1,1.415.586l5.121,5.121A1,1,0,0,0,25,11H43v5h2V10a1,1,0,0,0-1-1H25.414L20.586,4.172A3.973,3.973,0,0,0,17.757,3H2A1,1,0,0,0,1,4V43a3,3,0,0,0,3,3H29V44H8.068a4.013,4.013,0,0,0,.443-1.1L13.8,20H44.719L43.03,26.757l1.94.485,2-8A1,1,0,0,0,46.788,18.385Z"/>
      </g>
    </g>
  </g>
</svg>
