<svg xmlns="http://www.w3.org/2000/svg" viewBox="0 0 48 48">
  <title>folder-cloud</title>
  <g id="Layer_2" data-name="Layer 2">
    <g id="folder-cloude">
      <g>
        <path d="M8.512,42.9,13.8,20H44.719L43.03,26.757l1.939.485,2-8A1,1,0,0,0,46,18H13a1,1,0,0,0-.975.775L6.563,42.45A1.992,1.992,0,0,1,4.613,44H4a1,1,0,0,1-1-1V5H17.758a2.012,2.012,0,0,1,1.414.586l5.121,5.121A1,1,0,0,0,25,11H43v5h2V10a1,1,0,0,0-1-1H25.414L20.586,4.172A4.025,4.025,0,0,0,17.758,3H2A1,1,0,0,0,1,4V43a3,3,0,0,0,3,3H29V44H8.068A4.014,4.014,0,0,0,8.512,42.9Z"/>
        <path d="M46.472,36.017A5.066,5.066,0,0,0,46.5,35.5a6,6,0,0,0-11.986-.4A5.238,5.238,0,0,0,33.5,35a5.5,5.5,0,0,0,0,11H42a6.007,6.007,0,0,0,6-6A5.915,5.915,0,0,0,46.472,36.017ZM42,44H33.5a3.5,3.5,0,0,1,0-7,3.453,3.453,0,0,1,1.643.432,1,1,0,0,0,1.45-1.092,3.932,3.932,0,0,1-.093-.84,4,4,0,0,1,8,0,3.961,3.961,0,0,1-.072.692,1,1,0,0,0,.3.9A3.954,3.954,0,0,1,46,40,4,4,0,0,1,42,44Z"/>
      </g>
    </g>
  </g>
</svg>
