<svg xmlns="http://www.w3.org/2000/svg" viewBox="0 0 48 48">
  <title>globe</title>
  <g id="globe">
    <path d="M47,24A23.026,23.026,0,0,0,24,1c-.238,0-.473.011-.709.018a1,1,0,0,0-.406.01,23,23,0,0,0-.009,45.943.72.72,0,0,0,.374.009c.25.008.5.019.75.019l.11,0c.008,0,.015,0,.023,0s.026,0,.039,0A23.024,23.024,0,0,0,47,24Zm-4.055,9H34.6a27.12,27.12,0,0,0,0-18h8.348a20.734,20.734,0,0,1,0,18ZM13.11,24a25.165,25.165,0,0,1,1.662-9H23V33H14.772A25.165,25.165,0,0,1,13.11,24ZM31.6,13H25V4.62A25.044,25.044,0,0,1,31.6,13ZM23,4.027V13H15.641A25.064,25.064,0,0,1,23,4.027ZM23,35v8.973A25.064,25.064,0,0,1,15.641,35Zm2,8.38V35h6.6A25.044,25.044,0,0,1,25,43.38ZM25,33V15h7.472a25.2,25.2,0,0,1,0,18ZM41.854,13H33.806a27.017,27.017,0,0,0-7.451-9.859A21.005,21.005,0,0,1,41.854,13ZM20.722,3.282A27.013,27.013,0,0,0,13.438,13H6.146A21.01,21.01,0,0,1,20.722,3.282ZM5.055,15h7.592a27.12,27.12,0,0,0,0,18H5.055a20.734,20.734,0,0,1,0-18Zm1.09,20h7.293a27.013,27.013,0,0,0,7.284,9.718A21.01,21.01,0,0,1,6.146,35Zm20.209,9.859A27.017,27.017,0,0,0,33.806,35h8.049A21.005,21.005,0,0,1,26.355,44.859Z"/>
  </g>
</svg>
