<svg xmlns="http://www.w3.org/2000/svg" viewBox="0 0 48 48">
  <title>visual</title>
  <g id="visual">
    <path d="M6,38a1,1,0,0,1-1-1V19a1,1,0,0,1,2,0V37A1,1,0,0,1,6,38Zm5-1V14a1,1,0,0,0-2,0V37a1,1,0,0,0,2,0Zm4,0V19a1,1,0,0,0-2,0V37a1,1,0,0,0,2,0Zm4,0V21a1,1,0,0,0-2,0V37a1,1,0,0,0,2,0Zm4,0V16a1,1,0,0,0-2,0V37a1,1,0,0,0,2,0Zm4,0V11a1,1,0,0,0-2,0V37a1,1,0,0,0,2,0Zm4,0V6a1,1,0,0,0-2,0V37a1,1,0,0,0,2,0Zm4,0V18a1,1,0,0,0-2,0V37a1,1,0,0,0,2,0Zm4,0V20a1,1,0,0,0-2,0V37a1,1,0,0,0,2,0Zm4,0V23a1,1,0,0,0-2,0V37a1,1,0,0,0,2,0Zm4,5a1,1,0,0,0-1-1H4a1,1,0,0,0,0,2H46A1,1,0,0,0,47,42Z"/>
  </g>
</svg>
