<svg xmlns="http://www.w3.org/2000/svg" viewBox="0 0 48 48">
  <title>graph</title>
  <g id="graph">
    <path d="M43,2H5A3,3,0,0,0,2,5V43a3,3,0,0,0,3,3H43a3,3,0,0,0,3-3V5A3,3,0,0,0,43,2ZM13.858,37a4,4,0,0,0-1.594-2.292L13.618,32H16v5ZM10,40a2,2,0,1,1,2-2A2,2,0,0,1,10,40ZM4,37V32H9v2.142A3.994,3.994,0,0,0,6.142,37Zm27-5a2,2,0,1,1,2-2A2,2,0,0,1,31,32ZM11,32h.382L11,32.764Zm0-2V25h2.142a3.978,3.978,0,0,0,.9,1.673L12.382,30ZM34.142,18A4,4,0,0,0,35.7,20.261L34.134,23H32V18ZM38,15a2,2,0,1,1-2,2A2,2,0,0,1,38,15Zm-1,8h-.563L37,22.015Zm-4.712,3.231c-.095-.032-.19-.064-.288-.089V25h.991ZM30,23H25V18h5Zm-5-7V11h5v5Zm-2,0H18V11h5Zm0,2v5H20.858a4,4,0,0,0-2.885-2.866A.943.943,0,0,0,18,20V18Zm-6,8a2,2,0,1,1,2-2A2,2,0,0,1,17,26Zm6-1v.382L22.236,25Zm-6.973-4.866A4,4,0,0,0,13.142,23H11V18h5v2A.943.943,0,0,0,16.027,20.134ZM9,23H4V18H9Zm0,2v5H4V25Zm6.731,2.774c.089.03.177.06.269.084V30H14.618ZM18,27.858a4,4,0,0,0,2.292-1.594L23,27.618V30H18Zm7,.76,2.037,1.018c-.011.122-.037.239-.037.363H25Zm2.708-.882L25,26.382V25h5v1.142A4,4,0,0,0,27.708,27.736Zm6.253-.4L35.294,25H37v5H35A3.969,3.969,0,0,0,33.961,27.334ZM39,25h5v5H39Zm0-2V20.858A3.994,3.994,0,0,0,41.858,18H44v5Zm2.858-7A3.994,3.994,0,0,0,39,13.142V11h5v5ZM37,13.142A3.994,3.994,0,0,0,34.142,16H32V11h5ZM32,9V4h5V9ZM30,9H25V4h5ZM23,9H18V4h5ZM16,9H11V4h5Zm0,2v5H11V11ZM9,16H4V11H9Zm9,16h5v5H18Zm7,0h2.556A3.992,3.992,0,0,0,30,33.858V37H25Zm7,1.858A3.992,3.992,0,0,0,34.444,32H37v5H32ZM39,32h5v5H39ZM44,5V9H39V4h4A1,1,0,0,1,44,5ZM5,4H9V9H4V5A1,1,0,0,1,5,4ZM4,43V39H6.142A3.994,3.994,0,0,0,9,41.858V44H5A1,1,0,0,1,4,43Zm7,1V41.858A3.994,3.994,0,0,0,13.858,39H16v5Zm7,0V39h5v5Zm7-5h5v5H25Zm7,5V39h5v5Zm11,0H39V39h5v4A1,1,0,0,1,43,44Z"/>
  </g>
</svg>
