<svg xmlns="http://www.w3.org/2000/svg" viewBox="0 0 48 48">
  <title>hiks</title>
  <g id="hike">
    <path d="M46,41V40a1,1,0,0,0-1-1,.987.987,0,0,0-.969.846c-1.2-2.753-2.279-9.8-2.918-14C39.522,15.4,38.388,9,35.251,9S30.98,15.4,29.39,25.85c-.065.429-.136.891-.21,1.372-.3,1.141-.588,2.335-.878,3.546-.861,3.6-1.989,8.289-3.408,9.76-1.347-2.019-2.575-10.072-3.277-14.678C20.025,15.4,18.891,9,15.753,9c-2.572,0-3.8,4.306-5.034,11.609-1.573,2.119-2.521,6.058-3.5,10.159C6.393,34.2,5.329,38.627,4,40.306V40a1,1,0,0,0-2,0v1a1,1,0,0,0,0,2H46a1,1,0,0,0,0-2ZM35.251,11c1.329,0,2.6,6.987,3.454,12.355-1-2.6-2.264-4.355-4.162-4.355a3.049,3.049,0,0,0-2.176.954C33.169,15.436,34.193,11,35.251,11Zm-19.5,0c1.579,0,3.081,9.855,3.888,15.15a90.588,90.588,0,0,0,2.528,12.878,49.816,49.816,0,0,1-2.463-8.262C18.256,24.716,16.886,19,13.461,19a2.861,2.861,0,0,0-.431.046C13.807,14.86,14.765,11,15.753,11ZM5.927,41a27.349,27.349,0,0,0,2.719-7.643C7.884,37.384,6.956,41,6,41ZM16,41V40a1,1,0,0,0-2,0v1H10V40a.99.99,0,0,0-.676-.935,89.931,89.931,0,0,0,2.54-12.914c.207-1.354.459-3.006.746-4.716A1.253,1.253,0,0,1,13.461,21c1.848,0,3.265,5.914,4.3,10.233a51.893,51.893,0,0,0,2.418,8.229A.973.973,0,0,0,20,40v1Zm23-2a1,1,0,0,0-1,1v1H34V40a1,1,0,0,0-2,0v1H28.031c1.3-2.456,2.136-7.083,3.1-13.324C32.047,24.241,33.177,21,34.543,21c1.847,0,3.264,5.915,4.3,10.233.925,3.86,1.819,7.576,3.233,9.767H40V40A1,1,0,0,0,39,39Z"/>
  </g>
</svg>
