<svg xmlns="http://www.w3.org/2000/svg" viewBox="0 0 48 48">
  <title>parabola</title>
  <g id="parabola">
    <g>
      <path d="M42,8c-5.016,0-7.4,7.07-9.711,15H29.728v2h1.981C29.86,31.395,27.941,37.892,25,39.572V25h.909V23H25V2a1,1,0,0,0-2,0V23h-.909v2H23V39.937C19.479,39.3,17.341,32.091,15.291,25h2.981V23H14.711C12.4,15.07,10.016,8,5,8a1,1,0,0,0,0,2c3.873,0,6.118,7.767,8.289,15.277C15.7,33.6,17.981,41.455,23,41.952V46a1,1,0,0,0,2,0V41.748c4.334-1.379,6.47-8.721,8.711-16.471C35.882,17.767,38.127,10,42,10a1,1,0,0,0,0-2Z"/>
      <rect x="1" y="23" width="2" height="2"/>
      <rect x="6.818" y="23" width="3.818" height="2"/>
      <rect x="37.364" y="23" width="3.817" height="2"/>
      <rect x="45" y="23" width="2" height="2"/>
    </g>
  </g>
</svg>
