<svg xmlns="http://www.w3.org/2000/svg" viewBox="0 0 48 48">
  <title>parabola-s</title>
  <g id="paraboal-s">
    <g>
      <rect x="1" y="23" width="2" height="2"/>
      <rect x="37.364" y="23" width="3.817" height="2"/>
      <rect x="29.728" y="23" width="3.818" height="2"/>
      <rect x="14.455" y="23" width="3.817" height="2"/>
      <rect x="6.818" y="23" width="3.818" height="2"/>
      <rect x="45" y="23" width="2" height="2"/>
      <path d="M43,43c-8.443,0-12.911-8.557-17.416-18h.326V23H25V2a1,1,0,0,0-2,0V19.613C18.713,10.9,13.808,3,5,3A1,1,0,0,0,5,5c8.443,0,12.911,8.557,17.416,18h-.326v2H23V46a1,1,0,0,0,2,0V28.387C29.287,37.1,34.192,45,43,45a1,1,0,0,0,0-2Z"/>
    </g>
  </g>
</svg>
