<svg xmlns="http://www.w3.org/2000/svg" viewBox="0 0 48 48">
  <title>visual-graph</title>
  <g id="visual-graph">
    <path d="M11,39H7a1,1,0,0,1,0-2h4a1,1,0,0,1,0,2Zm1-5a1,1,0,0,0-1-1H7a1,1,0,0,0,0,2h4A1,1,0,0,0,12,34Zm0-4a1,1,0,0,0-1-1H7a1,1,0,0,0,0,2h4A1,1,0,0,0,12,30Zm0-4a1,1,0,0,0-1-1H7a1,1,0,0,0,0,2h4A1,1,0,0,0,12,26Zm0-4a1,1,0,0,0-1-1H7a1,1,0,0,0,0,2h4A1,1,0,0,0,12,22Zm8,16a1,1,0,0,0-1-1H15a1,1,0,0,0,0,2h4A1,1,0,0,0,20,38Zm0-4a1,1,0,0,0-1-1H15a1,1,0,0,0,0,2h4A1,1,0,0,0,20,34Zm0-4a1,1,0,0,0-1-1H15a1,1,0,0,0,0,2h4A1,1,0,0,0,20,30Zm0-4a1,1,0,0,0-1-1H15a1,1,0,0,0,0,2h4A1,1,0,0,0,20,26Zm0-4a1,1,0,0,0-1-1H15a1,1,0,0,0,0,2h4A1,1,0,0,0,20,22Zm0-4a1,1,0,0,0-1-1H15a1,1,0,0,0,0,2h4A1,1,0,0,0,20,18Zm0-4a1,1,0,0,0-1-1H15a1,1,0,0,0,0,2h4A1,1,0,0,0,20,14Zm0-4a1,1,0,0,0-1-1H15a1,1,0,0,0,0,2h4A1,1,0,0,0,20,10Zm0-4a1,1,0,0,0-1-1H15a1,1,0,0,0,0,2h4A1,1,0,0,0,20,6Zm8,32a1,1,0,0,0-1-1H23a1,1,0,0,0,0,2h4A1,1,0,0,0,28,38Zm0-4a1,1,0,0,0-1-1H23a1,1,0,0,0,0,2h4A1,1,0,0,0,28,34Zm0-4a1,1,0,0,0-1-1H23a1,1,0,0,0,0,2h4A1,1,0,0,0,28,30Zm0-4a1,1,0,0,0-1-1H23a1,1,0,0,0,0,2h4A1,1,0,0,0,28,26Zm0-4a1,1,0,0,0-1-1H23a1,1,0,0,0,0,2h4A1,1,0,0,0,28,22Zm0-4a1,1,0,0,0-1-1H23a1,1,0,0,0,0,2h4A1,1,0,0,0,28,18Zm8,20a1,1,0,0,0-1-1H31a1,1,0,0,0,0,2h4A1,1,0,0,0,36,38Zm0-4a1,1,0,0,0-1-1H31a1,1,0,0,0,0,2h4A1,1,0,0,0,36,34Zm0-4a1,1,0,0,0-1-1H31a1,1,0,0,0,0,2h4A1,1,0,0,0,36,30Zm0-4a1,1,0,0,0-1-1H31a1,1,0,0,0,0,2h4A1,1,0,0,0,36,26Zm0-4a1,1,0,0,0-1-1H31a1,1,0,0,0,0,2h4A1,1,0,0,0,36,22Zm0-4a1,1,0,0,0-1-1H31a1,1,0,0,0,0,2h4A1,1,0,0,0,36,18Zm0-4a1,1,0,0,0-1-1H31a1,1,0,0,0,0,2h4A1,1,0,0,0,36,14Zm8,24a1,1,0,0,0-1-1H39a1,1,0,0,0,0,2h4A1,1,0,0,0,44,38Zm0-4a1,1,0,0,0-1-1H39a1,1,0,0,0,0,2h4A1,1,0,0,0,44,34Zm0-4a1,1,0,0,0-1-1H39a1,1,0,0,0,0,2h4A1,1,0,0,0,44,30Zm0-4a1,1,0,0,0-1-1H39a1,1,0,0,0,0,2h4A1,1,0,0,0,44,26Zm3,16a1,1,0,0,0-1-1H4a1,1,0,0,0,0,2H46A1,1,0,0,0,47,42Z"/>
  </g>
</svg>
