<svg xmlns="http://www.w3.org/2000/svg" viewBox="0 0 48 48">
  <title>broken-link</title>
  <g id="broken-link">
    <g>
      <path d="M21,17a.979.979,0,0,0,.2-.02A1,1,0,0,0,21.98,15.8l-1-5a1,1,0,0,0-1.961.393l1,5A1,1,0,0,0,21,17Z" fill="#080808"/>
      <path d="M12,22h5a1,1,0,0,0,0-2H12a1,1,0,0,0,0,2Z" fill="#080808"/>
      <path d="M16.293,17.707a1,1,0,0,0,1.414-1.414l-3-3a1,1,0,0,0-1.414,1.414Z" fill="#080808"/>
      <path d="M26.8,31.02A1,1,0,0,0,26.02,32.2l1,5A1,1,0,0,0,28,38a.979.979,0,0,0,.2-.02A1,1,0,0,0,28.98,36.8l-1-5A.993.993,0,0,0,26.8,31.02Z" fill="#080808"/>
      <path d="M36,26H31a1,1,0,0,0,0,2h5a1,1,0,0,0,0-2Z" fill="#080808"/>
      <path d="M31.707,30.293a1,1,0,0,0-1.414,1.414l3,3a1,1,0,0,0,1.414-1.414Z" fill="#080808"/>
      <path d="M43.8,5.615,42.385,4.2a6.005,6.005,0,0,0-8.485,0L24,14.1a1,1,0,0,0,1.414,1.414l9.9-9.9a4.007,4.007,0,0,1,5.657,0l1.414,1.414a4.005,4.005,0,0,1,0,5.657l-9.9,9.9A1,1,0,1,0,33.9,24l9.9-9.9A6.006,6.006,0,0,0,43.8,5.615Z" fill="#080808"/>
      <path d="M22.586,32.485l-9.9,9.9a4.007,4.007,0,0,1-5.657,0L5.615,40.971a4.005,4.005,0,0,1,0-5.657l9.9-9.9A1,1,0,0,0,14.1,24L4.2,33.9a6.006,6.006,0,0,0,0,8.485L5.615,43.8a6.006,6.006,0,0,0,8.485,0L24,33.9a1,1,0,0,0-1.414-1.414Z" fill="#080808"/>
    </g>
  </g>
</svg>
