<svg xmlns="http://www.w3.org/2000/svg" viewBox="0 0 48 48">
  <title>link</title>
  <g id="link">
    <path d="M43.8,5.615,42.385,4.2a6.005,6.005,0,0,0-8.485,0L24,14.1a6.008,6.008,0,0,0,0,8.485L22.586,24A6.006,6.006,0,0,0,14.1,24L4.2,33.9a6.006,6.006,0,0,0,0,8.485L5.615,43.8a6.006,6.006,0,0,0,8.485,0L24,33.9a6.008,6.008,0,0,0,0-8.485L25.414,24A6.008,6.008,0,0,0,33.9,24l9.9-9.9A6.006,6.006,0,0,0,43.8,5.615ZM22.586,32.485l-9.9,9.9a4.007,4.007,0,0,1-5.657,0L5.615,40.971a4.005,4.005,0,0,1,0-5.657l9.9-9.9a4.007,4.007,0,0,1,5.657,0L17.636,28.95a1,1,0,1,0,1.414,1.414l3.536-3.536A4.005,4.005,0,0,1,22.586,32.485Zm19.8-19.8-9.9,9.9a4.007,4.007,0,0,1-5.657,0l3.536-3.536a1,1,0,0,0-1.414-1.414l-3.536,3.536a4.005,4.005,0,0,1,0-5.657l9.9-9.9a4.007,4.007,0,0,1,5.657,0l1.414,1.414A4.005,4.005,0,0,1,42.385,12.687Z" fill="#080808"/>
  </g>
</svg>
