<svg xmlns="http://www.w3.org/2000/svg" viewBox="0 0 48 48">
  <title>locker-no</title>
  <g id="locker-no">
    <g>
      <path d="M46,8a.99.99,0,0,0-.072-.356,2.981,2.981,0,0,0-1.471-2.089L36.938,1.378A3.009,3.009,0,0,0,35.482,1H12.518a3.013,3.013,0,0,0-1.457.378L3.543,5.555A2.98,2.98,0,0,0,2.072,7.643.989.989,0,0,0,2,8c0,.025.012.046.014.071S2,8.141,2,8.177V42a3,3,0,0,0,3,3H7v1a1,1,0,0,0,2,0V45H38v1a1,1,0,0,0,2,0V45h3a3,3,0,0,0,3-3V8.177c0-.036-.013-.07-.014-.106S46,8.025,46,8ZM12.032,3.126A1.01,1.01,0,0,1,12.518,3H35.482a1.007,1.007,0,0,1,.485.126L42.941,7H5.06ZM44,42a1,1,0,0,1-1,1H5a1,1,0,0,1-1-1V9H44Z"/>
      <path d="M36,16a1,1,0,0,0,1-1V13a1,1,0,0,0-2,0v2A1,1,0,0,0,36,16Z"/>
      <path d="M40,16a1,1,0,0,0,1-1V13a1,1,0,0,0-2,0v2A1,1,0,0,0,40,16Z"/>
      <path d="M7,34H41a1,1,0,0,0,1-1V20a1,1,0,0,0-1-1H7a1,1,0,0,0-1,1V33A1,1,0,0,0,7,34ZM8,21H40V32H8Z"/>
      <path d="M15,23H12a1,1,0,0,0-1,1v5a1,1,0,0,0,1,1h3a1,1,0,0,0,1-1V24A1,1,0,0,0,15,23Zm-1,5H13V25h1Z"/>
      <path d="M22,23H19a1,1,0,0,0-1,1v5a1,1,0,0,0,1,1h3a1,1,0,0,0,1-1V24A1,1,0,0,0,22,23Zm-1,5H20V25h1Z"/>
      <path d="M29,23H26a1,1,0,0,0-1,1v5a1,1,0,0,0,1,1h3a1,1,0,0,0,1-1V24A1,1,0,0,0,29,23Zm-1,5H27V25h1Z"/>
      <path d="M36,23H33a1,1,0,0,0-1,1v5a1,1,0,0,0,1,1h3a1,1,0,0,0,1-1V24A1,1,0,0,0,36,23Zm-1,5H34V25h1Z"/>
    </g>
  </g>
</svg>
