<svg xmlns="http://www.w3.org/2000/svg" viewBox="0 0 48 48">
  <title>mail-open</title>
  <g id="mail-open">
    <g>
      <path d="M46,21.286a4.02,4.02,0,0,0-1.242-2.9L41,14.81V9a3,3,0,0,0-3-3H31.683l.032-.033L26.758,1.246a4,4,0,0,0-5.517,0l-4.955,4.72L16.319,6H10A3,3,0,0,0,7,9v5.81L3.242,18.389A4.02,4.02,0,0,0,2,21.286V44a2.966,2.966,0,0,0,.3,1.285l-.008.008.026.026a3,3,0,0,0,1.362,1.362l.026.026.008-.008A2.966,2.966,0,0,0,5,47H43a2.99,2.99,0,0,0,2.628-1.583l.1-.1-.033-.035A2.966,2.966,0,0,0,46,44Zm-2.621-1.448A2.007,2.007,0,0,1,44,21.286v1.271l-3,2.727V17.571ZM22.621,2.7a2,2,0,0,1,2.759,0L28.85,6h-9.7ZM10,8H38a1,1,0,0,1,1,1V27h.113l-5.635,5.122-.153-.164a3.011,3.011,0,0,0-2.2-.958h-13.3a2.969,2.969,0,0,0-1.891.69L9,26.353V9A1,1,0,0,1,10,8ZM4.621,19.838,7,17.571v7.243L4,22.507V21.286A2.007,2.007,0,0,1,4.621,19.838ZM4,25.031,14.487,33.1,4,43.586Zm13.121,8.262A1,1,0,0,1,17.829,33h13.3a1,1,0,0,1,.732.319L42.706,45H5.414Zm17.719.3L44,25.261V43.453Z"/>
      <path d="M14,15h6a1,1,0,0,0,0-2H14a1,1,0,0,0,0,2Z"/>
      <path d="M14,19H34a1,1,0,0,0,0-2H14a1,1,0,0,0,0,2Z"/>
      <path d="M14,23H34a1,1,0,0,0,0-2H14a1,1,0,0,0,0,2Z"/>
    </g>
  </g>
</svg>
