<svg xmlns="http://www.w3.org/2000/svg" viewBox="0 0 48 48">
  <title>open_1</title>
  <g id="open">
    <path d="M46,21.286a4.02,4.02,0,0,0-1.242-2.9l-18-17.143a4,4,0,0,0-5.517,0l-18,17.143A4.02,4.02,0,0,0,2,21.286V44a2.966,2.966,0,0,0,.3,1.285l-.008.008.026.026a3,3,0,0,0,1.362,1.362l.026.026.008-.008A2.966,2.966,0,0,0,5,47H43a2.99,2.99,0,0,0,2.628-1.583l.1-.1-.033-.035A2.966,2.966,0,0,0,46,44ZM4.621,19.838l18-17.143a2,2,0,0,1,2.759,0l18,17.143A2.007,2.007,0,0,1,44,21.286v1.271L33.478,32.122l-.153-.164a3.011,3.011,0,0,0-2.2-.958h-13.3a2.969,2.969,0,0,0-1.891.69L4,22.507V21.286A2.007,2.007,0,0,1,4.621,19.838ZM4,25.031,14.487,33.1,4,43.586Zm13.121,8.262A1,1,0,0,1,17.829,33h13.3a1,1,0,0,1,.732.319L42.706,45H5.414Zm17.719.3L44,25.261V43.453Z"/>
  </g>
</svg>
