<svg xmlns="http://www.w3.org/2000/svg" viewBox="0 0 48 48">
  <title>open</title>
  <g id="mails">
    <path d="M44.387,10.356l-.077-.081-.026.025A2.965,2.965,0,0,0,43,10V9a3,3,0,0,0-2-2.816V5a3,3,0,0,0-3-3H10A3,3,0,0,0,7,5V6.184A3,3,0,0,0,5,9v1a2.965,2.965,0,0,0-1.285.3l-.026-.025-.077.081A2.991,2.991,0,0,0,2,13V42a2.99,2.99,0,0,0,1.536,2.6l.129.145.052-.047A2.965,2.965,0,0,0,5,45H43a2.966,2.966,0,0,0,1.283-.3l.052.047.129-.145A2.99,2.99,0,0,0,46,42V13A2.991,2.991,0,0,0,44.387,10.356ZM28.554,28.044,44,13.334v28.44ZM10,4H38a1,1,0,0,1,1,1V6H9V5A1,1,0,0,1,10,4ZM7,9A1,1,0,0,1,8,8H40a1,1,0,0,1,1,1v1H7Zm35.5,3L25.379,28.3a2,2,0,0,1-2.759,0L5.5,12ZM4,41.773V13.334l15.446,14.71ZM5.63,43,20.9,29.428l.343.326a4,4,0,0,0,5.517,0l.343-.326L42.37,43Z"/>
  </g>
</svg>
