<svg xmlns="http://www.w3.org/2000/svg" viewBox="0 0 48 48">
  <title>network-desktop</title>
  <g id="network-desktop">
    <g>
      <path d="M43,38H41V36a3,3,0,0,0-3-3H25V29H41a3,3,0,0,0,3-3V5a3,3,0,0,0-3-3H7A3,3,0,0,0,4,5V26a3,3,0,0,0,3,3H23v4H10a3,3,0,0,0-3,3v2H5a3,3,0,0,0-3,3v5a3,3,0,0,0,3,3h6a3,3,0,0,0,3-3V41a3,3,0,0,0-3-3H9V36a1,1,0,0,1,1-1H23v3H21a3,3,0,0,0-3,3v5a3,3,0,0,0,3,3h6a3,3,0,0,0,3-3V41a3,3,0,0,0-3-3H25V35H38a1,1,0,0,1,1,1v2H37a3,3,0,0,0-3,3v5a3,3,0,0,0,3,3h6a3,3,0,0,0,3-3V41A3,3,0,0,0,43,38ZM6,26V5A1,1,0,0,1,7,4H41a1,1,0,0,1,1,1V26a1,1,0,0,1-1,1H7A1,1,0,0,1,6,26Zm6,15v5a1,1,0,0,1-1,1H5a1,1,0,0,1-1-1V41a1,1,0,0,1,1-1h6A1,1,0,0,1,12,41Zm16,0v5a1,1,0,0,1-1,1H21a1,1,0,0,1-1-1V41a1,1,0,0,1,1-1h6A1,1,0,0,1,28,41Zm16,5a1,1,0,0,1-1,1H37a1,1,0,0,1-1-1V41a1,1,0,0,1,1-1h6a1,1,0,0,1,1,1Z" fill="#383838"/>
      <path d="M39,6H9A1,1,0,0,0,8,7V24a1,1,0,0,0,1,1H39a1,1,0,0,0,1-1V7A1,1,0,0,0,39,6ZM38,23H10V8H38Z" fill="#383838"/>
    </g>
  </g>
</svg>
