<svg xmlns="http://www.w3.org/2000/svg" viewBox="0 0 48 48">
  <title>network-2</title>
  <g id="network-3">
    <path d="M43,33H41V28a5.006,5.006,0,0,0-5-5H25V17h3a3,3,0,0,0,3-3V8a3,3,0,0,0-3-3H20a3,3,0,0,0-3,3v6a3,3,0,0,0,3,3h3v6H12a5.006,5.006,0,0,0-5,5v5H5a3,3,0,0,0-3,3v5a3,3,0,0,0,3,3h6a3,3,0,0,0,3-3V36a3,3,0,0,0-3-3H9V28a3,3,0,0,1,3-3H23v8H21a3,3,0,0,0-3,3v5a3,3,0,0,0,3,3h6a3,3,0,0,0,3-3V36a3,3,0,0,0-3-3H25V25H36a3,3,0,0,1,3,3v5H37a3,3,0,0,0-3,3v5a3,3,0,0,0,3,3h6a3,3,0,0,0,3-3V36A3,3,0,0,0,43,33ZM11,35a1,1,0,0,1,1,1v5a1,1,0,0,1-1,1H5a1,1,0,0,1-1-1V36a1,1,0,0,1,1-1Zm16,0a1,1,0,0,1,1,1v5a1,1,0,0,1-1,1H21a1,1,0,0,1-1-1V36a1,1,0,0,1,1-1ZM20,15a1,1,0,0,1-1-1V8a1,1,0,0,1,1-1h8a1,1,0,0,1,1,1v6a1,1,0,0,1-1,1ZM44,41a1,1,0,0,1-1,1H37a1,1,0,0,1-1-1V36a1,1,0,0,1,1-1h6a1,1,0,0,1,1,1Z" fill="#080808"/>
  </g>
</svg>
