<svg xmlns="http://www.w3.org/2000/svg" viewBox="0 0 48 48">
  <title>close-page_1</title>
  <g id="close-page">
    <g>
      <path d="M43.925,11.627a.971.971,0,0,0-.079-.129.983.983,0,0,0-.1-.167l-9-10c-.006-.006-.014-.008-.02-.015a.992.992,0,0,0-.242-.176.989.989,0,0,0-.083-.056A.992.992,0,0,0,34,1H8A4,4,0,0,0,4,5V43a4,4,0,0,0,4,4H40a4,4,0,0,0,4-4V12A1,1,0,0,0,43.925,11.627ZM35,4.606,40.755,11H37a2,2,0,0,1-2-2ZM40,45H8a2,2,0,0,1-2-2V5A2,2,0,0,1,8,3H33V9a4,4,0,0,0,4,4h5V43A2,2,0,0,1,40,45Z"/>
      <path d="M13.707,5.293a1,1,0,0,0-1.414,0L11,6.586,9.707,5.293A1,1,0,0,0,8.293,6.707L9.586,8,8.293,9.293a1,1,0,1,0,1.414,1.414L11,9.414l1.293,1.293a1,1,0,0,0,1.414-1.414L12.414,8l1.293-1.293A1,1,0,0,0,13.707,5.293Z"/>
    </g>
  </g>
</svg>
