<svg xmlns="http://www.w3.org/2000/svg" viewBox="0 0 48 48">
  <title>send</title>
  <g id="send">
    <path d="M45.8,1.253a.991.991,0,0,0-.623-.172l-.063,0a.987.987,0,0,0-.308.082c-.016.007-.032.012-.048.02L1.629,22.517a1,1,0,0,0,.035,1.81l17.327,7.752-.117,14.914a1,1,0,0,0,.726.97,1.022,1.022,0,0,0,.274.038,1,1,0,0,0,.854-.479L27.757,36l12.669,5.668a1.009,1.009,0,0,0,.408.087,1,1,0,0,0,.994-.887L46.222,2.185A1,1,0,0,0,45.8,1.253ZM41.168,5.195,19.461,30.1,4.42,23.368ZM20.9,43.395l.082-10.425,4.933,2.207Zm19.092-4.111L21.369,30.951l22.5-25.816Z"/>
  </g>
</svg>
