<svg xmlns="http://www.w3.org/2000/svg" viewBox="0 0 48 48">
  <title>scale</title>
  <g id="scale">
    <path d="M46.042,7.858,38.971.787a1,1,0,0,0-1.414,0L.787,37.557a1,1,0,0,0,0,1.414l7.071,7.071a5,5,0,0,0,7.07,0L46.042,14.929A5.006,5.006,0,0,0,46.042,7.858Zm-1.414,5.657L13.515,44.627a3.073,3.073,0,0,1-4.242,0L2.908,38.264l2.828-2.828,2.122,2.121,1.414-1.414L7.151,34.021l1.415-1.415L12.1,36.142l1.414-1.414L9.979,31.192l1.414-1.414L13.515,31.9l1.414-1.414-2.121-2.121,1.414-1.414,3.536,3.535,1.414-1.414-3.536-3.535,1.414-1.414,2.122,2.121,1.414-1.414-2.122-2.121,1.414-1.414,3.535,3.535,1.414-1.414-3.535-3.535,1.414-1.414,2.121,2.121,1.414-1.414-2.121-2.121,1.414-1.414,3.536,3.535,1.414-1.414L26.95,14.222l1.414-1.414,2.121,2.121L31.9,13.515l-2.121-2.121,1.414-1.414,3.535,3.535L36.142,12.1,32.607,8.565l1.414-1.414,2.122,2.121,1.414-1.414L35.435,5.737l2.829-2.829,6.364,6.364A3,3,0,0,1,44.628,13.515Z"/>
  </g>
</svg>
