<svg xmlns="http://www.w3.org/2000/svg" viewBox="0 0 48 48">
  <title>control-4</title>
  <g id="controal-4">
    <path d="M26,47H22a2,2,0,0,1-2-2V41.531a17.7,17.7,0,0,1-5.561-2.289l-2.46,2.436a2,2,0,0,1-2.829,0L6.322,38.849a2,2,0,0,1,0-2.828l2.449-2.449a17.774,17.774,0,0,1-2.3-5.553L3,28a2,2,0,0,1-2-2V22a2,2,0,0,1,2-2H6.469a17.75,17.75,0,0,1,2.289-5.56L6.322,11.979a2,2,0,0,1,0-2.828L9.15,6.322a2,2,0,0,1,2.829,0l2.449,2.45a17.713,17.713,0,0,1,5.554-2.305L20,3a2,2,0,0,1,2-2h4a2,2,0,0,1,2,2V6.469a17.7,17.7,0,0,1,5.561,2.289l2.46-2.436a2,2,0,0,1,2.829,0l2.828,2.829a2,2,0,0,1,0,2.828l-2.449,2.449a17.774,17.774,0,0,1,2.3,5.553L45,20a2,2,0,0,1,2,2v4a2,2,0,0,1-2,2H41.531a17.75,17.75,0,0,1-2.289,5.56l2.436,2.461a2,2,0,0,1,0,2.828L38.85,41.678a2,2,0,0,1-2.829,0l-2.449-2.45a17.713,17.713,0,0,1-5.554,2.305L28,45A2,2,0,0,1,26,47ZM14.417,37.232a2.04,2.04,0,0,1,1.087.316,15.854,15.854,0,0,0,4.922,2.035A2,2,0,0,1,22,41.531V45h4V41.531a2,2,0,0,1,1.574-1.948A15.854,15.854,0,0,0,32.5,37.548a2,2,0,0,1,2.49.266l2.448,2.449,2.829-2.829-2.449-2.449a2,2,0,0,1-.266-2.49,15.892,15.892,0,0,0,2.035-4.922A2,2,0,0,1,41.531,26H45V22H41.531a2,2,0,0,1-1.948-1.575A15.881,15.881,0,0,0,37.549,15.5a2,2,0,0,1,.266-2.49l2.449-2.449L37.436,7.736l-2.45,2.45a2,2,0,0,1-2.489.266,15.854,15.854,0,0,0-4.922-2.035A2,2,0,0,1,26,6.469V3H22V6.469a2,2,0,0,1-1.574,1.948A15.854,15.854,0,0,0,15.5,10.452a2,2,0,0,1-2.49-.266L10.565,7.736,7.736,10.565l2.449,2.449a2,2,0,0,1,.266,2.49,15.892,15.892,0,0,0-2.035,4.922A2,2,0,0,1,6.469,22H3v4H6.469a2,2,0,0,1,1.948,1.575A15.881,15.881,0,0,0,10.451,32.5a2,2,0,0,1-.266,2.49L7.736,37.435l2.828,2.829,2.45-2.45A1.975,1.975,0,0,1,14.417,37.232Z"/>
    <path d="M24,33a9,9,0,1,1,9-9A9.01,9.01,0,0,1,24,33Zm0-16a7,7,0,1,0,7,7A7.008,7.008,0,0,0,24,17Z"/>
  </g>
</svg>
