<?xml version="1.0" encoding="utf-8"?>
<!-- Generator: Adobe Illustrator 18.0.0, SVG Export Plug-In . SVG Version: 6.00 Build 0)  -->
<!DOCTYPE svg PUBLIC "-//W3C//DTD SVG 1.1//EN" "http://www.w3.org/Graphics/SVG/1.1/DTD/svg11.dtd">
<svg version="1.1" xmlns="http://www.w3.org/2000/svg" xmlns:xlink="http://www.w3.org/1999/xlink" x="0px" y="0px"
	 viewBox="0 0 48 48" enable-background="new 0 0 48 48" xml:space="preserve">
<g id="Layer_1">
</g>
<g id="right-rotate">
</g>
<g id="left-rotate">
</g>
<g id="share-down">
</g>
<g id="share-top">
</g>
<g id="share-both">
</g>
<g id="share-top-right">
</g>
<g id="share-top-left">
</g>
<g id="share-right-down">
</g>
<g id="share-left-down">
</g>
<g id="recycle-arw">
</g>
<g id="verticle-hidden-arw">
</g>
<g id="horizontal-arw">
</g>
<g id="verticle-arw">
</g>
<g id="connection-arw-r">
</g>
<g id="connection-arw-l">
</g>
<g id="connection-arw">
</g>
<g id="hook-left-arw">
</g>
<g id="clock-arw">
</g>
<g id="anti-clock-arw">
</g>
<g id="infinity">
</g>
<g id="sing-sang-arw">
</g>
<g id="anti-reload">
</g>
<g id="reload">
</g>
<g id="double-arrow">
</g>
<g id="single-circle-arw">
</g>
<g id="circle-arw">
</g>
<g id="two-side-bend-arw">
</g>
<g id="left-blend-arw">
</g>
<g id="right-blend-arw">
</g>
<g id="round-extand">
</g>
<g id="round-close-arrow">
</g>
<g id="pluse-arrow">
</g>
<g id="crose-arrow">
</g>
<g id="corn-arrow">
</g>
<g id="side-arrow">
</g>
<g id="close-arrow-four">
</g>
<g id="stretch-arrow">
</g>
<g id="_x33__x2F_1-arrow">
</g>
<g id="_x32__x2F_1-arrow">
</g>
<g id="left-crose-rd">
</g>
<g id="left-crose-arrow">
</g>
<g id="left-top_arrows">
</g>
<g id="close-arrows">
</g>
<g id="extand-arrow">
</g>
<g id="parallel-arrows">
</g>
<g id="two-side_arrows">
</g>
<g id="right-arrows">
</g>
<g id="down-arrow-3">
</g>
<g id="top-arrow-3">
</g>
<g id="right-arrow-3">
</g>
<g id="left-arrow-3">
</g>
<g id="left-arrow-2">
</g>
<g id="right-arrow-2">
</g>
<g id="down-arrow-2">
</g>
<g id="top-arrow-2">
</g>
<g id="down-arrow-1">
</g>
<g id="top-arrow-1">
</g>
<g id="rightarrow-1">
</g>
<g id="left-arrow-1">
</g>
<g id="down-play">
</g>
<g id="top-play">
</g>
<g id="right-play">
</g>
<g id="left-play">
</g>
<g id="down-arrow">
</g>
<g id="top-arrow">
</g>
<g id="right-arrow">
</g>
<g id="left-arrow">
</g>
<g id="channel">
</g>
<g id="stop_1_">
</g>
<g id="music-control">
</g>
<g id="adjust-lavel">
</g>
<g id="adjustsound">
</g>
<g id="graph-point">
</g>
<g id="symbol">
</g>
<g id="visual-graph">
</g>
<g id="visual">
</g>
<g id="adjust">
</g>
<g id="controal-4">
	<path fill="none" stroke="#000000" stroke-width="2" stroke-linecap="round" stroke-linejoin="round" stroke-miterlimit="10" d="
		M46,26v-4c0-0.5522842-0.4477158-1-1-1h-3.469059c-0.4728317,0-0.8677979-0.3349857-0.9728279-0.7960072
		c-0.4288368-1.8823204-1.1665688-3.6451321-2.1628799-5.2319307c-0.2515259-0.4005995-0.2084961-0.9161854,0.1259766-1.250659
		l2.4493561-2.4493551c0.3905258-0.3905239,0.3905258-1.0236893,0-1.4142132l-2.8283997-2.8284016
		c-0.3905258-0.3905239-1.0236893-0.3905239-1.4142151,0L34.278595,9.4787884
		c-0.3344727,0.3344736-0.8500595,0.3775034-1.2506561,0.1259766c-1.5867996-0.9963102-3.3496113-1.7340393-5.2319317-2.1628766
		C27.3349857,7.3368568,27,6.9418926,27,6.469059V3c0-0.5522847-0.4477158-1-1-1h-4c-0.5522842,0-1,0.4477153-1,1v3.469059
		c0,0.4728336-0.3349857,0.8677979-0.7960072,0.9728293c-1.8823204,0.4288373-3.6451321,1.1665664-5.2319307,2.1628766
		c-0.4005995,0.2515268-0.9161854,0.208497-1.250659-0.1259766L11.272048,7.0294333
		c-0.3905239-0.3905239-1.0236893-0.3905239-1.4142132,0L7.0294333,9.8578348c-0.3905239,0.3905239-0.3905239,1.0236893,0,1.4142132
		l2.4493551,2.4493551c0.3344736,0.3344736,0.3775034,0.8500595,0.1259766,1.250659
		c-0.9963102,1.5867987-1.7340393,3.3496103-2.1628766,5.2319307C7.3368568,20.6650143,6.9418926,21,6.469059,21H3
		c-0.5522847,0-1,0.4477158-1,1v4c0,0.5522842,0.4477153,1,1,1h3.4690418c0.4728413,0,0.8678083,0.3349972,0.9728332,0.7960262
		c0.4288001,1.8823147,1.1665235,3.6451187,2.1628289,5.2319126c0.2515268,0.4006004,0.208497,0.9161835-0.1259766,1.2506561
		l-2.4492989,2.4493027c-0.3905225,0.390522-0.3905249,1.0236816-0.0000052,1.4142075l2.8284116,2.8284531
		c0.390523,0.3905258,1.0236921,0.3905296,1.4142189,0.0000038l2.4493494-2.4493523
		c0.3344736-0.3344727,0.8500595-0.3775024,1.250659-0.1259766c1.5867987,0.9963112,3.3496103,1.7340431,5.2319307,2.1628799
		C20.6650143,40.6631432,21,41.0581093,21,41.530941V45c0,0.5522842,0.4477158,1,1,1h4c0.5522842,0,1-0.4477158,1-1v-3.469059
		c0-0.4728317,0.3349857-0.8677979,0.7960072-0.9728279c1.8823204-0.4288368,3.6451321-1.1665688,5.2319317-2.1628799
		c0.4005966-0.2515259,0.9161835-0.2084961,1.2506561,0.1259766l2.4493523,2.4493523
		c0.3905258,0.3905258,1.0236931,0.390522,1.4142189-0.0000038l2.8284111-2.8284531
		c0.3905182-0.3905258,0.3905182-1.0236855-0.0000038-1.4142075l-2.4493027-2.4493027
		c-0.3344727-0.3344727-0.3775024-0.8500557-0.1259766-1.2506561c0.9963074-1.5867939,1.7340317-3.3495979,2.1628304-5.2319126
		C40.6631508,27.3349972,41.0581169,27,41.5309601,27H45C45.5522842,27,46,26.5522842,46,26z"/>
	
		<circle fill="none" stroke="#000000" stroke-width="2" stroke-linecap="round" stroke-linejoin="round" stroke-miterlimit="10" cx="24" cy="24" r="8"/>
</g>
<g id="control-3">
</g>
<g id="control-2">
</g>
<g id="control_1_">
</g>
<g id="control">
</g>
<g id="volume-increase">
</g>
<g id="volume">
</g>
<g id="volume-close">
</g>
<g id="volume-minus">
</g>
<g id="volume-pluse">
</g>
<g id="block">
</g>
<g id="sound">
</g>
<g id="play-backward">
</g>
<g id="backward">
</g>
<g id="play">
</g>
<g id="hold">
</g>
<g id="stop">
</g>
<g id="pause">
</g>
<g id="forward">
</g>
<g id="play-forward">
</g>
<g id="top-bottom-arrow">
</g>
<g id="hook-right-arw">
</g>
</svg>
