<?xml version="1.0" encoding="utf-8"?>
<!-- Generator: Adobe Illustrator 18.0.0, SVG Export Plug-In . SVG Version: 6.00 Build 0)  -->
<!DOCTYPE svg PUBLIC "-//W3C//DTD SVG 1.1//EN" "http://www.w3.org/Graphics/SVG/1.1/DTD/svg11.dtd">
<svg version="1.1" xmlns="http://www.w3.org/2000/svg" xmlns:xlink="http://www.w3.org/1999/xlink" x="0px" y="0px"
	 viewBox="0 0 48 48" enable-background="new 0 0 48 48" xml:space="preserve">
<g id="Layer_1">
</g>
<g id="right-rotate">
</g>
<g id="left-rotate">
</g>
<g id="share-down">
</g>
<g id="share-top">
</g>
<g id="share-both">
</g>
<g id="share-top-right">
</g>
<g id="share-top-left">
</g>
<g id="share-right-down">
</g>
<g id="share-left-down">
</g>
<g id="recycle-arw">
</g>
<g id="verticle-hidden-arw">
</g>
<g id="horizontal-arw">
</g>
<g id="verticle-arw">
</g>
<g id="connection-arw-r">
</g>
<g id="connection-arw-l">
</g>
<g id="connection-arw">
</g>
<g id="hook-left-arw">
</g>
<g id="clock-arw">
</g>
<g id="anti-clock-arw">
</g>
<g id="infinity">
</g>
<g id="sing-sang-arw">
</g>
<g id="anti-reload">
</g>
<g id="reload">
</g>
<g id="double-arrow">
</g>
<g id="single-circle-arw">
</g>
<g id="circle-arw">
</g>
<g id="two-side-bend-arw">
</g>
<g id="left-blend-arw">
</g>
<g id="right-blend-arw">
</g>
<g id="round-extand">
</g>
<g id="round-close-arrow">
</g>
<g id="pluse-arrow">
</g>
<g id="crose-arrow">
</g>
<g id="corn-arrow">
</g>
<g id="side-arrow">
</g>
<g id="close-arrow-four">
</g>
<g id="stretch-arrow">
</g>
<g id="_x33__x2F_1-arrow">
</g>
<g id="_x32__x2F_1-arrow">
</g>
<g id="left-crose-rd">
</g>
<g id="left-crose-arrow">
</g>
<g id="left-top_arrows">
</g>
<g id="close-arrows">
</g>
<g id="extand-arrow">
</g>
<g id="parallel-arrows">
</g>
<g id="two-side_arrows">
</g>
<g id="right-arrows">
</g>
<g id="down-arrow-3">
</g>
<g id="top-arrow-3">
</g>
<g id="right-arrow-3">
</g>
<g id="left-arrow-3">
</g>
<g id="left-arrow-2">
</g>
<g id="right-arrow-2">
</g>
<g id="down-arrow-2">
</g>
<g id="top-arrow-2">
</g>
<g id="down-arrow-1">
</g>
<g id="top-arrow-1">
</g>
<g id="rightarrow-1">
</g>
<g id="left-arrow-1">
</g>
<g id="down-play">
</g>
<g id="top-play">
</g>
<g id="right-play">
</g>
<g id="left-play">
</g>
<g id="down-arrow">
</g>
<g id="top-arrow">
</g>
<g id="right-arrow">
</g>
<g id="left-arrow">
</g>
<g id="channel">
</g>
<g id="stop_1_">
</g>
<g id="music-control">
</g>
<g id="adjust-lavel">
	<path fill="none" stroke="#000000" stroke-width="2" stroke-linecap="round" stroke-linejoin="round" stroke-miterlimit="10" d="
		M14,14h-2c-0.5522852,0-1-0.4477148-1-1V7c0-0.5522847,0.4477148-1,1-1h2c0.5522852,0,1,0.4477153,1,1v6
		C15,13.5522852,14.5522852,14,14,14z"/>
	
		<line fill="none" stroke="#000000" stroke-width="2" stroke-linecap="round" stroke-linejoin="round" stroke-miterlimit="10" x1="3" y1="10" x2="11" y2="10"/>
	
		<line fill="none" stroke="#000000" stroke-width="2" stroke-linecap="round" stroke-linejoin="round" stroke-miterlimit="10" x1="15" y1="10" x2="45" y2="10"/>
	<path fill="none" stroke="#000000" stroke-width="2" stroke-linecap="round" stroke-linejoin="round" stroke-miterlimit="10" d="
		M33,23h-2c-0.5522842,0-1-0.4477158-1-1v-6c0-0.5522852,0.4477158-1,1-1h2c0.5522842,0,1,0.4477148,1,1v6
		C34,22.5522842,33.5522842,23,33,23z"/>
	
		<line fill="none" stroke="#000000" stroke-width="2" stroke-linecap="round" stroke-linejoin="round" stroke-miterlimit="10" x1="3" y1="19" x2="30" y2="19"/>
	
		<line fill="none" stroke="#000000" stroke-width="2" stroke-linecap="round" stroke-linejoin="round" stroke-miterlimit="10" x1="34" y1="19" x2="45" y2="19"/>
	<path fill="none" stroke="#000000" stroke-width="2" stroke-linecap="round" stroke-linejoin="round" stroke-miterlimit="10" d="
		M34,33h2c0.5522842,0,1,0.4477158,1,1v6c0,0.5522842-0.4477158,1-1,1h-2c-0.5522842,0-1-0.4477158-1-1v-6
		C33,33.4477158,33.4477158,33,34,33z"/>
	
		<line fill="none" stroke="#000000" stroke-width="2" stroke-linecap="round" stroke-linejoin="round" stroke-miterlimit="10" x1="45" y1="37" x2="37" y2="37"/>
	
		<line fill="none" stroke="#000000" stroke-width="2" stroke-linecap="round" stroke-linejoin="round" stroke-miterlimit="10" x1="33" y1="37" x2="3" y2="37"/>
	<path fill="none" stroke="#000000" stroke-width="2" stroke-linecap="round" stroke-linejoin="round" stroke-miterlimit="10" d="
		M14,24h2c0.5522842,0,1,0.4477158,1,1v6c0,0.5522842-0.4477158,1-1,1h-2c-0.5522852,0-1-0.4477158-1-1v-6
		C13,24.4477158,13.4477148,24,14,24z"/>
	
		<line fill="none" stroke="#000000" stroke-width="2" stroke-linecap="round" stroke-linejoin="round" stroke-miterlimit="10" x1="45" y1="28" x2="17" y2="28"/>
	
		<line fill="none" stroke="#000000" stroke-width="2" stroke-linecap="round" stroke-linejoin="round" stroke-miterlimit="10" x1="13" y1="28" x2="3" y2="28"/>
</g>
<g id="adjustsound">
</g>
<g id="graph-point">
</g>
<g id="symbol">
</g>
<g id="visual-graph">
</g>
<g id="visual">
</g>
<g id="adjust">
</g>
<g id="controal-4">
</g>
<g id="control-3">
</g>
<g id="control-2">
</g>
<g id="control_1_">
</g>
<g id="control">
</g>
<g id="volume-increase">
</g>
<g id="volume">
</g>
<g id="volume-close">
</g>
<g id="volume-minus">
</g>
<g id="volume-pluse">
</g>
<g id="block">
</g>
<g id="sound">
</g>
<g id="play-backward">
</g>
<g id="backward">
</g>
<g id="play">
</g>
<g id="hold">
</g>
<g id="stop">
</g>
<g id="pause">
</g>
<g id="forward">
</g>
<g id="play-forward">
</g>
<g id="top-bottom-arrow">
</g>
<g id="hook-right-arw">
</g>
</svg>
