<svg xmlns="http://www.w3.org/2000/svg" viewBox="0 0 48 48">
  <title>socket</title>
  <g id="socket">
    <g>
      <path d="M40,4H8A4,4,0,0,0,4,8V40a4,4,0,0,0,4,4H40a4,4,0,0,0,4-4V8A4,4,0,0,0,40,4Zm2,36a2,2,0,0,1-2,2H8a2,2,0,0,1-2-2V8A2,2,0,0,1,8,6H40a2,2,0,0,1,2,2Z" fill="#080808"/>
      <path d="M32,15a1,1,0,0,0-1,1V28H27v3H21V28H17V16a1,1,0,0,0-2,0V30h4v3H29V30h4V16A1,1,0,0,0,32,15Z" fill="#080808"/>
      <path d="M21,25a1,1,0,0,0,1-1V18a1,1,0,0,0-2,0v6A1,1,0,0,0,21,25Z" fill="#080808"/>
      <path d="M27,25a1,1,0,0,0,1-1V18a1,1,0,0,0-2,0v6A1,1,0,0,0,27,25Z" fill="#080808"/>
    </g>
  </g>
</svg>
