<svg xmlns="http://www.w3.org/2000/svg" viewBox="0 0 48 48">
  <title>spects</title>
  <g id="spects">
    <path d="M46,23H44.365a8.99,8.99,0,0,0-17.111-2.093,4.463,4.463,0,0,0-6.506,0A8.99,8.99,0,0,0,3.635,23H2a1,1,0,0,0,0,2H3.525A8.994,8.994,0,0,0,21.5,24.5c0-.135-.014-.266-.02-.4a.942.942,0,0,0,.02-.1,2.5,2.5,0,0,1,5,0,.942.942,0,0,0,.02.1c-.006.133-.02.265-.02.4a8.994,8.994,0,0,0,17.975.5H46a1,1,0,0,0,0-2ZM12.5,31.5a7,7,0,1,1,7-7A7.008,7.008,0,0,1,12.5,31.5Zm23,0a7,7,0,1,1,7-7A7.008,7.008,0,0,1,35.5,31.5Z"/>
  </g>
</svg>
