<svg xmlns="http://www.w3.org/2000/svg" viewBox="0 0 48 48">
  <title>star</title>
  <g id="star">
    <path d="M44.706,17.385A1.969,1.969,0,0,0,42.8,16H29.9L25.9,3.711a2,2,0,0,0-3.8,0L18.1,16H5.2a2,2,0,0,0-1.171,3.621L14.46,27.162,10.473,39.394a2,2,0,0,0,3.076,2.238L24,34.044l10.45,7.6a1.972,1.972,0,0,0,2.352,0,1.969,1.969,0,0,0,.726-2.237L33.54,27.158l10.434-7.537A1.969,1.969,0,0,0,44.706,17.385ZM32.369,25.536a1.992,1.992,0,0,0-.731,2.241L35.626,40.03l-10.451-7.6a2,2,0,0,0-2.352,0l-10.45,7.588,3.987-12.23a2,2,0,0,0-.73-2.242L5.2,18H18.1a2,2,0,0,0,1.9-1.383L24,4.316l0,.012,3.993,12.289A2,2,0,0,0,29.9,18H42.8Z"/>
  </g>
</svg>
