<svg xmlns="http://www.w3.org/2000/svg" viewBox="0 0 48 48">
  <title>storager-setting</title>
  <g id="storager-setting">
    <g>
      <path d="M24,29.389a1,1,0,0,0,0-2c-9.767,0-16-2.484-16-4.194V18.18c3.153,2.112,9.6,3.209,16,3.209s12.847-1.1,16-3.209V23a1,1,0,0,0,2,0V7a1,1,0,0,0-.083-.4C41.081,2.925,32.5,1,24,1S6.919,2.925,6.083,6.6A.994.994,0,0,0,6,7V40a1,1,0,0,0,.631.925C8.8,43.859,16.43,45.389,24,45.389a1,1,0,1,0,0-2c-9.767,0-16-2.484-16-4.194V34.18c3.153,2.112,9.6,3.209,16,3.209a1,1,0,0,0,0-2c-9.767,0-16-2.484-16-4.194V26.18C11.153,28.292,17.6,29.389,24,29.389Zm0-10c-9.767,0-16-2.484-16-4.194V10.18c3.153,2.112,9.6,3.209,16,3.209s12.847-1.1,16-3.209v5.014C40,16.9,33.767,19.389,24,19.389ZM24,3c9.767,0,16,2.484,16,4.194s-6.233,4.194-16,4.194S8,8.9,8,7.194,14.233,3,24,3Z" fill="#080808"/>
      <path d="M44.176,37.616l-2.26-1.79,2.155-1.915a1,1,0,0,0,.193-1.263l-1.546-2.571a1,1,0,0,0-1.206-.422l-2.887,1.073-.356-2.853A1,1,0,0,0,37.277,27h-3a1,1,0,0,0-.992.876l-.388,3.1-3.2-.988a1,1,0,0,0-1.18.49l-1.4,2.654a1,1,0,0,0,.264,1.25l2.26,1.79-2.155,1.915a1,1,0,0,0-.193,1.263l1.546,2.571a1,1,0,0,0,1.206.422l2.887-1.073.356,2.853a1,1,0,0,0,.992.876h3a1,1,0,0,0,.992-.876l.388-3.1,3.2.988a1,1,0,0,0,1.18-.49l1.4-2.654A1,1,0,0,0,44.176,37.616Zm-2.518,2.238-2.41-.743a2,2,0,0,0-2.575,1.662L36.395,43H35.16l-.247-1.977A2,2,0,0,0,32.231,39.4l-2.108.784-.69-1.148,1.535-1.364a2,2,0,0,0-.088-3.062l-1.608-1.274.625-1.186,2.41.743a2,2,0,0,0,2.575-1.662L35.16,29h1.234l.247,1.977A2,2,0,0,0,39.323,32.6l2.108-.784.69,1.148-1.535,1.364a2,2,0,0,0,.088,3.063l1.608,1.274Z" fill="#080808"/>
    </g>
  </g>
</svg>
