<svg xmlns="http://www.w3.org/2000/svg" viewBox="0 0 48 48">
  <title>storager-upload</title>
  <g id="storager-upload">
    <g>
      <path d="M41.952,25.237A.963.963,0,0,0,42,25V7a1,1,0,0,0-.083-.4C41.081,2.925,32.5,1,24,1S6.919,2.925,6.083,6.6A.994.994,0,0,0,6,7V40a.987.987,0,0,0,.725.945C10.147,44.78,24.762,45,28,45a.973.973,0,0,0,.287-.058,11.99,11.99,0,0,0,13.665-19.7ZM35,23a11.983,11.983,0,0,0-9.763,5.048A.963.963,0,0,0,25,28c-9.821,0-17-3.16-17-4.806V18.18c3.153,2.112,9.6,3.209,16,3.209s12.847-1.1,16-3.209v5.925A11.91,11.91,0,0,0,35,23ZM23,35c0,.126.015.248.019.373C13.824,35.212,8,32.846,8,31.194V26.161c3.217,2.249,9.822,3.7,16.11,3.829A11.91,11.91,0,0,0,23,35ZM40,15.194c0,1.71-6.233,4.194-16,4.194S8,16.9,8,15.194V10.18c3.153,2.112,9.6,3.209,16,3.209s12.847-1.1,16-3.209ZM24,3c9.767,0,16,2.484,16,4.194s-6.233,4.194-16,4.194S8,8.9,8,7.194,14.233,3,24,3ZM8,39.194V34.18c3.028,2.028,9.088,3.115,15.238,3.2a11.958,11.958,0,0,0,2.823,5.6C13.34,42.762,8,40.458,8,39.194ZM35,45A10,10,0,1,1,45,35,10.012,10.012,0,0,1,35,45Z" fill="#080808"/>
      <path d="M35,30.272l-5.341,5.341a1,1,0,0,0,1.414,1.414L34,34.1V41a1,1,0,0,0,2,0V34.1l2.927,2.927a1,1,0,0,0,1.414-1.414Z" fill="#080808"/>
    </g>
  </g>
</svg>
