<svg xmlns="http://www.w3.org/2000/svg" viewBox="0 0 48 48">
  <title>storager-unloack</title>
  <g id="storager-unloack">
    <g>
      <path d="M24,29.389a1,1,0,0,0,0-2c-9.767,0-16-2.484-16-4.194V18.18c3.153,2.112,9.6,3.209,16,3.209s12.847-1.1,16-3.209V23a1,1,0,0,0,2,0V7a.994.994,0,0,0-.083-.4C41.081,2.925,32.5,1,24,1S6.919,2.925,6.083,6.6A.994.994,0,0,0,6,7V40a1,1,0,0,0,.631.925C8.8,43.859,16.43,45.389,24,45.389a1,1,0,1,0,0-2c-9.767,0-16-2.484-16-4.194V34.18c3.153,2.112,9.6,3.209,16,3.209a1,1,0,0,0,0-2c-9.767,0-16-2.484-16-4.194V26.18C11.153,28.292,17.6,29.389,24,29.389Zm0-10c-9.767,0-16-2.484-16-4.194V10.18c3.153,2.112,9.6,3.209,16,3.209s12.847-1.1,16-3.209v5.015C40,16.9,33.767,19.389,24,19.389ZM24,3c9.767,0,16,2.484,16,4.194s-6.233,4.194-16,4.194S8,8.9,8,7.194,14.233,3,24,3Z" fill="#080808"/>
      <path d="M43.442,35.114a6.535,6.535,0,0,0-1.791-5.766,6.5,6.5,0,0,0-9.192,0,1,1,0,0,0,1.414,1.414,4.5,4.5,0,0,1,6.364,0A4.521,4.521,0,0,1,41.421,35H31a1,1,0,0,0-1,1v6a3,3,0,0,0,3,3h8a3,3,0,0,0,3-3V36A.992.992,0,0,0,43.442,35.114ZM42,42a1,1,0,0,1-1,1H33a1,1,0,0,1-1-1V37H42Z" fill="#080808"/>
    </g>
  </g>
</svg>
