<svg xmlns="http://www.w3.org/2000/svg" viewBox="0 0 48 48">
  <title>storager-loack</title>
  <g id="storager-lock">
    <g>
      <path d="M24,29.389a1,1,0,0,0,0-2c-9.767,0-16-2.484-16-4.194V18.18c3.153,2.112,9.6,3.209,16,3.209s12.847-1.1,16-3.209V23a1,1,0,0,0,2,0V7a.994.994,0,0,0-.083-.4C41.081,2.925,32.5,1,24,1S6.919,2.925,6.083,6.6A.994.994,0,0,0,6,7V40a1,1,0,0,0,.631.925C8.8,43.859,16.43,45.389,24,45.389a1,1,0,1,0,0-2c-9.767,0-16-2.484-16-4.194V34.18c3.153,2.112,9.6,3.209,16,3.209a1,1,0,0,0,0-2c-9.767,0-16-2.484-16-4.194V26.18C11.153,28.292,17.6,29.389,24,29.389Zm0-10c-9.767,0-16-2.484-16-4.194V10.18c3.153,2.112,9.6,3.209,16,3.209s12.847-1.1,16-3.209v5.015C40,16.9,33.767,19.389,24,19.389ZM24,3c9.767,0,16,2.484,16,4.194s-6.233,4.194-16,4.194S8,8.9,8,7.194,14.233,3,24,3Z" fill="#080808"/>
      <path d="M43.428,35.1a.989.989,0,0,0,.072-.355,6.5,6.5,0,0,0-13,0,.989.989,0,0,0,.072.355A.994.994,0,0,0,30,36v6a3,3,0,0,0,3,3h8a3,3,0,0,0,3-3V36A.994.994,0,0,0,43.428,35.1ZM37,30.25a4.5,4.5,0,0,1,4.5,4.5.963.963,0,0,0,.05.25h-9.1a.963.963,0,0,0,.05-.25A4.5,4.5,0,0,1,37,30.25ZM42,42a1,1,0,0,1-1,1H33a1,1,0,0,1-1-1V37H42Z" fill="#080808"/>
    </g>
  </g>
</svg>
