<svg xmlns="http://www.w3.org/2000/svg" viewBox="0 0 48 48">
  <title>time</title>
  <g id="time">
    <g>
      <path d="M24,1.5A22.5,22.5,0,1,0,46.5,24,22.526,22.526,0,0,0,24,1.5Zm1,42.949V42a1,1,0,0,0-2,0v2.449A20.493,20.493,0,0,1,3.551,25H6a1,1,0,0,0,0-2H3.551A20.493,20.493,0,0,1,23,3.551V6a1,1,0,0,0,2,0V3.551A20.493,20.493,0,0,1,44.449,23H42a1,1,0,0,0,0,2h2.449A20.493,20.493,0,0,1,25,44.449Z"/>
      <path d="M26.55,22.612a2.8,2.8,0,1,0-3.9,3.965L32.4,33.8a1,1,0,0,0,1.4-1.4ZM23.87,25a.8.8,0,0,1,.5-1.423h.044a.779.779,0,0,1,.554.262l3.236,4.37Z"/>
    </g>
  </g>
</svg>
