<svg xmlns="http://www.w3.org/2000/svg" viewBox="0 0 48 48">
  <title>time-1</title>
  <g id="time-1">
    <g>
      <path d="M24,1.5A22.5,22.5,0,1,0,46.5,24,22.526,22.526,0,0,0,24,1.5ZM39.162,37.748l-1.727-1.728a1,1,0,0,0-1.414,1.414l1.727,1.728A20.388,20.388,0,0,1,25,44.449V42a1,1,0,0,0-2,0v2.449a20.388,20.388,0,0,1-12.748-5.287l1.727-1.728a1,1,0,0,0-1.414-1.414L8.838,37.748A20.388,20.388,0,0,1,3.551,25H6a1,1,0,0,0,0-2H3.551A20.388,20.388,0,0,1,8.838,10.252l1.727,1.728a1,1,0,0,0,1.414-1.414L10.252,8.838A20.388,20.388,0,0,1,23,3.551V6a1,1,0,0,0,2,0V3.551A20.388,20.388,0,0,1,37.748,8.838l-1.727,1.728a1,1,0,1,0,1.414,1.414l1.727-1.728A20.388,20.388,0,0,1,44.449,23H42a1,1,0,0,0,0,2h2.449A20.388,20.388,0,0,1,39.162,37.748Z"/>
      <path d="M26.7,25.285A2.966,2.966,0,0,0,27,24a1,1,0,0,0-.016-.179l-2-11a1,1,0,0,0-1.968,0l-2,11A1,1,0,0,0,21,24a3,3,0,0,0,3,3,2.966,2.966,0,0,0,1.285-.3l8.008,8.008a1,1,0,0,0,1.414-1.414ZM24,18.59l.888,4.884-.181-.181a.988.988,0,0,0-1.618.306Zm-.991,5.454a1.007,1.007,0,0,0,.036.187A.945.945,0,0,1,23,24.075Zm.22.567a.979.979,0,0,1-.137-.207A1,1,0,0,0,23.229,24.611Z"/>
    </g>
  </g>
</svg>
