<svg xmlns="http://www.w3.org/2000/svg" viewBox="0 0 48 48">
  <title>trash</title>
  <g id="trash">
    <g>
      <path d="M24,41a1,1,0,0,0,1-1V14a1,1,0,0,0-2,0V40A1,1,0,0,0,24,41Z"/>
      <path d="M18,41l.078,0A1,1,0,0,0,19,39.923l-2-26A1,1,0,0,0,15,14.077l2,26A1,1,0,0,0,18,41Z"/>
      <path d="M29.923,41,30,41a1,1,0,0,0,1-.923l2-26A1,1,0,0,0,31,13.923l-2,26A1,1,0,0,0,29.923,41Z"/>
      <path d="M42,7H33V5a3,3,0,0,0-3-3H18a3,3,0,0,0-3,3V7H6A1,1,0,0,0,6,9H7.1l3.623,34.419A3.991,3.991,0,0,0,14.7,47H33.3a3.991,3.991,0,0,0,3.978-3.581L40.9,9H42a1,1,0,0,0,0-2ZM17,5a1,1,0,0,1,1-1H30a1,1,0,0,1,1,1V7H17ZM35.288,43.21A2,2,0,0,1,33.3,45H14.7a2,2,0,0,1-1.989-1.79L9.111,9H38.889Z"/>
    </g>
  </g>
</svg>
