<svg xmlns="http://www.w3.org/2000/svg" viewBox="0 0 48 48">
  <title>male-2</title>
  <g id="male">
    <path d="M36.441,26.251a12.73,12.73,0,0,1-3.768-1.894,15.739,15.739,0,0,0,3.2-5.051l.071-.044a1.693,1.693,0,0,0,.67-.589c1.093-1.936,1.376-3.5.84-4.646a2.483,2.483,0,0,0-.915-1.047,15.87,15.87,0,0,0-.464-3.807c-.538-2-3.024-5.772-8.587-5.772S19.435,7.177,18.9,9.174a.962.962,0,0,0-.016.253A8.444,8.444,0,0,0,10.9,15.178a15.866,15.866,0,0,0-.463,3.8,2.472,2.472,0,0,0-.914,1.048c-.536,1.147-.254,2.71.84,4.646a1.69,1.69,0,0,0,.669.587l.072.045a15.737,15.737,0,0,0,3.2,5.052,12.708,12.708,0,0,1-3.77,1.893c-3.76,1.187-8.8,3.7-9.187,11.8a1,1,0,0,0,.789,1.025,90.106,90.106,0,0,0,17.356,1.554A90.094,90.094,0,0,0,36.84,45.072a1,1,0,0,0,.789-1.025,15.739,15.739,0,0,0-.7-4.088c2.5-.173,7.588-.841,7.835-.873a1,1,0,0,0,.868-1.039C45.244,29.949,40.2,27.437,36.441,26.251ZM27.483,5.4c5.384,0,6.607,4.122,6.654,4.288a14.434,14.434,0,0,1,.387,3.876,1,1,0,0,0,.818,1.037.544.544,0,0,1,.294.272c.085.18.276.892-.671,2.638l-.082.05c-.379.236-.707.439-.829.865-.347,1.207-2.474,5.326-5.434,6.223,1.083-1.925,1.363-3.481.828-4.624a2.483,2.483,0,0,0-.915-1.047,15.87,15.87,0,0,0-.464-3.807A8.347,8.347,0,0,0,20.894,9.5C21.2,8.647,22.7,5.4,27.483,5.4ZM12.913,24.429c-.122-.427-.45-.631-.83-.867L12,23.512c-.931-1.713-.758-2.433-.68-2.616a.533.533,0,0,1,.3-.293,1,1,0,0,0,.817-1.038,14.461,14.461,0,0,1,.384-3.865c.05-.176,1.273-4.3,6.657-4.3s6.607,4.122,6.654,4.288a14.434,14.434,0,0,1,.387,3.876,1,1,0,0,0,.818,1.037.544.544,0,0,1,.294.272c.085.18.276.892-.671,2.638l-.082.05c-.379.236-.707.439-.829.865-.391,1.356-3.027,6.405-6.571,6.405S13.3,25.784,12.913,24.429Zm6.57,20.2A94.051,94.051,0,0,1,3.4,43.28c.592-6.054,4.218-8.015,7.729-9.123a14.353,14.353,0,0,0,4.742-2.491,6.183,6.183,0,0,0,7.229,0,14.363,14.363,0,0,0,4.742,2.492c3.512,1.107,7.138,3.068,7.729,9.122A94.066,94.066,0,0,1,19.483,44.626ZM36.1,38c-1.865-3.478-5.067-4.929-7.661-5.747a12.73,12.73,0,0,1-3.768-1.894,15.306,15.306,0,0,0,2.529-3.58.973.973,0,0,0,.281.057A6.46,6.46,0,0,0,31.1,25.666a14.363,14.363,0,0,0,4.742,2.492c3.5,1.1,7.115,3.057,7.724,9.066C41.11,37.537,37.377,37.976,36.1,38Z"/>
  </g>
</svg>
