<?xml version="1.0" encoding="utf-8"?>
<!-- Generator: Adobe Illustrator 18.0.0, SVG Export Plug-In . SVG Version: 6.00 Build 0)  -->
<!DOCTYPE svg PUBLIC "-//W3C//DTD SVG 1.1//EN" "http://www.w3.org/Graphics/SVG/1.1/DTD/svg11.dtd">
<svg version="1.1" xmlns="http://www.w3.org/2000/svg" xmlns:xlink="http://www.w3.org/1999/xlink" x="0px" y="0px"
	 viewBox="0 0 48 48" enable-background="new 0 0 48 48" xml:space="preserve">
<g id="Layer_1">
	<g display="none">
	</g>
</g>
<g id="horizotal-bar">
</g>
<g id="verticle-bar">
</g>
<g id="hike">
</g>
<g id="node">
</g>
<g id="wave">
</g>
<g id="block">
</g>
<g id="piller">
</g>
<g id="graph_1_">
</g>
<g id="chart">
</g>
<g id="white-board">
</g>
<g id="statistics">
</g>
<g id="paraboal-s">
</g>
<g id="parabola">
</g>
<g id="graph-smooth">
</g>
<g id="graph-up">
</g>
<g id="graph-y">
</g>
<g id="graph-2">
</g>
<g id="graph">
</g>
<g id="part">
</g>
<g id="fill">
</g>
<g id="cross-2">
</g>
<g id="cross">
</g>
<g id="chart-7">
</g>
<g id="chart-6">
</g>
<g id="chart-4">
</g>
<g id="round-chart2">
</g>
<g id="round-chart">
</g>
<g id="community-3">
</g>
<g id="community_1_">
</g>
<g id="old-hairstylr">
</g>
<g id="girl-hair">
</g>
<g id="small-hair">
</g>
<g id="round-hair">
</g>
<g id="girl-2">
</g>
<g id="boy">
</g>
<g id="girl">
</g>
<g id="men">
</g>
<g id="women">
</g>
<g id="male_1_">
</g>
<g id="male-female">
</g>
<g id="group-m">
</g>
<g id="group-f">
</g>
<g id="male-1">
</g>
<g id="male">
</g>
<g id="read-f">
</g>
<g id="read-m">
</g>
<g id="message-f">
</g>
<g id="message-m">
	<g>
		<path fill="none" stroke="#000000" stroke-width="2" stroke-linecap="round" stroke-linejoin="round" stroke-miterlimit="10" d="
			M17.6666679,34.3017845c3.7403526,0,6.2259293-4.9755058,6.5886765-6.2357769
			c0.0265274-0.0915756,0.5861568-0.3758106,0.6329823-0.4586105c2.0246887-3.5829945-0.1884403-3.9902229-0.1884403-3.9902229
			s0.1036987-1.888031-0.3660297-3.6618423c0,0-1.1860485-4.4024105-6.6671886-4.4024105s-6.6671877,4.4024105-6.6671877,4.4024105
			c-0.4697294,1.7738113-0.3660297,3.6618423-0.3660297,3.6618423s-2.213129,0.4072285-0.1884413,3.9902229
			c0.0468254,0.0827999,0.6064548,0.3670349,0.6329823,0.4586105
			C11.4407396,29.3262787,13.9263144,34.3017845,17.6666679,34.3017845z"/>
		<path fill="none" stroke="#000000" stroke-width="2" stroke-linecap="round" stroke-linejoin="round" stroke-miterlimit="10" d="
			M2.6666679,45.0282593c0.2868621-6.0290451,3.5810528-8.3135185,7.4263783-9.5270309
			c2.7139425-0.8566589,4.1397448-2.2690659,4.1397448-2.2690659"/>
		<path fill="none" stroke="#000000" stroke-width="2" stroke-linecap="round" stroke-linejoin="round" stroke-miterlimit="10" d="
			M21.100544,33.2321625c0,0,1.4258041,1.4124069,4.1397457,2.2690659c3.8453255,1.2135124,7.1395283,3.4979858,7.4263783,9.5270309
			"/>
	</g>
	<path fill="none" stroke="#000000" stroke-width="2" stroke-linecap="round" stroke-linejoin="round" stroke-miterlimit="10" d="
		M46.5,11c0,4.1383686-3.4425774,7.5960026-8.03545,8.4321995C37.7708092,19.5585041,33.050827,24.625,32.3124847,24.625
		c-1.5741673,0,0.9350395-5.3022804-0.3957977-5.8420219C28.4908848,17.3935928,26.125,14.4307117,26.125,11
		c0-4.7634559,4.5611-8.625,10.1874847-8.625C41.9389,2.375,46.5,6.2365441,46.5,11z"/>
	
		<circle fill="none" stroke="#000000" stroke-width="2" stroke-linecap="round" stroke-linejoin="round" stroke-miterlimit="10" cx="31.5641479" cy="10.7079773" r="1"/>
	
		<circle fill="none" stroke="#000000" stroke-width="2" stroke-linecap="round" stroke-linejoin="round" stroke-miterlimit="10" cx="36.5641479" cy="10.7079773" r="1"/>
	
		<circle fill="none" stroke="#000000" stroke-width="2" stroke-linecap="round" stroke-linejoin="round" stroke-miterlimit="10" cx="41.5641479" cy="10.7079773" r="1"/>
</g>
<g id="chat-f">
</g>
<g id="chat-m">
</g>
<g id="think-f">
</g>
<g id="think-m">
</g>
<g id="comment-f">
</g>
<g id="comment-m">
</g>
<g id="unloack-rd">
</g>
<g id="user-rd">
</g>
<g id="favorite-rd">
</g>
<g id="reload-rd">
</g>
<g id="bookmark-rd">
</g>
<g id="success-rd">
</g>
<g id="dealete">
</g>
<g id="remove-user_1_">
</g>
<g id="add-user_1_">
</g>
<g id="user-round">
</g>
<g id="upload">
</g>
<g id="download">
</g>
<g id="move">
</g>
<g id="unview">
</g>
<g id="notify">
</g>
<g id="settings">
</g>
<g id="cloud">
</g>
<g id="favorite">
</g>
<g id="reload">
</g>
<g id="bookmark">
</g>
<g id="contact">
</g>
<g id="call">
</g>
<g id="vie">
</g>
<g id="mail">
</g>
<g id="date">
</g>
<g id="trash">
</g>
<g id="time">
</g>
<g id="star">
</g>
<g id="unlock">
</g>
<g id="lock-user">
</g>
<g id="reload-user">
</g>
<g id="refresh-user">
</g>
<g id="search-user">
</g>
<g id="edit-user">
</g>
<g id="success">
</g>
<g id="delete-user">
</g>
<g id="remove-user">
</g>
<g id="add-user">
</g>
<g id="user">
</g>
<g id="Layer_2">
</g>
<g id="block-user">
</g>
<g id="boy-1">
</g>
<g id="community">
</g>
<g id="love-people">
</g>
<g id="chart-5">
</g>
<g id="graph-top">
</g>
<g id="graph-node">
</g>
</svg>
