<svg xmlns="http://www.w3.org/2000/svg" viewBox="0 0 48 48">
  <title>unview-user</title>
  <g id="unview">
    <g>
      <path d="M22.981,45.3A90.328,90.328,0,0,1,2.358,43.572c.679-8.027,5.411-10.6,9.992-12.047a17.48,17.48,0,0,0,6.084-3.25,7.984,7.984,0,0,0,4.575,1.56,7.975,7.975,0,0,0,4.559-1.551A17.564,17.564,0,0,0,31.433,29.8a.991.991,0,0,0,.3.047,1,1,0,0,0,.3-1.954c-1.505-.475-2.338-.794-2.8-1a18.524,18.524,0,0,0,4.175-6.506l.163-.1a1.932,1.932,0,0,0,.759-.651c1.339-2.371,1.693-4.267,1.053-5.636a2.872,2.872,0,0,0-1.182-1.29,19.923,19.923,0,0,0-.578-4.9C33.6,7.745,31.607.706,23.01.706S12.416,7.745,12.4,7.82a19.973,19.973,0,0,0-.578,4.895A2.872,2.872,0,0,0,10.636,14c-.641,1.37-.286,3.266,1.052,5.633a1.919,1.919,0,0,0,.76.654l.163.1a18.524,18.524,0,0,0,4.257,6.581,16.068,16.068,0,0,1-5.118,2.644C7.066,31.1.785,34.227.306,44.31a1,1,0,0,0,.752,1.017A84.971,84.971,0,0,0,20.3,47.333q1.337,0,2.739-.039a1,1,0,1,0-.057-2ZM14.437,19.537c-.127-.442-.465-.652-.934-.944l-.165-.1c-1.245-2.267-1.048-3.28-.9-3.615a.928.928,0,0,1,.576-.517,1,1,0,0,0,.818-1.037,18.58,18.58,0,0,1,.5-4.981c.063-.23,1.652-5.635,8.683-5.635s8.619,5.4,8.681,5.626a18.648,18.648,0,0,1,.5,4.989,1,1,0,0,0,.817,1.038.935.935,0,0,1,.565.493c.155.332.371,1.342-.891,3.639l-.165.1c-.467.29-.8.5-.934.942-.506,1.757-3.934,8.3-8.572,8.3S14.942,21.293,14.437,19.537Z"/>
      <path d="M46.832,38.445a19.142,19.142,0,0,0-5-4.864l1.874-1.874a1,1,0,0,0-1.414-1.414L40.016,32.57A11.728,11.728,0,0,0,35,31.4c-7.054,0-11.641,6.758-11.832,7.045a1,1,0,0,0-.053,1.021,15.009,15.009,0,0,0,4.895,5.109l-.717.717a1,1,0,1,0,1.414,1.414l1.15-1.15A12.907,12.907,0,0,0,35,46.6c7.93,0,11.722-6.833,11.879-7.124A1,1,0,0,0,46.832,38.445ZM25.2,39.058C26.343,37.592,30.047,33.4,35,33.4a9.461,9.461,0,0,1,3.493.693l-1.254,1.254A4.258,4.258,0,0,0,35,34.7,4.3,4.3,0,0,0,30.7,39a4.258,4.258,0,0,0,.647,2.239l-1.883,1.883A13.009,13.009,0,0,1,25.2,39.058ZM37.3,39A2.3,2.3,0,0,1,35,41.3a2.272,2.272,0,0,1-.75-.136l2.914-2.914A2.272,2.272,0,0,1,37.3,39Zm-4.6,0A2.3,2.3,0,0,1,35,36.7a2.272,2.272,0,0,1,.75.136L32.836,39.75A2.272,2.272,0,0,1,32.7,39ZM35,44.6a11,11,0,0,1-3.592-.594l1.353-1.353A4.258,4.258,0,0,0,35,43.3,4.3,4.3,0,0,0,39.3,39a4.258,4.258,0,0,0-.647-2.239l1.717-1.717a17.55,17.55,0,0,1,4.422,4.005C43.8,40.524,40.557,44.6,35,44.6Z"/>
    </g>
  </g>
</svg>
