<svg xmlns="http://www.w3.org/2000/svg" viewBox="0 0 48 48">
  <title>date-user</title>
  <g id="date">
    <g>
      <path d="M30.886,29.554a1,1,0,0,0-.427-1.348A6.22,6.22,0,0,1,28.78,27.02a18.335,18.335,0,0,0,4.29-6.578l.158-.1a1.908,1.908,0,0,0,.753-.646c1.325-2.346,1.676-4.224,1.041-5.582a2.846,2.846,0,0,0-1.166-1.276A19.74,19.74,0,0,0,33.284,8c-.02-.07-2-7.036-10.5-7.036S12.3,7.932,12.281,8.006a19.731,19.731,0,0,0-.571,4.833,2.853,2.853,0,0,0-1.167,1.277c-.635,1.357-.284,3.235,1.04,5.579a1.912,1.912,0,0,0,.755.65l.157.1a18.333,18.333,0,0,0,4.2,6.5,15.739,15.739,0,0,1-5.045,2.6C7.02,31,.808,34.1.332,44.071A1,1,0,0,0,1.15,45.1,139.329,139.329,0,0,0,23.3,47.037q1.355,0,2.724-.038a1,1,0,1,0-.057-2A134.716,134.716,0,0,1,2.389,43.285C3.078,35.4,7.74,32.873,12.253,31.448a17.291,17.291,0,0,0,6.011-3.208,7.9,7.9,0,0,0,4.52,1.54,7.854,7.854,0,0,0,4.444-1.492,7.881,7.881,0,0,0,2.309,1.694,1,1,0,0,0,1.349-.427ZM14.32,19.582c-.128-.439-.463-.647-.927-.936l-.161-.1c-1.226-2.233-1.032-3.23-.889-3.56a.9.9,0,0,1,.562-.5,1,1,0,0,0,.817-1.038,18.393,18.393,0,0,1,.49-4.918c.063-.227,1.633-5.561,8.57-5.561S31.291,8.3,31.352,8.518a18.423,18.423,0,0,1,.492,4.927,1.03,1.03,0,0,0,.794,1.033.9.9,0,0,1,.584.509c.144.33.337,1.327-.89,3.56l-.159.1c-.466.29-.8.5-.928.938-.5,1.735-3.888,8.195-8.462,8.195S14.82,21.32,14.32,19.582Z"/>
      <path d="M44,32H42V31a1,1,0,0,0-2,0v1H36V31a1,1,0,0,0-2,0v1H32a2,2,0,0,0-2,2V45a2,2,0,0,0,2,2H44a2,2,0,0,0,2-2V34A2,2,0,0,0,44,32ZM32,34h2v1a1,1,0,0,0,2,0V34h4v1a1,1,0,0,0,2,0V34h2v3H32Zm0,11V39H44v6Z"/>
    </g>
  </g>
</svg>
