<svg xmlns="http://www.w3.org/2000/svg" viewBox="0 0 48 48">
  <title>think-f</title>
  <g id="think-f">
    <g>
      <path d="M32.428,43.35c-.768-2.223-2.052-5.942-6.757-7.993l-.379-.166A16.276,16.276,0,0,1,22.605,33.9c.232-.006.478-.007.721-.009,1.782-.01,4-.023,5.137-1.54l.009-.014a2.052,2.052,0,0,0,1.07.3,1.911,1.911,0,1,0,0-3.817A2.058,2.058,0,0,0,28.7,29a12.652,12.652,0,0,0-.858-1.469c-.218-.335-.45-.689-.67-1.069a11.038,11.038,0,0,1-1.905-5.475l-.033-.331c-.506-4.924-3.4-7.812-8.153-8.132a1.034,1.034,0,0,0-.135,0c-4.751.319-7.646,3.208-8.153,8.132l-.033.331a11.038,11.038,0,0,1-1.9,5.474c-.221.381-.453.735-.671,1.07-.923,1.415-1.969,3.018-.622,4.814C6.7,33.867,8.917,33.879,10.7,33.89c.286,0,.577,0,.844.012-.306.356-1.1.662-3.144,1.437C3.835,37.065,2.437,41,1.6,43.352a11.773,11.773,0,0,1-.483,1.234A1,1,0,0,0,2.9,45.5a12.85,12.85,0,0,0,.588-1.479c.766-2.156,1.924-5.414,5.622-6.812,3.744-1.417,4.627-1.839,4.627-4.167a1,1,0,0,0-.718-.959,8.87,8.87,0,0,0-2.307-.193c-1.339-.008-3.007-.017-3.549-.74-.457-.609-.263-1.049.7-2.521.237-.363.486-.746.726-1.159a12.927,12.927,0,0,0,2.165-6.281l.032-.323c.4-3.93,2.5-6.062,6.231-6.336,3.731.274,5.827,2.406,6.231,6.336l.032.323a12.927,12.927,0,0,0,2.166,6.282c.239.412.489.8.726,1.159.96,1.472,1.154,1.912.7,2.521-.542.723-2.209.732-3.549.74a8.868,8.868,0,0,0-2.306.193,1,1,0,0,0-.718.959c0,2.154.724,2.469,4.2,3.983l.378.165c3.9,1.7,4.962,4.777,5.666,6.813a11.562,11.562,0,0,0,.582,1.481,1,1,0,1,0,1.776-.919A10.524,10.524,0,0,1,32.428,43.35Z"/>
      <path d="M33.542,20.55a4.354,4.354,0,0,0-4.5,4.179,4.512,4.512,0,0,0,9,0A4.354,4.354,0,0,0,33.542,20.55Zm0,6.358a2.359,2.359,0,0,1-2.5-2.179,2.524,2.524,0,0,1,5,0A2.359,2.359,0,0,1,33.542,26.908Z"/>
      <path d="M34.929,3C30.005,3,26,6.561,26,10.938s4.005,7.938,8.929,7.938,8.928-3.561,8.928-7.937S39.852,3,34.929,3Zm0,13.875c-3.82,0-6.929-2.664-6.929-5.937S31.108,5,34.929,5s6.928,2.664,6.928,5.938S38.749,16.875,34.929,16.875Z"/>
    </g>
  </g>
</svg>
