<svg xmlns="http://www.w3.org/2000/svg" viewBox="0 0 48 48">
  <title>male-female</title>
  <g id="male-female">
    <path d="M47.226,34.584a15.87,15.87,0,0,0-8.275-7.2c-2.2-.757-2.963-1.059-3.229-1.478.291-.012.612-.014.928-.016,1.806-.011,4.053-.023,5.2-1.558,1.362-1.815.3-3.439-.632-4.872-.222-.341-.457-.7-.681-1.087A11.215,11.215,0,0,1,38.6,12.81l-.034-.337C38.056,7.479,35.12,4.552,30.3,4.227c-.045,0-.09,0-.134,0-3.842.258-6.522,2.244-7.682,5.6a10.433,10.433,0,0,0-3-.423c-5.562,0-8.049,3.775-8.588,5.776a15.871,15.871,0,0,0-.463,3.8,2.476,2.476,0,0,0-.915,1.048c-.536,1.146-.253,2.71.84,4.646a1.688,1.688,0,0,0,.669.587l.072.045a15.728,15.728,0,0,0,3.195,5.052,12.711,12.711,0,0,1-3.769,1.892c-3.759,1.187-8.8,3.7-9.187,11.8a1,1,0,0,0,.789,1.025,90.12,90.12,0,0,0,17.357,1.554,90.126,90.126,0,0,0,17.357-1.554,1,1,0,0,0,.789-1.025,17.409,17.409,0,0,0-.237-2.112,16.249,16.249,0,0,0,9.555-6.064l.151-.179A1,1,0,0,0,47.226,34.584ZM12.914,24.429c-.123-.427-.451-.631-.831-.867L12,23.512c-.93-1.713-.758-2.433-.68-2.617a.531.531,0,0,1,.3-.292,1,1,0,0,0,.817-1.038,14.391,14.391,0,0,1,.385-3.871c.012-.043,1.22-4.292,6.656-4.292,5.384,0,6.607,4.122,6.654,4.288a14.479,14.479,0,0,1,.387,3.876,1,1,0,0,0,.817,1.037.543.543,0,0,1,.295.272c.084.181.277.893-.671,2.637l-.082.05c-.38.236-.708.44-.831.867-.39,1.355-3.025,6.4-6.57,6.4S13.3,25.784,12.914,24.429Zm6.57,20.2A94.064,94.064,0,0,1,3.4,43.28c.592-6.054,4.217-8.015,7.729-9.123a14.355,14.355,0,0,0,4.742-2.491,6.185,6.185,0,0,0,7.229,0,14.36,14.36,0,0,0,4.742,2.491c3.511,1.107,7.137,3.068,7.729,9.122A94.069,94.069,0,0,1,19.484,44.626Zm17.452-4.641c-1.577-4.946-5.454-6.776-8.493-7.734a12.718,12.718,0,0,1-3.769-1.894,15.732,15.732,0,0,0,3.194-5.052l.072-.045a1.687,1.687,0,0,0,.67-.588c1.093-1.935,1.376-3.5.84-4.645a2.476,2.476,0,0,0-.915-1.048,15.849,15.849,0,0,0-.464-3.807,8,8,0,0,0-3.741-4.567c.867-2.672,2.841-4.155,5.906-4.379,3.8.279,5.933,2.449,6.345,6.45l.033.328a13.112,13.112,0,0,0,2.2,6.374c.243.418.5.808.736,1.176.98,1.5,1.178,1.952.708,2.58-.555.739-2.252.749-3.616.757a9,9,0,0,0-2.341.2,1,1,0,0,0-.717.959c0,2.379.833,2.89,4.719,4.228a13.951,13.951,0,0,1,6.822,5.653A13.988,13.988,0,0,1,36.936,39.985Z"/>
  </g>
</svg>
