<svg xmlns="http://www.w3.org/2000/svg" viewBox="0 0 48 48">
  <title>user-round</title>
  <g id="user-round">
    <path d="M24,3A21,21,0,1,0,45,24,21.024,21.024,0,0,0,24,3ZM11.171,37.974c.077-3.6,2.028-5.978,5.985-7.248a11.517,11.517,0,0,0,3.68-1.936,4.967,4.967,0,0,0,5.661,0,11.517,11.517,0,0,0,3.68,1.936c2.824.907,5.744,2.545,5.99,7.821,0,.008.005.015.006.023a18.912,18.912,0,0,1-25-.6Zm7.463-22.189a1.117,1.117,0,0,0,.028-.166c.032-.319.439-3.119,5-3.119,4.586,0,4.975,2.793,5,3.1a.973.973,0,0,0,.03.184,11.615,11.615,0,0,1,.3,3.049.956.956,0,0,0,.77,1.026.2.2,0,0,1,.128.125c.037.091.175.6-.5,1.886l-.018.011a1.438,1.438,0,0,0-.74.808c-.3,1.055-2.3,4.984-4.968,4.984S19,23.746,18.7,22.688a1.422,1.422,0,0,0-.74-.806l-.018-.012c-.679-1.29-.541-1.794-.5-1.885a.377.377,0,0,1,.084-.115,1,1,0,0,0,.814-1.037A11.51,11.51,0,0,1,18.634,15.785ZM37.989,36.812c-.852-5.312-4.449-7.108-7.2-7.991a9.844,9.844,0,0,1-2.739-1.363,13.065,13.065,0,0,0,2.395-3.886,1.534,1.534,0,0,0,.6-.544c.9-1.616,1.119-2.932.659-3.91a2.21,2.21,0,0,0-.7-.843,13.079,13.079,0,0,0-.355-2.937c-.114-.778-1-4.837-6.982-4.837-5.961,0-6.865,4.067-6.982,4.834a13.1,13.1,0,0,0-.355,2.94,2.205,2.205,0,0,0-.7.843c-.46.979-.238,2.294.661,3.914a1.54,1.54,0,0,0,.594.54,13.052,13.052,0,0,0,2.394,3.886,9.842,9.842,0,0,1-2.738,1.363c-4.059,1.3-6.5,3.8-7.186,7.274a19.013,19.013,0,1,1,28.63.717Z"/>
  </g>
</svg>
