<?xml version="1.0" encoding="utf-8"?>
<!-- Generator: Adobe Illustrator 18.0.0, SVG Export Plug-In . SVG Version: 6.00 Build 0)  -->
<!DOCTYPE svg PUBLIC "-//W3C//DTD SVG 1.1//EN" "http://www.w3.org/Graphics/SVG/1.1/DTD/svg11.dtd">
<svg version="1.1" xmlns="http://www.w3.org/2000/svg" xmlns:xlink="http://www.w3.org/1999/xlink" x="0px" y="0px"
	 viewBox="0 0 48 48" enable-background="new 0 0 48 48" xml:space="preserve">
<g id="Layer_1">
	<g display="none">
	</g>
</g>
<g id="horizotal-bar">
</g>
<g id="verticle-bar">
</g>
<g id="hike">
</g>
<g id="node">
</g>
<g id="wave">
</g>
<g id="block">
</g>
<g id="piller">
</g>
<g id="graph_1_">
</g>
<g id="chart">
</g>
<g id="white-board">
</g>
<g id="statistics">
</g>
<g id="paraboal-s">
</g>
<g id="parabola">
</g>
<g id="graph-smooth">
</g>
<g id="graph-up">
</g>
<g id="graph-y">
</g>
<g id="graph-2">
</g>
<g id="graph">
</g>
<g id="part">
</g>
<g id="fill">
</g>
<g id="cross-2">
</g>
<g id="cross">
</g>
<g id="chart-7">
</g>
<g id="chart-6">
</g>
<g id="chart-4">
</g>
<g id="round-chart2">
</g>
<g id="round-chart">
</g>
<g id="community-3">
</g>
<g id="community_1_">
</g>
<g id="old-hairstylr">
</g>
<g id="girl-hair">
</g>
<g id="small-hair">
</g>
<g id="round-hair">
</g>
<g id="girl-2">
</g>
<g id="boy">
</g>
<g id="girl">
</g>
<g id="men">
</g>
<g id="women">
</g>
<g id="male_1_">
</g>
<g id="male-female">
</g>
<g id="group-m">
	<path fill="none" stroke="#000000" stroke-width="2" stroke-linecap="round" stroke-linejoin="round" stroke-miterlimit="10" d="
		M23.6666679,29.4594097c3.8650322,0,6.4334602-5.1413555,6.8082981-6.4436359
		c0.071909-0.2813988,0.4755077-0.2566528,0.728159-0.7501488C32.875,19,30.9343262,18.4186459,30.9343262,18.4186459
		s0.1071568-1.950964-0.378231-3.7839031c0,0-1.2255821-4.5491571-6.8894272-4.5491571s-6.8894272,4.5491571-6.8894272,4.5491571
		c-0.4853878,1.8329391-0.378231,3.7839031-0.378231,3.7839031S14.458333,19.208334,16.104166,22.25
		c0.2438641,0.4506855,0.598959,0.390625,0.7542038,0.7657738C17.2332077,24.3180542,19.8016357,29.4594097,23.6666679,29.4594097z"
		/>
	<path fill="none" stroke="#000000" stroke-width="2" stroke-linecap="round" stroke-linejoin="round" stroke-miterlimit="10" d="
		M28.065836,28.388731c0,0,1.544754,1.3385429,4.2952328,2.3792953c4.7571564,1.8000584,6.3110123,5.8989735,6.6145477,10.8886356
		C39.0448799,42.7952347,38.1169548,44,36.9762764,44H24.1672077H11.2216406c-1.1605864,0-2.0647278-1.2356682-1.9966927-2.3942604
		c0.3008738-5.1236839,1.8527279-8.9104767,6.6156445-10.7127132c2.7504797-1.0407524,4.1944017-2.4417953,4.1944017-2.4417953"/>
	<path fill="none" stroke="#000000" stroke-width="2" stroke-linecap="round" stroke-linejoin="round" stroke-miterlimit="10" d="
		M10,37H4.1416559c-1.0941665,0-1.9843292-1.130909-2.000711-2.2249527c-0.055696-3.7196274,0.0976233-7.1406631,4.6996474-8.882021
		C9.5910721,24.8522739,12,23.2507477,12,23.2507477c-1.9375095-1.1882477-3.8930798-4.3402004-4.1416306-5.2037239
		C7.703125,17.671875,7.3480306,17.7163105,7.1041665,17.265625c-1.645833-3.041667,0.2948432-3.8391666,0.2948432-3.8391666
		s-0.1071563-1.9548702,0.378231-3.7878094c0,0,1.2255821-4.5511103,6.8894272-4.5511103s6.8894272,4.7981806,6.8894272,4.7981806"
		/>
	<path fill="none" stroke="#000000" stroke-width="2" stroke-linecap="round" stroke-linejoin="round" stroke-miterlimit="10" d="
		M38,37h5.5481682c1.0941658,0,1.9843292-1.130909,2.0007095-2.2249527c0.0556984-3.7196274-0.0976219-7.1406631-4.699646-8.882021
		C38.0987511,24.8522739,35.6874886,23.125,35.6874886,23.125c2.0625114-0.9375,3.8954163-4.2144527,4.1439667-5.0779762
		c0.1552429-0.3751488,0.5103378-0.3307133,0.7542038-0.7813988c1.6458321-3.041667-0.2948456-3.8391666-0.2948456-3.8391666
		s0.1071587-1.9548702-0.378231-3.7878094c0,0-1.2255821-4.5511103-6.8894272-4.5511103s-6.7343388,4.7981806-6.7343388,4.7981806"
		/>
</g>
<g id="group-f">
</g>
<g id="male-1">
</g>
<g id="male">
</g>
<g id="read-f">
</g>
<g id="read-m">
</g>
<g id="message-f">
</g>
<g id="message-m">
</g>
<g id="chat-f">
</g>
<g id="chat-m">
</g>
<g id="think-f">
</g>
<g id="think-m">
</g>
<g id="comment-f">
</g>
<g id="comment-m">
</g>
<g id="unloack-rd">
</g>
<g id="user-rd">
</g>
<g id="favorite-rd">
</g>
<g id="reload-rd">
</g>
<g id="bookmark-rd">
</g>
<g id="success-rd">
</g>
<g id="dealete">
</g>
<g id="remove-user_1_">
</g>
<g id="add-user_1_">
</g>
<g id="user-round">
</g>
<g id="upload">
</g>
<g id="download">
</g>
<g id="move">
</g>
<g id="unview">
</g>
<g id="notify">
</g>
<g id="settings">
</g>
<g id="cloud">
</g>
<g id="favorite">
</g>
<g id="reload">
</g>
<g id="bookmark">
</g>
<g id="contact">
</g>
<g id="call">
</g>
<g id="vie">
</g>
<g id="mail">
</g>
<g id="date">
</g>
<g id="trash">
</g>
<g id="time">
</g>
<g id="star">
</g>
<g id="unlock">
</g>
<g id="lock-user">
</g>
<g id="reload-user">
</g>
<g id="refresh-user">
</g>
<g id="search-user">
</g>
<g id="edit-user">
</g>
<g id="success">
</g>
<g id="delete-user">
</g>
<g id="remove-user">
</g>
<g id="add-user">
</g>
<g id="user">
</g>
<g id="Layer_2">
</g>
<g id="block-user">
</g>
<g id="boy-1">
</g>
<g id="community">
</g>
<g id="love-people">
</g>
<g id="chart-5">
</g>
<g id="graph-top">
</g>
<g id="graph-node">
</g>
</svg>
