<svg xmlns="http://www.w3.org/2000/svg" viewBox="0 0 48 48">
  <title>view-user</title>
  <g id="vie">
    <g>
      <path d="M22.98,44.9A89.028,89.028,0,0,1,2.744,43.21c.671-7.864,5.311-10.385,9.8-11.8a17.211,17.211,0,0,0,5.972-3.187,7.85,7.85,0,0,0,4.491,1.528,7.81,7.81,0,0,0,4.417-1.482,10.613,10.613,0,0,0,4.831,2.709.991.991,0,0,0,.3.047,1,1,0,0,0,.3-1.954A9.055,9.055,0,0,1,28.978,27a18.24,18.24,0,0,0,4.26-6.533l.156-.1a1.912,1.912,0,0,0,.75-.646c1.317-2.333,1.666-4.2,1.034-5.552a2.838,2.838,0,0,0-1.159-1.27A19.623,19.623,0,0,0,33.451,8.1c-.02-.07-1.984-7-10.442-7S12.587,8.03,12.566,8.1a19.583,19.583,0,0,0-.568,4.8,2.838,2.838,0,0,0-1.159,1.27c-.632,1.351-.283,3.219,1.035,5.552a1.912,1.912,0,0,0,.75.646l.155.1a18.236,18.236,0,0,0,4.17,6.452,15.791,15.791,0,0,1-5,2.581C7.34,30.954,1.164,34.032.691,43.948a1,1,0,0,0,.752,1.017,83.465,83.465,0,0,0,18.9,1.972c.875,0,1.773-.012,2.69-.038a1,1,0,0,0,.972-1.027A.985.985,0,0,0,22.98,44.9ZM14.606,19.613c-.126-.442-.462-.651-.927-.939l-.157-.1c-1.216-2.215-1.024-3.2-.883-3.53a.894.894,0,0,1,.554-.5,1,1,0,0,0,.817-1.038A18.283,18.283,0,0,1,14.5,8.62c.015-.055,1.567-5.518,8.51-5.518,6.891,0,8.449,5.3,8.51,5.514a18.268,18.268,0,0,1,.488,4.893,1.031,1.031,0,0,0,.794,1.034.889.889,0,0,1,.577.5c.143.327.333,1.315-.882,3.53l-.157.1c-.465.289-.8.5-.926.936-.5,1.724-3.862,8.14-8.4,8.14S15.1,21.334,14.606,19.613Z"/>
      <path d="M35,34.7A4.3,4.3,0,1,0,39.3,39,4.3,4.3,0,0,0,35,34.7Zm0,6.6A2.3,2.3,0,1,1,37.3,39,2.3,2.3,0,0,1,35,41.3Z"/>
      <path d="M46.832,38.445C46.641,38.158,42.054,31.4,35,31.4s-11.641,6.758-11.832,7.045a1,1,0,0,0-.053,1.021C23.27,39.758,26.973,46.6,35,46.6c7.93,0,11.722-6.833,11.879-7.124A1,1,0,0,0,46.832,38.445ZM35,44.6a11.852,11.852,0,0,1-9.8-5.542C26.343,37.592,30.047,33.4,35,33.4s8.642,4.175,9.793,5.648C43.8,40.524,40.557,44.6,35,44.6Z"/>
    </g>
  </g>
</svg>
