<?xml version="1.0" encoding="utf-8"?>
<!-- Generator: Adobe Illustrator 18.0.0, SVG Export Plug-In . SVG Version: 6.00 Build 0)  -->
<!DOCTYPE svg PUBLIC "-//W3C//DTD SVG 1.1//EN" "http://www.w3.org/Graphics/SVG/1.1/DTD/svg11.dtd">
<svg version="1.1" xmlns="http://www.w3.org/2000/svg" xmlns:xlink="http://www.w3.org/1999/xlink" x="0px" y="0px"
	 viewBox="0 0 48 48" enable-background="new 0 0 48 48" xml:space="preserve">
<g id="Layer_1">
	<g display="none">
	</g>
</g>
<g id="horizotal-bar">
</g>
<g id="verticle-bar">
</g>
<g id="hike">
</g>
<g id="node">
</g>
<g id="wave">
</g>
<g id="block">
</g>
<g id="piller">
</g>
<g id="graph_1_">
</g>
<g id="chart">
</g>
<g id="white-board">
</g>
<g id="statistics">
</g>
<g id="paraboal-s">
</g>
<g id="parabola">
</g>
<g id="graph-smooth">
</g>
<g id="graph-up">
</g>
<g id="graph-y">
</g>
<g id="graph-2">
</g>
<g id="graph">
</g>
<g id="part">
</g>
<g id="fill">
</g>
<g id="cross-2">
</g>
<g id="cross">
</g>
<g id="chart-7">
</g>
<g id="chart-6">
</g>
<g id="chart-4">
</g>
<g id="round-chart2">
</g>
<g id="round-chart">
</g>
<g id="community-3">
</g>
<g id="community_1_">
</g>
<g id="old-hairstylr">
</g>
<g id="girl-hair">
</g>
<g id="small-hair">
</g>
<g id="round-hair">
</g>
<g id="girl-2">
</g>
<g id="boy">
</g>
<g id="girl">
</g>
<g id="men">
</g>
<g id="women">
</g>
<g id="male_1_">
	<path fill="none" stroke="#000000" stroke-width="2" stroke-linecap="round" stroke-linejoin="round" stroke-miterlimit="10" d="
		M19.4836769,31.8328438c4.275589,0,7.1168461-5.6874886,7.5315018-7.1281013
		c0.030323-0.1046791,0.6700344-0.4295883,0.7235603-0.5242367c2.3144169-4.0957127-0.2154064-4.5612164-0.2154064-4.5612164
		s0.1185398-2.1582012-0.4184074-4.1858425c0,0-1.3557682-5.0323849-7.6212482-5.0323849s-7.6212473,5.0323849-7.6212473,5.0323849
		c-0.5369473,2.0276413-0.4184084,4.1858425-0.4184084,4.1858425s-2.5298233,0.4655037-0.2154074,4.5612164
		c0.0535269,0.0946484,0.6932383,0.4195576,0.7235622,0.5242367C12.3668318,26.1453552,15.208087,31.8328438,19.4836769,31.8328438z
		"/>
	<path fill="none" stroke="#000000" stroke-width="2" stroke-linecap="round" stroke-linejoin="round" stroke-miterlimit="10" d="
		M23.4089336,30.6101646c0,0,1.6298332,1.6145172,4.7321339,2.5937614
		c4.3955841,1.3871651,8.1611824,3.9985428,8.4890747,10.8903313c0,0-7.1138573,1.5315094-17.1464653,1.5315094
		S2.3372097,44.0942574,2.3372097,44.0942574c0.3279114-6.8917885,4.0934935-9.5031662,8.4890776-10.8903313
		c3.1023006-0.9792442,4.732132-2.5937614,4.732132-2.5937614"/>
	<path fill="none" stroke="#000000" stroke-width="2" stroke-linecap="round" stroke-linejoin="round" stroke-miterlimit="10" d="
		M27.4836769,25.8328438c4.275589,0,7.1168442-5.6874886,7.5315018-7.1281013
		c0.030323-0.1046791,0.6700363-0.4295883,0.7235603-0.5242367c2.314415-4.0957136-0.2154045-4.5612154-0.2154045-4.5612154
		s0.1185379-2.1582022-0.4184113-4.1858435c0,0-1.3557663-5.0323853-7.6212463-5.0323853s-7.6212482,5.0323853-7.6212482,5.0323853"
		/>
	<path fill="none" stroke="#000000" stroke-width="2" stroke-linecap="round" stroke-linejoin="round" stroke-miterlimit="10" d="
		M31.4089336,24.6101646c0,0,1.6298313,1.6145153,4.7321339,2.5937634c4.3955841,1.3871632,8.1611824,3.998539,8.4890747,10.8903294
		C44.6301422,38.0942574,37.75,39,36,39"/>
</g>
<g id="male-female">
</g>
<g id="group-m">
</g>
<g id="group-f">
</g>
<g id="male-1">
</g>
<g id="male">
</g>
<g id="read-f">
</g>
<g id="read-m">
</g>
<g id="message-f">
</g>
<g id="message-m">
</g>
<g id="chat-f">
</g>
<g id="chat-m">
</g>
<g id="think-f">
</g>
<g id="think-m">
</g>
<g id="comment-f">
</g>
<g id="comment-m">
</g>
<g id="unloack-rd">
</g>
<g id="user-rd">
</g>
<g id="favorite-rd">
</g>
<g id="reload-rd">
</g>
<g id="bookmark-rd">
</g>
<g id="success-rd">
</g>
<g id="dealete">
</g>
<g id="remove-user_1_">
</g>
<g id="add-user_1_">
</g>
<g id="user-round">
</g>
<g id="upload">
</g>
<g id="download">
</g>
<g id="move">
</g>
<g id="unview">
</g>
<g id="notify">
</g>
<g id="settings">
</g>
<g id="cloud">
</g>
<g id="favorite">
</g>
<g id="reload">
</g>
<g id="bookmark">
</g>
<g id="contact">
</g>
<g id="call">
</g>
<g id="vie">
</g>
<g id="mail">
</g>
<g id="date">
</g>
<g id="trash">
</g>
<g id="time">
</g>
<g id="star">
</g>
<g id="unlock">
</g>
<g id="lock-user">
</g>
<g id="reload-user">
</g>
<g id="refresh-user">
</g>
<g id="search-user">
</g>
<g id="edit-user">
</g>
<g id="success">
</g>
<g id="delete-user">
</g>
<g id="remove-user">
</g>
<g id="add-user">
</g>
<g id="user">
</g>
<g id="Layer_2">
</g>
<g id="block-user">
</g>
<g id="boy-1">
</g>
<g id="community">
</g>
<g id="love-people">
</g>
<g id="chart-5">
</g>
<g id="graph-top">
</g>
<g id="graph-node">
</g>
</svg>
