<svg xmlns="http://www.w3.org/2000/svg" viewBox="0 0 48 48">
  <title>search-user</title>
  <g id="search-user">
    <g>
      <path d="M43.543,32.983A7.328,7.328,0,0,0,32.52,42.591l-2.254,2.254a1,1,0,1,0,1.414,1.414l2.254-2.254a7.328,7.328,0,0,0,9.609-11.022Zm-1.414,8.954a5.332,5.332,0,1,1,1.562-3.77A5.3,5.3,0,0,1,42.129,41.937Z"/>
      <path d="M12.546,31.408a17.211,17.211,0,0,0,5.972-3.187,7.85,7.85,0,0,0,4.491,1.528,7.81,7.81,0,0,0,4.417-1.482,10.613,10.613,0,0,0,4.831,2.709.991.991,0,0,0,.3.047,1,1,0,0,0,.3-1.954A9.055,9.055,0,0,1,28.978,27a18.24,18.24,0,0,0,4.26-6.533l.156-.1a1.912,1.912,0,0,0,.75-.646c1.317-2.333,1.666-4.2,1.034-5.552a2.838,2.838,0,0,0-1.159-1.27A19.623,19.623,0,0,0,33.451,8.1c-.02-.07-1.984-7-10.442-7S12.587,8.03,12.566,8.1a19.583,19.583,0,0,0-.568,4.8,2.838,2.838,0,0,0-1.159,1.27c-.632,1.351-.283,3.219,1.035,5.552a1.912,1.912,0,0,0,.75.646l.155.1a18.236,18.236,0,0,0,4.17,6.452,15.791,15.791,0,0,1-5,2.581C7.34,30.954,1.164,34.032.691,43.948a1,1,0,0,0,.752,1.017,83.465,83.465,0,0,0,18.9,1.972c.875,0,1.773-.012,2.69-.038a1,1,0,1,0-.057-2A88.846,88.846,0,0,1,2.744,43.21C3.415,35.346,8.055,32.825,12.546,31.408Zm2.061-11.795c-.126-.442-.462-.651-.927-.939l-.157-.1c-1.216-2.215-1.024-3.2-.883-3.53a.894.894,0,0,1,.554-.5,1,1,0,0,0,.817-1.038A18.283,18.283,0,0,1,14.5,8.62c.015-.055,1.567-5.518,8.51-5.518,6.891,0,8.449,5.3,8.51,5.514a18.268,18.268,0,0,1,.488,4.893,1.031,1.031,0,0,0,.794,1.034.889.889,0,0,1,.577.5c.143.327.333,1.315-.882,3.53l-.157.1c-.465.289-.8.5-.926.936-.5,1.724-3.862,8.14-8.4,8.14S15.1,21.334,14.606,19.613Z"/>
    </g>
  </g>
</svg>
