<svg xmlns="http://www.w3.org/2000/svg" viewBox="0 0 48 48">
  <title>notify-user</title>
  <g id="notify">
    <g>
      <path d="M12.253,31.448a17.291,17.291,0,0,0,6.011-3.208,7.9,7.9,0,0,0,4.52,1.54,7.854,7.854,0,0,0,4.444-1.492,7.881,7.881,0,0,0,2.309,1.694,1,1,0,0,0,.922-1.775A6.22,6.22,0,0,1,28.78,27.02a18.335,18.335,0,0,0,4.29-6.578l.158-.1a1.908,1.908,0,0,0,.753-.646c1.325-2.346,1.676-4.224,1.041-5.582a2.846,2.846,0,0,0-1.166-1.276A19.74,19.74,0,0,0,33.284,8c-.02-.07-2-7.036-10.5-7.036S12.3,7.932,12.281,8.006a19.731,19.731,0,0,0-.571,4.833,2.853,2.853,0,0,0-1.167,1.277c-.635,1.357-.284,3.235,1.04,5.579a1.912,1.912,0,0,0,.755.65l.157.1a18.333,18.333,0,0,0,4.2,6.5,15.739,15.739,0,0,1-5.045,2.6C7.02,31,.808,34.1.332,44.071A1,1,0,0,0,1.15,45.1,139.329,139.329,0,0,0,23.3,47.037q1.355,0,2.724-.038A1,1,0,0,0,27,45.972.989.989,0,0,0,25.972,45,134.716,134.716,0,0,1,2.389,43.285C3.078,35.4,7.74,32.873,12.253,31.448ZM14.32,19.582c-.128-.439-.463-.647-.927-.936l-.161-.1c-1.226-2.233-1.032-3.23-.889-3.56a.9.9,0,0,1,.562-.5,1,1,0,0,0,.817-1.038,18.393,18.393,0,0,1,.49-4.918c.063-.227,1.633-5.561,8.57-5.561S31.291,8.3,31.352,8.518a18.423,18.423,0,0,1,.492,4.927,1.03,1.03,0,0,0,.794,1.033.9.9,0,0,1,.584.509c.144.33.337,1.327-.89,3.56l-.159.1c-.466.29-.8.5-.928.938-.5,1.735-3.888,8.195-8.462,8.195S14.82,21.32,14.32,19.582Z"/>
      <path d="M37.55,29.786c-5,0-8.755,7.075-8.755,11.663,0,5.847,5.7,5.847,8.755,5.847s8.754,0,8.754-5.847C46.3,36.861,42.545,29.786,37.55,29.786Zm0,15.509c-5.051,0-6.755-.971-6.755-3.847,0-3.728,3.092-9.663,6.755-9.663S44.3,37.721,44.3,41.449C44.3,44.325,42.6,45.3,37.55,45.3Z"/>
      <path d="M38,35a1,1,0,0,0-1,1v3a1,1,0,0,0,2,0V36A1,1,0,0,0,38,35Z"/>
      <path d="M38,41a1,1,0,0,0-1,1v1a1,1,0,0,0,2,0V42A1,1,0,0,0,38,41Z"/>
    </g>
  </g>
</svg>
