<?xml version="1.0" encoding="utf-8"?>
<!-- Generator: Adobe Illustrator 18.0.0, SVG Export Plug-In . SVG Version: 6.00 Build 0)  -->
<!DOCTYPE svg PUBLIC "-//W3C//DTD SVG 1.1//EN" "http://www.w3.org/Graphics/SVG/1.1/DTD/svg11.dtd">
<svg version="1.1" xmlns="http://www.w3.org/2000/svg" xmlns:xlink="http://www.w3.org/1999/xlink" x="0px" y="0px"
	 viewBox="0 0 48 48" enable-background="new 0 0 48 48" xml:space="preserve">
<g id="Layer_1">
	<g display="none">
	</g>
</g>
<g id="horizotal-bar">
</g>
<g id="verticle-bar">
</g>
<g id="hike">
</g>
<g id="node">
</g>
<g id="wave">
</g>
<g id="block">
</g>
<g id="piller">
</g>
<g id="graph_1_">
</g>
<g id="chart">
</g>
<g id="white-board">
</g>
<g id="statistics">
</g>
<g id="paraboal-s">
</g>
<g id="parabola">
</g>
<g id="graph-smooth">
</g>
<g id="graph-up">
</g>
<g id="graph-y">
</g>
<g id="graph-2">
</g>
<g id="graph">
</g>
<g id="part">
</g>
<g id="fill">
</g>
<g id="cross-2">
</g>
<g id="cross">
</g>
<g id="chart-7">
</g>
<g id="chart-6">
</g>
<g id="chart-4">
</g>
<g id="round-chart2">
</g>
<g id="round-chart">
</g>
<g id="community-3">
</g>
<g id="community_1_">
</g>
<g id="old-hairstylr">
</g>
<g id="girl-hair">
</g>
<g id="small-hair">
</g>
<g id="round-hair">
</g>
<g id="girl-2">
</g>
<g id="boy">
</g>
<g id="girl">
</g>
<g id="men">
</g>
<g id="women">
</g>
<g id="male_1_">
</g>
<g id="male-female">
</g>
<g id="group-m">
</g>
<g id="group-f">
</g>
<g id="male-1">
</g>
<g id="male">
</g>
<g id="read-f">
</g>
<g id="read-m">
</g>
<g id="message-f">
</g>
<g id="message-m">
</g>
<g id="chat-f">
</g>
<g id="chat-m">
</g>
<g id="think-f">
</g>
<g id="think-m">
</g>
<g id="comment-f">
</g>
<g id="comment-m">
</g>
<g id="unloack-rd">
</g>
<g id="user-rd">
</g>
<g id="favorite-rd">
</g>
<g id="reload-rd">
</g>
<g id="bookmark-rd">
</g>
<g id="success-rd">
</g>
<g id="dealete">
</g>
<g id="remove-user_1_">
</g>
<g id="add-user_1_">
</g>
<g id="user-round">
</g>
<g id="upload">
</g>
<g id="download">
</g>
<g id="move">
</g>
<g id="unview">
</g>
<g id="notify">
</g>
<g id="settings">
</g>
<g id="cloud">
</g>
<g id="favorite">
</g>
<g id="reload">
</g>
<g id="bookmark">
</g>
<g id="contact">
</g>
<g id="call">
</g>
<g id="vie">
</g>
<g id="mail">
	<g>
		<g>
			<path fill="none" stroke="#000000" stroke-width="2" stroke-linecap="round" stroke-linejoin="round" stroke-miterlimit="10" d="
				M22.7830353,28.7792339c5.3495998,0,8.9037685-7.1155224,9.4230118-8.9178505
				c0.0374641-0.1309624,0.8382721-0.5374508,0.9047585-0.6558628c2.8955269-5.1240807-0.2694893-5.7064629-0.2694893-5.7064629
				s0.148777-2.7000914-0.5229836-5.2368402c0,0-1.6971416-6.2959337-9.5352974-6.2959337s-9.5352964,6.2959337-9.5352964,6.2959337
				c-0.6717691,2.5367489-0.5229845,5.2368402-0.5229845,5.2368402s-3.1650238,0.5823822-0.269495,5.7064629
				c0.0664864,0.118412,0.867301,0.5249004,0.9047565,0.6558628C13.8792677,21.6637115,17.4334354,28.7792339,22.7830353,28.7792339
				z"/>
		</g>
		<path fill="none" stroke="#000000" stroke-width="2" stroke-linecap="round" stroke-linejoin="round" stroke-miterlimit="10" d="
			M27.693861,27.2495594c0,0,0.4552841,0.8853321,2.3040771,1.8440018"/>
		<path fill="none" stroke="#000000" stroke-width="2" stroke-linecap="round" stroke-linejoin="round" stroke-miterlimit="10" d="
			M17.8722115,27.2495594c0,0-2.0385809,2.0198956-5.9202948,3.2450142
			c-5.4992423,1.7354603-10.2098436,5.0025082-10.6205444,13.624712c0,0,10.1216869,2.2315407,22.6686287,1.8807144"/>
	</g>
	<path fill="none" stroke="#000000" stroke-width="2" stroke-linecap="round" stroke-linejoin="round" stroke-miterlimit="10" d="
		M44,45H30c-0.5522842,0-1-0.4477158-1-1V33c0-0.5522842,0.4477158-1,1-1h14c0.5522842,0,1,0.4477158,1,1v11
		C45,44.5522842,44.5522842,45,44,45z"/>
	
		<polyline fill="none" stroke="#000000" stroke-width="2" stroke-linecap="round" stroke-linejoin="round" stroke-miterlimit="10" points="
		30,35 37,39 44,35 	"/>
</g>
<g id="date">
</g>
<g id="trash">
</g>
<g id="time">
</g>
<g id="star">
</g>
<g id="unlock">
</g>
<g id="lock-user">
</g>
<g id="reload-user">
</g>
<g id="refresh-user">
</g>
<g id="search-user">
</g>
<g id="edit-user">
</g>
<g id="success">
</g>
<g id="delete-user">
</g>
<g id="remove-user">
</g>
<g id="add-user">
</g>
<g id="user">
</g>
<g id="Layer_2">
</g>
<g id="block-user">
</g>
<g id="boy-1">
</g>
<g id="community">
</g>
<g id="love-people">
</g>
<g id="chart-5">
</g>
<g id="graph-top">
</g>
<g id="graph-node">
</g>
</svg>
