<?xml version="1.0" encoding="utf-8"?>
<!-- Generator: Adobe Illustrator 18.0.0, SVG Export Plug-In . SVG Version: 6.00 Build 0)  -->
<!DOCTYPE svg PUBLIC "-//W3C//DTD SVG 1.1//EN" "http://www.w3.org/Graphics/SVG/1.1/DTD/svg11.dtd">
<svg version="1.1" xmlns="http://www.w3.org/2000/svg" xmlns:xlink="http://www.w3.org/1999/xlink" x="0px" y="0px"
	 viewBox="0 0 48 48" enable-background="new 0 0 48 48" xml:space="preserve">
<g id="Layer_1">
	<g display="none">
	</g>
</g>
<g id="horizotal-bar">
</g>
<g id="verticle-bar">
</g>
<g id="hike">
</g>
<g id="node">
</g>
<g id="wave">
</g>
<g id="block">
</g>
<g id="piller">
</g>
<g id="graph_1_">
</g>
<g id="chart">
</g>
<g id="white-board">
</g>
<g id="statistics">
</g>
<g id="paraboal-s">
</g>
<g id="parabola">
</g>
<g id="graph-smooth">
</g>
<g id="graph-up">
</g>
<g id="graph-y">
</g>
<g id="graph-2">
</g>
<g id="graph">
</g>
<g id="part">
</g>
<g id="fill">
</g>
<g id="cross-2">
</g>
<g id="cross">
</g>
<g id="chart-7">
</g>
<g id="chart-6">
</g>
<g id="chart-4">
</g>
<g id="round-chart2">
</g>
<g id="round-chart">
</g>
<g id="community-3">
</g>
<g id="community_1_">
</g>
<g id="old-hairstylr">
</g>
<g id="girl-hair">
</g>
<g id="small-hair">
</g>
<g id="round-hair">
</g>
<g id="girl-2">
</g>
<g id="boy">
</g>
<g id="girl">
</g>
<g id="men">
</g>
<g id="women">
</g>
<g id="male_1_">
</g>
<g id="male-female">
</g>
<g id="group-m">
</g>
<g id="group-f">
</g>
<g id="male-1">
</g>
<g id="male">
</g>
<g id="read-f">
</g>
<g id="read-m">
</g>
<g id="message-f">
</g>
<g id="message-m">
</g>
<g id="chat-f">
</g>
<g id="chat-m">
</g>
<g id="think-f">
</g>
<g id="think-m">
</g>
<g id="comment-f">
</g>
<g id="comment-m">
</g>
<g id="unloack-rd">
</g>
<g id="user-rd">
</g>
<g id="favorite-rd">
</g>
<g id="reload-rd">
</g>
<g id="bookmark-rd">
</g>
<g id="success-rd">
</g>
<g id="dealete">
</g>
<g id="remove-user_1_">
</g>
<g id="add-user_1_">
</g>
<g id="user-round">
</g>
<g id="upload">
</g>
<g id="download">
</g>
<g id="move">
</g>
<g id="unview">
</g>
<g id="notify">
</g>
<g id="settings">
	<g>
		<path fill="none" stroke="#000000" stroke-width="2" stroke-linecap="round" stroke-linejoin="round" stroke-miterlimit="10" d="
			M23.0093269,28.8354759c5.4128056,0,9.0089645-7.1995964,9.5343475-9.0232201
			c0.0379066-0.1325092,0.848175-0.5438004,0.9154472-0.6636124c2.9297409-5.1846228-0.2726707-5.7738867-0.2726707-5.7738867
			s0.1505356-2.7319937-0.5291672-5.2987156c0,0-1.7171898-6.3703232-9.6479568-6.3703232s-9.6479645,6.3703232-9.6479645,6.3703232
			c-0.6797028,2.5667219-0.5291615,5.2987156-0.5291615,5.2987156s-3.2024193,0.5892639-0.2726784,5.7738867
			c0.0672722,0.119812,0.8775482,0.5311031,0.9154463,0.6636124C14.0003529,21.6358795,17.5965195,28.8354759,23.0093269,28.8354759
			z"/>
		<path fill="none" stroke="#000000" stroke-width="2" stroke-linecap="round" stroke-linejoin="round" stroke-miterlimit="10" d="
			M18.0404778,27.2877274c0,0-2.0626669,2.0437603-5.9902477,3.2833557
			c-5.5642185,1.7559624-10.3304749,5.061615-10.7460318,13.7856941c0,0,9.0099392,2.2936592,21.7051277,1.9386864
			c1.5487137-0.0435257,6.1890526-0.189312,6.1890526-0.189312"/>
		<path fill="none" stroke="#000000" stroke-width="2" stroke-linecap="round" stroke-linejoin="round" stroke-miterlimit="10" d="
			M27.9781742,27.2877274c0,0-0.1713829,0.3199787,3.7552319,1.5595741"/>
	</g>
	<path fill="none" stroke="#000000" stroke-width="2" stroke-linecap="round" stroke-linejoin="round" stroke-miterlimit="10" d="
		M45.2773438,40.4006958l-2.2591667-1.7902069c-0.4871826-0.3860512-0.5078468-1.1183357-0.0432091-1.5312462l2.1546097-1.914753
		l-1.5454712-2.5712891l-2.8868904,1.0728722c-0.604599,0.2246895-1.2606316-0.1733093-1.3406334-0.8133316L39,30h-3
		l-0.3878098,3.1025276c-0.0771446,0.6171532-0.6929474,1.0149269-1.2872314,0.8314781l-3.2042923-0.9891205l-1.3980103,2.6544189
		l2.2591476,1.7901459c0.4871902,0.3860512,0.5078583,1.1183395,0.0432205,1.5312538l-2.1546021,1.9147453l1.5454712,2.5713501
		l2.8868752-1.0729103c0.6046066-0.2247009,1.2606506,0.1732979,1.3406487,0.8133278L36,46h3l0.3878136-3.1025887
		c0.0771408-0.6171532,0.6929436-1.0149269,1.2872314-0.8314781l3.2042885,0.9891205L45.2773438,40.4006958z"/>
</g>
<g id="cloud">
</g>
<g id="favorite">
</g>
<g id="reload">
</g>
<g id="bookmark">
</g>
<g id="contact">
</g>
<g id="call">
</g>
<g id="vie">
</g>
<g id="mail">
</g>
<g id="date">
</g>
<g id="trash">
</g>
<g id="time">
</g>
<g id="star">
</g>
<g id="unlock">
</g>
<g id="lock-user">
</g>
<g id="reload-user">
</g>
<g id="refresh-user">
</g>
<g id="search-user">
</g>
<g id="edit-user">
</g>
<g id="success">
</g>
<g id="delete-user">
</g>
<g id="remove-user">
</g>
<g id="add-user">
</g>
<g id="user">
</g>
<g id="Layer_2">
</g>
<g id="block-user">
</g>
<g id="boy-1">
</g>
<g id="community">
</g>
<g id="love-people">
</g>
<g id="chart-5">
</g>
<g id="graph-top">
</g>
<g id="graph-node">
</g>
</svg>
