<?xml version="1.0" encoding="utf-8"?>
<!-- Generator: Adobe Illustrator 18.0.0, SVG Export Plug-In . SVG Version: 6.00 Build 0)  -->
<!DOCTYPE svg PUBLIC "-//W3C//DTD SVG 1.1//EN" "http://www.w3.org/Graphics/SVG/1.1/DTD/svg11.dtd">
<svg version="1.1" xmlns="http://www.w3.org/2000/svg" xmlns:xlink="http://www.w3.org/1999/xlink" x="0px" y="0px"
	 viewBox="0 0 48 48" enable-background="new 0 0 48 48" xml:space="preserve">
<g id="Layer_1">
	<g display="none">
	</g>
</g>
<g id="horizotal-bar">
</g>
<g id="verticle-bar">
</g>
<g id="hike">
</g>
<g id="node">
</g>
<g id="wave">
</g>
<g id="block">
</g>
<g id="piller">
</g>
<g id="graph_1_">
</g>
<g id="chart">
</g>
<g id="white-board">
</g>
<g id="statistics">
</g>
<g id="paraboal-s">
</g>
<g id="parabola">
</g>
<g id="graph-smooth">
</g>
<g id="graph-up">
</g>
<g id="graph-y">
</g>
<g id="graph-2">
</g>
<g id="graph">
</g>
<g id="part">
</g>
<g id="fill">
</g>
<g id="cross-2">
</g>
<g id="cross">
</g>
<g id="chart-7">
</g>
<g id="chart-6">
</g>
<g id="chart-4">
</g>
<g id="round-chart2">
</g>
<g id="round-chart">
</g>
<g id="community-3">
</g>
<g id="community_1_">
</g>
<g id="old-hairstylr">
</g>
<g id="girl-hair">
</g>
<g id="small-hair">
</g>
<g id="round-hair">
</g>
<g id="girl-2">
</g>
<g id="boy">
</g>
<g id="girl">
</g>
<g id="men">
</g>
<g id="women">
</g>
<g id="male_1_">
</g>
<g id="male-female">
</g>
<g id="group-m">
</g>
<g id="group-f">
</g>
<g id="male-1">
</g>
<g id="male">
</g>
<g id="read-f">
</g>
<g id="read-m">
</g>
<g id="message-f">
</g>
<g id="message-m">
</g>
<g id="chat-f">
</g>
<g id="chat-m">
</g>
<g id="think-f">
</g>
<g id="think-m">
</g>
<g id="comment-f">
</g>
<g id="comment-m">
</g>
<g id="unloack-rd">
</g>
<g id="user-rd">
</g>
<g id="favorite-rd">
</g>
<g id="reload-rd">
</g>
<g id="bookmark-rd">
</g>
<g id="success-rd">
</g>
<g id="dealete">
	<g>
		
			<circle fill="none" stroke="#000000" stroke-width="2" stroke-linecap="round" stroke-linejoin="round" stroke-miterlimit="10" cx="36" cy="36" r="10"/>
		<path fill="none" stroke="#000000" stroke-width="2" stroke-linecap="round" stroke-linejoin="round" stroke-miterlimit="10" d="
			M28.9303513,43.3877029C27.3532448,43.7875404,25.7014332,44,24,44C12.9543047,44,4,35.0456963,4,24S12.9543047,4,24,4
			s20,8.9543047,20,20c0,1.7225189-0.2177582,3.3941784-0.6272469,4.9889507"/>
		
			<line fill="none" stroke="#000000" stroke-width="2" stroke-linecap="round" stroke-linejoin="round" stroke-miterlimit="10" x1="39.5355339" y1="32.4644661" x2="32.4644661" y2="39.5355339"/>
		
			<line fill="none" stroke="#000000" stroke-width="2" stroke-linecap="round" stroke-linejoin="round" stroke-miterlimit="10" x1="39.5355339" y1="39.5355339" x2="32.4644661" y2="32.4644661"/>
	</g>
	<path fill="none" stroke="#000000" stroke-width="2" stroke-linecap="round" stroke-linejoin="round" stroke-miterlimit="10" d="
		M23.6666679,28.6746349c3.3663177,0,5.6033363-4.5576611,5.9298077-5.7120953
		c0.0238762-0.0838833,0.5275421-0.3442497,0.569685-0.4200954c1.8222198-3.282095-0.1695957-3.6551247-0.1695957-3.6551247
		s0.0933285-1.7294731-0.3294277-3.3543205c0,0-0.2755814-4.0326958-6.0004692-4.0326958
		c-5.6970234,0-6.0004692,4.0326958-6.0004692,4.0326958c-0.4227562,1.6248474-0.3294277,3.3543205-0.3294277,3.3543205
		s-1.9918156,0.3730297-0.1695957,3.6551247c0.0421429,0.0758457,0.5458088,0.3362122,0.569685,0.4200954
		C18.0633316,24.1169739,20.3003502,28.6746349,23.6666679,28.6746349z"/>
	<path fill="none" stroke="#000000" stroke-width="2" stroke-linecap="round" stroke-linejoin="round" stroke-miterlimit="10" d="
		M10.15625,38.1875c0-4.953125,3.2333651-7.3025455,6.6941586-8.4141483c2.4425488-0.7847176,3.725771-2.0785084,3.725771-2.0785084
		"/>
	<path fill="none" stroke="#000000" stroke-width="2" stroke-linecap="round" stroke-linejoin="round" stroke-miterlimit="10" d="
		M26.7571564,27.6948433c0,0,0.5395584,0.5440006,1.5848942,1.1404552"/>
</g>
<g id="remove-user_1_">
</g>
<g id="add-user_1_">
</g>
<g id="user-round">
</g>
<g id="upload">
</g>
<g id="download">
</g>
<g id="move">
</g>
<g id="unview">
</g>
<g id="notify">
</g>
<g id="settings">
</g>
<g id="cloud">
</g>
<g id="favorite">
</g>
<g id="reload">
</g>
<g id="bookmark">
</g>
<g id="contact">
</g>
<g id="call">
</g>
<g id="vie">
</g>
<g id="mail">
</g>
<g id="date">
</g>
<g id="trash">
</g>
<g id="time">
</g>
<g id="star">
</g>
<g id="unlock">
</g>
<g id="lock-user">
</g>
<g id="reload-user">
</g>
<g id="refresh-user">
</g>
<g id="search-user">
</g>
<g id="edit-user">
</g>
<g id="success">
</g>
<g id="delete-user">
</g>
<g id="remove-user">
</g>
<g id="add-user">
</g>
<g id="user">
</g>
<g id="Layer_2">
</g>
<g id="block-user">
</g>
<g id="boy-1">
</g>
<g id="community">
</g>
<g id="love-people">
</g>
<g id="chart-5">
</g>
<g id="graph-top">
</g>
<g id="graph-node">
</g>
</svg>
