<svg xmlns="http://www.w3.org/2000/svg" viewBox="0 0 48 48">
  <title>star-user</title>
  <g id="star">
    <g>
      <path d="M25.972,45A134.649,134.649,0,0,1,2.39,43.285c.688-7.881,5.35-10.413,9.863-11.837a17.292,17.292,0,0,0,6.011-3.209,7.894,7.894,0,0,0,4.519,1.54,7.857,7.857,0,0,0,4.445-1.492,7.881,7.881,0,0,0,2.31,1.694,1,1,0,1,0,.921-1.775,6.231,6.231,0,0,1-1.678-1.185,18.317,18.317,0,0,0,4.29-6.579l.158-.1a1.914,1.914,0,0,0,.752-.647c1.326-2.346,1.676-4.224,1.042-5.581a2.852,2.852,0,0,0-1.167-1.276A19.692,19.692,0,0,0,33.284,8c-.019-.07-1.995-7.036-10.5-7.036S12.3,7.932,12.281,8.006a19.7,19.7,0,0,0-.571,4.833,2.853,2.853,0,0,0-1.167,1.277c-.635,1.357-.284,3.235,1.042,5.582a1.919,1.919,0,0,0,.751.646l.159.1a18.346,18.346,0,0,0,4.2,6.5,15.873,15.873,0,0,1-5.045,2.6C7.02,31,.808,34.1.333,44.072A1,1,0,0,0,1.15,45.1,139.327,139.327,0,0,0,23.3,47.037c.9,0,1.813-.012,2.724-.038A1,1,0,0,0,27,45.972.988.988,0,0,0,25.972,45ZM14.322,19.588c-.125-.443-.463-.653-.93-.943l-.159-.1c-1.226-2.233-1.033-3.23-.889-3.56a.906.906,0,0,1,.562-.5,1,1,0,0,0,.817-1.038,18.383,18.383,0,0,1,.489-4.918c.063-.227,1.633-5.561,8.571-5.561S31.291,8.3,31.352,8.518a18.376,18.376,0,0,1,.491,4.927,1.031,1.031,0,0,0,.794,1.033.9.9,0,0,1,.585.509c.144.33.336,1.327-.889,3.56l-.16.1c-.465.29-.8.5-.928.938-.5,1.735-3.886,8.195-8.462,8.195S14.821,21.319,14.322,19.588Z"/>
      <path d="M47.169,35.223a1,1,0,0,0-.807-.681L40.57,33.7l-2.59-5.248a1.041,1.041,0,0,0-1.793,0L33.6,33.7l-5.792.842a1,1,0,0,0-.554,1.706l4.19,4.084L30.452,46.1A1,1,0,0,0,31.9,47.156l5.18-2.724,5.18,2.724A1,1,0,0,0,43.714,46.1l-.989-5.769,4.19-4.084A1,1,0,0,0,47.169,35.223Zm-6.216,4.044a1,1,0,0,0-.288.885l.736,4.29-3.852-2.025a1,1,0,0,0-.931,0l-3.852,2.025.736-4.29a1,1,0,0,0-.288-.885L30.1,36.23,34.4,35.6a1,1,0,0,0,.752-.547l1.926-3.9,1.926,3.9a1,1,0,0,0,.753.547l4.307.626Z"/>
    </g>
  </g>
</svg>
