<svg xmlns="http://www.w3.org/2000/svg" viewBox="0 0 48 48">
  <title>reload-user_1</title>
  <g id="reload">
    <g>
      <path d="M27.972,45A167.981,167.981,0,0,1,2.391,43.266c.695-7.866,5.353-10.395,9.862-11.817a17.292,17.292,0,0,0,6.011-3.209,7.894,7.894,0,0,0,4.519,1.54,7.857,7.857,0,0,0,4.445-1.492,7.881,7.881,0,0,0,2.31,1.694,1,1,0,1,0,.921-1.775,6.231,6.231,0,0,1-1.678-1.185,18.317,18.317,0,0,0,4.29-6.579l.158-.1a1.914,1.914,0,0,0,.752-.647c1.326-2.346,1.676-4.224,1.042-5.581a2.852,2.852,0,0,0-1.167-1.276A19.692,19.692,0,0,0,33.284,8c-.019-.07-1.995-7.036-10.5-7.036S12.3,7.932,12.281,8.006a19.7,19.7,0,0,0-.571,4.833,2.853,2.853,0,0,0-1.167,1.277c-.635,1.357-.284,3.235,1.042,5.582a1.919,1.919,0,0,0,.751.646l.159.1a18.346,18.346,0,0,0,4.2,6.5,15.873,15.873,0,0,1-5.045,2.6C7.02,31,.808,34.1.333,44.072a1,1,0,0,0,.843,1.035,179.3,179.3,0,0,0,24.1,1.93c.923,0,1.843-.012,2.753-.037a1,1,0,0,0-.056-2ZM14.322,19.588c-.125-.443-.463-.653-.93-.943l-.159-.1c-1.226-2.233-1.033-3.23-.889-3.56a.906.906,0,0,1,.562-.5,1,1,0,0,0,.817-1.038,18.383,18.383,0,0,1,.489-4.918c.063-.227,1.633-5.561,8.571-5.561S31.291,8.3,31.352,8.518a18.376,18.376,0,0,1,.491,4.927,1.031,1.031,0,0,0,.794,1.033.9.9,0,0,1,.585.509c.144.33.336,1.327-.889,3.56l-.16.1c-.465.29-.8.5-.928.938-.5,1.735-3.886,8.195-8.462,8.195S14.821,21.319,14.322,19.588Z"/>
      <path d="M44.987,39.032a1,1,0,0,0-1.218.719,6.971,6.971,0,0,1-12.785,1.777l1.773.443a1,1,0,0,0,.485-1.94l-3.437-.859a1.306,1.306,0,0,0-1.776.587l-1,4a1,1,0,0,0,1.94.485l.381-1.523a8.983,8.983,0,0,0,16.355-2.47A1,1,0,0,0,44.987,39.032Z"/>
      <path d="M46.243,31.03a1,1,0,0,0-1.213.728l-.381,1.523a8.983,8.983,0,0,0-16.355,2.47,1,1,0,0,0,1.937.5,6.971,6.971,0,0,1,12.785-1.777l-1.773-.443a1,1,0,1,0-.485,1.94l3.441.86a.992.992,0,0,0,.539.17A.537.537,0,0,1,45,37a1,1,0,0,0,.969-.757l1-4A1,1,0,0,0,46.243,31.03Z"/>
    </g>
  </g>
</svg>
