<svg xmlns="http://www.w3.org/2000/svg" viewBox="0 0 48 48">
  <title>refresh-user</title>
  <g id="refresh-user">
    <g>
      <path d="M22.981,45.3A90.267,90.267,0,0,1,2.358,43.572c.679-8.027,5.411-10.6,9.992-12.047a17.48,17.48,0,0,0,6.084-3.25,7.984,7.984,0,0,0,4.575,1.56,7.975,7.975,0,0,0,4.559-1.551A17.564,17.564,0,0,0,31.433,29.8a.991.991,0,0,0,.3.047,1,1,0,0,0,.3-1.954c-1.505-.475-2.338-.794-2.8-1a18.524,18.524,0,0,0,4.175-6.506l.163-.1a1.932,1.932,0,0,0,.759-.651c1.339-2.371,1.693-4.267,1.053-5.636a2.872,2.872,0,0,0-1.182-1.29,19.923,19.923,0,0,0-.578-4.9C33.6,7.745,31.607.706,23.01.706S12.416,7.745,12.4,7.82a19.973,19.973,0,0,0-.578,4.895A2.872,2.872,0,0,0,10.636,14c-.641,1.37-.286,3.266,1.052,5.633a1.919,1.919,0,0,0,.76.654l.163.1a18.524,18.524,0,0,0,4.257,6.581,16.068,16.068,0,0,1-5.118,2.644C7.066,31.1.785,34.227.306,44.31a1,1,0,0,0,.752,1.017A84.971,84.971,0,0,0,20.3,47.333q1.337,0,2.739-.039c1.55-.043,6.191-.189,6.191-.189l-.062-2S24.529,45.252,22.981,45.3ZM14.437,19.537c-.127-.442-.465-.652-.934-.944l-.165-.1c-1.245-2.267-1.048-3.28-.9-3.615a.928.928,0,0,1,.576-.517,1,1,0,0,0,.818-1.037,18.58,18.58,0,0,1,.5-4.981c.063-.23,1.652-5.635,8.683-5.635s8.619,5.4,8.681,5.626a18.648,18.648,0,0,1,.5,4.989,1,1,0,0,0,.817,1.038.935.935,0,0,1,.565.493c.155.332.371,1.342-.891,3.639l-.165.1c-.467.29-.8.5-.934.942-.506,1.757-3.934,8.3-8.572,8.3S14.942,21.293,14.437,19.537Z"/>
      <path d="M37.55,29.786a8.786,8.786,0,0,0-7.1,3.627,1,1,0,0,0,1.621,1.172,6.767,6.767,0,1,1-.632,6.806l2.316.579a1,1,0,0,0,.484-1.94l-4-1a1.006,1.006,0,0,0-1.137.523l-2,4a1,1,0,0,0,1.789.895l.911-1.822A8.755,8.755,0,1,0,37.55,29.786Z"/>
    </g>
  </g>
</svg>
