<svg xmlns="http://www.w3.org/2000/svg" viewBox="0 0 48 48">
  <title>message-m</title>
  <g id="message-m">
    <g>
      <path d="M25.541,34.548A11.127,11.127,0,0,1,22.39,32.99,14.015,14.015,0,0,0,25.1,28.676l.024-.016a1.6,1.6,0,0,0,.632-.562c.977-1.729,1.226-3.135.738-4.178a2.274,2.274,0,0,0-.789-.93,13.992,13.992,0,0,0-.409-3.3c-.479-1.779-2.691-5.143-7.633-5.143s-7.154,3.364-7.635,5.147a13.931,13.931,0,0,0-.408,3.292,2.29,2.29,0,0,0-.789.93c-.486,1.042-.238,2.448.739,4.177a1.6,1.6,0,0,0,.631.561l.025.016a14.024,14.024,0,0,0,2.714,4.314,11.126,11.126,0,0,1-3.152,1.558C6.467,35.6,2.008,37.82,1.668,44.981a1,1,0,0,0,.951,1.046h.049a1,1,0,0,0,1-.953c.275-5.812,3.556-7.62,6.728-8.621a12.714,12.714,0,0,0,4.118-2.147,5.507,5.507,0,0,0,6.309,0,12.715,12.715,0,0,0,4.118,2.146c3.172,1,6.452,2.808,6.729,8.621a1,1,0,0,0,1,.953h.049a1,1,0,0,0,.951-1.046C33.325,37.819,28.865,35.6,25.541,34.548Zm-13.5-6.759a1.486,1.486,0,0,0-.778-.827l-.045-.028c-.768-1.421-.637-2-.576-2.148a.36.36,0,0,1,.175-.185,1,1,0,0,0,.817-1.039,12.387,12.387,0,0,1,.333-3.346c.01-.037,1.041-3.663,5.7-3.663,4.608,0,5.66,3.52,5.7,3.659a12.521,12.521,0,0,1,.334,3.352A1,1,0,0,0,24.52,24.6a.369.369,0,0,1,.167.168c.137.293.053,1.011-.568,2.165l-.045.028a1.491,1.491,0,0,0-.779.828c-.336,1.167-2.6,5.512-5.627,5.512S12.375,28.957,12.039,27.789Z"/>
      <path d="M36.313,1.375c-6.169,0-11.187,4.318-11.187,9.625a9.636,9.636,0,0,0,6.2,8.618,10.546,10.546,0,0,1-.262,2c-.277,1.458-.517,2.718.117,3.483a1.445,1.445,0,0,0,1.136.521c.715,0,1.453-.625,4.06-3.086.851-.8,2-1.89,2.391-2.145C43.833,19.42,47.5,15.487,47.5,11,47.5,5.693,42.481,1.375,36.313,1.375Zm1.974,17.073c-.559.1-1.122.59-3.288,2.636-.651.616-1.519,1.436-2.163,1.991.054-.369.132-.775.189-1.081.333-1.753.678-3.566-.731-4.138-3.14-1.273-5.168-3.965-5.168-6.856,0-4.2,4.121-7.625,9.188-7.625S45.5,6.8,45.5,11C45.5,14.555,42.466,17.688,38.286,18.448Z"/>
      <circle cx="31.564" cy="10.708" r="2"/>
      <circle cx="36.564" cy="10.708" r="2"/>
      <circle cx="41.564" cy="10.708" r="2"/>
    </g>
  </g>
</svg>
