<svg xmlns="http://www.w3.org/2000/svg" viewBox="0 0 48 48">
  <title>bookmark-user-rd_1</title>
  <g id="reload-rd">
    <g>
      <path d="M24,43a18.905,18.905,0,0,1-12.829-5.026c.077-3.6,2.029-5.978,5.985-7.248a11.517,11.517,0,0,0,3.68-1.936,4.966,4.966,0,0,0,5.66,0A10.75,10.75,0,0,0,28.4,30a1,1,0,0,0,.9-1.787,9.126,9.126,0,0,1-1.249-.754,13.073,13.073,0,0,0,2.4-3.887,1.527,1.527,0,0,0,.6-.544c.9-1.616,1.119-2.931.659-3.91a2.205,2.205,0,0,0-.7-.843,13.127,13.127,0,0,0-.354-2.937c-.114-.778-1-4.837-6.982-4.837-5.962,0-6.865,4.067-6.982,4.834a13.1,13.1,0,0,0-.355,2.94,2.205,2.205,0,0,0-.7.843c-.46.979-.238,2.294.659,3.91a1.528,1.528,0,0,0,.6.544,13.034,13.034,0,0,0,2.393,3.886,9.842,9.842,0,0,1-2.738,1.363c-4.059,1.3-6.5,3.8-7.186,7.274A19,19,0,1,1,43,24a19.164,19.164,0,0,1-.354,3.666,1,1,0,1,0,1.963.384A21,21,0,1,0,24,45a1,1,0,0,0,0-2ZM17.959,21.883l-.019-.012c-.679-1.291-.54-1.794-.5-1.886a.392.392,0,0,1,.084-.115,1,1,0,0,0,.815-1.036,11.566,11.566,0,0,1,.3-3.049.989.989,0,0,0,.029-.177c.01-.127.288-3.108,5-3.108,4.585,0,4.974,2.793,5,3.1a1.059,1.059,0,0,0,.03.184,11.566,11.566,0,0,1,.3,3.049,1,1,0,0,0,.815,1.036.367.367,0,0,1,.077.1c.112.238.042.875-.5,1.9l-.019.011a1.438,1.438,0,0,0-.739.808c-.3,1.056-2.3,4.985-4.968,4.985S19,23.746,18.7,22.683A1.428,1.428,0,0,0,17.959,21.883Z"/>
      <path d="M45.988,38.032a1,1,0,0,0-1.219.718,6.971,6.971,0,0,1-12.785,1.777l1.773.443a1,1,0,0,0,.484-1.94L30.8,38.17a1.3,1.3,0,0,0-1.773.587l-1,4a1,1,0,1,0,1.939.485l.381-1.523a8.984,8.984,0,0,0,16.356-2.47A1,1,0,0,0,45.988,38.032Z"/>
      <path d="M47.242,30.03a1,1,0,0,0-1.212.728l-.381,1.523a8.984,8.984,0,0,0-16.356,2.47,1,1,0,0,0,1.938.5,6.971,6.971,0,0,1,12.785-1.777l-1.773-.443a1,1,0,0,0-.484,1.94l3.44.86a.991.991,0,0,0,.539.17,1.033,1.033,0,0,0,.13-.016A1.048,1.048,0,0,0,46,36a1,1,0,0,0,.969-.757l1-4A1,1,0,0,0,47.242,30.03Z"/>
    </g>
  </g>
</svg>
