<svg xmlns="http://www.w3.org/2000/svg" viewBox="0 0 48 48">
  <title>mail-user</title>
  <g id="mail">
    <g>
      <path d="M12.253,31.448a17.291,17.291,0,0,0,6.011-3.208,7.9,7.9,0,0,0,4.52,1.54,7.854,7.854,0,0,0,4.444-1.492,7.881,7.881,0,0,0,2.309,1.694,1,1,0,0,0,.922-1.775A6.22,6.22,0,0,1,28.78,27.02a18.335,18.335,0,0,0,4.29-6.578l.158-.1a1.908,1.908,0,0,0,.753-.646c1.325-2.346,1.676-4.224,1.041-5.582a2.846,2.846,0,0,0-1.166-1.276A19.74,19.74,0,0,0,33.284,8c-.02-.07-2-7.036-10.5-7.036S12.3,7.932,12.281,8.006a19.731,19.731,0,0,0-.571,4.833,2.853,2.853,0,0,0-1.167,1.277c-.635,1.357-.284,3.235,1.04,5.579a1.912,1.912,0,0,0,.755.65l.157.1a18.333,18.333,0,0,0,4.2,6.5,15.739,15.739,0,0,1-5.045,2.6C7.02,31,.808,34.1.332,44.071A1,1,0,0,0,1.116,45.1a105.248,105.248,0,0,0,20.219,1.941q1.326,0,2.693-.037a1,1,0,1,0-.057-2A105.723,105.723,0,0,1,2.387,43.311C3.068,35.41,7.735,32.874,12.253,31.448ZM14.32,19.582c-.128-.439-.463-.647-.927-.936l-.161-.1c-1.226-2.233-1.032-3.23-.889-3.56a.9.9,0,0,1,.562-.5,1,1,0,0,0,.817-1.038,18.393,18.393,0,0,1,.49-4.918c.063-.227,1.633-5.561,8.57-5.561S31.291,8.3,31.352,8.518a18.423,18.423,0,0,1,.492,4.927,1.03,1.03,0,0,0,.794,1.033.9.9,0,0,1,.584.509c.144.33.337,1.327-.89,3.56l-.159.1c-.466.29-.8.5-.928.938-.5,1.735-3.888,8.195-8.462,8.195S14.82,21.32,14.32,19.582Z"/>
      <path d="M44,31H30a2,2,0,0,0-2,2V44a2,2,0,0,0,2,2H44a2,2,0,0,0,2-2V33A2,2,0,0,0,44,31Zm0,2v1.015a.968.968,0,0,0-.5.117L37,37.848l-6.5-3.716a.967.967,0,0,0-.5-.117V33ZM30,44V36.152l6.5,3.716a1,1,0,0,0,.992,0L44,36.151V44Z"/>
    </g>
  </g>
</svg>
