<svg xmlns="http://www.w3.org/2000/svg" viewBox="0 0 48 48">
  <title>contact--user</title>
  <g id="contact">
    <path d="M34.318,29.168a15.166,15.166,0,0,1-4.765-2.448,17.806,17.806,0,0,0,3.219-4.437c3.988-.589,7.177-1.727,7.228-4.263.057-2.817-4.284-3.883-4.779-4-.022-.005-.043,0-.065,0a2.774,2.774,0,0,0-.864-.8,18.832,18.832,0,0,0-.548-4.61c-.019-.067-1.915-6.756-10.077-6.756S13.607,8.548,13.588,8.62a18.876,18.876,0,0,0-.547,4.605,2.766,2.766,0,0,0-1.111,1.226c-.613,1.311-.277,3.119,1,5.378a1.87,1.87,0,0,0,.731.629l.139.085a17.6,17.6,0,0,0,3.982,6.175,15.164,15.164,0,0,1-4.766,2.449c-4.439,1.4-10.394,4.368-10.848,13.926a1,1,0,0,0,.788,1.025,109.753,109.753,0,0,0,20.711,1.854,109.765,109.765,0,0,0,20.711-1.854,1,1,0,0,0,.788-1.025C44.711,33.536,38.757,30.568,34.318,29.168ZM38,17.98c-.019.926-1.6,1.553-3.718,1.988a1.006,1.006,0,0,0,.124-.143,9.023,9.023,0,0,0,1.274-3.581C36.831,16.654,38.013,17.336,38,17.98Zm-22.377,1.7c-.127-.437-.472-.651-.907-.922l-.143-.088c-1.154-2.107-.977-3.042-.843-3.351a.826.826,0,0,1,.5-.458,1,1,0,0,0,.817-1.038,17.418,17.418,0,0,1,.468-4.689c.014-.053,1.5-5.277,8.146-5.277,6.594,0,8.087,5.065,8.145,5.273a17.493,17.493,0,0,1,.469,4.693,1,1,0,0,0,.817,1.038.84.84,0,0,1,.494.435c.143.305.339,1.237-.832,3.374l-.143.088c-.437.271-.78.485-.907.923a6.8,6.8,0,0,1-.274.736c-1.612.2-3.27.326-4.671.416a3.019,3.019,0,1,0,.1,2c1.136-.069,2.29-.149,3.423-.257-1.426,2.28-3.779,4.9-6.623,4.9C19.319,27.482,16.1,21.334,15.623,19.682ZM23,22a.942.942,0,0,1,.034-.168.965.965,0,0,0-.028.2C23.006,22.019,23,22.011,23,22Zm1,1h0Zm-.382-.077a.971.971,0,0,1-.1-.064A.967.967,0,0,0,23.618,22.923Zm-.313-.208a1.007,1.007,0,0,1-.085-.116A1.009,1.009,0,0,0,23.3,22.715Zm-.214-.307a1.008,1.008,0,0,1-.042-.164A1.024,1.024,0,0,0,23.091,22.407Zm-.018-.768a.969.969,0,0,1,.1-.161A.985.985,0,0,0,23.073,21.639Zm.2-.322a.991.991,0,0,1,.147-.112A1,1,0,0,0,23.277,21.317Zm.309-.221a1,1,0,0,1,.193-.051A1.012,1.012,0,0,0,23.586,21.1Zm.081,22.877A112.164,112.164,0,0,1,4.224,42.328c.662-7.49,5.1-9.9,9.394-11.253a16.63,16.63,0,0,0,5.735-3.054,7.571,7.571,0,0,0,4.315,1.461,7.573,7.573,0,0,0,4.315-1.46,16.642,16.642,0,0,0,5.735,3.053c4.295,1.355,8.73,3.763,9.393,11.253A112.149,112.149,0,0,1,23.667,43.973Z"/>
  </g>
</svg>
