<svg xmlns="http://www.w3.org/2000/svg" viewBox="0 0 48 48">
  <title>message-f</title>
  <g id="message-f">
    <g>
      <path d="M36.313,1.375c-6.169,0-11.187,4.318-11.187,9.625a9.636,9.636,0,0,0,6.2,8.618,10.546,10.546,0,0,1-.262,2c-.277,1.458-.517,2.718.117,3.483a1.445,1.445,0,0,0,1.136.521c.715,0,1.453-.625,4.06-3.086.851-.8,2-1.89,2.391-2.145C43.833,19.42,47.5,15.487,47.5,11,47.5,5.693,42.481,1.375,36.313,1.375Zm1.974,17.073c-.559.1-1.122.59-3.288,2.636-.651.616-1.519,1.436-2.163,1.991.054-.369.132-.775.189-1.081.333-1.753.678-3.566-.731-4.138-3.14-1.273-5.168-3.965-5.168-6.856,0-4.2,4.121-7.625,9.188-7.625S45.5,6.8,45.5,11C45.5,14.555,42.466,17.688,38.286,18.448Z"/>
      <path d="M32.428,43.349c-.768-2.222-2.053-5.942-6.756-7.992l-.378-.165A16.343,16.343,0,0,1,22.605,33.9c.232-.006.479-.007.721-.009,1.782-.01,4-.023,5.137-1.54,1.348-1.8.3-3.4-.622-4.815-.218-.334-.449-.688-.67-1.068a11.023,11.023,0,0,1-1.9-5.473l-.033-.333c-.507-4.924-3.4-7.812-8.153-8.132a1.034,1.034,0,0,0-.135,0c-4.751.319-7.646,3.208-8.153,8.132l-.032.329a11.044,11.044,0,0,1-1.906,5.476c-.221.381-.452.735-.671,1.07-.923,1.415-1.968,3.018-.621,4.813C6.7,33.867,8.917,33.879,10.7,33.89c.287,0,.577,0,.844.012-.3.356-1.1.662-3.143,1.437C3.835,37.065,2.437,41,1.6,43.352a11.681,11.681,0,0,1-.482,1.234A1,1,0,0,0,2.9,45.5a12.85,12.85,0,0,0,.588-1.479c.767-2.156,1.924-5.414,5.621-6.812,3.744-1.417,4.628-1.839,4.628-4.167a1,1,0,0,0-.718-.959,8.87,8.87,0,0,0-2.307-.193c-1.34-.008-3.007-.017-3.549-.74-.457-.609-.263-1.049.7-2.521.237-.363.487-.747.727-1.16a12.931,12.931,0,0,0,2.166-6.283l.032-.321c.4-3.93,2.5-6.062,6.23-6.336,3.73.274,5.826,2.406,6.23,6.336l.032.324A12.929,12.929,0,0,0,25.44,27.47c.239.412.489.8.726,1.158.961,1.473,1.154,1.913.7,2.523-.542.722-2.209.731-3.548.739a8.87,8.87,0,0,0-2.307.193,1,1,0,0,0-.718.959c0,2.154.642,2.433,4.205,3.984l.377.164c3.9,1.7,4.961,4.776,5.664,6.812a11.649,11.649,0,0,0,.583,1.483,1,1,0,1,0,1.775-.92A10.5,10.5,0,0,1,32.428,43.349Z"/>
      <circle cx="31.564" cy="10.708" r="2"/>
      <circle cx="36.564" cy="10.708" r="2"/>
      <circle cx="41.564" cy="10.708" r="2"/>
    </g>
  </g>
</svg>
