<svg xmlns="http://www.w3.org/2000/svg" viewBox="0 0 48 48">
  <title>edit-user</title>
  <g id="edit-user">
    <g>
      <path d="M23.95,45.153A89.661,89.661,0,0,1,3.467,43.441c.676-7.969,5.375-10.523,9.924-11.958a17.365,17.365,0,0,0,6.044-3.227,7.933,7.933,0,0,0,4.544,1.55,7.935,7.935,0,0,0,4.544-1.549,17.387,17.387,0,0,0,6.044,3.227.991.991,0,0,0,.3.047,1,1,0,0,0,.3-1.954,15.973,15.973,0,0,1-5.078-2.621,18.422,18.422,0,0,0,4.226-6.534l.158-.1a1.913,1.913,0,0,0,.756-.65c1.332-2.357,1.685-4.243,1.048-5.606A2.862,2.862,0,0,0,35.1,12.785a19.8,19.8,0,0,0-.574-4.866c-.02-.071-2-7.069-10.552-7.069s-10.532,7-10.553,7.073a19.745,19.745,0,0,0-.573,4.862,2.859,2.859,0,0,0-1.175,1.283c-.637,1.363-.284,3.249,1.048,5.605a1.925,1.925,0,0,0,.754.648l.16.1a18.447,18.447,0,0,0,4.229,6.535,15.831,15.831,0,0,1-5.08,2.62c-4.654,1.469-10.9,4.581-11.375,14.6A1,1,0,0,0,2.166,45.2a84.423,84.423,0,0,0,19.12,1.995q1.327,0,2.721-.038a1,1,0,1,0-.057-2ZM15.467,19.568c-.125-.444-.463-.654-.932-.945l-.161-.1c-1.234-2.248-1.04-3.252-.895-3.584a.914.914,0,0,1,.568-.511,1,1,0,0,0,.817-1.038,18.458,18.458,0,0,1,.492-4.945C15.421,8.215,17,2.85,23.979,2.85S32.536,8.215,32.6,8.435a18.535,18.535,0,0,1,.494,4.955,1,1,0,0,0,.817,1.038.926.926,0,0,1,.558.486c.153.329.366,1.33-.885,3.609l-.163.1c-.465.289-.8.5-.929.939-.5,1.745-3.907,8.242-8.512,8.242S15.969,21.308,15.467,19.568Z"/>
      <path d="M44.556,32.915l-2.043-2.044a2.931,2.931,0,0,0-4.139,0L30.2,39.044a1,1,0,0,0-.26.453l-1.7,6.47a1,1,0,0,0,.967,1.254,1.014,1.014,0,0,0,.255-.033l6.47-1.7a1,1,0,0,0,.452-.26l8.172-8.172A2.93,2.93,0,0,0,44.556,32.915Zm-13.181,9,2.214,2.12-2.979.784Zm11.766-6.275L35.6,43.186l-3.426-3.28,7.618-7.62a.929.929,0,0,1,1.311,0l2.043,2.043A.927.927,0,0,1,43.142,35.639Z"/>
    </g>
  </g>
</svg>
