<svg xmlns="http://www.w3.org/2000/svg" viewBox="0 0 48 48">
  <title>wallet-1</title>
  <g id="wallet-1">
    <g>
      <path d="M46,23.184V15.075a3,3,0,0,0-3-3H42V6a3,3,0,0,0-3-3H13a3,3,0,0,0-3,3V7.184A3,3,0,0,0,8.1,9.263l-3.8,1.39A3.015,3.015,0,0,0,2,13.57V44a3,3,0,0,0,3,3H43a3,3,0,0,0,3-3V34.816A3,3,0,0,0,48,32V26A3,3,0,0,0,46,23.184ZM13,5H39a1,1,0,0,1,1,1v6.075H38.985c0-.026.015-.049.015-.075V10a3,3,0,0,0-3-3H12V6A1,1,0,0,1,13,5Zm-3,5a1,1,0,0,1,1-1H36a1,1,0,0,1,1,1v2c0,.027.013.049.015.075H9.985c0-.026.015-.049.015-.075ZM8.015,12.075h-1.8L8,11.428V12C8,12.027,8.013,12.049,8.015,12.075ZM43,45H5a1,1,0,0,1-1-1V14.075H43a1,1,0,0,1,1,1V23H33a3,3,0,0,0-3,3v6a3,3,0,0,0,3,3H44v9A1,1,0,0,1,43,45Zm3-13a1,1,0,0,1-1,1H33a1,1,0,0,1-1-1V26a1,1,0,0,1,1-1H45a1,1,0,0,1,1,1Z"/>
      <path d="M37,26a3,3,0,1,0,3,3A3,3,0,0,0,37,26Zm0,4a1,1,0,1,1,1-1A1,1,0,0,1,37,30Z"/>
    </g>
  </g>
</svg>
