<svg xmlns="http://www.w3.org/2000/svg" viewBox="0 0 48 48">
  <title>wallet-notify</title>
  <g id="wallet-notify">
    <g>
      <path d="M35,29a1,1,0,0,0-1,1v6a1,1,0,0,0,2,0V30A1,1,0,0,0,35,29Z"/>
      <path d="M35,38a1,1,0,0,0-1,1v1a1,1,0,0,0,2,0V39A1,1,0,0,0,35,38Z"/>
      <path d="M47.368,41.616l-2.377-4.571c0-.016.009-.029.009-.045V12.075a3,3,0,0,0-3-3H38V4a3,3,0,0,0-3.588-2.942L3.377,7.636A3.016,3.016,0,0,0,1,10.57V41a3,3,0,0,0,3,3H22.482a2.891,2.891,0,0,0,2.812,2H44.706a3,3,0,0,0,2.662-4.384ZM34.81,3.019a1,1,0,0,1,.826.211A.983.983,0,0,1,36,4V9.075H6.234ZM3,41V11.075H42a1,1,0,0,1,1,1V33.217L37.661,22.951a3,3,0,0,0-5.323,0L22.632,41.616a2.991,2.991,0,0,0-.141.384H4A1,1,0,0,1,3,41Zm42.561,2.519a.983.983,0,0,1-.854.481H25.294a1,1,0,0,1-.887-1.462l9.705-18.665a1,1,0,0,1,1.774,0l9.706,18.665A.985.985,0,0,1,45.561,43.519Z"/>
    </g>
  </g>
</svg>
