<svg xmlns="http://www.w3.org/2000/svg" viewBox="0 0 48 48">
  <title>wallet</title>
  <g id="wallet">
    <g>
      <path d="M46,23.184V15.075a3,3,0,0,0-3-3H39V7a3,3,0,0,0-3.588-2.942L4.378,10.636A3.016,3.016,0,0,0,2,13.57V44a3,3,0,0,0,3,3H43a3,3,0,0,0,3-3V34.816A3,3,0,0,0,48,32V26A3,3,0,0,0,46,23.184ZM35.81,6.019a1.007,1.007,0,0,1,.827.211A.985.985,0,0,1,37,7v5.074H7.235ZM43,45H5a1,1,0,0,1-1-1V14.075H43a1,1,0,0,1,1,1V23H33a3,3,0,0,0-3,3v6a3,3,0,0,0,3,3H44v9A1,1,0,0,1,43,45Zm3-13a1,1,0,0,1-1,1H33a1,1,0,0,1-1-1V26a1,1,0,0,1,1-1H45a1,1,0,0,1,1,1Z"/>
      <path d="M37,26a3,3,0,1,0,3,3A3,3,0,0,0,37,26Zm0,4a1,1,0,1,1,1-1A1,1,0,0,1,37,30Z"/>
    </g>
  </g>
</svg>
