<svg xmlns="http://www.w3.org/2000/svg" viewBox="0 0 48 48">
  <title>wallet-add</title>
  <g id="wallet-add">
    <g>
      <path d="M44.942,28.287A.973.973,0,0,0,45,28V12.075a3,3,0,0,0-3-3H38V4a3,3,0,0,0-3.588-2.942L3.377,7.636A3.016,3.016,0,0,0,1,10.57V41a3,3,0,0,0,3,3H27c.026,0,.048-.013.073-.015a11.988,11.988,0,0,0,17.869-15.7ZM34.81,3.019a1,1,0,0,1,.826.211A.983.983,0,0,1,36,4V9.075H6.234ZM3,41V11.075H42a1,1,0,0,1,1,1V26.081A11.979,11.979,0,0,0,25.273,42H4A1,1,0,0,1,3,41Zm32,4A10,10,0,1,1,45,35,10.012,10.012,0,0,1,35,45Z"/>
      <path d="M40,34H36V30a1,1,0,0,0-2,0v4H30a1,1,0,0,0,0,2h4v4a1,1,0,0,0,2,0V36h4a1,1,0,0,0,0-2Z"/>
    </g>
  </g>
</svg>
