<svg xmlns="http://www.w3.org/2000/svg" viewBox="0 0 48 48">
  <title>chart</title>
  <g id="chart">
    <g>
      <path d="M46,7a1,1,0,0,0,1-1V2a1,1,0,0,0-1-1H2A1,1,0,0,0,1,2V6A1,1,0,0,0,2,7H3V32H2a1,1,0,0,0-1,1v4a1,1,0,0,0,1,1H18.906l-3.819,8.594a1,1,0,1,0,1.827.813l4-9A.99.99,0,0,0,21,38h2v9a1,1,0,0,0,2,0V38h2a.99.99,0,0,0,.083.406l4,9a1,1,0,1,0,1.827-.812L29.094,38H46a1,1,0,0,0,1-1V33a1,1,0,0,0-1-1H45V7ZM3,3H45V5H3ZM45,36H3V34H45Zm-2-4H5V7H43Z"/>
      <path d="M8,19a8.993,8.993,0,0,0,4.2,7.6,1,1,0,0,0,.3.267.973.973,0,0,0,.354.114A9,9,0,1,0,17,10c-.253,0-.5.017-.75.038a.959.959,0,0,0-.753.1A9.007,9.007,0,0,0,8,19Zm6.434,6.506,2.785-4.873L21.184,24.6a6.935,6.935,0,0,1-6.75.908ZM24,19a6.954,6.954,0,0,1-1.4,4.184L17.95,18.535l-.816-6.528A7,7,0,0,1,24,19Zm-8.851-6.744.817,6.537L12.7,24.511a6.985,6.985,0,0,1,2.45-12.255Z"/>
      <path d="M31,15h6a1,1,0,0,0,0-2H31a1,1,0,0,0,0,2Z"/>
      <path d="M31,19h6a1,1,0,0,0,0-2H31a1,1,0,0,0,0,2Z"/>
      <path d="M31,23h6a1,1,0,0,0,0-2H31a1,1,0,0,0,0,2Z"/>
    </g>
  </g>
</svg>
