<svg xmlns="http://www.w3.org/2000/svg" viewBox="0 0 48 48">
  <title>white-board</title>
  <g id="white-board">
    <g>
      <path d="M24,37a1,1,0,0,0-1,1v9a1,1,0,0,0,2,0V38A1,1,0,0,0,24,37Z"/>
      <path d="M20.406,37.086a1,1,0,0,0-1.32.508l-4,9a1,1,0,1,0,1.827.813l4-9A1,1,0,0,0,20.406,37.086Z"/>
      <path d="M28.914,37.594a1,1,0,1,0-1.827.813l4,9a1,1,0,1,0,1.827-.812Z"/>
      <path d="M46,4H30V1a1,1,0,0,0-1-1H19a1,1,0,0,0-1,1V4H2A1,1,0,0,0,1,5V35a1,1,0,0,0,1,1H46a1,1,0,0,0,1-1V5A1,1,0,0,0,46,4ZM20,2h8V8H20ZM45,34H3V6H18V9a1,1,0,0,0,1,1H29a1,1,0,0,0,1-1V6H45Z"/>
    </g>
  </g>
</svg>
