<svg xmlns="http://www.w3.org/2000/svg" viewBox="0 0 48 48">
  <title>search</title>
  <g id="search-2" data-name="search">
    <g>
      <path d="M44,1H4A3,3,0,0,0,1,4V44a3,3,0,0,0,3,3H44a3,3,0,0,0,3-3V4A3,3,0,0,0,44,1ZM4,3H44a1,1,0,0,1,1,1V9H3V4A1,1,0,0,1,4,3ZM44,45H4a1,1,0,0,1-1-1V11H45V44A1,1,0,0,1,44,45Z"/>
      <path d="M6,7.5A1.5,1.5,0,1,0,4.5,6,1.5,1.5,0,0,0,6,7.5Zm0-2a.5.5,0,1,1-.5.5A.5.5,0,0,1,6,5.5Z"/>
      <path d="M10,7.5A1.5,1.5,0,1,0,8.5,6,1.5,1.5,0,0,0,10,7.5Zm0-2a.5.5,0,1,1-.5.5A.5.5,0,0,1,10,5.5Z"/>
      <path d="M14,7.5A1.5,1.5,0,1,0,12.5,6,1.5,1.5,0,0,0,14,7.5Zm0-2a.5.5,0,1,1-.5.5A.5.5,0,0,1,14,5.5Z"/>
      <path d="M34,21H14a2,2,0,0,0-2,2v2a2,2,0,0,0,2,2H34a2,2,0,0,0,2-2V23A2,2,0,0,0,34,21ZM14,23H29v2H14Zm17,2V23h3v2Z"/>
      <path d="M22,29H16a1,1,0,0,0,0,2h6a1,1,0,0,0,0-2Z"/>
      <path d="M32,29H26a1,1,0,0,0,0,2h6a1,1,0,0,0,0-2Z"/>
    </g>
  </g>
</svg>
