<svg xmlns="http://www.w3.org/2000/svg" viewBox="0 0 48 48">
  <title>slide-count</title>
  <g id="slide-count">
    <g>
      <path d="M44,1H4A3,3,0,0,0,1,4V44a3,3,0,0,0,3,3H44a3,3,0,0,0,3-3V4A3,3,0,0,0,44,1Zm1,43a1,1,0,0,1-1,1H4a1,1,0,0,1-1-1V34H45Zm0-12H3V11H45ZM45,9H3V4A1,1,0,0,1,4,3H44a1,1,0,0,1,1,1Z"/>
      <path d="M6,4.5A1.5,1.5,0,1,0,7.5,6,1.5,1.5,0,0,0,6,4.5Zm0,2A.5.5,0,1,1,6.5,6,.5.5,0,0,1,6,6.5Z"/>
      <path d="M10,4.5A1.5,1.5,0,1,0,11.5,6,1.5,1.5,0,0,0,10,4.5Zm0,2a.5.5,0,1,1,.5-.5A.5.5,0,0,1,10,6.5Z"/>
      <path d="M14,4.5A1.5,1.5,0,1,0,15.5,6,1.5,1.5,0,0,0,14,4.5Zm0,2a.5.5,0,1,1,.5-.5A.5.5,0,0,1,14,6.5Z"/>
      <path d="M20,39.5A1.5,1.5,0,1,0,18.5,38,1.5,1.5,0,0,0,20,39.5Zm0-2a.5.5,0,1,1-.5.5A.5.5,0,0,1,20,37.5Z"/>
      <path d="M24,39.5A1.5,1.5,0,1,0,22.5,38,1.5,1.5,0,0,0,24,39.5Zm0-2a.5.5,0,1,1-.5.5A.5.5,0,0,1,24,37.5Z"/>
      <path d="M28,39.5A1.5,1.5,0,1,0,26.5,38,1.5,1.5,0,0,0,28,39.5Zm0-2a.5.5,0,1,1-.5.5A.5.5,0,0,1,28,37.5Z"/>
      <path d="M20,20h8a1,1,0,0,0,0-2H20a1,1,0,0,0,0,2Z"/>
      <path d="M16,24H32a1,1,0,0,0,0-2H16a1,1,0,0,0,0,2Z"/>
    </g>
  </g>
</svg>
