<svg xmlns="http://www.w3.org/2000/svg" viewBox="0 0 48 48">
  <title>list</title>
  <g id="list">
    <g>
      <path d="M41,2H7A5.006,5.006,0,0,0,2,7V41a5.006,5.006,0,0,0,5,5H41a5.006,5.006,0,0,0,5-5V7A5.006,5.006,0,0,0,41,2ZM7,4H41a3,3,0,0,1,3,3V8H4V7A3,3,0,0,1,7,4ZM41,44H7a3,3,0,0,1-3-3V10H44V41A3,3,0,0,1,41,44Z"/>
      <path d="M8,7a.992.992,0,0,0,.71-.29,1.171,1.171,0,0,0,.21-.33A1,1,0,0,0,9,6a1.052,1.052,0,0,0-.29-.71,1.034,1.034,0,0,0-.33-.21,1,1,0,0,0-.76,0,1.027,1.027,0,0,0-.33.21A1.05,1.05,0,0,0,7,6,.99.99,0,0,0,8,7Z"/>
      <path d="M11,7a.992.992,0,0,0,.71-.29,1.171,1.171,0,0,0,.21-.33A1,1,0,0,0,12,6a1.052,1.052,0,0,0-.29-.71,1.034,1.034,0,0,0-.33-.21,1,1,0,0,0-.76,0,1.027,1.027,0,0,0-.33.21A1.05,1.05,0,0,0,10,6a.99.99,0,0,0,1,1Z"/>
      <path d="M14,7a.992.992,0,0,0,.71-.29,1.171,1.171,0,0,0,.21-.33A1,1,0,0,0,15,6a1.052,1.052,0,0,0-.29-.71,1.034,1.034,0,0,0-.33-.21,1,1,0,0,0-.76,0,1.027,1.027,0,0,0-.33.21A1.05,1.05,0,0,0,13,6a.99.99,0,0,0,1,1Z"/>
      <path d="M10.5,14A3.5,3.5,0,1,0,14,17.5,3.5,3.5,0,0,0,10.5,14Zm0,5A1.5,1.5,0,1,1,12,17.5,1.5,1.5,0,0,1,10.5,19Z"/>
      <path d="M10.5,23A3.5,3.5,0,1,0,14,26.5,3.5,3.5,0,0,0,10.5,23Zm0,5A1.5,1.5,0,1,1,12,26.5,1.5,1.5,0,0,1,10.5,28Z"/>
      <path d="M10.5,32A3.5,3.5,0,1,0,14,35.5,3.5,3.5,0,0,0,10.5,32Zm0,5A1.5,1.5,0,1,1,12,35.5,1.5,1.5,0,0,1,10.5,37Z"/>
      <path d="M39,17H18a1,1,0,0,0,0,2H39a1,1,0,0,0,0-2Z"/>
      <path d="M39,26H18a1,1,0,0,0,0,2H39a1,1,0,0,0,0-2Z"/>
      <path d="M39,35H18a1,1,0,0,0,0,2H39a1,1,0,0,0,0-2Z"/>
    </g>
  </g>
</svg>
