<svg xmlns="http://www.w3.org/2000/svg" viewBox="0 0 48 48">
  <title>profile</title>
  <g id="profile">
    <g>
      <path d="M44,1H4A3,3,0,0,0,1,4V44a3,3,0,0,0,3,3H44a3,3,0,0,0,3-3V4A3,3,0,0,0,44,1ZM4,3H44a1,1,0,0,1,1,1V9H3V4A1,1,0,0,1,4,3ZM44,45H4a1,1,0,0,1-1-1V11H45V44A1,1,0,0,1,44,45Z"/>
      <path d="M6,7.5A1.5,1.5,0,1,0,4.5,6,1.5,1.5,0,0,0,6,7.5Zm0-2a.5.5,0,1,1-.5.5A.5.5,0,0,1,6,5.5Z"/>
      <path d="M10,7.5A1.5,1.5,0,1,0,8.5,6,1.5,1.5,0,0,0,10,7.5Zm0-2a.5.5,0,1,1-.5.5A.5.5,0,0,1,10,5.5Z"/>
      <path d="M14,7.5A1.5,1.5,0,1,0,12.5,6,1.5,1.5,0,0,0,14,7.5Zm0-2a.5.5,0,1,1-.5.5A.5.5,0,0,1,14,5.5Z"/>
      <path d="M24,16.133A11.867,11.867,0,1,0,35.866,28,11.88,11.88,0,0,0,24,16.133ZM17.5,35.4c.107-1.625,1.058-2.716,2.921-3.315a6.855,6.855,0,0,0,1.887-.935,3.147,3.147,0,0,0,3.022,0,6.854,6.854,0,0,0,1.887.935,3.687,3.687,0,0,1,2.915,3.627A9.812,9.812,0,0,1,17.5,35.4ZM21.379,25.17a5.812,5.812,0,0,1,.147-1.52l.029-.176c0-.013.12-1.266,2.264-1.266,2.012,0,2.239,1.067,2.262,1.259l.03.184a5.8,5.8,0,0,1,.147,1.518l-.029.821.51.131a2.306,2.306,0,0,1-.159.4,1.113,1.113,0,0,0-.5.638c-.157.554-1.168,2.376-2.26,2.376s-2.1-1.823-2.259-2.37a1.128,1.128,0,0,0-.5-.642,2.408,2.408,0,0,1-.155-.387l.518-.1Zm10.46,8.8a5.629,5.629,0,0,0-4.011-3.782,4.852,4.852,0,0,1-.939-.418,7.682,7.682,0,0,0,.986-1.7,1.125,1.125,0,0,0,.35-.375,2.784,2.784,0,0,0,.372-2.54,1.65,1.65,0,0,0-.341-.481,7.446,7.446,0,0,0-.188-1.444c-.127-1.1-1.147-3.021-4.248-3.021s-4.116,1.919-4.248,3.018a7.411,7.411,0,0,0-.189,1.447,1.657,1.657,0,0,0-.341.48,2.8,2.8,0,0,0,.375,2.546,1.118,1.118,0,0,0,.345.367,7.674,7.674,0,0,0,.988,1.7,4.847,4.847,0,0,1-.939.418,5.826,5.826,0,0,0-3.943,3.388,9.871,9.871,0,1,1,15.973.394Z"/>
    </g>
  </g>
</svg>
