<svg xmlns="http://www.w3.org/2000/svg" viewBox="0 0 48 48">
  <title>search-list</title>
  <g id="search-list">
    <g>
      <path d="M44,1H4A3,3,0,0,0,1,4V44a3,3,0,0,0,3,3H44a3,3,0,0,0,3-3V4A3,3,0,0,0,44,1ZM4,3H44a1,1,0,0,1,1,1V9H3V4A1,1,0,0,1,4,3ZM44,45H4a1,1,0,0,1-1-1V11H45V44A1,1,0,0,1,44,45Z"/>
      <path d="M6,7.5A1.5,1.5,0,1,0,4.5,6,1.5,1.5,0,0,0,6,7.5Zm0-2a.5.5,0,1,1-.5.5A.5.5,0,0,1,6,5.5Z"/>
      <path d="M10,7.5A1.5,1.5,0,1,0,8.5,6,1.5,1.5,0,0,0,10,7.5Zm0-2a.5.5,0,1,1-.5.5A.5.5,0,0,1,10,5.5Z"/>
      <path d="M14,7.5A1.5,1.5,0,1,0,12.5,6,1.5,1.5,0,0,0,14,7.5Zm0-2a.5.5,0,1,1-.5.5A.5.5,0,0,1,14,5.5Z"/>
      <path d="M8,19H29a2,2,0,0,0,2-2V15a2,2,0,0,0-2-2H8a2,2,0,0,0-2,2v2A2,2,0,0,0,8,19Zm21-2H26V15h3ZM8,15H24v2H8Z"/>
      <path d="M41,22H7a1,1,0,0,0,0,2H41a1,1,0,0,0,0-2Z"/>
      <path d="M41,25H7a1,1,0,0,0,0,2H41a1,1,0,0,0,0-2Z"/>
      <path d="M7,30h8a1,1,0,0,0,0-2H7a1,1,0,0,0,0,2Z"/>
      <path d="M41,32H7a1,1,0,0,0,0,2H41a1,1,0,0,0,0-2Z"/>
      <path d="M41,35H7a1,1,0,0,0,0,2H41a1,1,0,0,0,0-2Z"/>
      <path d="M15,38H7a1,1,0,0,0,0,2h8a1,1,0,0,0,0-2Z"/>
    </g>
  </g>
</svg>
