<?xml version="1.0" encoding="utf-8"?>
<!-- Generator: Adobe Illustrator 18.0.0, SVG Export Plug-In . SVG Version: 6.00 Build 0)  -->
<!DOCTYPE svg PUBLIC "-//W3C//DTD SVG 1.1//EN" "http://www.w3.org/Graphics/SVG/1.1/DTD/svg11.dtd">
<svg version="1.1" xmlns="http://www.w3.org/2000/svg" xmlns:xlink="http://www.w3.org/1999/xlink" x="0px" y="0px"
	 viewBox="0 0 48 48" enable-background="new 0 0 48 48" xml:space="preserve">
<g id="Layer_1">
</g>
<g id="medium-box">
</g>
<g id="minuse">
</g>
<g id="timer">
</g>
<g id="drawer-2">
</g>
<g id="trash-box">
</g>
<g id="book-label">
</g>
<g id="folder-label">
</g>
<g id="page-back">
</g>
<g id="close-page_1_">
</g>
<g id="pages">
</g>
<g id="list">
</g>
<g id="wave">
</g>
<g id="close-page">
</g>
<g id="add-page">
</g>
<g id="code">
</g>
<g id="shift-mode">
</g>
<g id="bookmarks_1_">
</g>
<g id="bookmarks">
</g>
<g id="open-pages">
</g>
<g id="note">
</g>
<g id="locater">
</g>
<g id="navigater">
</g>
<g id="alarm">
</g>
<g id="clock">
</g>
<g id="time-3">
</g>
<g id="time-1">
</g>
<g id="time">
</g>
<g id="downloads">
</g>
<g id="uploads">
</g>
<g id="drawer-1">
</g>
<g id="mail_drawer">
</g>
<g id="drawer">
</g>
<g id="mail_1_">
</g>
<g id="mail-open">
</g>
<g id="open">
</g>
<g id="card">
</g>
<g id="mails">
</g>
<g id="mail">
</g>
<g id="drag-l-t">
</g>
<g id="comment">
</g>
<g id="folder">
</g>
<g id="trash">
</g>
<g id="report-flag">
</g>
<g id="setting-roll">
</g>
<g id="spects">
</g>
<g id="search_1_">
</g>
<g id="game-2">
</g>
<g id="game">
</g>
<g id="unloack">
</g>
<g id="loack">
</g>
<g id="settings-ui">
</g>
<g id="abacuse">
</g>
<g id="browser-check-box">
</g>
<g id="browser-reload">
</g>
<g id="browser-check">
</g>
<g id="browser-close">
</g>
<g id="browser-inus">
</g>
<g id="browser-add">
</g>
<g id="flowtting">
</g>
<g id="drag">
</g>
<g id="popup">
</g>
<g id="latter">
</g>
<g id="details">
</g>
<g id="blocks">
</g>
<g id="locate">
</g>
<g id="parabolla">
</g>
<g id="check-box">
</g>
<g id="slide-nav">
</g>
<g id="share">
</g>
<g id="profile">
</g>
<g id="settings">
	<path fill="none" stroke="#000000" stroke-width="2" stroke-miterlimit="10" d="M44,46H4c-1.1,0-2-0.9-2-2V4c0-1.1,0.9-2,2-2h40
		c1.1,0,2,0.9,2,2v40C46,45.1,45.1,46,44,46z"/>
	<circle fill="none" stroke="#000000" stroke-width="2" stroke-miterlimit="10" cx="6" cy="6" r="0.5"/>
	<circle fill="none" stroke="#000000" stroke-width="2" stroke-miterlimit="10" cx="10" cy="6" r="0.5"/>
	<circle fill="none" stroke="#000000" stroke-width="2" stroke-miterlimit="10" cx="14" cy="6" r="0.5"/>
	<line fill="none" stroke="#000000" stroke-width="2" stroke-miterlimit="10" x1="2" y1="10" x2="46" y2="10"/>
	<g>
		<path fill="none" stroke="#000000" stroke-width="2" stroke-miterlimit="10" d="M34.2,26.4l-1.4-0.3c-0.2-1.1-0.7-2.1-1.2-3
			l0.8-1.2c0.3-0.4,0.2-0.9-0.1-1.3l-0.5-0.5l-0.5-0.5c-0.3-0.3-0.9-0.4-1.3-0.1l-1.2,0.8c-0.9-0.6-1.9-1-3-1.2l-0.3-1.4
			c-0.1-0.5-0.5-0.8-1-0.8H24h-0.7c-0.5,0-0.9,0.3-1,0.8l-0.3,1.4c-1.1,0.2-2.1,0.7-3,1.2L18,19.6c-0.4-0.3-0.9-0.2-1.3,0.1
			l-0.5,0.5l-0.5,0.5c-0.3,0.3-0.4,0.9-0.1,1.3l0.8,1.2c-0.6,0.9-1,1.9-1.2,3l-1.4,0.3c-0.5,0.1-0.8,0.5-0.8,1V28v0.7
			c0,0.5,0.3,0.9,0.8,1l1.4,0.3c0.2,1.1,0.7,2.1,1.2,3L15.6,34c-0.3,0.4-0.2,0.9,0.1,1.3l0.5,0.5l0.5,0.5c0.3,0.3,0.9,0.4,1.3,0.1
			l1.2-0.8c0.9,0.6,1.9,1,3,1.2l0.3,1.4c0.1,0.5,0.5,0.8,1,0.8H24h0.7c0.5,0,0.9-0.3,1-0.8l0.3-1.4c1.1-0.2,2.1-0.7,3-1.2l1.2,0.8
			c0.4,0.3,0.9,0.2,1.3-0.1l0.5-0.5l0.5-0.5c0.3-0.3,0.4-0.9,0.1-1.3l-0.8-1.2c0.6-0.9,1-1.9,1.2-3l1.4-0.3c0.5-0.1,0.8-0.5,0.8-1
			V28v-0.7C35,26.9,34.7,26.4,34.2,26.4z"/>
		<circle fill="none" stroke="#000000" stroke-width="2" stroke-miterlimit="10" cx="24" cy="28" r="4"/>
	</g>
</g>
<g id="expand">
</g>
<g id="image">
</g>
<g id="pause">
</g>
<g id="player">
</g>
<g id="imager">
</g>
<g id="slider">
</g>
<g id="slide-count">
</g>
<g id="progress-bar">
</g>
<g id="graph">
</g>
<g id="statistics">
</g>
<g id="cloud-reload">
</g>
<g id="cloud-down">
</g>
<g id="cloud-up">
</g>
<g id="cloud">
</g>
<g id="masonary">
</g>
<g id="column">
</g>
<g id="grid-block">
</g>
<g id="horizontal">
</g>
<g id="_x35_-column">
</g>
<g id="_x31_-column">
</g>
<g id="_x33_-column">
</g>
<g id="sidebar_1_">
</g>
<g id="favorite">
</g>
<g id="load">
</g>
<g id="search-list">
</g>
<g id="search">
</g>
<g id="browser_1_">
</g>
<g id="change-mode">
</g>
<g id="tick">
</g>
</svg>
