<svg xmlns="http://www.w3.org/2000/svg" viewBox="0 0 48 48">
  <title>settings</title>
  <g id="settings">
    <g>
      <path d="M44,1H4A3,3,0,0,0,1,4V44a3,3,0,0,0,3,3H44a3,3,0,0,0,3-3V4A3,3,0,0,0,44,1ZM4,3H44a1,1,0,0,1,1,1V9H3V4A1,1,0,0,1,4,3ZM44,45H4a1,1,0,0,1-1-1V11H45V44A1,1,0,0,1,44,45Z"/>
      <path d="M6,7.5A1.5,1.5,0,1,0,4.5,6,1.5,1.5,0,0,0,6,7.5Zm0-2a.5.5,0,1,1-.5.5A.5.5,0,0,1,6,5.5Z"/>
      <path d="M10,7.5A1.5,1.5,0,1,0,8.5,6,1.5,1.5,0,0,0,10,7.5Zm0-2a.5.5,0,1,1-.5.5A.5.5,0,0,1,10,5.5Z"/>
      <path d="M14,7.5A1.5,1.5,0,1,0,12.5,6,1.5,1.5,0,0,0,14,7.5Zm0-2a.5.5,0,1,1-.5.5A.5.5,0,0,1,14,5.5Z"/>
      <path d="M34.357,25.367l-.75-.136a9.944,9.944,0,0,0-.857-2.062l.438-.631a2,2,0,0,0-.231-2.552l-.941-.941a2,2,0,0,0-2.553-.23l-.63.437a9.9,9.9,0,0,0-2.062-.857l-.137-.751A2,2,0,0,0,24.665,16h-1.33a2,2,0,0,0-1.968,1.642l-.137.751a9.9,9.9,0,0,0-2.062.857l-.631-.437a2,2,0,0,0-2.552.23l-.941.941a2,2,0,0,0-.23,2.553l.437.63a9.944,9.944,0,0,0-.857,2.062l-.75.136A2,2,0,0,0,12,27.334v1.331a2,2,0,0,0,1.643,1.968l.75.136a9.944,9.944,0,0,0,.857,2.062l-.437.631a2,2,0,0,0,.231,2.552l.941.941a2,2,0,0,0,2.553.23l.63-.437a9.9,9.9,0,0,0,2.063.857l.137.751A2,2,0,0,0,23.335,40h1.33a2,2,0,0,0,1.968-1.642l.137-.751a9.9,9.9,0,0,0,2.063-.857l.631.437a2,2,0,0,0,2.552-.23l.941-.941a2,2,0,0,0,.23-2.553l-.437-.63a9.944,9.944,0,0,0,.857-2.062l.75-.136A2,2,0,0,0,36,28.666V27.334A2,2,0,0,0,34.357,25.367ZM34,28.666l-2.042.371-.141.654a7.912,7.912,0,0,1-1.1,2.638l-.363.563,1.185,1.71-.941.941-1.71-1.184-.562.363a7.943,7.943,0,0,1-2.639,1.1l-.653.141L24.665,38H23.334l-.371-2.042-.653-.141a7.943,7.943,0,0,1-2.639-1.1l-.562-.363L17.4,35.541l-.941-.94,1.185-1.71-.363-.562a7.912,7.912,0,0,1-1.1-2.638l-.141-.654L14,28.666V27.334l2.042-.371.141-.654a7.912,7.912,0,0,1,1.1-2.638l.363-.562L16.458,21.4l.941-.941,1.71,1.184.562-.363a7.943,7.943,0,0,1,2.639-1.1l.653-.141L23.335,18h1.331l.371,2.042.653.141a7.943,7.943,0,0,1,2.639,1.1l.562.363,1.71-1.183.941.94-1.185,1.71.363.563a7.912,7.912,0,0,1,1.1,2.638l.141.654L34,27.334Z"/>
      <path d="M24,23a5,5,0,1,0,5,5A5.006,5.006,0,0,0,24,23Zm0,8a3,3,0,1,1,3-3A3,3,0,0,1,24,31Z"/>
    </g>
  </g>
</svg>
