<svg xmlns="http://www.w3.org/2000/svg" viewBox="0 0 48 48">
  <title>column</title>
  <g id="column">
    <g>
      <path d="M44,1H4A3,3,0,0,0,1,4V44a3,3,0,0,0,3,3H44a3,3,0,0,0,3-3V4A3,3,0,0,0,44,1ZM4,3H44a1,1,0,0,1,1,1V9H3V4A1,1,0,0,1,4,3ZM44,45H4a1,1,0,0,1-1-1V11H45V44A1,1,0,0,1,44,45Z"/>
      <path d="M6,7.5A1.5,1.5,0,1,0,4.5,6,1.5,1.5,0,0,0,6,7.5Zm0-2a.5.5,0,1,1-.5.5A.5.5,0,0,1,6,5.5Z"/>
      <path d="M10,7.5A1.5,1.5,0,1,0,8.5,6,1.5,1.5,0,0,0,10,7.5Zm0-2a.5.5,0,1,1-.5.5A.5.5,0,0,1,10,5.5Z"/>
      <path d="M14,7.5A1.5,1.5,0,1,0,12.5,6,1.5,1.5,0,0,0,14,7.5Zm0-2a.5.5,0,1,1-.5.5A.5.5,0,0,1,14,5.5Z"/>
      <path d="M5,22H16V13H5Zm2-7h7v5H7Z"/>
      <path d="M5,33H16V24H5Zm2-7h7v5H7Z"/>
      <path d="M5,43H16V35H5Zm2-6h7v4H7Z"/>
      <path d="M18,22H29V13H18Zm2-7h7v5H20Z"/>
      <path d="M18,33H29V24H18Zm2-7h7v5H20Z"/>
      <path d="M18,43H29V35H18Zm2-6h7v4H20Z"/>
      <path d="M31,22H42V13H31Zm2-7h7v5H33Z"/>
      <path d="M31,33H42V24H31Zm2-7h7v5H33Z"/>
      <path d="M31,43H42V35H31Zm2-6h7v4H33Z"/>
    </g>
  </g>
</svg>
