<svg xmlns="http://www.w3.org/2000/svg" viewBox="0 0 48 48">
  <title>browser-reload</title>
  <g id="browser-reload">
    <g>
      <path d="M6,7.5A1.5,1.5,0,1,0,4.5,6,1.5,1.5,0,0,0,6,7.5Zm0-2a.5.5,0,1,1-.5.5A.5.5,0,0,1,6,5.5Z"/>
      <path d="M10,7.5A1.5,1.5,0,1,0,8.5,6,1.5,1.5,0,0,0,10,7.5Zm0-2a.5.5,0,1,1-.5.5A.5.5,0,0,1,10,5.5Z"/>
      <path d="M14,7.5A1.5,1.5,0,1,0,12.5,6,1.5,1.5,0,0,0,14,7.5Zm0-2a.5.5,0,1,1-.5.5A.5.5,0,0,1,14,5.5Z"/>
      <path d="M37,25.051V4a3,3,0,0,0-3-3H4A3,3,0,0,0,1,4V34a3,3,0,0,0,3,3H25.051A11,11,0,1,0,37,25.051ZM4,3H34a1,1,0,0,1,1,1V9H3V4A1,1,0,0,1,4,3ZM3,34V11H35V25.051A11.011,11.011,0,0,0,25.051,35H4A1,1,0,0,1,3,34ZM36,45a9,9,0,1,1,9-9A9.01,9.01,0,0,1,36,45Z"/>
      <path d="M7,20h7a1,1,0,0,0,0-2H7a1,1,0,0,0,0,2Z"/>
      <path d="M26,24a1,1,0,0,0,0-2H7a1,1,0,0,0,0,2Z"/>
      <path d="M40.978,36.254a1,1,0,0,0-1.218.719A3.867,3.867,0,0,1,33.326,38.8a1,1,0,0,0,.472-1.941l-2.047-.512a1.207,1.207,0,0,0-1.61.628l-.611,2.444a1,1,0,0,0,1.94.485l.034-.136a5.864,5.864,0,0,0,10.193-2.3A1,1,0,0,0,40.978,36.254Z"/>
      <path d="M41.743,31.363a1,1,0,0,0-1.213.728l-.034.136a5.864,5.864,0,0,0-10.193,2.3,1,1,0,1,0,1.937.5A3.867,3.867,0,0,1,38.674,33.2a1,1,0,0,0-.472,1.941l2.076.519a.984.984,0,0,0,.451.122c.027,0,.054-.008.081-.01s.054.01.081.01a1,1,0,0,0,.969-.757l.611-2.444A1,1,0,0,0,41.743,31.363Z"/>
    </g>
  </g>
</svg>
