<svg xmlns="http://www.w3.org/2000/svg" viewBox="0 0 48 48">
  <title>check-box</title>
  <g id="check-box">
    <g>
      <path d="M29,18H17a4,4,0,0,0,0,8H29a4,4,0,0,0,0-8ZM15,22a2,2,0,0,1,2-2h3a2,2,0,0,1,0,4H17A2,2,0,0,1,15,22Zm14,2H23.444a3.872,3.872,0,0,0,0-4H29a2,2,0,0,1,0,4Z"/>
      <path d="M29,29H17a4,4,0,0,0,0,8H29a4,4,0,0,0,0-8ZM15,33a2,2,0,0,1,2-2h6.556a3.872,3.872,0,0,0,0,4H17A2,2,0,0,1,15,33Zm14,2H27a2,2,0,0,1,0-4h2a2,2,0,0,1,0,4Z"/>
      <path d="M44,1H4A3,3,0,0,0,1,4V44a3,3,0,0,0,3,3H44a3,3,0,0,0,3-3V4A3,3,0,0,0,44,1ZM4,3H44a1,1,0,0,1,1,1V9H3V4A1,1,0,0,1,4,3ZM44,45H4a1,1,0,0,1-1-1V11H45V44A1,1,0,0,1,44,45Z"/>
      <path d="M6,7.5A1.5,1.5,0,1,0,4.5,6,1.5,1.5,0,0,0,6,7.5Zm0-2a.5.5,0,1,1-.5.5A.5.5,0,0,1,6,5.5Z"/>
      <path d="M10,7.5A1.5,1.5,0,1,0,8.5,6,1.5,1.5,0,0,0,10,7.5Zm0-2a.5.5,0,1,1-.5.5A.5.5,0,0,1,10,5.5Z"/>
      <path d="M14,7.5A1.5,1.5,0,1,0,12.5,6,1.5,1.5,0,0,0,14,7.5Zm0-2a.5.5,0,1,1-.5.5A.5.5,0,0,1,14,5.5Z"/>
    </g>
  </g>
</svg>
