<svg xmlns="http://www.w3.org/2000/svg" viewBox="0 0 48 48">
  <title>drag</title>
  <g id="drag">
    <g>
      <path d="M44,1H4A3,3,0,0,0,1,4V44a3,3,0,0,0,3,3H44a3,3,0,0,0,3-3V4A3,3,0,0,0,44,1ZM4,3H44a1,1,0,0,1,1,1V9H3V4A1,1,0,0,1,4,3ZM44,45H4a1,1,0,0,1-1-1V11H45V44A1,1,0,0,1,44,45Z"/>
      <path d="M6,7.5A1.5,1.5,0,1,0,4.5,6,1.5,1.5,0,0,0,6,7.5Zm0-2a.5.5,0,1,1-.5.5A.5.5,0,0,1,6,5.5Z"/>
      <path d="M10,7.5A1.5,1.5,0,1,0,8.5,6,1.5,1.5,0,0,0,10,7.5Zm0-2a.5.5,0,1,1-.5.5A.5.5,0,0,1,10,5.5Z"/>
      <path d="M14,7.5A1.5,1.5,0,1,0,12.5,6,1.5,1.5,0,0,0,14,7.5Zm0-2a.5.5,0,1,1-.5.5A.5.5,0,0,1,14,5.5Z"/>
      <path d="M39,37.354a1,1,0,0,0-1,1v1.5H36.5a1,1,0,0,0,0,2H39a1,1,0,0,0,1-1v-2.5A1,1,0,0,0,39,37.354Z"/>
      <path d="M21.5,39.854h-5a1,1,0,0,0,0,2h5a1,1,0,0,0,0-2Z"/>
      <path d="M31.5,39.854h-5a1,1,0,0,0,0,2h5a1,1,0,0,0,0-2Z"/>
      <path d="M11.5,39.854H10v-1.5a1,1,0,0,0-2,0v2.5a1,1,0,0,0,1,1h2.5a1,1,0,0,0,0-2Z"/>
      <path d="M9,27.442a1,1,0,0,0,1-1V22.471a1,1,0,0,0-2,0v3.971A1,1,0,0,0,9,27.442Z"/>
      <path d="M9,35.383a1,1,0,0,0,1-1V30.413a1,1,0,0,0-2,0v3.971A1,1,0,0,0,9,35.383Z"/>
      <path d="M11.5,15H9a1,1,0,0,0-1,1v2.5a1,1,0,0,0,2,0V17h1.5a1,1,0,0,0,0-2Z"/>
      <path d="M31.5,15h-5a1,1,0,0,0,0,2h5a1,1,0,0,0,0-2Z"/>
      <path d="M16.5,17h5a1,1,0,0,0,0-2h-5a1,1,0,0,0,0,2Z"/>
      <path d="M39,15H36.5a1,1,0,0,0,0,2H38v1.5a1,1,0,0,0,2,0V16A1,1,0,0,0,39,15Z"/>
      <path d="M39,29.412a1,1,0,0,0-1,1v3.971a1,1,0,0,0,2,0V30.412A1,1,0,0,0,39,29.412Z"/>
      <path d="M39,21.471a1,1,0,0,0-1,1v3.971a1,1,0,0,0,2,0V22.471A1,1,0,0,0,39,21.471Z"/>
      <path d="M29,29a1,1,0,0,0,0-2H25V23a1,1,0,0,0-2,0v4H19a1,1,0,0,0,0,2h4v4a1,1,0,0,0,2,0V29Z"/>
    </g>
  </g>
</svg>
