<svg xmlns="http://www.w3.org/2000/svg" viewBox="0 0 48 48">
  <title>image</title>
  <g id="image">
    <g>
      <path d="M44,1H4A3,3,0,0,0,1,4V44a3,3,0,0,0,3,3H44a3,3,0,0,0,3-3V4A3,3,0,0,0,44,1Zm1,34.586L32.707,23.293a.977.977,0,0,0-.73-.292,1,1,0,0,0-.717.327l-9.186,10.1L16.8,26.4a1,1,0,0,0-.712-.4,1.014,1.014,0,0,0-.771.265C11.3,30.015,5.731,35.2,3,37.73V11H45ZM4,3H44a1,1,0,0,1,1,1V9H3V4A1,1,0,0,1,4,3ZM44,45H4a1,1,0,0,1-1-1V40.444c1.751-1.591,8.907-8.26,12.868-11.954L21.2,35.6a1,1,0,0,0,.753.4,1.035,1.035,0,0,0,.787-.326l9.294-10.224L45,38.414V44A1,1,0,0,1,44,45Z"/>
      <path d="M6,7.5A1.5,1.5,0,1,0,4.5,6,1.5,1.5,0,0,0,6,7.5Zm0-2a.5.5,0,1,1-.5.5A.5.5,0,0,1,6,5.5Z"/>
      <path d="M10,7.5A1.5,1.5,0,1,0,8.5,6,1.5,1.5,0,0,0,10,7.5Zm0-2a.5.5,0,1,1-.5.5A.5.5,0,0,1,10,5.5Z"/>
      <path d="M14,7.5A1.5,1.5,0,1,0,12.5,6,1.5,1.5,0,0,0,14,7.5Zm0-2a.5.5,0,1,1-.5.5A.5.5,0,0,1,14,5.5Z"/>
      <path d="M13.5,24.5a5,5,0,1,0-5-5A5.006,5.006,0,0,0,13.5,24.5Zm0-8a3,3,0,1,1-3,3A3,3,0,0,1,13.5,16.5Z"/>
    </g>
  </g>
</svg>
