<svg xmlns="http://www.w3.org/2000/svg" viewBox="0 0 48 48">
  <title>progress-bar</title>
  <g id="progress-bar">
    <g>
      <path d="M44,1H4A3,3,0,0,0,1,4V44a3,3,0,0,0,3,3H44a3,3,0,0,0,3-3V4A3,3,0,0,0,44,1ZM4,3H44a1,1,0,0,1,1,1V9H3V4A1,1,0,0,1,4,3ZM44,45H4a1,1,0,0,1-1-1V11H45V44A1,1,0,0,1,44,45Z"/>
      <path d="M6,7.5A1.5,1.5,0,1,0,4.5,6,1.5,1.5,0,0,0,6,7.5Zm0-2a.5.5,0,1,1-.5.5A.5.5,0,0,1,6,5.5Z"/>
      <path d="M10,7.5A1.5,1.5,0,1,0,8.5,6,1.5,1.5,0,0,0,10,7.5Zm0-2a.5.5,0,1,1-.5.5A.5.5,0,0,1,10,5.5Z"/>
      <path d="M14,7.5A1.5,1.5,0,1,0,12.5,6,1.5,1.5,0,0,0,14,7.5Zm0-2a.5.5,0,1,1-.5.5A.5.5,0,0,1,14,5.5Z"/>
      <path d="M41,38H37V21a1,1,0,0,0-1-1H32a1,1,0,0,0-1,1v4H27a1,1,0,0,0-1,1v5H22V16a1,1,0,0,0-1-1H17a1,1,0,0,0-1,1v8H12a1,1,0,0,0-1,1V38H7a1,1,0,0,0,0,2H41a1,1,0,0,0,0-2ZM13,38V26h2V38Zm5,0V17h2V38Zm5,0V33h2v5Zm5,0V27h2V38Zm5,0V22h2V38Z"/>
    </g>
  </g>
</svg>
