<svg xmlns="http://www.w3.org/2000/svg" viewBox="0 0 48 48">
  <title>favorite</title>
  <g id="favorite">
    <g>
      <path d="M44,1H4A3,3,0,0,0,1,4V44a3,3,0,0,0,3,3H44a3,3,0,0,0,3-3V4A3,3,0,0,0,44,1ZM4,3H44a1,1,0,0,1,1,1V9H3V4A1,1,0,0,1,4,3ZM44,45H4a1,1,0,0,1-1-1V11H45V44A1,1,0,0,1,44,45Z"/>
      <path d="M6,7.5A1.5,1.5,0,1,0,4.5,6,1.5,1.5,0,0,0,6,7.5Zm0-2a.5.5,0,1,1-.5.5A.5.5,0,0,1,6,5.5Z"/>
      <path d="M10,7.5A1.5,1.5,0,1,0,8.5,6,1.5,1.5,0,0,0,10,7.5Zm0-2a.5.5,0,1,1-.5.5A.5.5,0,0,1,10,5.5Z"/>
      <path d="M14,7.5A1.5,1.5,0,1,0,12.5,6,1.5,1.5,0,0,0,14,7.5Zm0-2a.5.5,0,1,1-.5.5A.5.5,0,0,1,14,5.5Z"/>
      <path d="M28.5,19.063A5.5,5.5,0,0,0,24,21.4a5.5,5.5,0,0,0-10,3.159c0,6.676,9.051,12.938,9.436,13.2a1,1,0,0,0,1.073.035C24.9,37.569,34,32.1,34,24.563A5.506,5.506,0,0,0,28.5,19.063ZM24.035,35.728C22.166,34.333,16,29.365,16,24.563a3.5,3.5,0,0,1,7,0,1,1,0,0,0,2,0,3.5,3.5,0,0,1,7,0C32,29.994,25.913,34.475,24.035,35.728Z"/>
    </g>
  </g>
</svg>
