<svg xmlns="http://www.w3.org/2000/svg" viewBox="0 0 48 48">
  <title>graph</title>
  <g id="graph">
    <g>
      <path d="M33,29H23V19a1,1,0,0,0-1-1A12,12,0,1,0,34,30,1,1,0,0,0,33,29ZM22,40a10,10,0,0,1-1-19.95V30a1,1,0,0,0,1,1h9.95A10.014,10.014,0,0,1,22,40Z"/>
      <path d="M26,14a1,1,0,0,0-1,1V26a1,1,0,0,0,1,1H37a1,1,0,0,0,1-1A12.013,12.013,0,0,0,26,14Zm2.414,11,5.322-5.322a10.05,10.05,0,0,1,.895,1.277L30.586,25ZM27,21.414l4.044-4.044a10.038,10.038,0,0,1,1.277.895L27,23.586ZM29.088,16.5,27,18.586V16.05A9.9,9.9,0,0,1,29.088,16.5ZM33.414,25,35.5,22.912A9.9,9.9,0,0,1,35.95,25Z"/>
      <path d="M44,1H4A3,3,0,0,0,1,4V44a3,3,0,0,0,3,3H44a3,3,0,0,0,3-3V4A3,3,0,0,0,44,1ZM4,3H44a1,1,0,0,1,1,1V9H3V4A1,1,0,0,1,4,3ZM44,45H4a1,1,0,0,1-1-1V11H45V44A1,1,0,0,1,44,45Z"/>
      <path d="M6,7.5A1.5,1.5,0,1,0,4.5,6,1.5,1.5,0,0,0,6,7.5Zm0-2a.5.5,0,1,1-.5.5A.5.5,0,0,1,6,5.5Z"/>
      <path d="M10,7.5A1.5,1.5,0,1,0,8.5,6,1.5,1.5,0,0,0,10,7.5Zm0-2a.5.5,0,1,1-.5.5A.5.5,0,0,1,10,5.5Z"/>
      <path d="M14,7.5A1.5,1.5,0,1,0,12.5,6,1.5,1.5,0,0,0,14,7.5Zm0-2a.5.5,0,1,1-.5.5A.5.5,0,0,1,14,5.5Z"/>
    </g>
  </g>
</svg>
