<?xml version="1.0" encoding="utf-8"?>
<!-- Generator: Adobe Illustrator 18.0.0, SVG Export Plug-In . SVG Version: 6.00 Build 0)  -->
<!DOCTYPE svg PUBLIC "-//W3C//DTD SVG 1.1//EN" "http://www.w3.org/Graphics/SVG/1.1/DTD/svg11.dtd">
<svg version="1.1" xmlns="http://www.w3.org/2000/svg" xmlns:xlink="http://www.w3.org/1999/xlink" x="0px" y="0px"
	 viewBox="0 0 48 48" enable-background="new 0 0 48 48" xml:space="preserve">
<g id="Layer_1">
</g>
<g id="medium-box">
</g>
<g id="minuse">
</g>
<g id="timer">
</g>
<g id="drawer-2">
</g>
<g id="trash-box">
</g>
<g id="book-label">
</g>
<g id="folder-label">
</g>
<g id="page-back">
</g>
<g id="close-page_1_">
</g>
<g id="pages">
</g>
<g id="list">
</g>
<g id="wave">
</g>
<g id="close-page">
</g>
<g id="add-page">
</g>
<g id="code">
</g>
<g id="shift-mode">
</g>
<g id="bookmarks_1_">
</g>
<g id="bookmarks">
</g>
<g id="open-pages">
</g>
<g id="note">
</g>
<g id="locater">
</g>
<g id="navigater">
</g>
<g id="alarm">
</g>
<g id="clock">
</g>
<g id="time-3">
</g>
<g id="time-1">
</g>
<g id="time">
</g>
<g id="downloads">
</g>
<g id="uploads">
</g>
<g id="drawer-1">
</g>
<g id="mail_drawer">
</g>
<g id="drawer">
</g>
<g id="mail_1_">
</g>
<g id="mail-open">
</g>
<g id="open">
</g>
<g id="card">
</g>
<g id="mails">
</g>
<g id="mail">
</g>
<g id="drag-l-t">
</g>
<g id="comment">
</g>
<g id="folder">
</g>
<g id="trash">
</g>
<g id="report-flag">
</g>
<g id="setting-roll">
</g>
<g id="spects">
</g>
<g id="search_1_">
</g>
<g id="game-2">
</g>
<g id="game">
</g>
<g id="unloack">
</g>
<g id="loack">
</g>
<g id="settings-ui">
</g>
<g id="abacuse">
	<path fill="none" stroke="#000000" stroke-width="2" stroke-linecap="round" stroke-linejoin="round" stroke-miterlimit="10" d="
		M11,36L11,36c-1.1,0-2-0.9-2-2v0c0-1.1,0.9-2,2-2h0c1.1,0,2,0.9,2,2v0C13,35.1,12.1,36,11,36z"/>
	
		<line fill="none" stroke="#000000" stroke-width="2" stroke-linecap="round" stroke-linejoin="round" stroke-miterlimit="10" x1="11" y1="31" x2="11" y2="15"/>
	
		<line fill="none" stroke="#000000" stroke-width="2" stroke-linecap="round" stroke-linejoin="round" stroke-miterlimit="10" x1="11" y1="41" x2="11" y2="37"/>
	<path fill="none" stroke="#000000" stroke-width="2" stroke-linecap="round" stroke-linejoin="round" stroke-miterlimit="10" d="
		M20,27L20,27c-1.1,0-2-0.9-2-2v0c0-1.1,0.9-2,2-2h0c1.1,0,2,0.9,2,2v0C22,26.1,21.1,27,20,27z"/>
	
		<line fill="none" stroke="#000000" stroke-width="2" stroke-linecap="round" stroke-linejoin="round" stroke-miterlimit="10" x1="20" y1="22" x2="20" y2="15"/>
	
		<line fill="none" stroke="#000000" stroke-width="2" stroke-linecap="round" stroke-linejoin="round" stroke-miterlimit="10" x1="20" y1="41" x2="20" y2="28"/>
	<path fill="none" stroke="#000000" stroke-width="2" stroke-linecap="round" stroke-linejoin="round" stroke-miterlimit="10" d="
		M29,33L29,33c-1.1,0-2-0.9-2-2v0c0-1.1,0.9-2,2-2h0c1.1,0,2,0.9,2,2v0C31,32.1,30.1,33,29,33z"/>
	
		<line fill="none" stroke="#000000" stroke-width="2" stroke-linecap="round" stroke-linejoin="round" stroke-miterlimit="10" x1="29" y1="28" x2="29" y2="15"/>
	
		<line fill="none" stroke="#000000" stroke-width="2" stroke-linecap="round" stroke-linejoin="round" stroke-miterlimit="10" x1="29" y1="41" x2="29" y2="34"/>
	<path fill="none" stroke="#000000" stroke-width="2" stroke-linecap="round" stroke-linejoin="round" stroke-miterlimit="10" d="
		M37,26L37,26c-1.1,0-2-0.9-2-2v0c0-1.1,0.9-2,2-2h0c1.1,0,2,0.9,2,2v0C39,25.1,38.1,26,37,26z"/>
	
		<line fill="none" stroke="#000000" stroke-width="2" stroke-linecap="round" stroke-linejoin="round" stroke-miterlimit="10" x1="37" y1="21" x2="37" y2="15"/>
	
		<line fill="none" stroke="#000000" stroke-width="2" stroke-linecap="round" stroke-linejoin="round" stroke-miterlimit="10" x1="37" y1="41" x2="37" y2="27"/>
	<path fill="none" stroke="#000000" stroke-width="2" stroke-miterlimit="10" d="M44,46H4c-1.1,0-2-0.9-2-2V4c0-1.1,0.9-2,2-2h40
		c1.1,0,2,0.9,2,2v40C46,45.1,45.1,46,44,46z"/>
	<circle fill="none" stroke="#000000" stroke-width="2" stroke-miterlimit="10" cx="6" cy="6" r="0.5"/>
	<circle fill="none" stroke="#000000" stroke-width="2" stroke-miterlimit="10" cx="10" cy="6" r="0.5"/>
	<circle fill="none" stroke="#000000" stroke-width="2" stroke-miterlimit="10" cx="14" cy="6" r="0.5"/>
	<line fill="none" stroke="#000000" stroke-width="2" stroke-miterlimit="10" x1="2" y1="10" x2="46" y2="10"/>
</g>
<g id="browser-check-box">
</g>
<g id="browser-reload">
</g>
<g id="browser-check">
</g>
<g id="browser-close">
</g>
<g id="browser-inus">
</g>
<g id="browser-add">
</g>
<g id="flowtting">
</g>
<g id="drag">
</g>
<g id="popup">
</g>
<g id="latter">
</g>
<g id="details">
</g>
<g id="blocks">
</g>
<g id="locate">
</g>
<g id="parabolla">
</g>
<g id="check-box">
</g>
<g id="slide-nav">
</g>
<g id="share">
</g>
<g id="profile">
</g>
<g id="settings">
</g>
<g id="expand">
</g>
<g id="image">
</g>
<g id="pause">
</g>
<g id="player">
</g>
<g id="imager">
</g>
<g id="slider">
</g>
<g id="slide-count">
</g>
<g id="progress-bar">
</g>
<g id="graph">
</g>
<g id="statistics">
</g>
<g id="cloud-reload">
</g>
<g id="cloud-down">
</g>
<g id="cloud-up">
</g>
<g id="cloud">
</g>
<g id="masonary">
</g>
<g id="column">
</g>
<g id="grid-block">
</g>
<g id="horizontal">
</g>
<g id="_x35_-column">
</g>
<g id="_x31_-column">
</g>
<g id="_x33_-column">
</g>
<g id="sidebar_1_">
</g>
<g id="favorite">
</g>
<g id="load">
</g>
<g id="search-list">
</g>
<g id="search">
</g>
<g id="browser_1_">
</g>
<g id="change-mode">
</g>
<g id="tick">
</g>
</svg>
