<svg xmlns="http://www.w3.org/2000/svg" viewBox="0 0 48 48">
  <title>parabolla</title>
  <g id="parabolla">
    <g>
      <path d="M44,1H4A3,3,0,0,0,1,4V44a3,3,0,0,0,3,3H44a3,3,0,0,0,3-3V4A3,3,0,0,0,44,1ZM4,3H44a1,1,0,0,1,1,1V9H3V4A1,1,0,0,1,4,3ZM44,45H4a1,1,0,0,1-1-1V11H45V44A1,1,0,0,1,44,45Z"/>
      <path d="M6,7.5A1.5,1.5,0,1,0,4.5,6,1.5,1.5,0,0,0,6,7.5Zm0-2a.5.5,0,1,1-.5.5A.5.5,0,0,1,6,5.5Z"/>
      <path d="M10,7.5A1.5,1.5,0,1,0,8.5,6,1.5,1.5,0,0,0,10,7.5Zm0-2a.5.5,0,1,1-.5.5A.5.5,0,0,1,10,5.5Z"/>
      <path d="M14,7.5A1.5,1.5,0,1,0,12.5,6,1.5,1.5,0,0,0,14,7.5Zm0-2a.5.5,0,1,1-.5.5A.5.5,0,0,1,14,5.5Z"/>
      <path d="M40,28a4.3,4.3,0,0,1-2.672-.848,9.475,9.475,0,0,0-1.138-.634l-.167-.4C35.222,24.188,34.315,22,32.2,22c-2.2,0-3.046,2.909-3.862,5.721l-.047.163A4.771,4.771,0,0,1,27.192,28a4.138,4.138,0,0,1-2.5-.745c-.08-.35-.155-.682-.22-.973C23.6,22.375,22.844,19,20.593,19s-3,3.375-3.874,7.282c-.081.365-.176.79-.281,1.241A3.977,3.977,0,0,1,14.4,28a4.084,4.084,0,0,1-2.432-.7C10.978,25.069,9.881,23,8,23a1,1,0,0,0,0,2c.345,0,.732.456,1.115,1.086A7.191,7.191,0,0,0,8,26a1,1,0,0,0,0,2,4.053,4.053,0,0,1,2.383.671l.1.227c1.086,2.509,2.21,5.1,4.316,5.1,1.836,0,2.674-2.246,3.394-5.193a4.221,4.221,0,0,1,2.6-.807,3.981,3.981,0,0,1,2.138.528C23.666,31.611,24.5,34,26.393,34s2.791-2.174,3.525-4.579a10.318,10.318,0,0,0,1.006-.573A4.3,4.3,0,0,1,33.6,28a4.748,4.748,0,0,1,1.116.12C35.417,29.64,36.33,31,38,31a1,1,0,0,0,1-1c0-.026-.013-.047-.015-.073A7.262,7.262,0,0,0,40,30a1,1,0,0,0,0-2ZM14.8,32c-.515,0-1.122-.989-1.669-2.107A7.135,7.135,0,0,0,14.4,30a6.868,6.868,0,0,0,1.437-.145C15.5,30.97,15.14,31.875,14.8,32Zm3.966-5.7c.441-1.966,1.172-5.063,1.813-5.3.658.235,1.375,3.215,1.819,5.185a6.725,6.725,0,0,0-1.6-.182A6.362,6.362,0,0,0,18.764,26.3ZM26.408,32c-.362-.129-.741-1.088-1.083-2.252a6.529,6.529,0,0,0,1.868.25c.154,0,.293-.01.435-.018C27.243,31.062,26.805,32,26.408,32Zm4.344-5.363C31.179,25.326,31.713,24,32.2,24c.616,0,1.139.948,1.607,2.008-.071,0-.134-.008-.207-.008A5.964,5.964,0,0,0,30.752,26.639Z"/>
    </g>
  </g>
</svg>
