<svg xmlns="http://www.w3.org/2000/svg" viewBox="0 0 48 48">
  <title>slider</title>
  <g id="slider">
    <g>
      <path d="M44,1H4A3,3,0,0,0,1,4V44a3,3,0,0,0,3,3H44a3,3,0,0,0,3-3V4A3,3,0,0,0,44,1ZM4,3H44a1,1,0,0,1,1,1V9H3V4A1,1,0,0,1,4,3ZM45,32H3V11H45Zm0,12a1,1,0,0,1-1,1H4a1,1,0,0,1-1-1V34H45Z"/>
      <path d="M6,7.5A1.5,1.5,0,1,0,4.5,6,1.5,1.5,0,0,0,6,7.5Zm0-2a.5.5,0,1,1-.5.5A.5.5,0,0,1,6,5.5Z"/>
      <path d="M10,7.5A1.5,1.5,0,1,0,8.5,6,1.5,1.5,0,0,0,10,7.5Zm0-2a.5.5,0,1,1-.5.5A.5.5,0,0,1,10,5.5Z"/>
      <path d="M14,7.5A1.5,1.5,0,1,0,12.5,6,1.5,1.5,0,0,0,14,7.5Zm0-2a.5.5,0,1,1-.5.5A.5.5,0,0,1,14,5.5Z"/>
      <path d="M6.05,22.464l4.243,4.243a1,1,0,0,0,1.414-1.414L8.171,21.757l3.536-3.536a1,1,0,0,0-1.414-1.414L6.05,21.05A1,1,0,0,0,6.05,22.464Z"/>
      <path d="M36.05,26.707a1,1,0,0,0,1.414,0l4.243-4.243a1,1,0,0,0,0-1.414l-4.243-4.243a1,1,0,0,0-1.414,1.414l3.536,3.536L36.05,25.293A1,1,0,0,0,36.05,26.707Z"/>
      <path d="M9,38h6a1,1,0,0,0,0-2H9a1,1,0,0,0,0,2Z"/>
      <path d="M9,42h6a1,1,0,0,0,0-2H9a1,1,0,0,0,0,2Z"/>
      <path d="M21,38h6a1,1,0,0,0,0-2H21a1,1,0,0,0,0,2Z"/>
      <path d="M21,42h6a1,1,0,0,0,0-2H21a1,1,0,0,0,0,2Z"/>
      <path d="M33,38h6a1,1,0,0,0,0-2H33a1,1,0,0,0,0,2Z"/>
      <path d="M33,42h6a1,1,0,0,0,0-2H33a1,1,0,0,0,0,2Z"/>
    </g>
  </g>
</svg>
