<svg xmlns="http://www.w3.org/2000/svg" viewBox="0 0 48 48">
  <title>masonary</title>
  <g id="masonary">
    <g>
      <path d="M15,13H6a1,1,0,0,0-1,1v9a1,1,0,0,0,1,1h9a1,1,0,0,0,1-1V14A1,1,0,0,0,15,13Zm-1,9H7V15h7Z"/>
      <path d="M15,26H6a1,1,0,0,0-1,1v5a1,1,0,0,0,1,1h9a1,1,0,0,0,1-1V27A1,1,0,0,0,15,26Zm-1,5H7V28h7Z"/>
      <path d="M15,35H6a1,1,0,0,0-1,1v6a1,1,0,0,0,1,1h9a1,1,0,0,0,1-1V36A1,1,0,0,0,15,35Zm-1,6H7V37h7Z"/>
      <path d="M28,13H19a1,1,0,0,0-1,1v9a1,1,0,0,0,1,1h9a1,1,0,0,0,1-1V14A1,1,0,0,0,28,13Zm-1,9H20V15h7Z"/>
      <path d="M28,26H19a1,1,0,0,0-1,1v7a1,1,0,0,0,1,1h9a1,1,0,0,0,1-1V27A1,1,0,0,0,28,26Zm-1,7H20V28h7Z"/>
      <path d="M28,37H19a1,1,0,0,0-1,1v4a1,1,0,0,0,1,1h9a1,1,0,0,0,1-1V38A1,1,0,0,0,28,37Zm-1,4H20V39h7Z"/>
      <path d="M41,13H32a1,1,0,0,0-1,1v4a1,1,0,0,0,1,1h9a1,1,0,0,0,1-1V14A1,1,0,0,0,41,13Zm-1,4H33V15h7Z"/>
      <path d="M41,21H32a1,1,0,0,0-1,1V33a1,1,0,0,0,1,1h9a1,1,0,0,0,1-1V22A1,1,0,0,0,41,21ZM40,32H33V23h7Z"/>
      <path d="M41,36H32a1,1,0,0,0-1,1v5a1,1,0,0,0,1,1h9a1,1,0,0,0,1-1V37A1,1,0,0,0,41,36Zm-1,5H33V38h7Z"/>
      <path d="M44,1H4A3,3,0,0,0,1,4V44a3,3,0,0,0,3,3H44a3,3,0,0,0,3-3V4A3,3,0,0,0,44,1ZM4,3H44a1,1,0,0,1,1,1V9H3V4A1,1,0,0,1,4,3ZM44,45H4a1,1,0,0,1-1-1V11H45V44A1,1,0,0,1,44,45Z"/>
      <path d="M6,7.5A1.5,1.5,0,1,0,4.5,6,1.5,1.5,0,0,0,6,7.5Zm0-2a.5.5,0,1,1-.5.5A.5.5,0,0,1,6,5.5Z"/>
      <path d="M10,7.5A1.5,1.5,0,1,0,8.5,6,1.5,1.5,0,0,0,10,7.5Zm0-2a.5.5,0,1,1-.5.5A.5.5,0,0,1,10,5.5Z"/>
      <path d="M14,7.5A1.5,1.5,0,1,0,12.5,6,1.5,1.5,0,0,0,14,7.5Zm0-2a.5.5,0,1,1-.5.5A.5.5,0,0,1,14,5.5Z"/>
    </g>
  </g>
</svg>
