<svg xmlns="http://www.w3.org/2000/svg" viewBox="0 0 48 48">
  <title>browser-check-box</title>
  <g id="browser-check-box">
    <g>
      <path d="M44,1H4A3,3,0,0,0,1,4V44a3,3,0,0,0,3,3H44a3,3,0,0,0,3-3V4A3,3,0,0,0,44,1ZM4,3H44a1,1,0,0,1,1,1V9H3V4A1,1,0,0,1,4,3ZM44,45H4a1,1,0,0,1-1-1V11H45V44A1,1,0,0,1,44,45Z"/>
      <path d="M6,7.5A1.5,1.5,0,1,0,4.5,6,1.5,1.5,0,0,0,6,7.5Zm0-2a.5.5,0,1,1-.5.5A.5.5,0,0,1,6,5.5Z"/>
      <path d="M10,7.5A1.5,1.5,0,1,0,8.5,6,1.5,1.5,0,0,0,10,7.5Zm0-2a.5.5,0,1,1-.5.5A.5.5,0,0,1,10,5.5Z"/>
      <path d="M14,7.5A1.5,1.5,0,1,0,12.5,6,1.5,1.5,0,0,0,14,7.5Zm0-2a.5.5,0,1,1-.5.5A.5.5,0,0,1,14,5.5Z"/>
      <path d="M37,18H24V17a1,1,0,0,0-1-1H16a1,1,0,0,0-1,1v1H11a1,1,0,0,0,0,2h4v1a1,1,0,0,0,1,1h7a1,1,0,0,0,1-1V20H37a1,1,0,0,0,0-2ZM22,20H17V18h5Z"/>
      <path d="M37,27H33V26a1,1,0,0,0-1-1H25a1,1,0,0,0-1,1v1H11a1,1,0,0,0,0,2H24v1a1,1,0,0,0,1,1h7a1,1,0,0,0,1-1V29h4a1,1,0,0,0,0-2Zm-6,2H26V27h5Z"/>
      <path d="M37,36H27V35a1,1,0,0,0-1-1H19a1,1,0,0,0-1,1v1H11a1,1,0,0,0,0,2h7v1a1,1,0,0,0,1,1h7a1,1,0,0,0,1-1V38H37a1,1,0,0,0,0-2ZM25,38H20V36h5Z"/>
    </g>
  </g>
</svg>
