<svg xmlns="http://www.w3.org/2000/svg" viewBox="0 0 48 48">
  <title>1-column</title>
  <g id="_1-column" data-name="1-column">
    <g>
      <path d="M44,1H4A3,3,0,0,0,1,4V44a3,3,0,0,0,3,3H44a3,3,0,0,0,3-3V4A3,3,0,0,0,44,1ZM4,3H44a1,1,0,0,1,1,1V9H3V4A1,1,0,0,1,4,3ZM44,45H4a1,1,0,0,1-1-1V11H45V44A1,1,0,0,1,44,45Z"/>
      <path d="M6,7.5A1.5,1.5,0,1,0,4.5,6,1.5,1.5,0,0,0,6,7.5Zm0-2a.5.5,0,1,1-.5.5A.5.5,0,0,1,6,5.5Z"/>
      <path d="M10,7.5A1.5,1.5,0,1,0,8.5,6,1.5,1.5,0,0,0,10,7.5Zm0-2a.5.5,0,1,1-.5.5A.5.5,0,0,1,10,5.5Z"/>
      <path d="M14,7.5A1.5,1.5,0,1,0,12.5,6,1.5,1.5,0,0,0,14,7.5Zm0-2a.5.5,0,1,1-.5.5A.5.5,0,0,1,14,5.5Z"/>
      <path d="M14,13H7a2,2,0,0,0-2,2V41a2,2,0,0,0,2,2h7a2,2,0,0,0,2-2V15A2,2,0,0,0,14,13ZM7,41V15h7V41Z"/>
      <path d="M42,13H19a1,1,0,0,0-1,1v9a1,1,0,0,0,1,1H42a1,1,0,0,0,1-1V14A1,1,0,0,0,42,13Zm-1,9H20V15H41Z"/>
      <path d="M42,34H19a1,1,0,0,0-1,1v7a1,1,0,0,0,1,1H42a1,1,0,0,0,1-1V35A1,1,0,0,0,42,34Zm-1,7H20V36H41Z"/>
      <path d="M42,26H19a1,1,0,0,0,0,2H42a1,1,0,0,0,0-2Z"/>
      <path d="M42,30H19a1,1,0,0,0,0,2H42a1,1,0,0,0,0-2Z"/>
    </g>
  </g>
</svg>
