<svg xmlns="http://www.w3.org/2000/svg" viewBox="0 0 48 48">
  <title>cloud-reload</title>
  <g id="cloud-reload">
    <g>
      <path d="M44,1H4A3,3,0,0,0,1,4V44a3,3,0,0,0,3,3H44a3,3,0,0,0,3-3V4A3,3,0,0,0,44,1ZM4,3H44a1,1,0,0,1,1,1V9H3V4A1,1,0,0,1,4,3ZM44,45H4a1,1,0,0,1-1-1V11H45V44A1,1,0,0,1,44,45Z"/>
      <path d="M6,7.5A1.5,1.5,0,1,0,4.5,6,1.5,1.5,0,0,0,6,7.5Zm0-2a.5.5,0,1,1-.5.5A.5.5,0,0,1,6,5.5Z"/>
      <path d="M10,7.5A1.5,1.5,0,1,0,8.5,6,1.5,1.5,0,0,0,10,7.5Zm0-2a.5.5,0,1,1-.5.5A.5.5,0,0,1,10,5.5Z"/>
      <path d="M14,7.5A1.5,1.5,0,1,0,12.5,6,1.5,1.5,0,0,0,14,7.5Zm0-2a.5.5,0,1,1-.5.5A.5.5,0,0,1,14,5.5Z"/>
      <path d="M31.988,28.032a1,1,0,0,0-1.219.718,6.971,6.971,0,0,1-12.785,1.777l1.773.443a1,1,0,0,0,.484-1.94l-3.437-.859a.988.988,0,0,0-.661-.146.988.988,0,0,0-1.113.732l-1,4a1,1,0,1,0,1.939.485l.381-1.523a8.984,8.984,0,0,0,16.356-2.47A1,1,0,0,0,31.988,28.032Z"/>
      <path d="M33.242,20.03a1,1,0,0,0-1.212.728l-.381,1.523a8.984,8.984,0,0,0-16.356,2.47,1,1,0,0,0,1.938.5,6.971,6.971,0,0,1,12.785-1.777l-1.773-.443a1,1,0,0,0-.484,1.94l3.44.86a.991.991,0,0,0,.539.17,1.033,1.033,0,0,0,.13-.016A1.048,1.048,0,0,0,32,26a1,1,0,0,0,.969-.757l1-4A1,1,0,0,0,33.242,20.03Z"/>
    </g>
  </g>
</svg>
