<svg xmlns="http://www.w3.org/2000/svg" viewBox="0 0 48 48">
  <title>loack49</title>
  <g id="loack">
    <g>
      <path d="M44,1H4A3,3,0,0,0,1,4V44a3,3,0,0,0,3,3H44a3,3,0,0,0,3-3V4A3,3,0,0,0,44,1ZM4,3H44a1,1,0,0,1,1,1V9H3V4A1,1,0,0,1,4,3ZM44,45H4a1,1,0,0,1-1-1V11H45V44A1,1,0,0,1,44,45Z"/>
      <path d="M6,7.5A1.5,1.5,0,1,0,4.5,6,1.5,1.5,0,0,0,6,7.5Zm0-2a.5.5,0,1,1-.5.5A.5.5,0,0,1,6,5.5Z"/>
      <path d="M10,7.5A1.5,1.5,0,1,0,8.5,6,1.5,1.5,0,0,0,10,7.5Zm0-2a.5.5,0,1,1-.5.5A.5.5,0,0,1,10,5.5Z"/>
      <path d="M14,7.5A1.5,1.5,0,1,0,12.5,6,1.5,1.5,0,0,0,14,7.5Zm0-2a.5.5,0,1,1-.5.5A.5.5,0,0,1,14,5.5Z"/>
      <path d="M28.236,16.528a9,9,0,0,0-12.075,4.025,1,1,0,1,0,1.789.895,7,7,0,0,1,9.392-3.13A7.028,7.028,0,0,1,31.181,25H16a1,1,0,0,0-1,1v9a3,3,0,0,0,3,3H30a3,3,0,0,0,3-3V26.367a.962.962,0,0,0,.07-.188A9.046,9.046,0,0,0,28.236,16.528ZM31,35a1,1,0,0,1-1,1H18a1,1,0,0,1-1-1V27H31Z"/>
      <path d="M24,33a1,1,0,0,0,1-1V30a1,1,0,0,0-2,0v2A1,1,0,0,0,24,33Z"/>
    </g>
  </g>
</svg>
