<svg xmlns="http://www.w3.org/2000/svg" viewBox="0 0 48 48">
  <title>settings-ui</title>
  <g id="settings-ui">
    <g>
      <path d="M13,28H12V15a1,1,0,0,0-2,0V28H9a1,1,0,0,0-1,1v7a1,1,0,0,0,1,1h1v4a1,1,0,0,0,2,0V37h1a1,1,0,0,0,1-1V29A1,1,0,0,0,13,28Zm-1,7H10V30h2Z"/>
      <path d="M22,19H21V15a1,1,0,0,0-2,0v4H18a1,1,0,0,0-1,1v7a1,1,0,0,0,1,1h1V41a1,1,0,0,0,2,0V28h1a1,1,0,0,0,1-1V20A1,1,0,0,0,22,19Zm-1,7H19V21h2Z"/>
      <path d="M31,25H30V15a1,1,0,0,0-2,0V25H27a1,1,0,0,0-1,1v7a1,1,0,0,0,1,1h1v7a1,1,0,0,0,2,0V34h1a1,1,0,0,0,1-1V26A1,1,0,0,0,31,25Zm-1,7H28V27h2Z"/>
      <path d="M39,18H38V15a1,1,0,0,0-2,0v3H35a1,1,0,0,0-1,1v7a1,1,0,0,0,1,1h1V41a1,1,0,0,0,2,0V27h1a1,1,0,0,0,1-1V19A1,1,0,0,0,39,18Zm-1,7H36V20h2Z"/>
      <path d="M44,1H4A3,3,0,0,0,1,4V44a3,3,0,0,0,3,3H44a3,3,0,0,0,3-3V4A3,3,0,0,0,44,1ZM4,3H44a1,1,0,0,1,1,1V9H3V4A1,1,0,0,1,4,3ZM44,45H4a1,1,0,0,1-1-1V11H45V44A1,1,0,0,1,44,45Z"/>
      <path d="M6,7.5A1.5,1.5,0,1,0,4.5,6,1.5,1.5,0,0,0,6,7.5Zm0-2a.5.5,0,1,1-.5.5A.5.5,0,0,1,6,5.5Z"/>
      <path d="M10,7.5A1.5,1.5,0,1,0,8.5,6,1.5,1.5,0,0,0,10,7.5Zm0-2a.5.5,0,1,1-.5.5A.5.5,0,0,1,10,5.5Z"/>
      <path d="M14,7.5A1.5,1.5,0,1,0,12.5,6,1.5,1.5,0,0,0,14,7.5Zm0-2a.5.5,0,1,1-.5.5A.5.5,0,0,1,14,5.5Z"/>
    </g>
  </g>
</svg>
