<svg xmlns="http://www.w3.org/2000/svg" viewBox="0 0 48 48">
  <title>browser-close</title>
  <g id="browser-close">
    <g>
      <path d="M6,7.5A1.5,1.5,0,1,0,4.5,6,1.5,1.5,0,0,0,6,7.5Zm0-2a.5.5,0,1,1-.5.5A.5.5,0,0,1,6,5.5Z"/>
      <path d="M10,7.5A1.5,1.5,0,1,0,8.5,6,1.5,1.5,0,0,0,10,7.5Zm0-2a.5.5,0,1,1-.5.5A.5.5,0,0,1,10,5.5Z"/>
      <path d="M14,7.5A1.5,1.5,0,1,0,12.5,6,1.5,1.5,0,0,0,14,7.5Zm0-2a.5.5,0,1,1-.5.5A.5.5,0,0,1,14,5.5Z"/>
      <path d="M43.778,28.222A10.948,10.948,0,0,0,37,25.052V4a3,3,0,0,0-3-3H4A3,3,0,0,0,1,4V34a3,3,0,0,0,3,3H25.053a11,11,0,1,0,18.725-8.778ZM4,3H34a1,1,0,0,1,1,1V9H3V4A1,1,0,0,1,4,3ZM3,34V11H35V25.052A10.969,10.969,0,0,0,25.053,35H4A1,1,0,0,1,3,34Zm39.364,8.364a9,9,0,1,1,0-12.729A9.013,9.013,0,0,1,42.364,42.364Z"/>
      <path d="M40.243,31.757a1,1,0,0,0-1.414,0L36,34.586l-2.829-2.829a1,1,0,0,0-1.414,1.414L34.586,36l-2.829,2.829a1,1,0,1,0,1.414,1.414L36,37.414l2.829,2.829a1,1,0,0,0,1.414-1.414L37.414,36l2.829-2.829A1,1,0,0,0,40.243,31.757Z"/>
      <path d="M7,20h7a1,1,0,0,0,0-2H7a1,1,0,0,0,0,2Z"/>
      <path d="M26,24a1,1,0,0,0,0-2H7a1,1,0,0,0,0,2Z"/>
    </g>
  </g>
</svg>
