<svg xmlns="http://www.w3.org/2000/svg" viewBox="0 0 48 48">
  <title>details</title>
  <g id="details">
    <g>
      <path d="M44,1H4A3,3,0,0,0,1,4V44a3,3,0,0,0,3,3H44a3,3,0,0,0,3-3V4A3,3,0,0,0,44,1ZM4,3H44a1,1,0,0,1,1,1V9H3V4A1,1,0,0,1,4,3ZM44,45H4a1,1,0,0,1-1-1V11H45V44A1,1,0,0,1,44,45Z"/>
      <path d="M6,7.5A1.5,1.5,0,1,0,4.5,6,1.5,1.5,0,0,0,6,7.5Zm0-2a.5.5,0,1,1-.5.5A.5.5,0,0,1,6,5.5Z"/>
      <path d="M10,7.5A1.5,1.5,0,1,0,8.5,6,1.5,1.5,0,0,0,10,7.5Zm0-2a.5.5,0,1,1-.5.5A.5.5,0,0,1,10,5.5Z"/>
      <path d="M14,7.5A1.5,1.5,0,1,0,12.5,6,1.5,1.5,0,0,0,14,7.5Zm0-2a.5.5,0,1,1-.5.5A.5.5,0,0,1,14,5.5Z"/>
      <path d="M41,13H7a1,1,0,0,0-1,1v6a1,1,0,0,0,1,1H41a1,1,0,0,0,1-1V14A1,1,0,0,0,41,13Zm-1,6H8V15H40Z"/>
      <path d="M41,36.96H7a1,1,0,0,0-1,1V42a1,1,0,0,0,1,1H41a1,1,0,0,0,1-1V37.96A1,1,0,0,0,41,36.96ZM40,41H8V38.96H40Z"/>
      <path d="M7,26H24a1,1,0,0,0,0-2H7a1,1,0,0,0,0,2Z"/>
      <path d="M41,28H7a1,1,0,0,0,0,2H41a1,1,0,0,0,0-2Z"/>
      <path d="M41,32H7a1,1,0,0,0,0,2H41a1,1,0,0,0,0-2Z"/>
    </g>
  </g>
</svg>
