<svg xmlns="http://www.w3.org/2000/svg" viewBox="0 0 48 48">
  <title>5-column</title>
  <g id="_5-column" data-name="5-column">
    <g>
      <path d="M44,1H4A3,3,0,0,0,1,4V44a3,3,0,0,0,3,3H44a3,3,0,0,0,3-3V4A3,3,0,0,0,44,1ZM4,3H44a1,1,0,0,1,1,1V9H3V4A1,1,0,0,1,4,3ZM44,45H4a1,1,0,0,1-1-1V11H45V44A1,1,0,0,1,44,45Z"/>
      <path d="M6,7.5A1.5,1.5,0,1,0,4.5,6,1.5,1.5,0,0,0,6,7.5Zm0-2a.5.5,0,1,1-.5.5A.5.5,0,0,1,6,5.5Z"/>
      <path d="M10,7.5A1.5,1.5,0,1,0,8.5,6,1.5,1.5,0,0,0,10,7.5Zm0-2a.5.5,0,1,1-.5.5A.5.5,0,0,1,10,5.5Z"/>
      <path d="M14,7.5A1.5,1.5,0,1,0,12.5,6,1.5,1.5,0,0,0,14,7.5Zm0-2a.5.5,0,1,1-.5.5A.5.5,0,0,1,14,5.5Z"/>
      <path d="M11,13H7a2,2,0,0,0-2,2V41a2,2,0,0,0,2,2h4a2,2,0,0,0,2-2V15A2,2,0,0,0,11,13ZM7,41V15h4V41Z"/>
      <path d="M21,13H17a2,2,0,0,0-2,2V41a2,2,0,0,0,2,2h4a2,2,0,0,0,2-2V15A2,2,0,0,0,21,13ZM17,41V15h4V41Z"/>
      <path d="M31,13H27a2,2,0,0,0-2,2V41a2,2,0,0,0,2,2h4a2,2,0,0,0,2-2V15A2,2,0,0,0,31,13ZM27,41V15h4V41Z"/>
      <path d="M41,13H37a2,2,0,0,0-2,2V41a2,2,0,0,0,2,2h4a2,2,0,0,0,2-2V15A2,2,0,0,0,41,13ZM37,41V15h4V41Z"/>
    </g>
  </g>
</svg>
