<svg xmlns="http://www.w3.org/2000/svg" viewBox="0 0 48 48">
  <title>statistics</title>
  <g id="statistics">
    <g>
      <path d="M44,1H4A3,3,0,0,0,1,4V44a3,3,0,0,0,3,3H44a3,3,0,0,0,3-3V4A3,3,0,0,0,44,1ZM4,3H44a1,1,0,0,1,1,1V9H3V4A1,1,0,0,1,4,3ZM44,45H4a1,1,0,0,1-1-1V11H45V44A1,1,0,0,1,44,45Z"/>
      <path d="M6,7.5A1.5,1.5,0,1,0,4.5,6,1.5,1.5,0,0,0,6,7.5Zm0-2a.5.5,0,1,1-.5.5A.5.5,0,0,1,6,5.5Z"/>
      <path d="M10,7.5A1.5,1.5,0,1,0,8.5,6,1.5,1.5,0,0,0,10,7.5Zm0-2a.5.5,0,1,1-.5.5A.5.5,0,0,1,10,5.5Z"/>
      <path d="M14,7.5A1.5,1.5,0,1,0,12.5,6,1.5,1.5,0,0,0,14,7.5Zm0-2a.5.5,0,1,1-.5.5A.5.5,0,0,1,14,5.5Z"/>
      <path d="M39.877,28.144l-3.1,3.012A1.988,1.988,0,0,0,36.016,31L30.9,20.605A1.973,1.973,0,0,0,31,20a2,2,0,1,0-3.624,1.159L22.15,30.015c-.05,0-.1-.015-.15-.015a1.972,1.972,0,0,0-.567.092l-4.062-4.338A2.466,2.466,0,0,0,17.5,25a2.5,2.5,0,1,0-4.927.573L7.334,30.254a1,1,0,1,0,1.332,1.491l5.119-4.574a2.419,2.419,0,0,0,2.26.093l4.011,4.284a2,2,0,1,0,3.747-.4l5.413-9.171c.04,0,.082-.006.121-.012L34.278,32A1.977,1.977,0,0,0,34,33a2,2,0,0,0,4,0,1.954,1.954,0,0,0-.023-.227l3.292-3.194a1,1,0,0,0-1.393-1.436Z"/>
    </g>
  </g>
</svg>
