<svg xmlns="http://www.w3.org/2000/svg" viewBox="0 0 48 48">
  <title>cloud</title>
  <g id="cloud">
    <g>
      <path d="M44,1H4A3,3,0,0,0,1,4V44a3,3,0,0,0,3,3H44a3,3,0,0,0,3-3V4A3,3,0,0,0,44,1ZM4,3H44a1,1,0,0,1,1,1V9H3V4A1,1,0,0,1,4,3ZM44,45H4a1,1,0,0,1-1-1V11H45V44A1,1,0,0,1,44,45Z"/>
      <path d="M6,7.5A1.5,1.5,0,1,0,4.5,6,1.5,1.5,0,0,0,6,7.5Zm0-2a.5.5,0,1,1-.5.5A.5.5,0,0,1,6,5.5Z"/>
      <path d="M10,7.5A1.5,1.5,0,1,0,8.5,6,1.5,1.5,0,0,0,10,7.5Zm0-2a.5.5,0,1,1-.5.5A.5.5,0,0,1,10,5.5Z"/>
      <path d="M14,7.5A1.5,1.5,0,1,0,12.5,6,1.5,1.5,0,0,0,14,7.5Zm0-2a.5.5,0,1,1-.5.5A.5.5,0,0,1,14,5.5Z"/>
      <path d="M34,25a7.994,7.994,0,0,0-15.925-1A7,7,0,1,0,18,38H29a7,7,0,0,0,4.933-11.963A8.088,8.088,0,0,0,34,25Zm0,6a5.006,5.006,0,0,1-5,5H18a5,5,0,0,1,0-10,4.938,4.938,0,0,1,.836.077L20,26.185V25a6,6,0,1,1,11.878,1.208l-.119.583.455.382A4.993,4.993,0,0,1,34,31Z"/>
    </g>
  </g>
</svg>
