<svg xmlns="http://www.w3.org/2000/svg" viewBox="0 0 48 48">
  <title>load</title>
  <g id="load">
    <g>
      <path d="M44,1H4A3,3,0,0,0,1,4V44a3,3,0,0,0,3,3H44a3,3,0,0,0,3-3V4A3,3,0,0,0,44,1ZM4,3H44a1,1,0,0,1,1,1V9H3V4A1,1,0,0,1,4,3ZM44,45H4a1,1,0,0,1-1-1V11H45V44A1,1,0,0,1,44,45Z"/>
      <path d="M6,7.5A1.5,1.5,0,1,0,4.5,6,1.5,1.5,0,0,0,6,7.5Zm0-2a.5.5,0,1,1-.5.5A.5.5,0,0,1,6,5.5Z"/>
      <path d="M10,7.5A1.5,1.5,0,1,0,8.5,6,1.5,1.5,0,0,0,10,7.5Zm0-2a.5.5,0,1,1-.5.5A.5.5,0,0,1,10,5.5Z"/>
      <path d="M14,7.5A1.5,1.5,0,1,0,12.5,6,1.5,1.5,0,0,0,14,7.5Zm0-2a.5.5,0,1,1-.5.5A.5.5,0,0,1,14,5.5Z"/>
      <path d="M24,15A13,13,0,1,0,37,28,13.014,13.014,0,0,0,24,15Zm0,24A11,11,0,1,1,35,28,11.012,11.012,0,0,1,24,39Z"/>
      <path d="M28.293,23.293,21,30.586l-2.293-2.293a1,1,0,0,0-1.414,1.414l3,3a1,1,0,0,0,1.414,0l8-8a1,1,0,0,0-1.414-1.414Z"/>
    </g>
  </g>
</svg>
