<svg xmlns="http://www.w3.org/2000/svg" viewBox="0 0 48 48">
  <title>tick</title>
  <g id="tick">
    <g>
      <path d="M41,2H7A5.006,5.006,0,0,0,2,7V41a5.006,5.006,0,0,0,5,5H41a5.006,5.006,0,0,0,5-5V7A5.006,5.006,0,0,0,41,2ZM7,4H41a3,3,0,0,1,3,3V8H4V7A3,3,0,0,1,7,4ZM41,44H7a3,3,0,0,1-3-3V10H44V41A3,3,0,0,1,41,44Z"/>
      <path d="M7.29,6.71a1.448,1.448,0,0,0,.33.22,1.03,1.03,0,0,0,1.09-.22,1.171,1.171,0,0,0,.21-.33A.838.838,0,0,0,9,6a1.052,1.052,0,0,0-.29-.71,1.033,1.033,0,0,0-1.42,0A1.05,1.05,0,0,0,7,6a1,1,0,0,0,.08.38A1.162,1.162,0,0,0,7.29,6.71Z"/>
      <path d="M10.29,6.71a1.448,1.448,0,0,0,.33.22,1.03,1.03,0,0,0,1.09-.22,1.171,1.171,0,0,0,.21-.33A.838.838,0,0,0,12,6a1.052,1.052,0,0,0-.29-.71,1.033,1.033,0,0,0-1.42,0A1.05,1.05,0,0,0,10,6a1,1,0,0,0,.08.38A1.162,1.162,0,0,0,10.29,6.71Z"/>
      <path d="M13.29,6.71a1.448,1.448,0,0,0,.33.22,1.03,1.03,0,0,0,1.09-.22,1.171,1.171,0,0,0,.21-.33A.838.838,0,0,0,15,6a1.052,1.052,0,0,0-.29-.71,1.033,1.033,0,0,0-1.42,0A1.05,1.05,0,0,0,13,6a1,1,0,0,0,.08.38A1.162,1.162,0,0,0,13.29,6.71Z"/>
      <path d="M34.36,17.231l-17.3,14.416-4.354-4.354a1,1,0,0,0-1.414,1.414l5,5a1,1,0,0,0,1.347.062l18-15a1,1,0,0,0-1.28-1.537Z"/>
    </g>
  </g>
</svg>
