<svg xmlns="http://www.w3.org/2000/svg" viewBox="0 0 48 48">
  <title>wave</title>
  <g id="wave">
    <g>
      <path d="M41,2H7A5.006,5.006,0,0,0,2,7V41a5.006,5.006,0,0,0,5,5H41a5.006,5.006,0,0,0,5-5V7A5.006,5.006,0,0,0,41,2ZM4,10H44V25H36a1,1,0,0,0-.965.737l-1.688,6.19L30.992,13.871A1.041,1.041,0,0,0,30,13a1,1,0,0,0-.991.865L26.545,31.938,21.937,19.648a1,1,0,0,0-1.873,0L15.532,31.733,13.994,17.89a1,1,0,0,0-1.942-.206L9.279,26H4ZM7,4H41a3,3,0,0,1,3,3V8H4V7A3,3,0,0,1,7,4ZM41,44H7a3,3,0,0,1-3-3V28h6a1,1,0,0,0,.949-.684l1.56-4.681,1.5,13.475a1,1,0,0,0,.87.882,1.011,1.011,0,0,0,1.06-.641L21,22.848l5.063,13.5a1,1,0,0,0,1.927-.217l1.987-14.572,2.03,15.566a1,1,0,0,0,.923.869L33,38a1,1,0,0,0,.964-.737L36.764,27H44V41A3,3,0,0,1,41,44Z"/>
      <path d="M7.29,6.71a1.029,1.029,0,0,0,1.09.22,1.451,1.451,0,0,0,.33-.22,1.171,1.171,0,0,0,.21-.33A.838.838,0,0,0,9,6a1.052,1.052,0,0,0-.29-.71,1.017,1.017,0,0,0-1.09-.21,1.152,1.152,0,0,0-.33.21,1.03,1.03,0,0,0-.21.33.946.946,0,0,0,0,.76A1.162,1.162,0,0,0,7.29,6.71Z"/>
      <path d="M10.29,6.71a1.029,1.029,0,0,0,1.09.22,1.451,1.451,0,0,0,.33-.22,1.171,1.171,0,0,0,.21-.33A.838.838,0,0,0,12,6a1.052,1.052,0,0,0-.29-.71,1.017,1.017,0,0,0-1.09-.21,1.152,1.152,0,0,0-.33.21,1.03,1.03,0,0,0-.21.33.946.946,0,0,0,0,.76A1.162,1.162,0,0,0,10.29,6.71Z"/>
      <path d="M13.29,6.71a1.029,1.029,0,0,0,1.09.22,1.451,1.451,0,0,0,.33-.22,1.171,1.171,0,0,0,.21-.33A.838.838,0,0,0,15,6a1.052,1.052,0,0,0-.29-.71,1.017,1.017,0,0,0-1.09-.21,1.152,1.152,0,0,0-.33.21,1.03,1.03,0,0,0-.21.33.946.946,0,0,0,0,.76A1.162,1.162,0,0,0,13.29,6.71Z"/>
    </g>
  </g>
</svg>
