<svg xmlns="http://www.w3.org/2000/svg" viewBox="0 0 48 48">
  <title>close-page</title>
  <g id="close-page-2" data-name="close-page">
    <g>
      <path d="M8,7a1,1,0,0,0,.38-.08,1.161,1.161,0,0,0,.33-.21.989.989,0,0,0,.21-1.09,1.029,1.029,0,0,0-.21-.33,1.047,1.047,0,0,0-1.42,0,1.029,1.029,0,0,0-.21.33A1,1,0,0,0,7,6,.99.99,0,0,0,8,7Z"/>
      <path d="M11,7a.993.993,0,0,0,.71-.29,1.161,1.161,0,0,0,.21-.33.941.941,0,0,0,0-.76,1.029,1.029,0,0,0-.21-.33,1.161,1.161,0,0,0-.33-.21,1,1,0,0,0-1.09.21,1.029,1.029,0,0,0-.21.33A1,1,0,0,0,10,6a.99.99,0,0,0,1,1Z"/>
      <path d="M14,7a1.007,1.007,0,0,0,1-1,1,1,0,0,0-.08-.38,1.029,1.029,0,0,0-.21-.33,1,1,0,0,0-1.09-.21.9.9,0,0,0-.54.54A1,1,0,0,0,13,6a.951.951,0,0,0,.29.7A.961.961,0,0,0,14,7Z"/>
      <path d="M45.969,30.154A.943.943,0,0,0,46,30V7a5.006,5.006,0,0,0-5-5H7A5.006,5.006,0,0,0,2,7V41a5.006,5.006,0,0,0,5,5H30a.941.941,0,0,0,.154-.031A11.983,11.983,0,0,0,45.969,30.154ZM7,4H41a3,3,0,0,1,3,3V8H4V7A3,3,0,0,1,7,4ZM7,44a3,3,0,0,1-3-3V10H44V27.089A11.984,11.984,0,1,0,27.089,44Zm28,1A10,10,0,1,1,45,35,10.012,10.012,0,0,1,35,45Z"/>
      <path d="M39.242,30.758a1,1,0,0,0-1.414,0L35,33.586l-2.828-2.828a1,1,0,0,0-1.414,1.414L33.586,35l-2.828,2.828a1,1,0,1,0,1.414,1.414L35,36.414l2.828,2.828a1,1,0,0,0,1.414-1.414L36.414,35l2.828-2.828A1,1,0,0,0,39.242,30.758Z"/>
    </g>
  </g>
</svg>
