<svg xmlns="http://www.w3.org/2000/svg" viewBox="0 0 48 48">
  <title>minuse-page</title>
  <g id="minuse">
    <g>
      <path d="M7.29,6.71a1.029,1.029,0,0,0,.33.21.99.99,0,0,0,1.3-1.3,1.029,1.029,0,0,0-.21-.33,1.016,1.016,0,0,0-1.09-.21,1.029,1.029,0,0,0-.33.21,1.147,1.147,0,0,0-.21.33A.832.832,0,0,0,7,6a.989.989,0,0,0,.069.38A1.5,1.5,0,0,0,7.29,6.71Z"/>
      <path d="M10.62,6.92a.99.99,0,0,0,1.3-1.3,1.147,1.147,0,0,0-.21-.33,1.047,1.047,0,0,0-1.42,0,1.147,1.147,0,0,0-.21.33A1,1,0,0,0,10,6a.989.989,0,0,0,.29.71A1.029,1.029,0,0,0,10.62,6.92Z"/>
      <path d="M13.29,6.71a1.014,1.014,0,0,0,1.42,0A1.01,1.01,0,0,0,15,6a1,1,0,0,0-1.71-.71,1.029,1.029,0,0,0-.21.33A1,1,0,0,0,13,6a.832.832,0,0,0,.08.38A1.161,1.161,0,0,0,13.29,6.71Z"/>
      <path d="M45.969,30.154A.943.943,0,0,0,46,30V7a5.006,5.006,0,0,0-5-5H7A5.006,5.006,0,0,0,2,7V41a5.006,5.006,0,0,0,5,5H30a.941.941,0,0,0,.154-.031A11.983,11.983,0,0,0,45.969,30.154ZM7,4H41a3,3,0,0,1,3,3V8H4V7A3,3,0,0,1,7,4ZM7,44a3,3,0,0,1-3-3V10H44V27.089A11.984,11.984,0,1,0,27.089,44Zm28,1A10,10,0,1,1,45,35,10.012,10.012,0,0,1,35,45Z"/>
      <path d="M40,34H30a1,1,0,0,0,0,2H40a1,1,0,0,0,0-2Z"/>
    </g>
  </g>
</svg>
