<svg xmlns="http://www.w3.org/2000/svg" viewBox="0 0 48 48">
  <title>pages</title>
  <g id="pages">
    <g>
      <path d="M7.29,6.71a1.448,1.448,0,0,0,.33.22,1.03,1.03,0,0,0,1.09-.22,1.171,1.171,0,0,0,.21-.33.941.941,0,0,0,0-.76,1.037,1.037,0,0,0-.21-.33,1.154,1.154,0,0,0-.33-.21,1,1,0,0,0-.76,0,1.027,1.027,0,0,0-.33.21,1.149,1.149,0,0,0-.21.33.946.946,0,0,0,0,.76A1.162,1.162,0,0,0,7.29,6.71Z"/>
      <path d="M10.29,6.71a1.448,1.448,0,0,0,.33.22,1.03,1.03,0,0,0,1.09-.22,1.171,1.171,0,0,0,.21-.33.941.941,0,0,0,0-.76,1.037,1.037,0,0,0-.21-.33,1.154,1.154,0,0,0-.33-.21,1,1,0,0,0-.76,0,1.027,1.027,0,0,0-.33.21,1.149,1.149,0,0,0-.21.33.946.946,0,0,0,0,.76A1.162,1.162,0,0,0,10.29,6.71Z"/>
      <path d="M13.29,6.71a1.448,1.448,0,0,0,.33.22,1.03,1.03,0,0,0,1.09-.22,1.171,1.171,0,0,0,.21-.33.941.941,0,0,0,0-.76,1.037,1.037,0,0,0-.21-.33,1.154,1.154,0,0,0-.33-.21,1,1,0,0,0-.76,0,1.027,1.027,0,0,0-.33.21,1.149,1.149,0,0,0-.21.33.946.946,0,0,0,0,.76A1.162,1.162,0,0,0,13.29,6.71Z"/>
      <path d="M41,12H36V7a5.006,5.006,0,0,0-5-5H7A5.006,5.006,0,0,0,2,7V31a5.006,5.006,0,0,0,5,5h5v5a5.006,5.006,0,0,0,5,5H41a5.006,5.006,0,0,0,5-5V17A5.006,5.006,0,0,0,41,12Zm0,2a3,3,0,0,1,3,3v1H36V14ZM7,4H31a3,3,0,0,1,3,3V8H4V7A3,3,0,0,1,7,4ZM4,31V10H34V31a3,3,0,0,1-3,3H7A3,3,0,0,1,4,31ZM41,44H17a3,3,0,0,1-3-3V36H31a5.006,5.006,0,0,0,5-5V20h8V41A3,3,0,0,1,41,44Z"/>
    </g>
  </g>
</svg>
