<svg fill="#000" xmlns="http://www.w3.org/2000/svg" viewBox="0 0 114 10"><path d="M7.289,9.209V7.785H8.574V2.2H7.289V.771h4.769V2.2H10.774v5.59h1.284V9.209Z"/><path d="M13.2,9.209V7.785h1.09V2.2H13.2V.771h4.23l1.852,4.94L21.14.771h4.322V2.2h-1.09v5.59h1.09V9.209H21.211V7.785h1.024V2.2h-.2L19.419,9.209h-.91L15.863,2.2h-.2v5.59h1.1V9.209Z"/><path d="M30.872.64A4.628,4.628,0,0,1,34.313,1.9a4.2,4.2,0,0,1,1.254,3.075,4.185,4.185,0,0,1-1.258,3.08,4.635,4.635,0,0,1-3.437,1.259,4.531,4.531,0,0,1-3.479-1.3,4.293,4.293,0,0,1-1.215-3.043A4.217,4.217,0,0,1,27.425,1.9,4.63,4.63,0,0,1,30.872.64Zm0,1.543a2.167,2.167,0,0,0-1.649.729,3.026,3.026,0,0,0-.679,2.136,2.889,2.889,0,0,0,.668,1.992,2.144,2.144,0,0,0,1.659.745,2.184,2.184,0,0,0,1.653-.731A2.984,2.984,0,0,0,33.2,4.945a2.975,2.975,0,0,0-.65-1.995A2.1,2.1,0,0,0,30.869,2.183Z"/><path d="M36.271,9.209V7.785h1.134V2.2H36.271V.771h3.567l3.082,5.253V2.2h-1.1V.771h3.8V2.2H44.432V9.274H42.545L38.917,3.016v4.77h1.059V9.21h-3.7Z"/><path d="M48.779,4.715l2.545-2.541,2.538,2.541-2.538,2.54Z"/><path d="M57.252,9.209V7.785h1.131V2.2H57.252V.771h4.39V2.2H60.584v5.59h.983V9.209Zm4.962,0V7.785h1l-2.56-3.007L63.4,2.2h-1V.771h4.124V2.2H65.488L63.1,4.528l2.774,3.258h.87V9.209Z"/><path d="M67.634,2.194V.771h4.036V2.194h-.83V6.015a6.762,6.762,0,0,0,.063,1.1.913.913,0,0,0,.337.554,1.064,1.064,0,0,0,.692.219,1.177,1.177,0,0,0,.714-.207.928.928,0,0,0,.367-.516A6.013,6.013,0,0,0,73.1,5.906V2.195h-.821V.771h3.369V2.195H74.607V6.421a6.1,6.1,0,0,1-.092,1.255,1.874,1.874,0,0,1-.42.776,2.283,2.283,0,0,1-.95.626,4,4,0,0,1-1.43.238,4.28,4.28,0,0,1-1.593-.264,2.182,2.182,0,0,1-.981-.7,2.276,2.276,0,0,1-.413-.868,7.988,7.988,0,0,1-.092-1.471V2.194h-1Z"/><path d="M83.148.771h1.424V3.749H83.148a2.149,2.149,0,0,0-2.1-1.6,2.19,2.19,0,0,0-1.871.842,3.261,3.261,0,0,0-.634,2.017A2.9,2.9,0,0,0,79.209,7a2.183,2.183,0,0,0,1.708.761A2.14,2.14,0,0,0,82.4,7.188a2.908,2.908,0,0,0,.861-1.594l1.664.794a3.965,3.965,0,0,1-4.167,2.929,4.494,4.494,0,0,1-3.43-1.224,4.346,4.346,0,0,1-1.156-3.1,4.434,4.434,0,0,1,.6-2.335,3.871,3.871,0,0,1,1.614-1.51A4.932,4.932,0,0,1,80.62.64a4,4,0,0,1,2.528.788V.771Z"/><path d="M85.915,9.209V7.785h1.06V2.2h-1.06V.771H90V2.2h-.886V4.051h2.3V2.2h-.852V.771H94.6V2.2H93.546v5.59H94.6V9.209H90.558V7.785h.852v-2.3h-2.3v2.3H90V9.209Z"/><path d="M95.7,9.209V7.785h1.014V2.2H95.7V.771h7.445V3.446h-1.617V2.2H98.915V4.15h2.1V5.574h-2.1V7.787h2.613V6.524h1.617V9.211H95.7Z"/><path d="M113.061,7.785V9.209h-2.574l-1.916-3.691h-.954V7.786h1.06V9.21h-4.414V7.786h1.154V2.2h-1.154V.772h5.088a2.624,2.624,0,0,1,2.07.724,2.442,2.442,0,0,1,.635,1.644,2.2,2.2,0,0,1-1.459,2.1l1.371,2.546h1.093Zm-5.444-3.615h.752c.923,0,1.388-.332,1.388-1a.866.866,0,0,0-.318-.736,1.4,1.4,0,0,0-.871-.242h-.95V4.171Z"/><path d="M1.014,9.209V6.327H2.449A1.642,1.642,0,0,0,2.861,7.5a1.234,1.234,0,0,0,.883.375.917.917,0,0,0,.918-.9A.893.893,0,0,0,4.4,6.316a3.617,3.617,0,0,0-.953-.6A7.384,7.384,0,0,1,1.462,4.473,2.022,2.022,0,0,1,.94,3.01a2.172,2.172,0,0,1,.691-1.719A2.315,2.315,0,0,1,3.2.684a1.791,1.791,0,0,1,1.558.791v-.7H6.184V3.331H4.757a1.427,1.427,0,0,0-.408-.912A1.132,1.132,0,0,0,3.555,2.1a.94.94,0,0,0-.594.188.6.6,0,0,0-.242.493.752.752,0,0,0,.2.495,3.964,3.964,0,0,0,1.17.659,9.8,9.8,0,0,1,1.434.753,2.435,2.435,0,0,1,.791.874A2.567,2.567,0,0,1,6.605,6.8a2.365,2.365,0,0,1-.727,1.883,2.548,2.548,0,0,1-1.721.63,1.982,1.982,0,0,1-1.708-.825V9.21H1.014Z"/></svg>
